<svg width="50" height="50" viewBox="0 0 50 50" fill="none" xmlns="http://www.w3.org/2000/svg">
<path d="M14.5834 29.1666V22.7291C13.0834 22.0416 11.6875 21.2083 10.4167 20.2291V29.1666H14.5834ZM10.4167 37.4999H6.25004V33.3333H2.08337V29.1666H6.25004V14.5833H10.4167V17.5624C14.1667 20.8333 19.3125 22.9166 25 22.9166C30.6875 22.9166 35.8334 20.8333 39.5834 17.5624V14.5833H43.75V29.1666H47.9167V33.3333H43.75V37.4999H39.5834V33.3333H10.4167V37.4999ZM35.4167 22.7291V29.1666H39.5834V20.2291C38.3125 21.2083 36.9167 22.0416 35.4167 22.7291ZM33.3334 29.1666V23.5833C32 24.0624 30.6042 24.4166 29.1667 24.6666V29.1666H33.3334ZM27.0834 29.1666V24.9166L25 24.9999L22.9167 24.9166V29.1666H27.0834ZM20.8334 29.1666V24.6666C19.3959 24.4166 18 24.0624 16.6667 23.5833V29.1666H20.8334Z" fill="black"/>
</svg>
