<svg width="34" height="50" viewBox="0 0 34 50" fill="none" xmlns="http://www.w3.org/2000/svg">
<path d="M7.99783 38.317C7.94783 36.4233 8.05152 34.5212 7.87943 32.633C7.25795 31.6424 6.16876 32.3895 4.45232 31.5122C2.50194 30.3737 2.3019 28.3112 2.45039 26.516C2.46059 25.4921 3.1983 24.5916 4.48088 24.443C5.92714 24.2539 6.85083 25.4613 6.55699 26.4368C6.23788 27.4895 6.0228 28.8306 6.51929 29.565C6.95272 30.1933 8.36348 30.3737 8.32119 29.3049C8.12399 26.9194 7.80304 24.5371 7.69765 22.1488C7.59349 20.5922 8.29605 19.6177 9.90449 19.3112C11.4488 19.1102 12.8746 20.1513 12.9681 21.2789C13.4883 24.4735 12.0632 27.991 12.2729 30.8003C12.5721 31.8783 14.6178 31.5158 14.5139 29.9519C14.5082 28.7245 13.245 27.4373 14.0509 26.2823C14.9266 25.2696 16.6509 25.4517 17.3145 26.1814C18.9008 27.6396 18.5929 29.9229 18.0168 31.5246C17.5676 32.3482 16.6501 33.2985 15.2229 33.1542C14.4099 33.0206 12.8209 32.786 12.6206 34.2257C12.6128 35.6729 12.6601 37.1236 12.6737 38.5724L7.99766 38.3175L7.99783 38.317Z" fill="black" stroke="#0A0A09" stroke-width="3.82553"/>
<path d="M10.348 20.3941L9.17871 19.4958L8.98206 19.5012L9.06178 19.65L10.2524 20.6918L10.348 20.3941Z" fill="black"/>
<path d="M13.2767 19.0154L13.4574 18.3032L13.6488 18.2288L13.585 18.367L13.4574 19.0048L13.2767 19.0154Z" fill="black"/>
<path d="M14.0194 19.5768L14.3797 18.9317L14.7042 18.7649L14.5865 18.9066L14.3209 19.4645L14.0194 19.5768Z" fill="black"/>
<path d="M9.87035 24.1051L8.06985 24.0562L7.87927 24.2027L8.06488 24.2927L9.98938 24.4684L9.87035 24.1051Z" fill="black"/>
<path d="M10.0481 23.522L8.59639 23.2637L8.42432 23.359L8.56366 23.4544L10.1004 23.8302L10.0481 23.522Z" fill="black"/>
<path d="M10.173 25.2148L8.8361 25.2246L8.61523 25.059L8.88815 25.0848L10.0692 25.043L10.173 25.2148Z" fill="black"/>
<path d="M15.9836 22.1985L16.9517 22.1031L16.9066 21.8677L15.7733 21.9102L15.9836 22.1985Z" fill="black"/>
<path d="M4.79763 28.4212L3.99305 27.1855L3.80579 27.1252L3.83156 27.2921L4.60853 28.6701L4.79763 28.4212Z" fill="black"/>
<path d="M5.6355 28.6392L5.99159 27.2083L6.14882 27.0901L6.17905 27.2562L5.89565 28.8126L5.6355 28.6392Z" fill="black"/>
<path d="M7.03109 29.7562L8.44831 29.3491L8.62932 29.4262L8.50059 29.5354L7.01099 30.0682L7.03109 29.7562Z" fill="black"/>
<path d="M7.41092 31.7304C7.80806 31.7201 8.20538 31.7236 8.60258 31.7278C8.74454 31.7302 8.67981 31.7287 8.79679 31.7316C8.80971 31.7349 8.76277 31.9178 8.74984 31.9145C8.63154 31.9173 8.69695 31.9159 8.55363 31.9184C8.15689 31.9224 7.75999 31.9261 7.36334 31.9158C7.35025 31.9124 7.39782 31.727 7.41093 31.7304L7.41092 31.7304Z" fill="black"/>
<path d="M21.4003 31.4691C21.7045 31.3564 21.9917 31.204 22.2905 31.079C22.3265 31.059 22.3916 31.0319 22.4091 31.0255C22.4922 30.9702 22.5824 30.927 22.6706 30.8805C22.6808 30.8722 22.7978 31.0169 22.7876 31.0252C22.7058 31.0729 22.6181 31.1103 22.5361 31.1571C22.4602 31.2094 22.4822 31.1724 22.3977 31.2371C22.0985 31.3726 21.81 31.5348 21.4954 31.6345C21.4837 31.6412 21.3886 31.4758 21.4003 31.4691H21.4003Z" fill="black"/>
<path d="M14.8282 45.2658C15.2356 45.256 15.6432 45.2566 16.0506 45.2649C16.1517 45.2683 16.2527 45.2706 16.3538 45.2687C16.4527 45.2675 16.5516 45.2675 16.6506 45.2675C16.6635 45.2709 16.6166 45.4535 16.6036 45.4502C16.5049 45.4502 16.4062 45.4502 16.3075 45.4489C16.2057 45.4472 16.1041 45.4498 16.0023 45.4528C15.5951 45.461 15.1876 45.4617 14.7803 45.4519C14.7672 45.4485 14.815 45.2621 14.8282 45.2655L14.8282 45.2658Z" fill="black"/>
<path d="M10.0955 44.471C9.71866 44.4477 9.34222 44.4167 8.96475 44.4064C8.93102 44.4051 8.89726 44.4062 8.86357 44.4077C8.85166 44.4128 8.77932 44.2443 8.79124 44.2392C8.86486 44.2198 8.93834 44.2167 9.01514 44.2188C9.39718 44.219 9.77904 44.2453 10.1584 44.2899C10.1712 44.2944 10.1083 44.4751 10.0955 44.4707L10.0955 44.471Z" fill="black"/>
<path d="M13.0574 47.3592C13.1087 47.3527 13.1599 47.3463 13.2112 47.3399C13.2243 47.3353 13.2896 47.521 13.2765 47.5256C13.2249 47.5299 13.1733 47.5341 13.1217 47.5383C13.109 47.5429 13.0448 47.3637 13.0574 47.3592V47.3592Z" fill="black"/>
<path d="M13.5424 48.3421C13.8801 48.3652 14.2182 48.3774 14.5485 48.4564C14.5858 48.4732 14.6231 48.4753 14.6594 48.4855C14.6711 48.4908 14.5955 48.6564 14.5838 48.651C14.5458 48.6519 14.5083 48.6302 14.4705 48.63C14.1418 48.5735 13.8086 48.5645 13.4782 48.5213C13.4655 48.5167 13.5298 48.3376 13.5424 48.3421L13.5424 48.3421Z" fill="black"/>
<path d="M13.9112 49.5556C14.2199 49.6349 14.547 49.6946 14.8304 49.847C14.8412 49.8549 14.7296 50.0075 14.7188 49.9996C14.4338 49.8788 14.1267 49.8165 13.831 49.7283C13.8187 49.7226 13.899 49.5499 13.9113 49.5556H13.9112Z" fill="black"/>
<path d="M17.9748 34.2941C17.6287 34.2056 17.2763 34.1456 16.9306 34.0561C17.0422 34.0382 16.797 34.0414 16.8305 34.0351C16.8452 34.0323 16.8604 34.0381 16.8753 34.0367C16.8794 34.0363 16.8896 34.0292 16.8856 34.0303C16.7919 34.0565 16.8762 34.0525 16.7457 34.0391C16.6281 34.0123 16.507 34.0092 16.3869 34.0086C16.3795 34.0088 16.3721 34.0091 16.3646 34.0094C16.3518 34.0128 16.3031 33.8313 16.316 33.8278C16.356 33.8274 16.396 33.8274 16.436 33.8269C16.5648 33.83 16.6939 33.8384 16.8192 33.871C16.8079 33.8715 16.7959 33.8686 16.7854 33.8724C16.7781 33.8751 16.7623 33.8914 16.7698 33.8894C16.7845 33.8856 16.7943 33.8695 16.8092 33.8662C16.878 33.8513 16.9465 33.8693 17.0135 33.8821C17.362 33.9559 17.7138 34.0163 18.055 34.121C18.0673 34.1266 17.987 34.2994 17.9748 34.2937V34.2941Z" fill="black"/>
<path d="M22.5638 34.6173C22.8851 34.6097 23.2065 34.6108 23.5278 34.6177C23.5475 34.6182 23.5673 34.6189 23.587 34.6194C23.5998 34.6227 23.5534 34.8035 23.5406 34.8003C23.5205 34.8007 23.5005 34.8015 23.4804 34.8019C23.1591 34.8088 22.8375 34.81 22.5162 34.8024C22.5031 34.799 22.5507 34.6137 22.5638 34.6171L22.5638 34.6173Z" fill="black"/>
<path d="M4.79631 38.4722C4.49497 38.7506 4.18781 39.0271 3.84513 39.2608C3.77938 39.3013 3.71099 39.3371 3.64307 39.3737L3.68924 39.1367C4.02227 38.9068 4.31556 38.6324 4.62376 38.3746C4.63267 38.3625 4.80526 38.4602 4.79633 38.4723L4.79631 38.4722Z" fill="black"/>
<path d="M13.0114 39.7014C13.1513 39.761 13.2868 39.8836 13.4244 39.9758C13.4563 39.9877 13.4419 39.976 13.4682 40.0067C13.4735 40.0153 13.4337 40.2445 13.4284 40.2359C13.4095 40.2303 13.4228 40.2346 13.3886 40.2216C13.2498 40.141 13.1129 40.0302 12.9743 39.9457C12.9687 39.9377 13.0058 39.6933 13.0114 39.7014L13.0114 39.7014Z" fill="black"/>
<path d="M17.095 36.3196C17.5188 36.4251 17.9167 36.622 18.3477 36.6996C18.5375 36.6745 18.3173 36.7197 18.408 36.6857C18.4237 36.6767 18.5522 36.8984 18.5366 36.9075C18.4452 36.9506 18.3429 36.9597 18.243 36.9475C17.8008 36.8694 17.3865 36.6899 16.9605 36.5536C16.944 36.5441 17.0784 36.3101 17.095 36.3196L17.095 36.3196Z" fill="black"/>
<path d="M17.7859 29.4385C17.9735 29.6167 18.1224 29.8293 18.2923 30.0232C18.3981 30.1439 18.5118 30.2519 18.6078 30.3807C18.6816 30.4648 18.6534 30.5005 18.6228 30.6081C18.6157 30.6249 18.378 30.5237 18.3852 30.5069C18.4838 30.3292 18.4618 30.6576 18.3835 30.5233C18.2796 30.4037 18.1623 30.2976 18.0568 30.1792C17.89 29.9919 17.7451 29.7863 17.5722 29.6042C17.5605 29.5891 17.7742 29.4234 17.786 29.4385H17.7859Z" fill="black"/>
<path d="M20.4209 30.0919C20.6251 29.7454 20.8132 29.376 21.0887 29.0789L21.2137 29.0042L20.6615 30.2138C20.6528 30.2309 20.4123 30.1089 20.4209 30.0919L20.4209 30.0919Z" fill="black"/>
<path d="M7.47286 36.804C7.75821 36.5206 8.03388 36.211 8.37571 35.9935L8.51561 35.9529L7.67466 36.983C7.66201 36.9972 7.4602 36.8183 7.47286 36.804L7.47286 36.804Z" fill="black"/>
<path d="M3.34443 30.2658C2.94276 30.2459 2.53075 30.2001 2.13115 30.267L2 30.3304L3.31412 30.5339C3.33308 30.5361 3.36342 30.268 3.34447 30.2659L3.34443 30.2658Z" fill="black"/>
<path d="M10.3498 43.3129C9.94813 43.293 9.53612 43.2472 9.13652 43.3142L9.00537 43.3776L10.3195 43.5811C10.3385 43.5833 10.3688 43.3152 10.3498 43.3131L10.3498 43.3129Z" fill="black"/>
<path d="M12.4546 45.599C12.2943 45.5792 12.1299 45.5333 11.9704 45.6003L11.9181 45.6637L12.4425 45.8673C12.4501 45.8694 12.4622 45.6014 12.4546 45.5992L12.4546 45.599Z" fill="black"/>
<path d="M13.7284 20.49C14.0331 21.8081 14.5351 23.1719 14.6426 24.4444C14.7501 25.7169 14.4583 26.8397 14.3662 28.0374C14.6072 26.5067 15.2 24.7575 15.089 23.4454C14.9781 22.133 14.1819 21.4752 13.7284 20.4902L13.7284 20.49Z" fill="black"/>
<path d="M24.1341 18.9568C24.1341 18.9452 24.1075 18.9214 24.0751 18.9039C23.9667 18.8455 23.8755 18.6989 23.8076 18.4737C23.6768 18.0401 23.6497 17.8195 23.6493 17.1844C23.649 16.547 23.6864 16.1345 23.7879 15.6637C23.846 15.3947 23.9632 15.1208 24.0597 15.0286C24.1345 14.9571 24.1909 14.9525 24.3077 15.008C24.5669 15.1312 24.753 15.5033 24.8611 16.1142C24.9063 16.37 24.9161 17.0837 24.88 17.4819C24.851 17.8015 24.7652 18.2057 24.6785 18.4323C24.5903 18.6628 24.4397 18.8842 24.357 18.9049C24.3358 18.9103 24.3055 18.9289 24.2898 18.9462C24.2564 18.9831 24.1341 18.9914 24.1341 18.9567L24.1341 18.9568ZM19.4559 17.9241C19.3611 17.8292 19.3408 17.7656 19.3411 17.5646C19.3414 17.2807 19.3987 17.0373 19.6059 16.4386C19.668 16.2589 20.0116 15.5664 20.1187 15.4048C20.3483 15.0586 20.5679 14.796 20.7688 14.6274C21.1172 14.3352 21.417 14.4143 21.4914 14.8181C21.5423 15.0941 21.4037 15.6829 21.1678 16.1927C20.9591 16.6438 20.8774 16.7867 20.5581 17.2588C20.4062 17.4834 20.0622 17.8368 19.9328 17.9012C19.8934 17.9207 19.8355 17.9515 19.8038 17.9696C19.7628 17.9932 19.7158 18.0026 19.6403 18.0026C19.5359 18.0026 19.5332 18.0012 19.4559 17.9241L19.4559 17.9241ZM28.63 17.7014C28.5982 17.6912 28.5318 17.6566 28.4826 17.6244C28.37 17.5509 27.963 17.1496 27.8016 16.953C27.7345 16.8712 27.6721 16.7957 27.663 16.7852C27.6346 16.7525 27.4431 16.4798 27.3514 16.3414C27.0805 15.9326 26.7633 15.2523 26.6051 14.7406C26.5457 14.5486 26.5421 14.3492 26.5958 14.2258C26.6455 14.1117 26.7961 13.9625 26.9245 13.9001C27.0226 13.8524 27.0373 13.8499 27.1693 13.8581C27.3286 13.8681 27.4404 13.914 27.6135 14.0404C27.8227 14.1934 28.123 14.5786 28.3599 14.998C28.4506 15.1587 28.5473 15.3482 28.5473 15.3654C28.5473 15.3699 28.5987 15.4807 28.6614 15.612C28.7242 15.7433 28.7807 15.867 28.787 15.8869C28.7933 15.9068 28.8197 15.9659 28.8458 16.0183C28.8718 16.0707 28.9224 16.1803 28.9582 16.2617C28.9941 16.3432 29.0492 16.4652 29.0807 16.5327C29.3132 17.031 29.3326 17.0825 29.3319 17.201C29.3316 17.3184 29.2843 17.4103 29.1599 17.5373C29.0139 17.6863 28.7947 17.7543 28.63 17.7015L28.63 17.7014ZM16.0927 14.2683C15.9978 14.2413 15.9041 14.1841 15.8599 14.1262C15.8211 14.0753 15.8167 14.0577 15.8252 13.9863C15.8383 13.876 15.9315 13.7133 16.0622 13.5729C16.0834 13.5501 16.1287 13.5016 16.1628 13.4651C16.3235 13.2932 16.7493 12.9595 16.9522 12.8464C17.0067 12.8161 17.0913 12.7653 17.1401 12.7336C17.3506 12.5969 17.712 12.4367 17.9357 12.381C18.0882 12.343 18.2783 12.3405 18.3616 12.3753C18.4363 12.4066 18.4977 12.4619 18.4977 12.4981C18.4977 12.5128 18.5061 12.5333 18.5163 12.5435C18.5278 12.5549 18.5322 12.6004 18.5278 12.6614C18.5079 12.937 18.1229 13.3797 17.6023 13.7258C17.0879 14.0677 16.6427 14.2516 16.2746 14.2742C16.2019 14.2787 16.1201 14.2763 16.0928 14.2683L16.0927 14.2683ZM22.2001 14.0618C21.3525 13.9656 20.6405 13.6692 20.0266 13.1569C19.8846 13.0384 19.4575 12.5987 19.355 12.4654C18.8877 11.8577 18.6392 11.2042 18.5378 10.3167C18.5071 10.0489 18.5121 9.38617 18.5465 9.12662C18.5868 8.82358 18.6166 8.6351 18.638 8.54811C18.6503 8.49811 18.6687 8.41257 18.679 8.35802C18.6893 8.30348 18.7157 8.19934 18.7375 8.12661C18.7594 8.05388 18.7852 7.96363 18.7946 7.92606C18.8325 7.77614 18.9526 7.48345 19.0921 7.20098C19.3766 6.62536 19.7404 6.15065 20.2592 5.67819C20.5546 5.40923 20.6132 5.35793 20.6255 5.35784C20.6324 5.35779 20.679 5.31867 20.729 5.27092C20.8262 5.17811 21.0154 5.02977 21.181 4.9165C21.237 4.87827 21.3045 4.8299 21.3312 4.80906C21.4515 4.71489 21.7029 4.5596 21.8575 4.48397C22.0586 4.38555 22.1305 4.36019 22.3126 4.32351C22.4307 4.29971 22.4677 4.29871 22.5771 4.31628C22.7635 4.34625 22.8882 4.40839 22.9786 4.51644C23.0781 4.63537 23.1094 4.7225 23.1207 4.91165C23.1443 5.30695 23.0202 5.68586 22.7695 5.98485C22.6201 6.1631 22.5844 6.19551 22.4315 6.292C21.9454 6.59878 21.4013 7.13355 21.0862 7.61436C21.0327 7.69605 20.9676 7.79471 20.9416 7.83362C20.9156 7.87253 20.8943 7.90716 20.8943 7.9106C20.8943 7.91411 20.8599 7.99006 20.8179 8.07955C20.5305 8.69187 20.4072 9.21224 20.4075 9.81243C20.4076 10.4061 20.524 10.836 20.8098 11.3C20.9586 11.5416 21.1088 11.7144 21.4062 11.986C21.4665 12.041 21.7215 12.2015 21.8634 12.2736C22.4308 12.5622 23.2213 12.6404 23.9709 12.4823C24.1133 12.4523 24.1707 12.4374 24.3572 12.382C24.5032 12.3386 24.8639 12.1812 25.0435 12.0824C25.606 11.7732 26.1977 11.2615 26.5503 10.7794C26.8747 10.3359 27.058 9.9633 27.2498 9.3579C27.2844 9.24879 27.3372 8.95053 27.3655 8.7051C27.3955 8.4445 27.3959 8.23598 27.3666 7.99301L27.3447 7.80993L27.2537 7.68686C27.2037 7.61917 27.0959 7.49668 27.0141 7.41466C26.3969 6.79511 25.609 6.6684 24.666 7.03708C24.1388 7.24324 23.7016 7.52249 23.4714 7.80029C23.2902 8.01894 23.2103 8.20176 23.1842 8.45776C23.164 8.65603 23.2314 8.9438 23.356 9.19088C23.4408 9.35897 23.4911 9.4186 23.6646 9.55663C23.8337 9.6912 23.9526 9.76242 24.0332 9.77744C24.1077 9.79132 24.1667 9.74017 24.1667 9.66167C24.1667 9.58159 24.0931 9.3631 23.9912 9.14044C23.8259 8.77917 23.8119 8.60912 23.9314 8.41382C24.0466 8.22536 24.2979 8.0656 24.5551 8.01734C24.7111 7.98806 25.1543 8.00826 25.3072 8.05163C25.5211 8.11228 25.6844 8.20403 25.8317 8.34628C25.9842 8.49353 26.0547 8.58974 26.1369 8.7629C26.2305 8.96009 26.2566 9.08578 26.2554 9.33314C26.2551 9.50666 26.246 9.5816 26.2113 9.72239C26.1876 9.81828 26.1567 9.9187 26.1427 9.94553C26.1287 9.97239 26.1173 10.0032 26.1172 10.0142C26.117 10.0579 25.9753 10.3517 25.8771 10.5122C25.7784 10.6735 25.5543 10.9401 25.4759 10.9896C25.4513 11.0052 25.4005 11.0442 25.3631 11.0764C25.1947 11.2212 24.8855 11.3568 24.5699 11.4243C24.3316 11.4753 23.5352 11.4905 23.2589 11.4494C22.8669 11.391 22.7496 11.3309 22.5148 11.0684C22.3469 10.8807 22.0528 10.297 21.8446 9.73807C21.7525 9.49078 21.7229 9.37129 21.7012 9.15964C21.6765 8.91743 21.6916 8.71076 21.7534 8.44882C21.8226 8.15555 22.0505 7.71139 22.278 7.42664C22.3167 7.37809 22.3485 7.33345 22.3486 7.32747C22.3486 7.3215 22.3728 7.29014 22.4023 7.25779C22.4318 7.22546 22.4811 7.16966 22.5118 7.13382C22.7227 6.8881 23.1068 6.52602 23.3503 6.3434C23.4059 6.30173 23.4607 6.25633 23.4722 6.24251C23.4836 6.22871 23.4998 6.2174 23.5081 6.2174C23.5164 6.2174 23.5706 6.18107 23.6286 6.13663C23.7938 6.00998 24.2206 5.77854 24.4642 5.68348C24.9072 5.51056 25.2835 5.44628 25.7582 5.46243C26.0643 5.47287 26.2428 5.50026 26.5633 5.58606C26.9945 5.70149 27.4872 5.96228 27.8272 6.25497C27.9622 6.37129 28.1946 6.62153 28.2086 6.66586C28.2142 6.68282 28.2251 6.69673 28.2334 6.69673C28.247 6.69673 28.412 6.93008 28.4847 7.0521C28.5752 7.20396 28.6681 7.46037 28.7092 7.67194C28.719 7.72194 28.7385 7.82236 28.7525 7.89508C28.8273 8.28145 28.8607 9.03891 28.8294 9.63894C28.7963 10.2716 28.718 10.613 28.5052 11.0522C28.1953 11.692 27.6833 12.2457 26.9412 12.744C26.8445 12.8089 26.7577 12.862 26.7483 12.862C26.7389 12.862 26.7101 12.8793 26.6844 12.9006C26.5702 12.9947 25.8799 13.3547 25.5881 13.4724C25.5108 13.5035 25.4141 13.5437 25.3732 13.5616C25.1876 13.6429 24.4528 13.8703 24.3757 13.8703C24.3577 13.8703 24.3052 13.8812 24.259 13.8946C24.132 13.9313 23.7359 14 23.4348 14.0375C23.0925 14.0803 22.4701 14.0925 22.1997 14.0618L22.2001 14.0618ZM32.101 14.0099C32.0146 13.9685 31.8919 13.9113 31.8282 13.8826C31.474 13.723 30.6197 13.2637 30.1754 12.9938C30.1026 12.9497 29.9911 12.883 29.9274 12.8457C29.8638 12.8084 29.7692 12.7504 29.7173 12.7167C29.6653 12.683 29.5575 12.6148 29.4776 12.5652C29.1638 12.37 29.0869 12.3019 29.0101 12.1515C28.9776 12.0876 28.974 12.0614 28.9817 11.9472C28.9883 11.8504 28.9997 11.804 29.0252 11.7696C29.0442 11.7439 29.0597 11.7115 29.0597 11.6975C29.0597 11.6556 29.1759 11.5402 29.2653 11.4934C29.343 11.4528 29.3636 11.4497 29.5556 11.4502C29.7821 11.4505 29.8741 11.4695 30.1192 11.5652C30.4735 11.7036 30.8495 11.9196 31.3341 12.2631C31.6751 12.5048 31.8757 12.6499 31.9688 12.7222C32.0439 12.7806 32.162 12.863 32.3738 13.005C32.6022 13.1582 32.6879 13.2382 32.7238 13.332C32.8008 13.5335 32.6435 13.9903 32.4724 14.0618C32.3679 14.1054 32.2727 14.0922 32.101 14.0099L32.101 14.0099ZM15.8941 9.69539C15.4222 9.65991 15.001 9.58679 14.7701 9.50028C14.7156 9.47985 14.6303 9.44973 14.5806 9.4334C14.4439 9.38849 14.2654 9.2734 14.2039 9.19072C14.1743 9.1509 14.139 9.10656 14.1254 9.09216C14.0978 9.06298 14.0921 8.98511 14.1164 8.97007C14.125 8.9647 14.1554 8.91302 14.1839 8.85519C14.247 8.72703 14.3503 8.63776 14.5386 8.54872C14.6654 8.48871 14.8803 8.4141 14.985 8.3937C15.0122 8.38842 15.0866 8.3727 15.1503 8.35882C15.3868 8.30725 15.8058 8.27964 16.1751 8.2913C16.506 8.30172 16.6125 8.31058 16.8941 8.35074C17.3874 8.42114 17.8279 8.59322 17.9777 8.77417C18.0898 8.90946 18.1054 8.97572 18.0581 9.11447C17.9683 9.37804 17.5297 9.58249 16.8822 9.66259C16.685 9.68701 16.0587 9.7078 15.8941 9.69543L15.8941 9.69539ZM30.4252 9.582C30.3008 9.54607 30.0101 9.39551 29.9139 9.31719C29.7625 9.19384 29.7056 9.04081 29.7614 8.90717C29.807 8.7982 30.0387 8.63839 30.266 8.55916C30.307 8.54491 30.3813 8.51759 30.4313 8.49848C30.5382 8.45762 30.929 8.33925 31.0594 8.30824C31.3085 8.24904 31.3955 8.23015 31.5553 8.20066C32.0851 8.10286 32.7033 8.03283 33.2495 8.00875C33.5421 7.99583 33.6402 8.01923 33.7448 8.12688C33.8158 8.19992 33.8694 8.32541 33.8694 8.41871C33.8694 8.44547 33.8756 8.46357 33.883 8.45898C33.9025 8.44699 33.9075 8.61303 33.8887 8.63625C33.8799 8.64688 33.8605 8.69824 33.8453 8.75043C33.8004 8.90556 33.7155 8.96735 33.3892 9.08248C33.102 9.18381 32.2995 9.38066 31.9606 9.43295C31.8697 9.44698 31.773 9.46527 31.7457 9.47362C31.7015 9.48716 31.5762 9.50845 31.1589 9.5734C30.9602 9.60434 30.5208 9.60948 30.4256 9.58199L30.4252 9.582ZM18.0346 6.33295C17.9574 6.31602 17.816 6.27521 17.7206 6.24227C17.5111 6.16998 17.0339 5.93794 16.8564 5.82208C16.7857 5.77588 16.724 5.73811 16.7193 5.73811C16.7044 5.73811 16.4567 5.56944 16.2495 5.41826C15.9634 5.20942 15.5365 4.79994 15.3562 4.56126C15.1709 4.31593 15.0791 4.04871 15.1521 3.96717C15.1811 3.93485 15.1948 3.93299 15.3404 3.94203C15.6717 3.96264 16.4326 4.22506 17.0347 4.52633C17.4062 4.7123 17.6826 4.86563 17.8446 4.9757C17.9173 5.0251 18.019 5.09399 18.0705 5.12874C18.1861 5.20669 18.4087 5.39402 18.4644 5.46019C18.4871 5.48719 18.5329 5.53921 18.5661 5.57575C18.6441 5.66166 18.7262 5.82536 18.7388 5.92008C18.7618 6.09191 18.6691 6.24484 18.4974 6.31871C18.3672 6.37476 18.2429 6.37857 18.0346 6.33293L18.0346 6.33295ZM28.6665 5.83694C28.5251 5.80769 28.311 5.65909 28.2554 5.55154C28.2185 5.48025 28.2224 5.35738 28.2642 5.27097C28.3302 5.13463 28.6118 4.85356 28.9426 4.59384C29.0779 4.48763 29.8606 3.95828 30.3001 3.67569C30.5416 3.5205 30.6821 3.46544 30.7943 3.48204C30.8751 3.49396 31.0264 3.55279 31.0264 3.5722C31.0264 3.57868 31.0441 3.59212 31.0658 3.602C31.1087 3.62153 31.2352 3.77795 31.2825 3.86991C31.2993 3.90251 31.3122 3.96329 31.3122 4.0104C31.3123 4.14698 31.2628 4.23021 31.0632 4.42808C30.8719 4.61778 30.5925 4.87669 30.5056 4.94473C30.4766 4.96745 30.3941 5.03242 30.3223 5.0891C30.0776 5.28213 30.0264 5.32035 29.8776 5.42059C29.4223 5.72744 28.9395 5.89337 28.6664 5.83693L28.6665 5.83694ZM20.3653 4.15609C20.2453 4.11209 20.1774 4.06123 19.9673 3.85803C19.7614 3.65895 19.6837 3.57537 19.4952 3.34963C19.4308 3.27254 19.2884 3.07815 19.2227 2.97773C19.1485 2.86433 19.0099 2.61966 19.01 2.60226C19.01 2.59512 18.9955 2.55955 18.9777 2.52317C18.8714 2.30559 18.7818 1.99466 18.7443 1.71325C18.6969 1.35667 18.7651 0.821937 18.898 0.510552C18.939 0.414438 18.9823 0.398361 19.0812 0.442505C19.1773 0.485315 19.5486 0.861236 19.5936 0.961181C19.5999 0.974806 19.6351 1.02688 19.6721 1.07688C19.7382 1.16627 19.7926 1.24823 19.9436 1.48597C20.293 2.03585 20.6321 2.86656 20.7551 3.4736C20.8245 3.81654 20.829 3.86127 20.8031 3.94859C20.7558 4.10781 20.6697 4.16868 20.495 4.16652C20.4373 4.16621 20.3789 4.1611 20.3653 4.15617L20.3653 4.15609ZM24.7081 4.05082C24.4464 3.98842 24.3023 3.76312 24.27 3.36615C24.2545 3.17565 24.2731 2.43633 24.2985 2.24218C24.373 1.6688 24.42 1.43621 24.5392 1.05171C24.7305 0.434369 24.8709 0.175468 25.0667 0.0796428C25.1173 0.0548609 25.1588 0.0273327 25.1588 0.0185216C25.1588 -0.00589925 25.2658 -0.000598894 25.3186 0.0264612C25.3443 0.039665 25.4174 0.0735167 25.4811 0.101759C25.5447 0.130004 25.625 0.180542 25.6595 0.214088C25.7223 0.275164 25.8034 0.422103 25.8034 0.474782C25.8034 0.490219 25.8122 0.532259 25.8229 0.568249C25.8598 0.691366 25.7908 1.67027 25.7124 2.1348C25.6978 2.22117 25.6787 2.33645 25.67 2.391C25.6215 2.69262 25.484 3.23983 25.4311 3.34218C25.4176 3.36811 25.4066 3.40341 25.4066 3.42059C25.4066 3.45897 25.3217 3.63471 25.2491 3.74637C25.1878 3.84084 25.0395 3.98664 24.9677 4.02315C24.9022 4.05637 24.7841 4.06901 24.708 4.05088L24.7081 4.05082ZM24.0225 18.8828C23.9091 18.7752 23.846 18.6617 23.7813 18.4488C23.6592 18.0466 23.6331 17.8224 23.6332 17.1761C23.6332 16.5305 23.6723 16.1147 23.7791 15.6245C23.8535 15.2825 24.0037 14.9971 24.127 14.9631C24.2168 14.9383 24.351 14.989 24.4585 15.0883C24.7432 15.3513 24.9279 16.045 24.9271 16.8485C24.9268 17.7348 24.7409 18.5465 24.4754 18.8264C24.3789 18.9282 24.289 18.978 24.2019 18.978C24.1282 18.978 24.1159 18.9714 24.0225 18.8829V18.8828ZM19.574 18.019C19.469 17.9944 19.3746 17.8948 19.3408 17.7731C19.3019 17.6332 19.3323 17.2803 19.4071 17.0008C19.5111 16.613 19.6223 16.3233 19.8223 15.92C20.1247 15.3098 20.4086 14.9124 20.7458 14.6271C21.054 14.3663 21.3125 14.3697 21.4533 14.6365C21.6341 14.9789 21.4174 15.8305 20.9259 16.7089C20.4487 17.5616 19.898 18.0953 19.574 18.019L19.574 18.019ZM28.6199 17.7145C28.5011 17.6752 28.4136 17.6068 28.145 17.343C27.7973 17.0015 27.5544 16.6989 27.2894 16.2769C27.0561 15.9053 26.7293 15.1958 26.5977 14.7751C26.5559 14.6415 26.5472 14.5861 26.5472 14.4528C26.5472 14.31 26.5528 14.2806 26.5944 14.1927C26.6545 14.0662 26.7793 13.9491 26.9236 13.8836C27.0242 13.838 27.0461 13.8342 27.1681 13.8406C27.4453 13.8551 27.7105 14.0368 27.9958 14.4075C28.1502 14.6081 28.4439 15.088 28.5262 15.2742C28.5487 15.3248 28.5896 15.4146 28.6173 15.4737C28.645 15.5327 28.7605 15.7856 28.8741 16.0356C29.3827 17.1549 29.3675 17.1164 29.3506 17.2397C29.3286 17.4005 29.1623 17.6013 28.9834 17.6832C28.8729 17.7338 28.7186 17.7471 28.6199 17.7145L28.6199 17.7145ZM16.0643 14.277C15.9669 14.2507 15.8698 14.1844 15.8298 14.1168C15.774 14.0223 15.8179 13.8569 15.9413 13.6969C16.1863 13.3792 16.5425 13.0767 17.0047 12.7939C17.2864 12.6215 17.4175 12.553 17.6376 12.4631C17.8754 12.3659 17.9852 12.3416 18.1861 12.3415C18.3582 12.3415 18.3637 12.3426 18.4257 12.3925C18.6103 12.5409 18.5854 12.761 18.3484 13.0762C17.9395 13.6199 17.0238 14.1818 16.3818 14.283C16.2441 14.3047 16.1613 14.3031 16.0643 14.277L16.0643 14.277ZM22.2496 14.0828C21.5055 14.0139 20.8445 13.772 20.2629 13.3557C19.4173 12.7504 18.8541 11.9293 18.632 10.9778C18.5272 10.5286 18.5077 10.3431 18.5071 9.78777C18.5068 9.48948 18.5145 9.2424 18.527 9.1514C18.5382 9.06959 18.5557 8.93942 18.5657 8.86215C18.5876 8.69474 18.6828 8.23965 18.7299 8.07703C18.9571 7.29261 19.344 6.60778 19.9009 6.00444C20.0849 5.8051 20.645 5.29773 20.8427 5.15142C20.8673 5.13326 20.9391 5.07699 21.0023 5.02641C21.0655 4.97584 21.1694 4.89827 21.233 4.85402C21.2966 4.80976 21.4063 4.73362 21.4768 4.68481C21.6376 4.57337 21.9836 4.39482 22.121 4.35238C22.3245 4.28953 22.4578 4.27646 22.6061 4.30483C22.7761 4.33736 22.8847 4.38855 22.9705 4.47678C23.0888 4.59829 23.1421 4.75436 23.1421 4.97896C23.1421 5.32698 23.0266 5.68996 22.8383 5.93358C22.7268 6.07786 22.5748 6.2262 22.4864 6.27707C22.0514 6.52743 21.4819 7.07148 21.1385 7.56468C20.7124 8.17678 20.4525 8.94595 20.421 9.6887C20.3903 10.4083 20.5892 11.0307 21.0213 11.5676C21.4081 12.0484 21.9191 12.3592 22.5223 12.4803C23.3397 12.6445 24.2022 12.5088 24.9904 12.0918C25.578 11.7808 26.1945 11.2435 26.5906 10.6969C26.8562 10.3304 27.0814 9.86354 27.2138 9.40488C27.3502 8.93231 27.3984 8.45791 27.3543 8.02285C27.3332 7.81449 27.3294 7.80631 27.1626 7.60137C26.8338 7.19763 26.3757 6.92661 25.9106 6.86065C25.7521 6.83822 25.4169 6.85058 25.2396 6.88551C24.7522 6.98151 24.1924 7.22902 23.7934 7.52493C23.5022 7.74094 23.3002 8.00798 23.232 8.26715C23.1666 8.51595 23.2073 8.83831 23.3398 9.12126C23.4335 9.32118 23.4912 9.39508 23.6595 9.53008C23.8378 9.67323 23.9611 9.74878 24.0406 9.7637C24.0903 9.77302 24.1016 9.76869 24.1267 9.73031C24.1779 9.65225 24.1483 9.55143 23.9084 8.98615C23.8501 8.84877 23.8453 8.82537 23.8454 8.68035C23.8454 8.54239 23.851 8.51307 23.8895 8.43881C23.9493 8.32415 24.1289 8.16294 24.2749 8.09268C24.4584 8.00447 24.608 7.98045 24.9106 7.99063C25.218 8.00095 25.3634 8.0342 25.5827 8.14404C26.0443 8.37532 26.3325 8.93372 26.2691 9.47398C26.2302 9.806 26.1092 10.1527 25.9204 10.4736C25.7265 10.8029 25.413 11.106 25.107 11.2598C24.7577 11.4354 24.4503 11.4891 23.7887 11.4898C23.2631 11.4901 22.9394 11.4353 22.7453 11.3119C22.5617 11.1953 22.3206 10.8566 22.1231 10.4379C21.9236 10.0151 21.7561 9.57622 21.7093 9.35397C21.6684 9.15986 21.6688 8.77119 21.7096 8.57291C21.8325 7.98292 22.1785 7.42162 22.7946 6.81251C23.3959 6.21808 24.0136 5.81391 24.6455 5.60143C25.0123 5.47811 25.3315 5.43311 25.7527 5.44532C26.0083 5.45271 26.0969 5.46238 26.2901 5.50398C26.9104 5.63746 27.3768 5.85651 27.8116 6.21847C28.067 6.43112 28.3714 6.80735 28.5394 7.11812C28.7836 7.56972 28.9029 8.57546 28.8434 9.67977C28.8119 10.2655 28.7313 10.6145 28.53 11.0381C28.3468 11.4234 28.1274 11.727 27.778 12.0788C27.4544 12.4045 27.2116 12.5929 26.6786 12.9314C26.2287 13.2172 25.5585 13.5285 25.0009 13.7108C24.6033 13.8407 24.5079 13.865 24.0257 13.9589C23.3749 14.0856 22.7499 14.1292 22.2487 14.0828H22.2496ZM32.1257 14.0423C31.4661 13.75 30.38 13.1569 29.638 12.6836C29.5517 12.6285 29.4215 12.5465 29.3488 12.5014C29.1784 12.3957 29.0743 12.3031 29.0156 12.2051C28.9737 12.1352 28.9687 12.1112 28.9687 11.9861C28.9688 11.8664 28.9758 11.8304 29.0163 11.7426C29.2081 11.3266 29.691 11.3172 30.4821 11.714C30.8127 11.8798 31.2074 12.1406 31.9287 12.6701C32.0045 12.7258 32.1933 12.8602 32.3484 12.969C32.6691 13.1939 32.7014 13.2233 32.7366 13.3232C32.7804 13.4472 32.7638 13.5992 32.6837 13.8086C32.575 14.0929 32.4027 14.1651 32.1256 14.0423L32.1257 14.0423ZM15.9022 9.71269C15.1735 9.6633 14.609 9.51987 14.297 9.30482C14.1961 9.23522 14.1006 9.09592 14.1006 9.01828C14.1006 8.93323 14.2166 8.74666 14.3216 8.66288C14.5392 8.4892 14.9323 8.36205 15.4477 8.29871C15.7016 8.26746 16.4227 8.27303 16.7039 8.30827C17.3261 8.38639 17.7491 8.53117 17.9628 8.73912C18.0392 8.81343 18.0696 8.85665 18.0841 8.91151C18.1348 9.10347 18.0145 9.30381 17.7719 9.43113C17.5385 9.55358 17.2475 9.634 16.8668 9.68122C16.6813 9.70422 16.0713 9.72413 15.9022 9.71264L15.9022 9.71269ZM30.4146 9.59826C30.2638 9.54907 29.9761 9.39308 29.883 9.31014C29.7174 9.16248 29.6765 9.00481 29.767 8.86223C29.7927 8.82181 29.8393 8.76927 29.8705 8.74545C30.1153 8.55904 30.8627 8.31269 31.5908 8.17843C32.1521 8.07493 33.2027 7.97019 33.467 7.99139C33.5929 8.00152 33.7309 8.06416 33.7833 8.13499C33.8503 8.22564 33.9045 8.40687 33.905 8.54231C33.9051 8.61019 33.8987 8.67482 33.8902 8.68591C33.8818 8.69701 33.8658 8.73813 33.8546 8.77729C33.8089 8.93696 33.6467 9.02724 33.1254 9.18308C32.891 9.25314 32.2657 9.39795 31.9435 9.45678C31.889 9.46677 31.7663 9.48928 31.6708 9.50686C31.5754 9.52444 31.4452 9.54658 31.3816 9.55606C31.3179 9.56556 31.2175 9.58131 31.1584 9.59109C30.9735 9.62179 30.5007 9.62632 30.4146 9.59825L30.4146 9.59826ZM18.1584 6.37448C18.1402 6.37046 18.0845 6.35881 18.0345 6.3489C17.572 6.25707 16.8857 5.90605 16.2163 5.41895C16.0308 5.28393 15.7633 5.04128 15.5592 4.82283C15.2773 4.52104 15.1286 4.27379 15.1133 4.08125C15.1062 3.99212 15.1098 3.97477 15.14 3.9475C15.2725 3.828 16.206 4.10202 17.0098 4.49637C17.5512 4.76201 18.0419 5.06296 18.3184 5.29902C18.4823 5.43893 18.6345 5.6205 18.7009 5.75538C18.8538 6.06589 18.6717 6.36045 18.317 6.37642C18.2481 6.37953 18.1768 6.37873 18.1586 6.37436L18.1584 6.37448ZM28.6494 5.84615C28.5269 5.81956 28.4542 5.77805 28.3369 5.66785C28.1309 5.47431 28.1648 5.3012 28.4695 4.99085C28.676 4.78067 28.721 4.74188 29.0344 4.50459C29.3734 4.24794 30.4599 3.5451 30.593 3.49629C30.7221 3.44898 30.7653 3.44874 30.9046 3.49423C30.9985 3.52506 31.0333 3.54853 31.1365 3.65042C31.2737 3.78586 31.3264 3.88487 31.329 4.01251C31.3321 4.14976 31.2715 4.24771 31.0475 4.46929C30.248 5.26019 29.4526 5.78166 28.936 5.8535C28.7838 5.87468 28.7813 5.8746 28.6494 5.84598L28.6494 5.84615ZM20.4384 4.1853C20.2979 4.165 20.2132 4.11481 20.023 3.93928C19.7318 3.67039 19.4419 3.33314 19.2329 3.02007C18.716 2.24582 18.5835 1.42374 18.8442 0.609861C18.9104 0.403022 18.9589 0.36553 19.0806 0.427007C19.4209 0.598866 19.9921 1.41773 20.3801 2.28982C20.6158 2.81962 20.8301 3.56829 20.8301 3.86208C20.8301 4.00321 20.7296 4.15624 20.6228 4.17764C20.5946 4.18321 20.5604 4.19007 20.5468 4.19266C20.5331 4.19498 20.4844 4.19236 20.4384 4.18538L20.4384 4.1853ZM24.7077 4.06839C24.5073 4.02058 24.3684 3.87036 24.2885 3.61511C24.2606 3.52609 24.2576 3.45844 24.2581 2.95396C24.2584 2.59262 24.2661 2.34181 24.2794 2.25149C24.2909 2.17421 24.3078 2.05149 24.3173 1.97875C24.4032 1.31315 24.6858 0.442577 24.8953 0.197901C24.9849 0.0933062 25.1386 0.00360622 25.2283 0.00360622C25.2657 0.00360622 25.3448 0.0230091 25.4041 0.0467187C25.6685 0.152491 25.7853 0.286534 25.8381 0.544788C25.8953 0.824338 25.7472 2.25571 25.6052 2.79589C25.5967 2.82828 25.5738 2.91801 25.5544 2.99529C25.499 3.21531 25.3947 3.52121 25.3377 3.63073C25.2369 3.8244 25.1021 3.97402 24.9683 4.04067C24.9015 4.07395 24.7837 4.08647 24.7077 4.06839L24.7077 4.06839ZM24.0483 18.9227C23.9513 18.8487 23.9008 18.78 23.8405 18.64C23.6817 18.2717 23.6215 17.8718 23.6214 17.1854C23.6212 16.1418 23.768 15.3401 24.0147 15.0367C24.0967 14.9358 24.1868 14.9209 24.3253 14.9854C24.7337 15.1756 24.9819 16.0588 24.9273 17.1276C24.8985 17.6907 24.8309 18.0941 24.7108 18.4206C24.5384 18.889 24.2703 19.0923 24.0483 18.9228V18.9227ZM19.5425 18.0236C19.4767 18.0029 19.3955 17.9255 19.3597 17.8493C19.1957 17.5005 19.4553 16.5429 19.9615 15.6294C20.1904 15.2164 20.3728 14.9707 20.6426 14.7117C20.9581 14.4088 21.1808 14.3468 21.3702 14.5089C21.5419 14.6559 21.5691 14.9904 21.4488 15.4762C21.3302 15.9554 21.0385 16.5872 20.6981 17.1021C20.4182 17.5255 20.0707 17.8841 19.8395 17.988C19.7572 18.025 19.6051 18.0432 19.5425 18.0236L19.5425 18.0236ZM28.6543 17.733C28.5353 17.7027 28.4884 17.6742 28.3315 17.5366C27.6123 16.9055 27.0405 16.0309 26.6537 14.9706C26.5599 14.7133 26.5308 14.586 26.5305 14.4315C26.5303 14.3203 26.537 14.292 26.5883 14.1896C26.6588 14.0487 26.7579 13.9532 26.9074 13.8824C27.004 13.8366 27.0344 13.8302 27.1501 13.8314C27.5457 13.8354 27.9236 14.1907 28.3874 14.9954C28.4897 15.1729 29.2738 16.8693 29.333 17.0413C29.3751 17.1639 29.3682 17.262 29.3091 17.3822C29.2454 17.5115 29.1257 17.6263 28.9884 17.6896C28.8624 17.7478 28.7627 17.7607 28.6542 17.7331L28.6543 17.733ZM16.0309 14.2814C15.9561 14.2616 15.8315 14.1551 15.8033 14.0871C15.7049 13.8496 16.2117 13.2828 16.9287 12.8286C17.2912 12.599 17.6645 12.4217 17.9187 12.3586C18.0818 12.3181 18.3204 12.3161 18.3919 12.3546C18.5048 12.4155 18.5735 12.5464 18.5592 12.6736C18.5287 12.9438 18.1361 13.4029 17.662 13.7229C17.2259 14.0171 16.778 14.2226 16.4404 14.2834C16.3219 14.3047 16.115 14.3037 16.0309 14.2813L16.0309 14.2814ZM22.3509 14.1006C21.3073 14.0262 20.4335 13.6271 19.695 12.8876C19.0273 12.2189 18.6661 11.47 18.5278 10.4671C18.4834 10.1459 18.4802 9.47886 18.5213 9.12758C18.641 8.10322 18.8914 7.38809 19.3982 6.62338C19.7039 6.16202 20.0558 5.79404 20.722 5.23898C21.2738 4.77916 21.7766 4.45803 22.1268 4.34171C22.5373 4.20537 22.9412 4.32274 23.0814 4.6192C23.2033 4.87688 23.1624 5.34733 22.9865 5.71171C22.8816 5.92894 22.6555 6.18688 22.4733 6.29715C22.0485 6.55427 21.5623 7.00616 21.2319 7.45084C20.5828 8.32475 20.2928 9.49291 20.4895 10.4415C20.6438 11.1861 21.1597 11.8745 21.8279 12.2272C22.0263 12.332 22.2883 12.4237 22.5439 12.478C22.7402 12.5197 22.7808 12.5225 23.1833 12.5231C23.5537 12.5234 23.6416 12.5186 23.8199 12.4874C24.6307 12.3452 25.3546 11.9589 26.0546 11.2947C26.9055 10.4875 27.389 9.34633 27.351 8.23484C27.3385 7.8722 27.3293 7.8288 27.2392 7.71069C26.955 7.33793 26.5674 7.05077 26.1966 6.9382C25.9926 6.87626 25.8886 6.86142 25.6597 6.86153C25.2246 6.86168 24.8355 6.96741 24.3122 7.22755C23.9592 7.40305 23.7429 7.55194 23.5541 7.74949C23.3674 7.94478 23.2917 8.07621 23.2389 8.29672C23.1748 8.56403 23.2187 8.85603 23.3674 9.15218C23.4679 9.35231 23.4989 9.38969 23.6906 9.54242C24.1707 9.9249 24.2561 9.80365 23.9665 9.15074C23.8088 8.79519 23.7906 8.63089 23.8864 8.42708C23.9611 8.2682 24.2292 8.07503 24.4642 8.01074C24.5985 7.97401 24.8796 7.96239 25.066 7.98586C25.4194 8.03032 25.642 8.12647 25.8482 8.32356C26.1627 8.62428 26.2956 8.95406 26.2783 9.39064C26.2576 9.9131 25.9955 10.499 25.6047 10.8966C25.159 11.3499 24.6971 11.5064 23.8017 11.5073C23.3503 11.5076 22.996 11.4526 22.7941 11.3503C22.5873 11.2454 22.3844 10.9805 22.146 10.5039C21.9845 10.181 21.7877 9.69296 21.727 9.46491C21.5543 8.81623 21.7373 8.09527 22.247 7.41668C22.6074 6.93683 23.1458 6.42987 23.6634 6.08307C24.4584 5.55046 25.2587 5.34481 26.0927 5.4588C26.2617 5.48191 26.6285 5.57316 26.8195 5.63965C27.5516 5.89458 28.1828 6.43527 28.5499 7.12208C28.7829 7.55782 28.9003 8.47053 28.8601 9.53243C28.8388 10.094 28.7915 10.3857 28.6611 10.7579C28.5561 11.0575 28.3215 11.4681 28.0888 11.7599C27.823 12.093 27.4003 12.47 26.9682 12.7595C25.9314 13.454 24.7622 13.8943 23.5367 14.0516C23.1008 14.1075 22.6889 14.1245 22.3508 14.1004L22.3509 14.1006ZM32.2246 14.096C32.1022 14.0568 31.1839 13.5993 30.8361 13.4042C30.7997 13.3838 30.7179 13.3382 30.6543 13.3027C30.2382 13.071 29.6542 12.7154 29.2614 12.4546C28.949 12.2472 28.8751 12.0251 29.016 11.7174C29.068 11.6038 29.1934 11.4882 29.308 11.4483C29.4928 11.384 29.8234 11.4207 30.1183 11.5383C30.5127 11.6955 30.8992 11.9209 31.4398 12.3086C31.6532 12.4618 32.0064 12.7134 32.2246 12.8678C32.4427 13.0222 32.6446 13.1706 32.6732 13.1975C32.7386 13.2592 32.7838 13.4071 32.7687 13.5105C32.7017 13.9726 32.5037 14.1856 32.2246 14.096V14.096ZM15.5951 9.6943C15.0593 9.63989 14.5148 9.47843 14.287 9.30645C14.0896 9.15741 14.0539 9.02673 14.1584 8.83656C14.31 8.56071 14.7599 8.36736 15.4297 8.29015C15.7124 8.25755 16.3362 8.25763 16.6456 8.29028C17.3777 8.36754 17.934 8.58485 18.067 8.84551C18.1106 8.93114 18.1101 9.07569 18.0659 9.16765C17.898 9.5146 17.1863 9.72308 16.1872 9.71802C15.98 9.71697 15.7137 9.70628 15.5956 9.69432L15.5951 9.6943ZM30.4464 9.61542C30.137 9.52359 29.828 9.3205 29.7454 9.15467C29.6992 9.06195 29.6927 9.00473 29.7201 8.93174C29.7716 8.79432 29.892 8.69264 30.1241 8.5905C30.8519 8.2702 31.885 8.06188 33.0828 7.99383C33.4836 7.97108 33.6087 7.98282 33.7109 8.05284C33.8318 8.13567 33.9047 8.31637 33.9068 8.5381C33.9082 8.67607 33.9045 8.69525 33.8509 8.80244C33.8022 8.90043 33.7803 8.92592 33.7065 8.97C33.5413 9.06861 33.1156 9.20456 32.603 9.32238C32.1513 9.42621 32.1087 9.43524 31.8596 9.47993C31.7324 9.50278 31.591 9.52873 31.5456 9.53758C31.1516 9.61447 30.5797 9.65495 30.4464 9.6154L30.4464 9.61542ZM17.9588 6.3399C17.4364 6.20098 16.8078 5.86845 16.1717 5.39454C15.8434 5.15003 15.4519 4.7553 15.2752 4.49067C15.1 4.22846 15.0481 4.02582 15.134 3.93992C15.1751 3.8988 15.1825 3.8974 15.3117 3.9067C15.6397 3.93022 16.3814 4.18001 16.9814 4.46905C17.4312 4.68572 17.9023 4.96373 18.1967 5.1862C18.443 5.37227 18.6238 5.57359 18.7132 5.76124C18.8232 5.992 18.7412 6.23964 18.521 6.34222C18.4043 6.39655 18.1681 6.39559 17.9589 6.3399H17.9588ZM28.5994 5.84562C28.4365 5.79215 28.2503 5.62909 28.2141 5.50826C28.1869 5.41749 28.2061 5.3107 28.2669 5.21486C28.4406 4.94089 28.8588 4.58862 29.5561 4.12877C30.5425 3.4783 30.5832 3.4554 30.7546 3.4554C30.8972 3.4554 31.0129 3.50945 31.1424 3.63662C31.3262 3.8172 31.3755 3.9698 31.3107 4.15789C31.2872 4.22616 31.2434 4.27941 31.0586 4.46404C30.3745 5.14755 29.6828 5.6395 29.1737 5.80465C28.9854 5.86573 28.7186 5.88475 28.5994 5.84562H28.5994ZM20.3538 4.17635C20.3175 4.1649 20.2617 4.14196 20.2299 4.12549C20.1504 4.08432 19.6029 3.53238 19.4506 3.33997C18.9994 2.76957 18.7672 2.23349 18.7077 1.62439C18.6772 1.3132 18.7133 0.99632 18.8191 0.645805C18.8923 0.40313 18.9271 0.363626 19.0365 0.399237C19.4484 0.533446 20.2491 1.78019 20.6015 2.83591C20.7761 3.35892 20.8664 3.81171 20.8254 3.95817C20.8002 4.04846 20.7208 4.14684 20.649 4.17681C20.5823 4.20471 20.4427 4.20451 20.3539 4.17651L20.3538 4.17635ZM24.6193 4.05037C24.5279 4.01465 24.4122 3.91054 24.3535 3.81104C24.332 3.77466 24.2973 3.68542 24.2763 3.61269C24.2404 3.48862 24.2381 3.45194 24.2381 3.01766C24.2381 2.41392 24.2768 2.02261 24.3876 1.5075C24.5029 0.971319 24.7347 0.359328 24.8906 0.179815C24.9832 0.0731758 25.1199 0.00111419 25.2296 0.00111419C25.3168 0.00111419 25.4741 0.0531165 25.5733 0.114756C25.7773 0.241449 25.8805 0.499016 25.8579 0.825409C25.8529 0.894774 25.8417 1.07798 25.8324 1.23252C25.8071 1.65447 25.7433 2.14715 25.657 2.58788C25.5886 2.93735 25.4345 3.46094 25.353 3.62095C25.2444 3.83433 25.0562 4.0293 24.9218 4.06788C24.8355 4.09263 24.7087 4.08527 24.6193 4.05038L24.6193 4.05037ZM24.0315 18.921C23.8959 18.8214 23.8035 18.641 23.7178 18.3086C23.6339 17.9832 23.6117 17.7431 23.612 17.1665C23.6123 16.5344 23.6495 16.1189 23.7436 15.6954C23.8631 15.1578 24.0282 14.8949 24.2203 14.9364C24.4141 14.9783 24.5988 15.1726 24.7139 15.4558C24.8831 15.8718 24.952 16.3489 24.9358 16.9921C24.9174 17.7193 24.8111 18.2742 24.6207 18.6356C24.491 18.8819 24.3743 18.9768 24.2016 18.976C24.1196 18.9757 24.0952 18.9677 24.0315 18.921V18.921ZM19.5458 18.0304C19.461 18.008 19.3651 17.9097 19.3313 17.8105C19.2829 17.6682 19.3029 17.2966 19.3733 17.0343C19.5169 16.4994 19.7243 16.009 20.0341 15.4719C20.2845 15.0378 20.6703 14.6051 20.9199 14.4784C21.0144 14.4304 21.0462 14.4227 21.1489 14.4227C21.2551 14.4227 21.2761 14.4282 21.3399 14.473C21.5034 14.5878 21.5666 14.8324 21.5181 15.1633C21.4543 15.5998 21.2773 16.0838 20.9791 16.6376C20.7271 17.1054 20.5151 17.4041 20.2391 17.6797C20.0346 17.8839 19.8923 17.9864 19.76 18.0249C19.66 18.054 19.637 18.0545 19.5457 18.0304L19.5458 18.0304ZM28.6095 17.7309C28.517 17.7009 28.4477 17.6529 28.2795 17.5025C27.556 16.8555 26.9557 15.9063 26.5982 14.8442C26.5298 14.641 26.5229 14.6062 26.5217 14.4557C26.5207 14.3047 26.5248 14.2821 26.5687 14.1938C26.6433 14.0443 26.7262 13.9617 26.8773 13.8861C26.9986 13.8253 27.0218 13.8194 27.1367 13.8199C27.3692 13.821 27.5827 13.9334 27.8188 14.179C27.9749 14.3413 28.1397 14.5682 28.3254 14.8759C28.4688 15.1137 28.5282 15.2361 28.9319 16.1252C29.0929 16.4797 29.2432 16.8107 29.2661 16.8607C29.3302 17.0011 29.3703 17.1251 29.3703 17.1826C29.3703 17.5196 28.9321 17.8354 28.6094 17.7309L28.6095 17.7309ZM16.0434 14.2906C15.8941 14.2495 15.7837 14.1314 15.7836 14.0125C15.7833 13.6776 16.5232 12.9965 17.3414 12.5785C17.7194 12.3854 17.9868 12.3067 18.2279 12.3177C18.3344 12.3226 18.3679 12.3312 18.4249 12.369C18.5732 12.4671 18.6027 12.6494 18.5036 12.8561C18.37 13.135 18.0647 13.4519 17.6678 13.7236C17.0238 14.1645 16.3898 14.3858 16.0434 14.2906L16.0434 14.2906ZM32.2819 14.1143C32.0015 14.0645 30.4942 13.2538 29.461 12.597C29.1671 12.4102 29.0857 12.3451 29.0119 12.2379C28.9492 12.1469 28.9486 12.1443 28.9486 11.9868C28.9486 11.847 28.9542 11.8154 28.9953 11.7265C29.0515 11.6049 29.1506 11.5036 29.2626 11.4533C29.3937 11.3943 29.6277 11.3909 29.851 11.4448C30.2659 11.5448 30.7604 11.811 31.4527 12.307C31.6664 12.4601 32.0085 12.7038 32.2131 12.8487C32.4176 12.9936 32.6158 13.1372 32.6536 13.168C32.7702 13.263 32.8018 13.4212 32.7493 13.6472C32.7169 13.787 32.6381 13.9621 32.58 14.0235C32.5072 14.1004 32.3953 14.1345 32.2819 14.1144L32.2819 14.1143ZM22.1634 14.0908C21.3582 14.0034 20.659 13.7118 20.0228 13.1983C19.8339 13.0457 19.4563 12.6612 19.3254 12.4881C18.8737 11.8906 18.6332 11.2942 18.5158 10.4806C18.4748 10.1962 18.4745 9.38159 18.5155 9.06734C18.5718 8.63348 18.6149 8.41299 18.7108 8.06833C18.9195 7.3178 19.3436 6.56627 19.8772 6.00114C20.0854 5.78058 20.196 5.67535 20.4694 5.43769C21.4643 4.57265 22.1478 4.20035 22.5918 4.28167C22.783 4.3167 22.8735 4.36066 22.9825 4.47146C23.0695 4.55987 23.0871 4.58898 23.1189 4.69619C23.1627 4.84392 23.1669 5.0443 23.131 5.26562C23.0545 5.7365 22.815 6.0862 22.3747 6.36966C22.2788 6.43144 22.1269 6.54292 22.0373 6.61742C21.2607 7.2628 20.766 8.02861 20.5455 8.92672C20.316 9.86139 20.4317 10.6725 20.8939 11.3682C21.0355 11.5813 21.3756 11.9303 21.572 12.0641C21.9513 12.3225 22.399 12.4733 22.912 12.5156C24.0412 12.6086 25.1362 12.1726 26.0699 11.2584C26.7521 10.5904 27.161 9.80307 27.3068 8.87717C27.3465 8.62469 27.3556 8.12793 27.3241 7.92921C27.3084 7.83013 27.2948 7.80119 27.2151 7.69779C26.9074 7.29813 26.5063 7.02146 26.0708 6.9084C25.863 6.85446 25.4583 6.85429 25.2049 6.9081C24.9412 6.96402 24.6632 7.06341 24.3646 7.20861C23.8118 7.47733 23.4928 7.7419 23.3287 8.06756C23.2502 8.22358 23.2214 8.35069 23.2214 8.54225C23.2214 8.75617 23.2624 8.91565 23.3776 9.15147C23.4722 9.34489 23.5302 9.41147 23.748 9.57695C23.9499 9.73037 24.0422 9.7683 24.0998 9.7216C24.1343 9.6937 24.135 9.68783 24.1156 9.58647C24.1044 9.5282 24.0442 9.3607 23.9818 9.21424C23.8308 8.86003 23.8099 8.78471 23.8212 8.63561C23.8336 8.4707 23.878 8.38099 24.0107 8.25246C24.0943 8.1714 24.1594 8.12686 24.271 8.07441C24.4716 7.98009 24.5928 7.96106 24.9183 7.9728C25.2192 7.98369 25.3926 8.02316 25.5997 8.12801C25.7584 8.20837 25.9529 8.39092 26.0635 8.56338C26.3771 9.05234 26.3695 9.59782 26.0393 10.274C25.9114 10.536 25.8358 10.6518 25.6702 10.8393C25.3839 11.1636 25.0165 11.3687 24.5602 11.4589C24.4174 11.4871 24.3028 11.4946 23.9134 11.5011C23.4167 11.5094 23.2606 11.4988 23.0147 11.4381C22.7448 11.3718 22.5813 11.2466 22.3928 10.962C22.1657 10.6192 21.8023 9.81196 21.7057 9.43587C21.667 9.28524 21.6619 9.23268 21.6607 8.97652C21.6604 8.75376 21.6663 8.65688 21.6892 8.55504C21.8275 7.94186 22.1896 7.36499 22.8147 6.76201C23.6308 5.97461 24.4065 5.55529 25.2598 5.44028C25.4532 5.41417 25.8873 5.41885 26.0928 5.44915C27.1752 5.60883 28.0171 6.17133 28.5399 7.08398C28.7969 7.53284 28.9212 8.55887 28.8572 9.70503C28.8374 10.0608 28.8201 10.1957 28.7651 10.4267C28.4919 11.5723 27.5652 12.5486 26.0395 13.2983C25.4693 13.5784 25.0304 13.7405 24.4528 13.8842C23.6426 14.0857 22.809 14.161 22.1635 14.0909L22.1634 14.0908ZM15.7742 9.72078C15.5117 9.70127 15.2433 9.65985 15.0091 9.60269C14.3988 9.45376 14.0973 9.26126 14.0973 9.02061C14.0973 8.90936 14.1753 8.75314 14.2706 8.6735C14.5567 8.43436 15.1106 8.28132 15.7833 8.25555C16.2726 8.23679 16.8773 8.28928 17.2403 8.38194C17.7225 8.50506 18.0405 8.69677 18.0964 8.89808C18.2038 9.28482 17.7522 9.58128 16.8825 9.69491C16.6476 9.7256 16.0323 9.73996 15.7742 9.7208L15.7742 9.72078ZM30.5767 9.63581C30.439 9.62603 30.388 9.61195 30.2213 9.53773C29.8083 9.35387 29.6216 9.10657 29.7274 8.88353C29.7631 8.80844 29.9006 8.68676 30.014 8.62996C30.3558 8.45879 30.9981 8.26467 31.5711 8.15931C32.0938 8.0632 33.0001 7.96809 33.3932 7.96809C33.7341 7.96809 33.9013 8.14608 33.9055 8.51354C33.9075 8.71644 33.8809 8.80726 33.7885 8.91014C33.726 8.97966 33.6914 9.00037 33.5408 9.05854C33.107 9.22611 32.3207 9.41666 31.5022 9.55256C31.0466 9.62821 30.7922 9.6511 30.5766 9.6358L30.5767 9.63581ZM18.0421 6.37187C17.313 6.20878 16.2323 5.55763 15.6041 4.90303C15.2744 4.55937 15.1077 4.29135 15.0926 4.08078C15.0811 3.92043 15.1003 3.90189 15.2775 3.9019C15.6012 3.90195 16.3473 4.15274 17.0476 4.49689C17.957 4.94375 18.5049 5.34897 18.6978 5.71729C18.7295 5.77791 18.7607 5.86256 18.767 5.90542C18.7927 6.07951 18.6975 6.26183 18.5386 6.34252C18.4298 6.39773 18.2147 6.41043 18.0421 6.37186L18.0421 6.37187ZM28.6411 5.86369C28.4496 5.82038 28.2384 5.6464 28.1968 5.49782C28.1796 5.43674 28.1796 5.40778 28.1969 5.34405C28.2496 5.14943 28.5721 4.819 29.0807 4.43882C29.1528 4.38487 29.8479 3.92393 30.2495 3.66372C30.4007 3.56574 30.5422 3.48714 30.6015 3.46813C30.7982 3.40506 30.9797 3.46197 31.1589 3.64298C31.2953 3.78074 31.3435 3.87665 31.343 4.00935C31.3427 4.16671 31.2976 4.24375 31.0843 4.45458C30.0738 5.45335 29.1591 5.98098 28.6411 5.86371L28.6411 5.86369ZM20.4032 4.19894C20.2439 4.16686 20.1887 4.12658 19.877 3.81563C19.4344 3.37398 19.192 3.0509 18.9847 2.62666C18.6543 1.95015 18.6042 1.30346 18.8271 0.59166C18.88 0.422793 18.9119 0.381164 18.9884 0.381164C19.1487 0.381164 19.4566 0.68213 19.7602 1.13572C20.3253 1.97983 20.7126 2.91958 20.8415 3.75917C20.8644 3.90801 20.8335 4.02268 20.7458 4.11465C20.6585 4.20613 20.5595 4.23051 20.4032 4.199L20.4032 4.19894ZM24.6881 4.0831C24.5873 4.05788 24.5055 4.00876 24.4326 3.92966C24.2458 3.72708 24.1972 3.4443 24.2286 2.7448C24.2386 2.52208 24.2539 2.28777 24.2627 2.22414C24.2715 2.16051 24.2902 2.02289 24.3043 1.91836C24.3908 1.27977 24.6647 0.446671 24.8727 0.189544C25.0321 -0.00751926 25.2465 -0.0521665 25.4879 0.0614368C25.7563 0.187764 25.8654 0.38652 25.8658 0.749924C25.8661 1.36224 25.7401 2.33152 25.5766 2.96794C25.434 3.52342 25.3361 3.73502 25.1237 3.94741C25.0022 4.06888 24.837 4.12034 24.6881 4.08309L24.6881 4.0831ZM24.0243 18.9263C23.891 18.8255 23.7891 18.6256 23.7084 18.3069C23.6157 17.9412 23.5843 17.4974 23.6053 16.8534C23.6353 15.9335 23.8008 15.204 24.0287 14.9868C24.129 14.8913 24.3298 14.9259 24.4755 15.064C24.6564 15.2355 24.812 15.6121 24.8935 16.0755C24.9436 16.36 24.9554 17.1063 24.916 17.4902C24.8505 18.1276 24.7071 18.5895 24.499 18.8334C24.4049 18.9436 24.3355 18.9765 24.1978 18.9759C24.1033 18.9756 24.0807 18.969 24.0243 18.9264L24.0243 18.9263ZM19.5266 18.0331C19.4589 18.0134 19.372 17.9258 19.3328 17.8378C19.1972 17.5332 19.3988 16.6856 19.795 15.895C20.2045 15.0778 20.6863 14.5116 21.0549 14.4143C21.1548 14.3879 21.2525 14.4059 21.3459 14.4678C21.4077 14.5086 21.4352 14.5427 21.4754 14.6282C21.5203 14.7238 21.5272 14.7577 21.5327 14.9137C21.5491 15.375 21.3468 15.9921 20.9352 16.7367C20.584 17.3718 20.1384 17.88 19.8165 18.0125C19.7224 18.0512 19.6149 18.0589 19.5266 18.0332L19.5266 18.0331ZM28.6613 17.7522C28.5106 17.7214 28.3917 17.6328 28.0702 17.3116C27.4395 16.6818 26.9363 15.8474 26.5968 14.8686C26.526 14.6647 26.5222 14.6441 26.5206 14.4637C26.5192 14.2838 26.5209 14.2684 26.5683 14.1762C26.6321 14.0501 26.7511 13.9348 26.8886 13.8658C26.988 13.8159 27.0114 13.8109 27.1388 13.8119C27.2503 13.8129 27.3 13.8217 27.3798 13.855C27.7155 13.9956 27.9629 14.2609 28.3431 14.888C28.459 15.0792 28.5642 15.2945 28.875 15.9761C29.3402 16.9966 29.3584 17.0406 29.3664 17.1609C29.3755 17.2981 29.342 17.3946 29.2461 17.5069C29.0834 17.6975 28.8572 17.7923 28.6612 17.7522L28.6613 17.7522ZM16.0093 14.289C15.9081 14.2567 15.7897 14.1424 15.7747 14.0627C15.7517 13.9401 15.8161 13.7975 15.9874 13.5918C16.3377 13.1708 16.9892 12.7091 17.6044 12.4457C17.876 12.3295 18.1775 12.2736 18.3218 12.3128C18.4838 12.3568 18.5887 12.5082 18.5716 12.6734C18.5486 12.8961 18.2816 13.2551 17.9261 13.5413C17.5176 13.8701 16.9778 14.1618 16.5821 14.2675C16.4098 14.3135 16.1199 14.3244 16.0092 14.289L16.0093 14.289ZM32.2207 14.11C32.0759 14.0645 31.3225 13.6912 30.8626 13.4371C30.3913 13.1767 29.8043 12.8283 29.4667 12.6088C29.3632 12.5414 29.2519 12.4702 29.2193 12.4505C29.1476 12.4072 29.003 12.257 28.9683 12.1899C28.9296 12.1152 28.9166 11.9655 28.9399 11.8651C28.9678 11.7452 29.048 11.5981 29.1218 11.5314C29.3268 11.3462 29.7246 11.3531 30.1959 11.55C30.4934 11.6743 30.9339 11.9238 31.2124 12.1257C31.3033 12.1916 31.4193 12.2741 31.47 12.3091C31.7949 12.533 32.6721 13.1678 32.697 13.197C32.7543 13.2643 32.7784 13.3448 32.7771 13.4643C32.775 13.6073 32.7452 13.728 32.6708 13.8872C32.6055 14.0271 32.5629 14.0721 32.4619 14.1077C32.3768 14.1377 32.3108 14.1384 32.2207 14.11L32.2207 14.11ZM22.0822 14.0907C21.6945 14.0418 21.2585 13.9196 20.9066 13.7613C20.2367 13.4597 19.5561 12.8754 19.145 12.2487C18.6439 11.4849 18.4179 10.5485 18.4761 9.47742C18.5497 8.12229 18.96 7.04285 19.75 6.12565C20.1217 5.69393 20.9341 4.99761 21.4603 4.65959C21.9986 4.31379 22.3531 4.20684 22.681 4.29137C23.0521 4.38703 23.2072 4.66571 23.1546 5.14243C23.097 5.66393 22.8721 6.04506 22.4603 6.31902C22.1113 6.55118 21.924 6.70573 21.6405 6.99548C21.4373 7.20316 21.3226 7.34007 21.1791 7.54588C20.812 8.07241 20.5748 8.67196 20.4763 9.32282C20.4259 9.65541 20.4356 10.1295 20.4987 10.414C20.6439 11.069 20.9929 11.6196 21.505 12.0019C21.8262 12.2417 22.1609 12.3839 22.6173 12.4745C22.8322 12.5171 23.5376 12.5175 23.7743 12.4748C24.2032 12.3978 24.5067 12.2984 24.8652 12.1174C25.1885 11.9542 25.3962 11.8193 25.7036 11.573C26.5794 10.8714 27.1289 9.94706 27.296 8.89453C27.3323 8.66596 27.3449 8.21017 27.3206 8.00052C27.3006 7.82791 27.3001 7.82633 27.2118 7.70881C27.0027 7.43048 26.71 7.18227 26.4353 7.0504C26.1663 6.92122 25.9626 6.87654 25.6431 6.87658C25.2186 6.87663 24.8161 6.98718 24.3018 7.24495C23.5423 7.6256 23.1911 8.06859 23.2256 8.60242C23.2375 8.78542 23.2772 8.92609 23.3741 9.12801C23.4615 9.31022 23.5124 9.37861 23.632 9.47447C23.8842 9.67669 23.9908 9.74098 24.0606 9.73291C24.1032 9.72788 24.1047 9.72438 24.103 9.62862C24.1009 9.52787 24.0533 9.38544 23.9309 9.11623C23.8568 8.95319 23.8344 8.88665 23.8165 8.77545C23.7979 8.66013 23.8186 8.50412 23.8645 8.41589C23.9162 8.31632 24.1087 8.14218 24.2384 8.07762C24.4319 7.98138 24.5344 7.96051 24.8155 7.96018C25.3165 7.95988 25.612 8.06339 25.8866 8.3364C26.1612 8.60939 26.2948 8.93425 26.2948 9.32858C26.2948 9.62813 26.2253 9.90344 26.0639 10.2423C25.8654 10.6593 25.6314 10.9484 25.3229 11.1576C24.9043 11.4416 24.444 11.5389 23.6336 11.5148C23.0469 11.4974 22.7868 11.4207 22.5673 11.2006C22.3519 10.9846 22.0498 10.4102 21.784 9.71125C21.6287 9.30304 21.6013 8.8996 21.7004 8.48072C21.8306 7.93043 22.17 7.39308 22.7559 6.80965C23.2123 6.35525 23.6626 6.01897 24.1305 5.78323C24.4572 5.61868 24.7879 5.50923 25.1543 5.44446C25.3477 5.41028 25.8742 5.40539 26.0799 5.43594C26.5773 5.5097 27.1223 5.70801 27.5014 5.95321C28.0514 6.30895 28.5532 6.93382 28.6917 7.43554C28.8346 7.95326 28.8647 8.25105 28.8649 9.14916C28.865 10.0453 28.8459 10.2226 28.6996 10.6781C28.5829 11.0417 28.3288 11.4936 28.0635 11.8095C27.7826 12.144 27.3672 12.5082 26.9408 12.7938C26.5803 13.0354 25.9159 13.3868 25.5089 13.5513C24.8932 13.8 24.2848 13.959 23.5262 14.0692C23.2184 14.1139 22.3681 14.1263 22.082 14.0903L22.0822 14.0907ZM15.6503 9.71824C15.2251 9.68162 14.7168 9.55798 14.452 9.42681C14.1984 9.30121 14.0966 9.18375 14.0966 9.01679C14.0966 8.63566 14.6102 8.35919 15.494 8.26463C15.7052 8.24201 16.3137 8.24188 16.5594 8.26433C17.3432 8.33599 17.9477 8.56212 18.0787 8.83264C18.1323 8.94326 18.1264 9.09299 18.0641 9.20152C17.916 9.45976 17.4645 9.63965 16.7856 9.71095C16.5264 9.7382 15.9263 9.74203 15.6503 9.71832L15.6503 9.71824ZM30.4272 9.62722C30.2783 9.58744 29.9706 9.42548 29.871 9.33449C29.742 9.21661 29.6918 9.1236 29.6934 9.00569C29.6965 8.78082 29.8993 8.6337 30.4851 8.43144C30.9369 8.2754 31.437 8.15963 31.9809 8.08515C32.7471 7.98021 33.4248 7.93957 33.6139 7.9872C33.7272 8.01576 33.8336 8.13002 33.875 8.26778C33.9156 8.40276 33.9177 8.70593 33.8781 8.79537C33.8378 8.88782 33.7484 8.97808 33.6581 9.0177C33.3043 9.17295 32.7132 9.33269 31.9474 9.48C31.1164 9.63986 30.6449 9.68549 30.4267 9.6272L30.4272 9.62722ZM18.1545 6.39666C17.7107 6.34826 16.9579 5.98631 16.2702 5.49064C15.7841 5.14028 15.3199 4.6578 15.1548 4.3313C15.0648 4.15346 15.0517 3.9622 15.1258 3.91029C15.2003 3.85806 15.4186 3.8836 15.766 3.9852C16.2405 4.12395 16.5429 4.24203 17.0305 4.47897C18.0128 4.95626 18.619 5.42683 18.7548 5.81724C18.7845 5.90242 18.7785 6.06443 18.7428 6.14288C18.653 6.34076 18.449 6.42875 18.1545 6.39664V6.39666ZM28.5737 5.85343C28.465 5.81865 28.3042 5.70082 28.2414 5.60981C28.1473 5.47365 28.1658 5.31203 28.2952 5.13932C28.4986 4.8676 28.8853 4.55098 29.5525 4.10989C30.5827 3.42873 30.5816 3.42936 30.7801 3.44232C30.9311 3.4522 31.0138 3.49406 31.1589 3.63414C31.3473 3.81598 31.3936 3.97352 31.3181 4.1754C31.2889 4.25332 31.2516 4.29988 31.0908 4.45875C30.3279 5.21266 29.5758 5.73034 29.0659 5.85259C28.8966 5.89316 28.6991 5.89351 28.5738 5.85364L28.5737 5.85343ZM20.3076 4.17995C20.0944 4.10564 19.5352 3.52553 19.2202 3.05182C18.8802 2.54068 18.7245 2.10005 18.6823 1.52978C18.6562 1.17611 18.788 0.523153 18.9084 0.409944C18.9679 0.35405 18.9938 0.353425 19.0976 0.405432C19.3334 0.523332 19.6802 0.950573 20.0305 1.55464C20.399 2.19033 20.6453 2.80499 20.791 3.45249C20.8522 3.72438 20.8669 3.87132 20.842 3.96309C20.8162 4.05841 20.7292 4.16726 20.6587 4.19256C20.5727 4.22342 20.416 4.2179 20.3076 4.18012L20.3076 4.17995ZM24.6588 4.08453C24.4633 4.02485 24.3456 3.88976 24.2616 3.6289C24.2289 3.52702 24.2235 3.46877 24.2168 3.1413C24.1999 2.31806 24.316 1.5376 24.56 0.83546C24.7833 0.192477 24.9376 0.000751635 25.2315 0.000751635C25.5128 0.000751635 25.7284 0.153212 25.8336 0.42658C25.8658 0.510493 25.8698 0.550913 25.8685 0.777607C25.8641 1.51753 25.7276 2.48567 25.5329 3.15518C25.4266 3.52054 25.369 3.65567 25.2536 3.81006C25.1043 4.00974 24.9614 4.10084 24.8009 4.09858C24.7455 4.09828 24.6815 4.0915 24.6588 4.08455L24.6588 4.08453ZM23.9824 18.8998C23.8106 18.7453 23.6828 18.3808 23.6149 17.8521C23.5864 17.6293 23.5867 16.7007 23.6152 16.4141C23.6944 15.6269 23.8522 15.0992 24.0523 14.9525C24.155 14.8773 24.3667 14.9333 24.4949 15.0697C24.6347 15.2183 24.7229 15.3926 24.8132 15.6986C24.9165 16.0485 24.956 16.3589 24.9558 16.8184C24.9555 17.7622 24.7834 18.533 24.5056 18.8369C24.3976 18.955 24.3507 18.976 24.1949 18.976H24.067L23.9821 18.8997L23.9824 18.8998ZM19.5268 18.0415C19.4335 18.0061 19.3584 17.9264 19.3181 17.8199C19.2868 17.7373 19.2842 17.7051 19.2924 17.4968C19.3024 17.2422 19.3299 17.0998 19.4367 16.7494C19.6199 16.1483 20.0202 15.3775 20.3747 14.943C20.5189 14.7663 20.7762 14.5329 20.8967 14.4696C21.0457 14.3913 21.1954 14.3755 21.2971 14.4274C21.6428 14.6038 21.634 15.1505 21.2705 16.0813C21.2268 16.1931 21.0283 16.5907 20.9279 16.7676C20.7122 17.1474 20.5015 17.4393 20.2758 17.6713C19.964 17.9916 19.7171 18.1136 19.5268 18.0414L19.5268 18.0415ZM28.6008 17.7465C28.5645 17.7351 28.5015 17.7047 28.461 17.6791C28.347 17.607 27.898 17.1576 27.7008 16.9183C27.2462 16.3665 26.8482 15.6338 26.5897 14.8726C26.51 14.6378 26.5041 14.6094 26.5029 14.4551C26.5019 14.3007 26.505 14.2822 26.555 14.1811C26.6268 14.0352 26.7372 13.9277 26.8882 13.8568C27.0045 13.8022 27.0174 13.7997 27.1635 13.8051C27.3093 13.8105 27.3244 13.8147 27.4724 13.8906C27.7505 14.0334 27.9909 14.2969 28.2937 14.7911C28.4227 15.0015 28.6463 15.4307 28.7073 15.5848C28.724 15.6273 28.7862 15.7662 28.8453 15.8934C29.1148 16.4733 29.3535 17.0134 29.3711 17.0833C29.4103 17.2391 29.3549 17.4103 29.2205 17.5489C29.0396 17.7352 28.804 17.8103 28.6008 17.7465L28.6008 17.7465ZM16.0477 14.3114C15.955 14.2908 15.8458 14.2167 15.8007 14.1438C15.7235 14.0188 15.7771 13.8288 15.9483 13.6205C16.0802 13.46 16.3497 13.2033 16.5232 13.0729C17.2517 12.5252 17.9585 12.2248 18.3332 12.3035C18.4095 12.3196 18.5194 12.4147 18.5522 12.4932C18.5891 12.5816 18.5826 12.7291 18.5372 12.831C18.3675 13.2119 17.9301 13.6149 17.3031 13.968C16.8015 14.2503 16.3402 14.3766 16.0477 14.3114L16.0477 14.3114ZM32.2365 14.1249C32.0205 14.0661 31.0132 13.5471 30.2943 13.1243C29.814 12.8417 29.6447 12.7373 29.2365 12.472C29.1203 12.3964 29.0092 12.2855 28.9612 12.1969C28.938 12.1543 28.931 12.1048 28.9309 11.9843C28.9307 11.8428 28.9359 11.8166 28.982 11.719C29.0519 11.5716 29.1176 11.502 29.2402 11.4456C29.3818 11.3805 29.6045 11.3712 29.8269 11.4211C30.1978 11.5042 30.7885 11.8045 31.2685 12.154C31.4328 12.2736 32.0979 12.7493 32.2101 12.8274C32.4486 12.9935 32.6863 13.1676 32.7044 13.1895C32.8268 13.338 32.814 13.6235 32.6723 13.9071C32.608 14.0357 32.5475 14.0923 32.4396 14.1243C32.3398 14.1539 32.3431 14.1539 32.2365 14.1246L32.2365 14.1249ZM22.1456 14.107C21.2222 14.0067 20.4147 13.6225 19.7178 12.9517C19.0337 12.2931 18.6406 11.4991 18.4981 10.4884C18.4562 10.1903 18.4561 9.3667 18.498 9.04523C18.5637 8.54216 18.6648 8.09593 18.7913 7.75096C19.1184 6.85854 19.5851 6.18697 20.335 5.52934C20.4074 5.46586 20.5004 5.38362 20.5416 5.34657C20.6348 5.26286 20.8934 5.05691 21.1153 4.88963C21.6591 4.47979 22.1468 4.24823 22.4652 4.24875C22.5797 4.2489 22.8076 4.3119 22.8936 4.3671C23.0767 4.48456 23.1703 4.68235 23.1703 4.95151C23.1703 5.25835 23.1216 5.47926 22.9989 5.72827C22.8795 5.97076 22.7011 6.17264 22.4761 6.32C22.1333 6.54459 21.9622 6.68464 21.6712 6.97885C21.3283 7.32558 21.1126 7.62093 20.8971 8.03888C20.6935 8.43376 20.5527 8.87016 20.4828 9.32304C20.4487 9.54412 20.4431 10.0604 20.4729 10.2321C20.5864 10.8859 20.8574 11.4072 21.2982 11.82C22.0358 12.5107 23.2013 12.6961 24.3903 12.312C25.1958 12.0518 26.1305 11.3187 26.6409 10.547C27.136 9.7983 27.3799 8.91589 27.3183 8.0963C27.3083 7.96461 27.2909 7.84467 27.278 7.82046C27.2656 7.79691 27.2066 7.71706 27.147 7.64305C26.8756 7.30601 26.5181 7.05753 26.1502 6.95034C25.6316 6.79925 25.015 6.89954 24.3108 7.24953C23.72 7.54315 23.35 7.90978 23.2622 8.28852C23.2022 8.54703 23.2407 8.8351 23.3713 9.10453C23.4896 9.34884 23.5183 9.38136 23.807 9.59839C23.9525 9.70776 24.0809 9.74974 24.102 9.6948C24.1263 9.63141 24.0843 9.50596 23.8668 8.99247C23.8109 8.86058 23.8073 8.84135 23.8079 8.67843C23.8082 8.45583 23.8343 8.39743 24.0015 8.23601C24.1844 8.05955 24.3938 7.97269 24.7075 7.94303C24.8415 7.93037 25.153 7.96053 25.3183 8.00216C25.7043 8.09941 26.018 8.37329 26.1951 8.7676C26.4021 9.2286 26.3204 9.83223 25.9666 10.4554C25.7555 10.827 25.4482 11.1256 25.0927 11.3043C24.8267 11.438 24.5442 11.4979 24.0629 11.5225C23.4488 11.554 22.9764 11.4918 22.7296 11.3472C22.4446 11.1802 22.1135 10.6135 21.7731 9.71027C21.6623 9.4164 21.6421 9.29999 21.6425 8.95955C21.6428 8.59332 21.6716 8.4466 21.8071 8.11741C22.1549 7.27219 23.1777 6.24106 24.1323 5.77337C24.6864 5.5019 25.0853 5.40576 25.6575 5.40576C26.5686 5.40576 27.4776 5.78464 28.0617 6.40786C28.3843 6.75207 28.6169 7.12313 28.6992 7.42503C28.8456 7.96173 28.9009 8.5306 28.8845 9.32994C28.8699 10.035 28.8395 10.2751 28.7157 10.6622C28.5977 11.0313 28.3229 11.5233 28.0744 11.8108C27.5813 12.3811 27.0583 12.7787 26.1768 13.2538C26.0331 13.3313 25.6626 13.4994 25.4432 13.5868C24.7458 13.8645 23.9505 14.049 23.1622 14.1159C22.8938 14.1387 22.3977 14.1344 22.1456 14.107L22.1456 14.107ZM15.7507 9.7359C15.5493 9.72008 15.2324 9.67748 15.1374 9.65343C15.1055 9.64537 15.0163 9.62304 14.939 9.60373C14.5058 9.49569 14.188 9.32428 14.1203 9.16219C14.0799 9.0656 14.0888 8.91045 14.1404 8.81106C14.291 8.52067 14.833 8.30984 15.5919 8.24638C15.8537 8.22448 16.4553 8.23873 16.7347 8.27338C17.2693 8.33976 17.6917 8.47627 17.9425 8.66377C18.2081 8.86237 18.1854 9.19335 17.8923 9.39462C17.5651 9.61932 17.0602 9.73091 16.3109 9.74409C16.1064 9.7476 15.8542 9.744 15.7506 9.73588L15.7507 9.7359ZM30.5258 9.65426C30.3292 9.63231 29.9811 9.45873 29.8309 9.30776C29.7185 9.19481 29.6828 9.12202 29.6828 9.00571C29.6828 8.84862 29.7929 8.71973 30.0241 8.60628C30.3597 8.44155 30.8814 8.27838 31.4266 8.16755C31.959 8.05933 32.9416 7.95077 33.3825 7.95146C33.5275 7.95161 33.6597 7.98215 33.7287 8.03125C33.8584 8.12359 33.9246 8.32996 33.9099 8.59602C33.8927 8.91039 33.8257 8.97899 33.388 9.13135C33.2122 9.19257 32.7909 9.31144 32.6167 9.34901C32.5622 9.3608 32.4171 9.39253 32.2944 9.41957C32.1717 9.4466 32.0267 9.47693 31.9721 9.48696C31.9176 9.49698 31.7948 9.5199 31.6994 9.53791C31.2245 9.62744 30.7272 9.67674 30.5258 9.65426H30.5258ZM18.0697 6.39709C17.9152 6.36933 17.5284 6.23 17.2924 6.117C16.6876 5.82742 16.0787 5.40556 15.6577 4.98459C15.4291 4.75593 15.3056 4.60642 15.1993 4.42951C15.1029 4.26906 15.0712 4.17367 15.0712 4.0441C15.0712 3.89923 15.0957 3.87876 15.2678 3.87987C15.339 3.88017 15.4373 3.88985 15.4863 3.90102C16.3616 4.10069 17.5583 4.66039 18.2286 5.18357C18.5252 5.41512 18.7232 5.65767 18.7742 5.85205C18.797 5.9389 18.7844 6.0808 18.7477 6.15197C18.7073 6.22997 18.6083 6.33076 18.5352 6.36824C18.4579 6.40786 18.2139 6.42296 18.0697 6.39707L18.0697 6.39709ZM28.5965 5.87096C28.4097 5.8155 28.2346 5.66454 28.1855 5.51671C28.1498 5.40948 28.1723 5.29962 28.2557 5.17344C28.3186 5.07824 28.6457 4.74607 28.7644 4.65693C28.803 4.62789 28.909 4.54762 28.9997 4.47858C29.1743 4.3458 29.5555 4.09001 30.1524 3.70509C30.6134 3.40783 30.6883 3.38359 30.9152 3.45807C31.0041 3.48725 31.0471 3.51521 31.148 3.60943C31.3063 3.75724 31.3587 3.85411 31.3598 4.00078C31.3608 4.17154 31.3134 4.25109 31.061 4.49933C30.7522 4.803 30.3619 5.13643 30.053 5.36045C29.8938 5.4759 29.5424 5.67952 29.3771 5.75211C29.064 5.88964 28.7966 5.93034 28.5965 5.87093V5.87096ZM20.361 4.20575C20.2165 4.16693 20.1437 4.11331 19.8849 3.85532C19.454 3.42563 19.1798 3.06312 18.9761 2.65373C18.754 2.20746 18.6645 1.81625 18.6791 1.3562C18.6886 1.05869 18.7216 0.855719 18.8002 0.610834C18.8554 0.439005 18.8766 0.404761 18.9518 0.365872C18.9835 0.349506 19.0051 0.354188 19.0923 0.396258C19.2524 0.47358 19.3935 0.612522 19.6581 0.953338C19.8454 1.19455 20.2106 1.8353 20.4106 2.27355C20.6315 2.75783 20.86 3.55257 20.862 3.84386C20.8631 4.0736 20.7171 4.23501 20.5105 4.2312C20.4781 4.2309 20.4108 4.21919 20.361 4.2058L20.361 4.20575ZM24.6663 4.09437C24.5634 4.06018 24.4721 4.00827 24.4245 3.95691C24.2306 3.74737 24.1743 3.42728 24.2094 2.73374C24.2534 1.86202 24.3811 1.22975 24.6462 0.571067C24.7668 0.271261 24.8968 0.0909649 25.035 0.0317436C25.1246 -0.00667957 25.3449 -0.00992241 25.4471 0.025681C25.6196 0.085758 25.7686 0.228623 25.8349 0.397474C25.9311 0.64248 25.8572 1.69732 25.681 2.59579C25.6435 2.7871 25.5245 3.23314 25.4627 3.41397C25.3573 3.72241 25.1773 3.97063 24.9896 4.06638C24.9043 4.10994 24.7528 4.12298 24.6663 4.09428L24.6663 4.09437ZM23.9939 18.9343C23.8626 18.8482 23.746 18.6005 23.6598 18.224C23.5543 17.7632 23.5397 16.906 23.6253 16.1827C23.6814 15.7085 23.7819 15.3169 23.899 15.1166C24.033 14.8874 24.1544 14.8476 24.3772 14.9598C24.6492 15.0969 24.8675 15.611 24.9491 16.3067C24.9821 16.5884 24.9727 17.2588 24.9312 17.596C24.8687 18.1019 24.7428 18.5305 24.5901 18.7575C24.4642 18.9447 24.4067 18.9766 24.1975 18.9752C24.0755 18.9741 24.046 18.9684 23.994 18.9343L23.9939 18.9343ZM19.5093 18.0502C19.3394 17.985 19.2694 17.8397 19.2699 17.5532C19.27 17.3617 19.3103 17.1131 19.3779 16.8852C19.4021 16.8034 19.4291 16.7104 19.4378 16.6786C19.5042 16.435 19.7604 15.8703 19.9608 15.5257C19.9943 15.4681 20.0403 15.3882 20.063 15.3481C20.2476 15.0221 20.6799 14.5565 20.8985 14.4481C21.027 14.3844 21.1757 14.3639 21.2738 14.3963C21.4371 14.4501 21.5535 14.6409 21.5642 14.872C21.5871 15.365 21.3352 16.1056 20.8796 16.8852C20.7941 17.0314 20.7337 17.1278 20.6787 17.2057C20.6492 17.2476 20.6064 17.3096 20.5837 17.3435C20.53 17.4235 20.2194 17.7695 20.1731 17.8008C20.1534 17.814 20.1097 17.8493 20.076 17.8792C19.9866 17.9584 19.8888 18.0165 19.7853 18.0522C19.6721 18.0911 19.6146 18.0907 19.5093 18.0501L19.5093 18.0502ZM28.5528 17.7536C28.3751 17.6626 27.9743 17.2776 27.6745 16.91C27.3418 16.5021 27.0228 15.9782 26.819 15.505C26.6682 15.1552 26.5808 14.9246 26.5151 14.7034C26.4962 14.6395 26.4855 14.5482 26.4851 14.4468C26.4848 14.3004 26.4883 14.2815 26.5413 14.1741C26.6108 14.0329 26.7308 13.9105 26.8647 13.8443C26.9478 13.8031 26.9882 13.7942 27.1143 13.7891C27.2469 13.7837 27.2777 13.788 27.3745 13.8269C27.4348 13.851 27.5182 13.8898 27.5598 13.9131C27.6593 13.9687 27.9055 14.1978 27.9806 14.3047C28.0133 14.3512 28.0737 14.434 28.1146 14.4885C28.1556 14.5431 28.2092 14.6212 28.2338 14.6621C28.2582 14.703 28.3197 14.8034 28.3702 14.8852C28.469 15.0453 28.6195 15.3474 28.7679 15.6837C28.8188 15.7991 28.8856 15.9423 28.9163 16.002C28.947 16.0617 28.9722 16.117 28.9722 16.125C28.9722 16.1329 28.9942 16.1845 29.0211 16.2396C29.0967 16.3946 29.3623 16.9942 29.3833 17.0571C29.4167 17.1577 29.4065 17.2909 29.3578 17.3902C29.2915 17.5253 29.1171 17.6881 28.9863 17.7371C28.8409 17.7915 28.6417 17.7991 28.5529 17.7536L28.5528 17.7536ZM16.0366 14.3247C15.9345 14.2999 15.8611 14.2499 15.7971 14.1615C15.7242 14.0609 15.7292 13.9567 15.8154 13.7853C15.8723 13.6722 15.917 13.6177 16.1253 13.4076C16.5306 12.9988 16.9723 12.6981 17.5387 12.4452C18.0626 12.2112 18.4305 12.2178 18.5547 12.4633C18.6663 12.6839 18.5393 12.9808 18.1794 13.3404C17.9426 13.5771 17.6696 13.7886 17.4536 13.9028C17.4024 13.9298 17.3307 13.9707 17.2944 13.9935C17.258 14.0164 17.2059 14.0461 17.1786 14.0596C17.1514 14.073 17.1179 14.0903 17.1043 14.0979C17.0404 14.1336 16.8116 14.2263 16.7158 14.2553C16.4121 14.3473 16.2132 14.3676 16.0366 14.3247L16.0366 14.3247ZM32.1849 14.1268C32.1113 14.1056 32.0222 14.0686 31.9868 14.0446C31.9514 14.0205 31.9173 14.0008 31.9108 14.0008C31.8961 14.0008 31.5564 13.843 31.5004 13.8102C31.4777 13.7969 31.3364 13.7215 31.1864 13.6428C31.0364 13.564 30.8446 13.4599 30.7602 13.4114C30.6758 13.3629 30.6032 13.3232 30.5988 13.3232C30.5944 13.3232 30.526 13.2834 30.4465 13.2348C30.3671 13.1862 30.2429 13.1142 30.1706 13.0748C30.0983 13.0353 29.9942 12.9725 29.9392 12.935C29.8842 12.8975 29.7946 12.8417 29.7401 12.8108C29.654 12.7621 29.4764 12.6505 29.2442 12.4992C29.1183 12.4171 29.0403 12.346 28.9798 12.2582C28.9255 12.1794 28.918 12.1557 28.9099 12.0364C28.8897 11.7426 29.0401 11.4913 29.2856 11.4084C29.5576 11.3165 30.0119 11.4063 30.4508 11.6392C30.8527 11.8522 30.9485 11.91 31.2254 12.107C31.3267 12.179 31.4579 12.2705 31.5169 12.3104C31.576 12.3502 31.6839 12.4273 31.7566 12.4818C31.8293 12.5362 31.9484 12.6217 32.0211 12.6717C32.0938 12.7217 32.1915 12.7902 32.2382 12.8239C32.2848 12.8576 32.3927 12.9348 32.4778 12.9954C32.7054 13.1576 32.7365 13.1864 32.7731 13.269C32.8375 13.4146 32.8028 13.6778 32.6887 13.9082C32.6293 14.028 32.5875 14.0759 32.5061 14.1177C32.4097 14.1671 32.3327 14.1693 32.1848 14.1268L32.1849 14.1268ZM22.3269 14.1388C22.2951 14.1357 22.1907 14.1258 22.0949 14.1165C21.7801 14.0862 21.4833 14.0104 21.0113 13.8398C20.8297 13.7742 20.4151 13.5381 20.1781 13.3653C19.5461 12.9047 19.0059 12.2245 18.759 11.5788C18.5391 11.0034 18.4428 10.4605 18.4426 9.79522C18.4425 9.05818 18.5629 8.32822 18.7864 7.71164C18.8375 7.57077 18.9887 7.21561 19.0327 7.13313C19.2913 6.64909 19.5667 6.26643 19.9187 5.9021C20.1903 5.62101 20.9845 4.93119 21.0796 4.89367C21.0981 4.88639 21.1241 4.86746 21.1372 4.85166C21.1914 4.78634 21.6858 4.48284 21.8971 4.38518C22.1342 4.27562 22.2557 4.24409 22.4426 4.24371C22.6895 4.24341 22.8042 4.27745 22.9648 4.39962C23.1124 4.512 23.1864 4.70534 23.1863 4.97848C23.1862 5.41658 23.0384 5.80451 22.7577 6.10401C22.6505 6.21843 22.4998 6.33438 22.2981 6.4577C22.0615 6.6024 21.4674 7.17873 21.3022 7.42378C21.2794 7.45762 21.2307 7.52506 21.1939 7.57367C20.9846 7.85014 20.7271 8.38597 20.6391 8.72817C20.6216 8.79635 20.5993 8.87056 20.5896 8.89308C20.5562 8.97095 20.4931 9.33835 20.474 9.56589C20.4092 10.3382 20.6411 11.0654 21.1266 11.6128C21.5456 12.0851 22.0252 12.3454 22.6822 12.4573C23.0362 12.5175 23.6842 12.4878 24.0293 12.3954C24.4374 12.2862 24.5395 12.2493 24.8294 12.1066C25.0428 12.0015 25.1493 11.9432 25.1854 11.9117C25.1996 11.8993 25.2344 11.8774 25.2629 11.863C25.3108 11.8387 25.4993 11.6997 25.7419 11.5097C25.9776 11.3251 26.3953 10.8699 26.6107 10.5629C26.6805 10.4633 26.9219 10.0459 26.9219 10.0247C26.9219 10.0195 26.9399 9.97677 26.962 9.92959C27.2159 9.38606 27.3421 8.70309 27.3011 8.09445C27.2855 7.86208 27.285 7.85986 27.2236 7.76954C27.0566 7.52396 26.6954 7.2114 26.4162 7.07084C26.0451 6.88399 25.5724 6.84684 25.112 6.96834C25.0211 6.99235 24.9202 7.01851 24.8878 7.0265C24.8553 7.03447 24.807 7.0524 24.7803 7.06632C24.7536 7.08024 24.7234 7.09166 24.7133 7.09174C24.6463 7.09204 24.141 7.34983 23.927 7.49282C23.6319 7.69 23.4786 7.85384 23.3454 8.11441C23.2799 8.2426 23.2538 8.36285 23.2531 8.53959C23.2528 8.73718 23.2945 8.89826 23.408 9.13092C23.4999 9.31926 23.511 9.33375 23.6627 9.46377C23.8821 9.65182 24.0601 9.74319 24.0843 9.68014C24.0948 9.65265 24.0549 9.47252 24.0221 9.39932C23.8204 8.95031 23.7821 8.83424 23.7817 8.67142C23.7814 8.48988 23.8185 8.40229 23.9606 8.25197C24.0679 8.13843 24.1086 8.10802 24.2277 8.05279C24.4937 7.92935 24.7048 7.90129 25.0573 7.94252C25.1817 7.95708 25.3305 7.98423 25.3878 8.0029C25.5674 8.06129 25.7711 8.17906 25.8819 8.28851C25.9783 8.38366 26.1285 8.57649 26.1285 8.60502C26.1285 8.61225 26.14 8.63084 26.1541 8.64643C26.1983 8.69528 26.2913 8.98317 26.3112 9.1327C26.335 9.3117 26.3216 9.55774 26.2791 9.71993C26.2057 10.0002 26.1969 10.0311 26.1814 10.0608C26.1724 10.0779 26.1368 10.1551 26.1022 10.2323C26.0675 10.3096 26.0026 10.4323 25.9579 10.5051C25.9132 10.5778 25.8645 10.6596 25.8497 10.6869C25.8039 10.7712 25.4657 11.097 25.3352 11.1826C24.9162 11.4572 24.5478 11.5434 23.7897 11.5444C23.2695 11.5447 22.977 11.4967 22.7388 11.3705C22.5429 11.2668 22.3348 10.9902 22.1146 10.5413C21.9768 10.2603 21.9603 10.2242 21.8896 10.0505C21.8654 9.99143 21.8357 9.92077 21.8234 9.89349C21.6634 9.54033 21.5846 9.12739 21.6166 8.81071C21.6486 8.49457 21.7545 8.14792 21.909 7.85359C21.9989 7.68224 22.1931 7.39359 22.3323 7.22435C22.5083 7.01026 22.8564 6.65569 23.0385 6.50482C23.0789 6.47133 23.1569 6.40429 23.2118 6.3558C23.3178 6.26214 23.4631 6.15559 23.6226 6.05441C23.6762 6.02044 23.7506 5.96995 23.7879 5.94221C23.9693 5.8074 24.4499 5.59555 24.8145 5.48969C25.1003 5.40669 25.5267 5.36347 25.8227 5.38749C26.4336 5.43704 26.9175 5.58548 27.4473 5.88583C27.7704 6.06897 28.1888 6.47493 28.4343 6.84342C28.6116 7.10954 28.6658 7.22586 28.7314 7.48165C28.8685 8.01638 28.9149 8.52037 28.9003 9.31498C28.8903 9.85866 28.8668 10.1443 28.8131 10.3767C28.7779 10.529 28.6601 10.8887 28.6222 10.9594C28.6052 10.9911 28.5913 11.0216 28.5913 11.0272C28.5913 11.0491 28.4 11.3885 28.3132 11.5205C28.2628 11.5971 28.1683 11.7236 28.1032 11.8015C27.9719 11.9584 27.6647 12.276 27.6059 12.3156C27.5852 12.3296 27.5292 12.3779 27.4816 12.423C27.3819 12.5176 27.2863 12.5871 26.8971 12.8484C26.6014 13.047 26.5858 13.0561 26.0955 13.3162C25.8441 13.4496 25.4021 13.6311 25.0535 13.7441C24.4713 13.9328 24.1387 14.0091 23.5417 14.0908C23.1764 14.1408 22.59 14.164 22.3268 14.1389L22.3269 14.1388ZM15.7401 9.75184C15.0857 9.70106 14.4909 9.53169 14.2236 9.31999C14.128 9.24431 14.0954 9.16173 14.0954 8.99585C14.0954 8.87739 14.1017 8.84485 14.138 8.7782C14.2706 8.53454 14.7243 8.34227 15.3932 8.24625C15.5899 8.218 16.3868 8.21741 16.6574 8.2452C16.9539 8.27579 17.1852 8.32329 17.4421 8.40648C17.9185 8.56073 18.1151 8.71939 18.1382 8.96824C18.153 9.12669 18.111 9.22519 17.9766 9.34673C17.6892 9.60677 17.128 9.74615 16.3103 9.76057C16.1058 9.76407 15.8492 9.76027 15.7401 9.75175L15.7401 9.75184ZM30.5418 9.67034C30.2342 9.64206 29.8059 9.38733 29.7008 9.1702C29.6015 8.96506 29.7121 8.73808 29.9752 8.6071C30.2909 8.44996 30.6911 8.31947 31.2773 8.1825C31.6775 8.089 32.421 7.99001 33.0129 7.95141C33.514 7.91871 33.6442 7.93504 33.7668 8.0458C33.8485 8.11956 33.8643 8.14856 33.8912 8.27356C33.9182 8.39851 33.9199 8.71175 33.8943 8.79742C33.8644 8.89746 33.7663 8.99686 33.6461 9.04889C33.5888 9.07375 33.527 9.10096 33.5088 9.10939C33.4371 9.14267 32.9794 9.27773 32.7237 9.34108C32.5941 9.37316 32.0609 9.48705 31.922 9.51227C31.8402 9.52714 31.7398 9.54709 31.6989 9.55667C31.658 9.56627 31.5501 9.58444 31.4592 9.59705C30.8571 9.68056 30.7479 9.68929 30.5419 9.67034H30.5418ZM18.0624 6.41377C17.9015 6.38563 17.4676 6.22501 17.2277 6.10474C16.7648 5.87268 16.4721 5.68536 15.9963 5.3168C15.707 5.09263 15.3201 4.67965 15.193 4.45929C15.0747 4.25397 15.0656 4.23039 15.0577 4.10685C15.047 3.94146 15.0587 3.90499 15.1332 3.87393C15.285 3.81052 15.7732 3.92938 16.4922 4.20481C16.5922 4.24313 16.657 4.2713 16.9137 4.38819C17.16 4.50035 17.6106 4.74955 17.9798 4.97781C18.1371 5.0751 18.2794 5.19307 18.476 5.38934C18.6318 5.54491 18.6783 5.60307 18.7319 5.70971C18.7916 5.82816 18.7975 5.85141 18.7969 5.9659C18.7966 6.1625 18.7089 6.30075 18.5342 6.38338C18.4459 6.4252 18.4172 6.43039 18.2856 6.42869C18.2038 6.42764 18.1034 6.4209 18.0624 6.41377H18.0624ZM28.6244 5.8932C28.472 5.85583 28.4121 5.82228 28.3033 5.71349C28.1688 5.57897 28.1306 5.48005 28.1609 5.34471C28.1719 5.29545 28.197 5.22777 28.2167 5.19426C28.2561 5.12725 28.7267 4.64553 28.7528 4.64553C28.7618 4.64553 28.7793 4.63307 28.7918 4.61783C28.8042 4.60257 28.8963 4.52983 28.9963 4.45615C29.1561 4.33837 29.2413 4.2785 29.4012 4.17132C29.4729 4.12332 29.8014 3.91105 29.9219 3.83487C29.9855 3.79465 30.0797 3.73187 30.1312 3.69537C30.1826 3.65889 30.2632 3.6067 30.3102 3.57942C30.3572 3.55214 30.4058 3.52047 30.4181 3.50903C30.5245 3.41013 30.8102 3.38371 30.9715 3.45786C31.0853 3.51017 31.2936 3.7132 31.3392 3.81615C31.3571 3.85662 31.3756 3.93274 31.3804 3.98532C31.3879 4.06851 31.3824 4.09544 31.3366 4.19294C31.2919 4.28838 31.2481 4.34018 31.041 4.54277C30.6125 4.96191 30.1967 5.29727 29.8058 5.53915C29.2914 5.85742 28.9255 5.9671 28.6243 5.89321L28.6244 5.8932ZM20.3641 4.22334C20.3164 4.21052 20.247 4.18452 20.2101 4.16566C20.1212 4.12031 19.5896 3.59052 19.4229 3.38111C18.8867 2.70762 18.6384 2.04399 18.6624 1.34806C18.6729 1.04431 18.706 0.843913 18.7861 0.597915C18.8419 0.426943 18.8532 0.405964 18.9098 0.368263L18.972 0.326798L19.0808 0.373004C19.2016 0.424339 19.4208 0.617154 19.5367 0.773885C19.572 0.821737 19.6323 0.897346 19.6705 0.94191C19.7088 0.986472 19.7594 1.0552 19.7831 1.09459C19.8067 1.13401 19.8743 1.24433 19.9334 1.33978C20.2621 1.87148 20.5416 2.47985 20.7003 3.0092C20.7504 3.17654 20.771 3.2564 20.8386 3.54638C20.8471 3.58276 20.863 3.67207 20.8738 3.74488C20.899 3.91341 20.8703 4.02757 20.7775 4.13232C20.6782 4.24416 20.548 4.27283 20.3641 4.22332L20.3641 4.22334ZM24.6642 4.11083C24.4844 4.06527 24.3419 3.92733 24.2642 3.72377C24.1067 3.3106 24.1816 2.0745 24.4172 1.19927C24.5398 0.74398 24.7133 0.325372 24.8479 0.160039C24.9519 0.0324803 25.0288 0.000733806 25.2316 0.00165115C25.3204 0.00195192 25.4264 0.011532 25.4673 0.0227026C25.625 0.0658162 25.7579 0.19044 25.8421 0.37406C25.8839 0.465295 25.8874 0.49057 25.8936 0.744696C25.9067 1.28142 25.7745 2.34208 25.6217 2.92647C25.4968 3.40409 25.4009 3.64847 25.262 3.84264C25.0976 4.07255 24.8867 4.16714 24.6642 4.11073V4.11083Z" fill="#B3B3B3"/>
</svg>
