<svg width="62" height="50" viewBox="0 0 62 50" fill="none" xmlns="http://www.w3.org/2000/svg">
<path d="M61.3494 19.6178L60.3562 19.1244C60.2737 19.0834 60.183 19.0621 60.0915 19.0621H58.6943C58.6526 18.8128 58.4552 18.6164 58.2059 18.5745V16.8838L58.5075 16.4868C58.5594 16.4183 58.5896 16.3397 58.6084 16.2586C58.6851 16.2185 58.7535 16.1629 58.8075 16.0921L59.2162 15.5534C59.353 15.3733 59.3759 15.1311 59.2755 14.9286C59.175 14.7262 58.968 14.598 58.7419 14.598H39.8554C39.812 14.3463 39.6111 14.1486 39.3575 14.111C39.3121 13.8271 39.0663 13.6105 38.7696 13.6105H38.2663C38.1573 13.4873 37.9979 13.4095 37.82 13.4095H37.6946C37.7132 13.3486 37.7286 13.2817 37.7411 13.2086C37.7472 13.1714 37.7496 13.1338 37.7486 13.0962C37.7626 13.0635 37.7732 13.0341 37.7826 13.0098C37.7993 12.9635 37.8109 12.9154 37.8161 12.8664C37.8224 12.8018 37.8267 12.7365 37.83 12.6714C37.8352 12.5821 37.841 12.471 37.8601 12.4397C37.9132 12.3538 37.9433 12.2562 37.9485 12.1555L37.9606 11.9042C37.9687 11.7401 37.908 11.5807 37.795 11.4628C37.7913 11.4541 37.7865 11.4421 37.7821 11.4286C37.7847 11.3988 37.7871 11.3688 37.789 11.3381C37.8285 11.2378 37.8491 11.1306 37.855 11.028C37.9184 10.8351 37.8964 10.6706 37.8466 10.5422C37.8156 10.3454 37.7223 10.194 37.6658 10.101L37.6606 10.0933C37.6601 10.0886 37.6596 10.0843 37.6587 10.0806L37.6577 10.0736C37.6593 10.0716 37.6601 10.0695 37.6611 10.0675C37.716 10.0133 37.7677 9.94597 37.8123 9.862C37.8583 9.80717 37.8993 9.74839 37.9368 9.6843C38.0263 9.53152 38.0425 9.34826 37.984 9.18395C37.9845 9.16988 37.985 9.1559 37.9855 9.14192C37.9867 9.10706 37.988 9.06259 37.99 9.03555L37.9998 9.01753C38.0975 8.87865 38.1459 8.7172 38.1367 8.55365C38.1348 8.51743 38.1296 8.47676 38.1194 8.43313C38.273 8.19799 38.297 7.95123 38.1919 7.69739C38.1114 7.50352 37.9347 7.36624 37.7272 7.33634C37.6885 7.33095 37.6507 7.32918 37.6128 7.33095C37.5197 7.26981 37.4105 7.23435 37.2947 7.22997C37.1685 7.22627 37.0565 7.25802 36.9723 7.29617C36.8681 7.30644 36.702 7.33263 36.5414 7.43724C36.34 7.51337 36.1783 7.65562 36.0678 7.85311C35.8605 8.02972 35.7615 8.22738 35.7177 8.40273C35.5368 8.70398 35.5032 9.01803 35.4777 9.25587C35.473 9.29731 35.4688 9.33866 35.4646 9.37327C35.1971 9.38751 34.9063 9.37723 34.5718 9.35483C34.5183 9.33057 34.4655 9.3059 34.412 9.28139C34.2952 9.22741 34.1766 9.17258 34.057 9.11969C34.057 9.11666 34.057 9.11371 34.057 9.11076V9.09476C34.1006 8.94232 34.081 8.78155 34.0082 8.64688C34.01 8.62465 34.012 8.60182 34.013 8.57883C34.1179 8.31303 34.1044 8.06913 33.9724 7.85168C33.9878 7.71558 33.9701 7.55927 33.8663 7.40818C33.7515 7.24058 33.5601 7.14011 33.3552 7.13918C33.3188 6.655 33.2868 6.27105 33.2486 6.06395C33.1257 5.40005 32.763 5.00371 32.2779 5.00371C32.2583 5.00371 32.2374 5.00456 32.2159 5.00607C32.202 4.98089 32.1857 4.95655 32.1681 4.93347C32.0914 4.76807 31.9421 4.64553 31.7633 4.60375C31.6632 4.54101 31.5508 4.51103 31.4279 4.51297C31.4247 4.49435 31.4206 4.47599 31.4155 4.45789C31.4183 4.45191 31.4209 4.44593 31.4233 4.44012C31.8221 4.19563 32.082 3.75727 32.082 3.25911C32.082 2.94648 31.9705 2.64422 31.7853 2.40419C31.7917 2.39645 31.7982 2.38802 31.8053 2.3791C31.8212 2.3631 31.836 2.34642 31.8499 2.32899C31.8871 2.28115 31.935 2.20434 31.9619 2.10075C31.9648 2.09435 31.9671 2.08803 31.9695 2.08147C32.0039 2.04896 32.035 2.01182 32.0614 1.9703C32.1058 1.9196 32.1509 1.85104 32.1806 1.76244C32.19 1.74417 32.1983 1.72555 32.2058 1.70677C32.2369 1.65186 32.2603 1.59299 32.2747 1.53151C32.2909 1.4926 32.303 1.45251 32.311 1.41158C32.3445 1.34084 32.3626 1.26833 32.3681 1.19666C32.3757 1.17122 32.3816 1.14537 32.3858 1.11943C32.4245 1.04405 32.4584 0.945007 32.4617 0.830132C32.5067 0.726289 32.5235 0.609309 32.5021 0.490138C32.4474 0.184169 32.1653 -0.0263801 31.8565 0.00267564C31.829 0.00545489 31.7969 0.0114345 31.7657 0.0190142L31.757 0.0212882C31.757 0.0212882 31.7566 0.0213725 31.7561 0.0214567L31.7379 0.026173C31.7256 0.0293733 31.715 0.0349318 31.7035 0.0388059C31.6992 0.0400692 31.6945 0.0406587 31.6903 0.0422589C31.6849 0.0442802 31.6802 0.0472278 31.6744 0.0493333C31.6499 0.0588501 31.6266 0.0693776 31.6044 0.0809156C31.5749 0.0968331 31.5475 0.115361 31.5216 0.13549C31.4634 0.176505 31.4117 0.220552 31.373 0.264009C31.2931 0.297275 31.2204 0.347891 31.161 0.413498C31.1279 0.449965 31.0926 0.4818 31.0534 0.510182C31.0271 0.483906 30.9982 0.460156 30.9674 0.439017C30.7606 0.281863 30.4339 0.279673 30.2316 0.444154C30.1944 0.470936 30.1604 0.501845 30.1302 0.536038C30.1125 0.527195 30.0948 0.518689 30.0781 0.510267C29.9684 0.456114 29.8818 0.413498 29.8316 0.36263C29.7675 0.298033 29.6906 0.249944 29.6073 0.220299C29.4986 0.139953 29.3618 0.0679457 29.183 0.0679457C29.0561 0.0679457 28.9207 0.111993 28.8183 0.187622C28.7761 0.218867 28.4624 0.468157 28.6122 0.904077C28.6122 0.921595 28.6126 0.937428 28.6137 0.951577C28.6222 1.0598 28.6552 1.15994 28.7146 1.2519C28.7332 1.32214 28.7615 1.38244 28.793 1.43255C28.805 1.48165 28.8213 1.52452 28.8385 1.56074C28.8609 1.60765 28.8934 1.66062 28.9394 1.71326C28.972 1.77962 29.014 1.83437 29.0581 1.87942C29.0581 1.87968 29.0581 1.87993 29.0581 1.8801C29.0831 1.92541 29.125 1.98773 29.1901 2.04769C29.2451 2.12408 29.3112 2.18152 29.3814 2.2227C29.4005 2.23828 29.4199 2.25243 29.4399 2.26515C29.4585 2.30759 29.4809 2.34448 29.5026 2.37573C29.5073 2.38162 29.5115 2.38752 29.5158 2.39341C29.5306 2.42466 29.5474 2.45388 29.5661 2.48092C29.4173 2.70553 29.3336 2.97217 29.3336 3.24782C29.3336 3.76611 29.6187 4.22056 30.0437 4.45822C30.0517 4.47524 30.0605 4.49208 30.0703 4.50892C30.0632 4.54834 30.0599 4.58843 30.0599 4.62911C30.0608 4.71358 30.0786 4.79569 30.1107 4.87216L30.1149 4.97921C30.1134 4.97921 30.112 4.97912 30.1107 4.97912C29.7977 4.97912 29.5087 5.15009 29.3158 5.45134C29.0657 5.84641 29.1505 6.90059 29.1543 6.94548C29.1552 6.95996 29.1571 6.97445 29.1595 6.98885C29.1849 7.15022 29.2064 7.31343 29.225 7.47707C29.217 7.47379 29.2097 7.47092 29.2026 7.46823L29.1743 7.45602C29.0948 7.42132 28.9613 7.36346 28.791 7.36346C28.7365 7.36346 28.6276 7.37129 28.5078 7.42208C28.3993 7.41626 28.2927 7.43833 28.1955 7.48937C28.0271 7.57856 27.9108 7.74219 27.884 7.9311C27.8592 8.0437 27.8569 8.14316 27.8691 8.23041C27.8075 8.39683 27.816 8.53546 27.8205 8.60485C27.8205 8.68385 27.8242 8.74584 27.828 8.80092C27.8285 8.8085 27.8289 8.81566 27.8294 8.82265C27.8209 8.87655 27.8117 8.93028 27.8028 8.9841C27.3903 9.0812 26.9023 9.14799 26.5733 9.16264C26.5721 9.15843 26.5707 9.1543 26.5697 9.14992C26.4971 8.90788 26.4162 8.63635 26.2688 8.36197C26.2212 8.21298 26.1436 8.09415 26.0837 8.00218L26.0431 7.93952C25.9933 7.85791 25.9245 7.78953 25.8427 7.74009C25.824 7.72864 25.779 7.69099 25.7464 7.66379C25.5934 7.53552 25.3619 7.3419 25.0155 7.33794C24.8053 7.33794 24.6103 7.41079 24.4341 7.55506C24.4195 7.55691 24.4042 7.55944 24.3888 7.56247C24.3883 7.56247 24.3879 7.56247 24.3874 7.56247C24.2599 7.56247 24.1343 7.6034 24.0303 7.68172C23.8803 7.79407 23.7921 7.97051 23.7921 8.1579V8.21374C23.7921 8.31893 23.8195 8.41772 23.8673 8.50354C23.8468 8.5843 23.8419 8.67476 23.8633 8.77363C23.864 8.88295 23.8949 8.98999 23.9525 9.08297C23.9535 9.12146 23.9582 9.15952 23.966 9.19692C23.8852 9.35432 23.8759 9.54424 23.952 9.71377L23.9669 9.74712C23.9884 9.79479 24.0122 9.84793 24.0415 9.91127C24.0488 9.92744 24.0573 9.94336 24.066 9.9586C24.0669 9.96087 24.0678 9.96306 24.0683 9.96525C24.0874 10.0202 24.1141 10.072 24.148 10.119C24.186 10.1724 24.2299 10.2196 24.2782 10.2599C24.1883 10.4635 24.2001 10.6374 24.2065 10.7316C24.2083 10.7608 24.2121 10.7898 24.2181 10.8183L24.286 11.1464C24.294 11.1834 24.3051 11.2197 24.3195 11.2543C24.2004 11.3445 24.1185 11.4771 24.0926 11.626L24.0544 11.8446C24.039 11.9298 24.0433 12.0173 24.0652 12.1011C24.0964 12.2169 24.1041 12.3813 24.1131 12.5556C24.1171 12.6366 24.1209 12.7175 24.1275 12.7974C24.1289 12.8159 24.1308 12.8342 24.1339 12.8523C24.1376 12.8747 24.1471 12.9267 24.148 12.9331C24.1185 13.0369 24.1181 13.147 24.1466 13.2512C24.1614 13.3062 24.18 13.359 24.2022 13.4094H23.6162C23.4386 13.4094 23.2789 13.4872 23.1702 13.6104H22.9068C22.6101 13.6104 22.3641 13.8274 22.3188 14.1114C22.0667 14.1502 21.8672 14.3474 21.8241 14.5979H2.91096C2.68408 14.5979 2.47648 14.7272 2.37651 14.9313C2.27645 15.1354 2.30105 15.3785 2.44068 15.5583L2.85833 16.0969C2.91332 16.1677 2.98306 16.2236 3.06121 16.263C3.08033 16.3441 3.11099 16.423 3.16404 16.4914L3.47069 16.8872V18.5748C3.22283 18.6177 3.02685 18.8137 2.98558 19.0621H1.58585C1.49363 19.0621 1.40259 19.0836 1.32031 19.1247L0.329721 19.6182C0.128268 19.7187 0.000506823 19.9245 1.50632e-06 20.1497C-0.000503811 20.375 0.126162 20.5814 0.327615 20.6828L1.00381 21.024C0.95783 21.2482 1.04247 21.4818 1.22902 21.6213L2.98373 22.9344C2.99148 22.991 3.00967 23.0437 3.033 23.0939C2.99813 23.1696 2.97708 23.2532 2.97708 23.3419V24.6514C2.97708 24.7398 2.99763 24.8228 3.03207 24.8981C3.01582 24.9339 3.00192 24.971 2.9924 25.0103H2.57897C2.35941 25.0103 2.15754 25.1311 2.05378 25.3248C1.95002 25.5184 1.96156 25.7533 2.08351 25.9361L2.97708 27.2761V49.4045C2.97708 49.7334 3.24363 50 3.57259 50H7.53672C7.86568 50 8.13224 49.7334 8.13224 49.4045V48.9377L8.60159 47.6963V29.506H11.9025V47.1727L11.5782 47.4946C11.4633 47.6089 11.3996 47.7656 11.4025 47.9279L11.4289 49.4154C11.435 49.7397 11.6997 50 12.0244 50H16.4621C16.7911 50 17.0576 49.7334 17.0576 49.4045V48.6934L17.4345 47.6963V29.506H21.8144V47.174L21.4921 47.4957C21.3806 47.6075 21.3178 47.7592 21.3178 47.9169V49.4044C21.3178 49.7334 21.5844 49.9999 21.9131 49.9999H26.3807C26.7095 49.9999 26.9762 49.7334 26.9762 49.4044V48.7506L27.3748 47.6961V29.506H34.3052V47.6962L34.7042 48.7514V49.4044C34.7042 49.7334 34.9707 49.9999 35.2994 49.9999H39.7633C40.0921 49.9999 40.3588 49.7334 40.3588 49.4044V47.9169C40.3588 47.7598 40.2963 47.6089 40.1857 47.4974L39.8651 47.175V29.506H44.2453V47.6962L44.6191 48.6856V49.4044C44.6191 49.7334 44.8859 49.9999 45.2146 49.9999H49.679C50.0077 49.9999 50.2744 49.7334 50.2744 49.4044V47.9169C50.2744 47.7592 50.2115 47.6077 50.0999 47.496L49.7775 47.174V29.506H53.0784V47.6962L53.5445 48.9292V49.4045C53.5445 49.7334 53.811 50 54.1399 50H58.1069C58.4359 50 58.7024 49.7334 58.7024 49.4045V27.2756L59.5936 25.9353C59.7151 25.7525 59.7262 25.5176 59.6224 25.3242C59.5191 25.1308 59.3173 25.0101 59.0977 25.0101H58.6871C58.6782 24.9709 58.6638 24.9338 58.6475 24.8981C58.6819 24.8228 58.7024 24.7396 58.7024 24.6513V23.3418C58.7024 23.253 58.6819 23.1695 58.647 23.0937C58.6698 23.0435 58.688 22.9906 58.6963 22.934L60.4482 21.6209C60.6342 21.4814 60.7194 21.2481 60.6729 21.0244L61.3519 20.683C61.5533 20.5817 61.6804 20.3751 61.68 20.1497C61.6795 19.924 61.5517 19.7182 61.3494 19.6178ZM3.57251 19.4213V19.161H3.64039H4.06612H21.9842H22.4665H39.2139H39.6948H57.6108H58.0365H58.107V19.4213H3.57251ZM4.06502 16.6818H22.041V16.8387H21.8144H14.9727V17.0247H21.8144H22.041V17.3046H21.8144H12.5281V17.4909H21.8143H22.0409V17.7703H21.8143H10.0831V17.9568H21.8144H22.041V18.2364H21.8144H7.63854V18.4227H21.8144H22.041V18.5654V18.7455H21.8144H4.06612V18.5654V16.6834L4.06502 16.6818ZM22.4099 15.6627V15.5231H22.6363H39.0441H39.2691V15.6637V15.7116V16.1949V18.5655V18.7456H39.0441H22.6363H22.4099V18.5655V16.1961V15.7116V15.6627ZM22.9065 14.2679H38.7696V14.531H22.9065V14.2679ZM22.4099 14.729V14.7096H39.2692V14.7302V14.9278V15.1161H39.052H22.6289H22.4098V14.9278V14.729H22.4099ZM57.6108 16.6834V18.5654V18.7455H39.8646H39.6394V18.5654V18.4227H39.8646H54.0415V18.2364H39.8646H39.6394V17.9568H39.8646H51.5974V17.7703H39.8646H39.6394V17.4909H39.8646H49.1523V17.3046H39.8646H39.6394V17.0247H39.8646H46.7078V16.8387H39.8646H39.6394V16.6818H57.6119L57.6108 16.6834ZM39.8571 15.1933H58.742L58.3901 15.6566L58.333 15.7319H39.8645H39.6393V15.5791V15.5313V15.1933H39.7646H39.8571ZM23.616 14.0047H25.9367C25.949 13.9471 25.9591 13.8891 25.9698 13.8275C26.0104 13.8001 26.0486 13.7705 26.0884 13.7299L26.0774 13.5404C26.0884 13.4545 26.0998 13.3684 26.108 13.2822C26.1128 13.2304 26.1156 13.1787 26.1166 13.1271C26.1166 13.1169 26.1175 13.1068 26.117 13.0967C26.117 13.0387 26.1137 12.9808 26.1037 12.923C26.1023 12.8918 25.9979 12.5244 26.0884 12.4411C26.0903 12.4389 26.0918 12.4311 26.0926 12.4193C26.0931 12.4146 26.0931 12.4069 26.0931 12.4012C26.0931 12.3923 26.0936 12.3841 26.0936 12.3727C26.0936 12.364 26.0931 12.3534 26.0931 12.3439C26.0926 12.3321 26.0926 12.3211 26.0922 12.3084C26.0918 12.3034 26.0918 12.2979 26.0913 12.2928C26.0909 12.2762 26.0899 12.2595 26.0889 12.2424C26.0854 12.1663 26.0797 12.0899 26.0774 12.0565C26.0765 12.0453 26.076 12.039 26.076 12.039C25.9975 11.9212 25.9104 11.811 25.8755 11.6545L25.6626 11.6249C25.6402 11.6757 25.7216 11.7324 25.7531 11.7875C25.6345 11.8898 25.4968 11.7723 25.3779 11.826C25.3219 11.8392 25.3005 11.7712 25.2387 11.782C25.1767 11.7887 25.1173 11.9432 25.0088 11.9179C25.0102 11.9714 25.0071 12.022 24.9876 12.066C24.9029 12.1438 24.8911 12.3301 24.9632 12.7251C24.9559 12.7779 24.9456 12.8493 25.0015 12.8701C25.0599 12.9849 25.2029 13.107 25.1173 13.2959C25.0312 13.487 24.7935 13.3619 24.7208 13.0947C24.7557 12.9701 24.7394 12.8602 24.7208 12.7517C24.7 12.4791 24.7055 12.1908 24.6404 11.9475L24.679 11.7289C24.8163 11.648 25.0009 11.6106 24.9215 11.3446C24.9101 11.2573 24.9236 11.0978 24.8688 11.0252L24.8009 10.6971C24.7962 10.6207 24.7836 10.5475 24.8565 10.4398C24.891 10.3047 24.9766 10.1973 25.0757 10.0939L25.0865 9.97275H25.0745C25.0745 9.97275 25.1019 9.87505 25.0865 9.87505C25.0707 9.87505 24.8288 9.79808 24.8288 9.79808C24.7599 9.83 24.6905 9.85408 24.6316 9.7718C24.6181 9.73323 24.6135 9.68792 24.5809 9.65962C24.5459 9.58424 24.5193 9.52403 24.4952 9.47004C24.6202 9.36982 24.5872 9.22025 24.5474 9.0684V8.88185L24.4584 8.76967C24.4632 8.73127 24.4617 8.69253 24.4468 8.65421C24.4397 8.63189 24.4853 8.57605 24.5411 8.5123C24.556 8.45427 24.5631 8.39431 24.5411 8.32609C24.5039 8.27631 24.484 8.21416 24.3872 8.21365V8.15782L24.4584 8.17862C24.4872 8.15335 24.498 8.12472 24.6067 8.16422L24.7134 8.11385C24.8263 7.97944 24.9254 7.93261 25.0177 7.93337C25.2066 7.93539 25.3617 8.14527 25.5348 8.24962C25.6037 8.36281 25.6927 8.47381 25.7126 8.58683C25.9159 8.93651 25.9801 9.30665 26.1089 9.66585L26.1559 9.68337L26.1438 9.72514C26.3863 9.83185 27.6226 9.68649 28.3282 9.45606C28.358 9.25663 28.3957 9.05812 28.4264 8.85903C28.4264 8.78719 28.4157 8.71779 28.4157 8.60469C28.4139 8.51735 28.388 8.44012 28.5096 8.31211L28.5209 8.22932C28.4209 8.1686 28.4627 8.09145 28.4735 8.01675C28.5405 8.04976 28.6148 8.08025 28.6273 8.14072C28.7139 7.84966 28.8688 7.9839 29.0089 8.03107L29.094 8.09053C29.1745 8.21029 29.2516 8.33123 29.1922 8.4509C29.1526 8.47019 29.1079 8.48905 29.2071 8.56325L29.2181 8.75561L29.1205 9.01256V9.13695C29.2764 9.07825 29.7638 8.81465 29.9222 8.70828C29.883 8.10156 29.842 7.49594 29.7472 6.89587C29.7156 6.51579 29.7371 5.89897 29.8189 5.76961C29.8998 5.64328 30.0765 5.45639 30.3567 5.67528C30.4256 5.62492 30.4854 5.55122 30.5462 5.47989L30.724 5.3411L30.6993 4.68477C30.6481 4.64822 30.638 4.6099 30.6887 4.57251L30.6677 4.33585L30.6465 4.25576C30.6115 4.23159 30.5785 4.22157 30.5785 4.18224C30.5815 4.14248 30.5988 4.13364 30.6761 4.10829V4.03696C30.2606 4.01447 29.9285 3.66917 29.9285 3.24765C29.9285 3.19805 29.9346 3.15004 29.9433 3.10288C29.9452 3.0926 29.9471 3.08258 29.9495 3.07256C29.9601 3.02582 29.9736 2.98034 29.9922 2.93722C29.9927 2.93638 29.9931 2.9357 29.9931 2.93486C30.0122 2.8909 30.036 2.84946 30.0624 2.80988C30.0658 2.80516 30.0685 2.80036 30.0718 2.79573C30.0997 2.75564 30.1308 2.71816 30.1657 2.68389C30.1657 2.68389 30.1657 2.68355 30.1662 2.68347C30.1681 2.68178 30.17 2.68018 30.1719 2.67841C30.1724 2.67816 30.1724 2.67791 30.1728 2.67766C30.2146 2.63757 30.2599 2.60102 30.3098 2.57078C30.3072 2.54762 30.3053 2.52497 30.3063 2.50357C30.3072 2.48227 30.3108 2.46231 30.3193 2.4447C30.3365 2.40933 30.3723 2.38331 30.4421 2.37388C30.4436 2.37362 30.444 2.37303 30.4457 2.37278V2.36865V2.31021L30.4106 2.3209C30.4113 2.31997 30.4123 2.31181 30.4127 2.30254C30.4127 2.29934 30.4132 2.29564 30.4132 2.2921C30.4132 2.28553 30.4132 2.27803 30.4132 2.27054C30.4127 2.26439 30.4127 2.25833 30.4122 2.25226C30.4117 2.24014 30.4105 2.22868 30.4082 2.21908C30.4078 2.21697 30.4068 2.21546 30.4064 2.21352C30.4035 2.20434 30.4002 2.19685 30.3951 2.19685C30.3151 2.28806 30.3213 2.19912 30.2955 2.17941C30.2589 2.25631 30.237 2.19356 30.2127 2.16392C30.1543 2.24755 30.1379 2.17385 30.1128 2.13419C30.0356 2.19381 30.0467 2.10311 30.0361 2.04525C30.0323 2.04534 30.0305 2.04441 30.0276 2.04432C30.0272 2.04432 30.0272 2.04432 30.0267 2.04432C29.9394 2.04053 30.0114 1.94545 30.0118 1.89147C29.9764 1.90124 29.9634 1.86847 29.9523 1.82022C29.8811 1.85736 29.8365 1.84851 29.8252 1.76632C29.7616 1.78611 29.7419 1.75099 29.7271 1.70694C29.664 1.7333 29.6624 1.67182 29.6448 1.6335C29.5912 1.6202 29.5568 1.59282 29.5802 1.52343C29.5122 1.48822 29.4299 1.45799 29.4858 1.37579C29.3462 1.33065 29.3606 1.27119 29.383 1.21291C29.3344 1.15488 29.2429 1.10123 29.3146 1.02973C29.2787 0.968084 29.1443 0.940039 29.2429 0.834849C29.2061 0.777916 29.1378 0.691338 29.1717 0.666157C29.2047 0.641817 29.3233 0.759051 29.3908 0.813878L29.408 0.780948C29.6352 1.01011 29.9328 1.05357 30.1974 1.27481C30.2447 1.34396 30.3696 1.39112 30.2447 1.50524C30.2575 1.53185 30.2733 1.55383 30.291 1.57227C30.2992 1.58103 30.3097 1.58701 30.3189 1.59426C30.329 1.60243 30.3389 1.61169 30.35 1.61843C30.364 1.62651 30.3793 1.63274 30.3948 1.63931C30.4026 1.64277 30.4101 1.64689 30.4179 1.65001C30.4407 1.65852 30.4639 1.66593 30.4872 1.673C30.491 1.67418 30.4948 1.67561 30.4987 1.67679C30.5002 1.67511 30.5006 1.673 30.5021 1.67149C30.5738 1.60074 30.5431 1.48772 30.5431 1.38691C30.5207 1.35499 30.4915 1.36063 30.4714 1.37596C30.4648 1.38253 30.4541 1.39668 30.4541 1.41099C30.436 1.37116 30.4254 1.32939 30.436 1.2898C30.4624 1.26268 30.4942 1.24811 30.5303 1.23068V1.19202C30.5011 1.17568 30.469 1.14276 30.469 1.11867C30.4714 1.0945 30.4815 1.0539 30.5462 1.0539C30.5547 1.07151 30.5671 1.07235 30.5789 1.07151V1.05609C30.5724 1.04868 30.5617 1.03655 30.5617 1.02333C30.5617 1.00337 30.577 0.984759 30.5948 0.984759V0.942734H30.5704V0.928669H30.5948V0.907698H30.6096V0.932122H30.6337V0.946271H30.6096V0.988296C30.6282 0.991244 30.6426 1.00674 30.6426 1.02636C30.6426 1.04077 30.6374 1.05053 30.6249 1.06165V1.0758C30.6359 1.0758 30.6494 1.07487 30.6494 1.06165C30.6853 1.05407 30.744 1.07369 30.744 1.11757C30.744 1.16154 30.6951 1.17804 30.6612 1.19463V1.23321C30.682 1.24525 30.701 1.25628 30.7119 1.27153C30.7164 1.39668 30.7383 1.51543 30.7588 1.63535C30.8472 1.61 30.9147 1.57143 30.987 1.53758C31.0731 1.44662 31.0364 1.40501 30.9486 1.38076C30.93 1.2226 31.0491 1.20137 31.1319 1.14452C31.1835 1.12237 31.2333 1.09702 31.2816 1.06898C31.2835 1.0678 31.2854 1.06637 31.2875 1.06536C31.3342 1.03765 31.3798 1.00725 31.4233 0.974063L31.4238 0.973726C31.4243 0.973474 31.4243 0.973474 31.4243 0.973221C31.4868 0.92589 31.5467 0.873842 31.6016 0.813457L31.6347 0.863904C31.7413 0.807056 31.7965 0.636343 31.8918 0.601981C31.8901 0.601981 31.8882 0.601981 31.8873 0.602066L31.9156 0.594655C31.9073 0.595497 31.8997 0.599286 31.8918 0.601981C31.8955 0.601981 31.8998 0.601981 31.8998 0.601981C31.8803 0.660935 31.8041 0.766378 31.8381 0.779853C31.9162 0.807224 31.817 0.892202 31.7822 0.956882C31.811 1.00026 31.8031 1.04658 31.7524 1.09601C31.7602 1.10587 31.7653 1.11488 31.7687 1.12313C31.7691 1.12381 31.7691 1.12431 31.7691 1.1249C31.772 1.13231 31.7734 1.1393 31.7729 1.14553C31.7729 1.14638 31.7724 1.14705 31.7724 1.14772C31.772 1.15362 31.7706 1.15926 31.7677 1.16448C31.7672 1.16533 31.7668 1.166 31.7662 1.16684C31.7635 1.17164 31.7601 1.17653 31.7561 1.18099C31.7561 1.18099 31.7556 1.18116 31.7556 1.18133C31.7462 1.19143 31.7351 1.20078 31.7243 1.21047C31.7141 1.21973 31.7049 1.2295 31.6997 1.24062C31.7592 1.31212 31.6988 1.31869 31.682 1.3496C31.7094 1.38792 31.6917 1.42194 31.6472 1.45277C31.6625 1.48789 31.6439 1.50431 31.6208 1.52065C31.6228 1.5604 31.6228 1.59451 31.57 1.59451C31.5644 1.62516 31.5768 1.6746 31.5179 1.65051C31.5184 1.70071 31.4974 1.71208 31.4578 1.70071C31.4606 1.72741 31.4681 1.75815 31.4141 1.74257C31.4141 1.76463 31.4193 1.79209 31.3987 1.80438C31.4098 1.84152 31.4327 1.8822 31.381 1.89307C31.3954 1.9516 31.3867 1.98116 31.3371 1.96676C31.3457 2.0439 31.3025 2.03809 31.2544 2.02605C31.2284 2.11498 31.2001 2.07759 31.1725 2.05586C31.1675 2.07355 31.1624 2.08584 31.1572 2.09444C31.1557 2.09679 31.1539 2.09713 31.1524 2.0989C31.1489 2.10328 31.1451 2.10656 31.1408 2.10774C31.139 2.10825 31.1365 2.10799 31.1344 2.10774C31.1307 2.10715 31.1269 2.10564 31.1231 2.10294C31.1208 2.10143 31.1189 2.10041 31.1168 2.09848C31.1112 2.09292 31.105 2.08584 31.0986 2.07675C31.0647 2.12383 31.0371 2.12501 31.013 2.0877C30.9976 2.13722 30.9733 2.11397 30.9483 2.0877C30.9374 2.09469 30.9273 2.10092 30.9169 2.11507C30.9165 2.116 30.9155 2.11642 30.9152 2.11734C30.9169 2.12509 30.9187 2.13301 30.9211 2.14092C30.9216 2.14227 30.9221 2.14337 30.9221 2.14471C30.9273 2.16333 30.9325 2.1816 30.936 2.19988C30.9412 2.22354 30.9449 2.24662 30.9449 2.26818L30.9273 2.27888V2.33185C30.8876 2.32646 30.9096 2.36141 30.9096 2.37901C30.9612 2.41203 31.0114 2.41978 31.063 2.43182C31.0699 2.47915 31.1003 2.48109 31.1192 2.50517C31.1215 2.50635 31.1225 2.51082 31.1235 2.5141C31.1291 2.52892 31.1244 2.5568 31.1211 2.56657C31.1201 2.57061 31.1193 2.57255 31.1193 2.57002C31.1183 2.56758 31.1139 2.55672 31.1076 2.54417C31.1044 2.5365 31.1004 2.52833 31.0961 2.5205C31.0923 2.51284 31.088 2.50585 31.0838 2.50029C31.0831 2.49877 31.0817 2.49751 31.0808 2.49633C31.076 2.49094 31.0719 2.48757 31.0689 2.48993C31.0262 2.4757 30.9908 2.43401 30.9416 2.44833V2.50753C30.9679 2.51444 30.9946 2.52463 31.021 2.53684C31.0448 2.5472 31.0683 2.56008 31.0917 2.57381C31.188 2.63049 31.2774 2.71463 31.3472 2.81931C31.3677 2.84972 31.3858 2.88138 31.4026 2.91482C31.4031 2.91659 31.404 2.91835 31.4047 2.92012C31.4205 2.95305 31.4346 2.98683 31.4461 3.02237V3.0227C31.4461 3.0227 31.4461 3.02279 31.4461 3.02296C31.4466 3.02363 31.4466 3.02464 31.4471 3.02531C31.4583 3.06094 31.4681 3.09715 31.4744 3.13514C31.4815 3.17514 31.4858 3.21624 31.4858 3.25869C31.4858 3.66799 31.1721 4.00546 30.773 4.04496L30.7837 4.11848C30.862 4.13499 30.8778 4.14619 30.8782 4.18333C30.8797 4.2198 30.8424 4.23622 30.8172 4.26368L30.7995 4.34032V4.57714C30.8629 4.60982 30.8483 4.6537 30.8104 4.6953L30.828 5.30438L30.8782 5.28905L30.941 5.19447L30.9525 5.23624L31.0941 5.15379L31.082 5.18916L31.1946 5.12103V5.14722L31.2974 5.11438L31.286 5.14941L31.4103 5.12533V5.15809H31.4458V5.10772L31.4983 5.17249L31.5142 5.14807L31.6114 5.26353L31.6267 5.18319L31.6482 5.3192L31.6952 5.29604L31.6654 5.36754L31.6985 5.39062L31.6458 5.42894H31.6846V5.47282L31.6579 5.48402L31.6756 5.51905L31.6339 5.53345L31.6579 5.58946H31.5961C31.5919 5.63435 31.5678 5.66399 31.5403 5.69044C31.5417 5.7168 31.5403 5.74114 31.5051 5.75209C31.5175 5.82949 31.4865 5.90469 31.453 5.98276C31.4794 6.05528 31.4865 6.14211 31.5526 6.18371C31.611 6.20443 31.6636 6.23172 31.6823 6.30212C31.6841 6.31307 31.6947 6.31307 31.6947 6.31307H31.7065C31.7241 6.31745 31.7432 6.32823 31.7837 6.32823C31.7915 6.32815 31.7971 6.32916 31.8084 6.32823C32.0539 6.17049 32.0577 5.98201 31.9823 5.78451C32.3368 5.35802 32.5832 5.74249 32.6624 6.17175C32.7168 6.46652 32.7712 7.37373 32.8009 7.71221L32.8688 7.78009C33.0145 7.65713 33.1188 7.69158 33.2035 7.80957C33.4394 7.64155 33.3936 7.78506 33.3332 7.94264C33.3863 7.99376 33.4066 8.05667 33.4314 8.11706C33.5482 8.25433 33.4495 8.35017 33.4193 8.46008C33.4202 8.57757 33.4094 8.68756 33.3807 8.78508C33.4063 8.84665 33.4384 8.89819 33.4843 8.93003C33.461 8.98923 33.461 9.05122 33.461 9.11042C33.456 9.13401 33.449 9.15523 33.441 9.17628C33.4294 9.20795 33.4155 9.23751 33.3965 9.26143C33.37 9.31946 33.3588 9.38439 33.37 9.46238H33.3588V9.48006C33.4515 9.51249 33.5444 9.54929 33.6384 9.58803C33.6566 9.59561 33.6747 9.60403 33.6934 9.61178C33.7719 9.64522 33.8509 9.67958 33.9299 9.71537C33.9446 9.72203 33.9595 9.72885 33.9742 9.73558C33.9957 9.74527 34.0164 9.75504 34.038 9.76481C34.0612 9.77542 34.084 9.78586 34.1072 9.79639C34.2125 9.84499 34.3174 9.89367 34.423 9.94108C34.6417 9.95666 34.8607 9.96854 35.0809 9.97224C35.1689 9.97376 35.2568 9.97224 35.3451 9.97014C35.4386 9.96778 35.5321 9.96331 35.6257 9.95649C35.733 9.94773 35.8405 9.93746 35.9491 9.92011V9.90933L35.9726 9.84987L36.008 9.72573L36.0462 9.50971C36.053 9.46187 36.0587 9.4137 36.0644 9.36536C36.0712 9.29983 36.0778 9.23423 36.0865 9.16912C36.087 9.16601 36.0875 9.16298 36.0881 9.15995C36.0923 9.12811 36.0974 9.09636 36.1029 9.06503C36.1047 9.05442 36.1072 9.04414 36.1095 9.03362C36.1142 9.00928 36.1196 8.98527 36.1257 8.96136C36.1291 8.94898 36.1324 8.93659 36.1359 8.92447C36.1425 8.90215 36.15 8.88 36.1578 8.85819C36.1626 8.84589 36.1672 8.83368 36.1722 8.82147C36.1816 8.79873 36.1927 8.77633 36.2043 8.75401C36.2095 8.74365 36.2142 8.7332 36.2201 8.7231C36.2383 8.69101 36.2589 8.65943 36.2831 8.62886C36.2904 8.492 36.3534 8.36121 36.5459 8.23858C36.6052 8.06223 36.705 7.99527 36.8208 7.97557C36.9069 7.87753 37.0306 7.89421 37.1432 7.87753C37.193 7.85016 37.2352 7.82473 37.2614 7.82473C37.2725 7.82473 37.2725 7.82473 37.2725 7.82473C37.3008 7.82582 37.3055 7.85842 37.2601 7.94297C37.3716 7.93885 37.3925 8.00614 37.4372 8.05549C37.506 8.02425 37.5735 8.00984 37.6419 7.92546C37.7002 8.06602 37.5936 8.13424 37.5317 8.22098L37.4792 8.33089L37.4678 8.46412C37.5638 8.54876 37.5596 8.62439 37.4964 8.69455L37.428 8.82475C37.3841 8.95462 37.3955 9.10402 37.3841 9.24745C37.3646 9.33622 37.4036 9.34708 37.4228 9.38329C37.3851 9.44814 37.3473 9.49202 37.3108 9.52824C37.2726 9.62997 37.2248 9.66947 37.1712 9.6848C37.1512 9.77062 37.1037 9.85636 37.0414 9.94209L37.0679 10.1547C37.0807 10.2406 37.093 10.3293 37.1414 10.3853C37.2036 10.4882 37.2739 10.5888 37.2595 10.7047C37.2758 10.7246 37.2851 10.7428 37.2906 10.7602C37.293 10.7666 37.293 10.7724 37.2944 10.7785C37.2959 10.789 37.2975 10.7994 37.2965 10.8094C37.2958 10.8165 37.2944 10.8234 37.2925 10.8303C37.2906 10.8383 37.2883 10.8464 37.285 10.8541C37.2817 10.8626 37.2786 10.8709 37.2744 10.8792C37.2744 10.8796 37.2739 10.8801 37.2739 10.8805C37.2686 10.8899 37.2639 10.8993 37.2595 10.9086C37.2739 11.0541 37.2283 11.1593 37.1998 11.1746C37.198 11.1761 37.1998 11.381 37.1705 11.4731C37.217 11.6175 37.2552 11.7699 37.3653 11.8752L37.3532 12.1265C37.2235 12.337 37.2475 12.5747 37.2235 12.8035C37.1978 12.8723 37.1719 12.9412 37.1202 12.9839L37.1533 13.111C37.1011 13.424 37.0122 13.4421 36.8667 13.4244C36.7231 13.4076 36.641 13.121 36.9342 12.907V12.7179L37.0552 12.4872V12.0172C36.9505 11.9645 36.8434 11.915 36.7128 11.9017C36.6602 11.9194 36.6324 12.0404 36.5769 12.0029C36.5225 11.9664 36.6965 11.711 36.6244 11.7516L36.4109 11.873C36.3859 12.0081 36.3826 12.1575 36.264 12.2364C36.2189 12.3347 36.2349 12.397 36.0239 12.5942C35.9685 12.7805 35.9099 12.9587 35.9382 13.3452C35.9155 13.4814 35.9155 13.6143 35.9155 13.7443L36.0568 13.8949L36.0721 14.0015H35.5257C35.475 13.9643 35.475 13.8635 35.4637 13.7766C35.5661 13.4403 35.6407 13.1027 35.5465 12.7597L35.6229 12.5409C35.8424 12.408 35.6616 12.1385 35.6616 11.9289C35.6089 11.9039 35.5555 11.8721 35.4962 11.918C35.4578 12.151 35.4172 12.3864 35.3392 12.6455C35.3392 12.7307 35.3321 12.8168 35.3569 12.9024C35.4034 12.9918 35.434 13.082 35.434 13.1776C35.4545 13.3125 35.3971 13.3735 35.3274 13.423L35.3163 13.565L35.3809 13.6648C35.3582 13.8066 35.3693 13.8543 35.3693 13.9484C35.1972 13.9949 35.0641 13.9531 34.9785 13.8008L35.0083 13.5791C34.9698 13.4954 34.8977 13.4866 34.8335 13.458L34.7837 13.1179C34.8153 13.0894 34.8413 13.0487 34.8604 12.9936L34.7714 12.7718L34.8363 12.6065C34.8507 12.3901 34.8227 12.184 34.812 11.9739C34.7865 11.9334 34.7688 11.8917 34.7542 11.8496C34.7421 11.8169 34.734 11.7836 34.7264 11.75C34.7264 11.75 34.7264 11.7499 34.7264 11.7498C34.7202 11.72 34.7115 11.6907 34.7087 11.6603H34.6465L34.647 11.7417L34.6571 14.0045H37.8198V14.1487H23.616V14.0047ZM2.91096 15.1933H21.8223H21.9142H22.0409V15.5313V15.5802V15.7319H21.8143H3.32861L3.27344 15.6603L2.91096 15.1933ZM58.1069 23.4435V24.5497V24.6514H3.57251V24.5497V23.4435V23.3418H58.1069V23.4435ZM59.0977 25.6056L58.1069 27.0958V49.4044H54.1399V47.9169L54.6399 47.4207V26.1026L54.1399 25.6057H49.679L49.1821 26.1026V47.4208L49.679 47.917V49.4045H45.2146V47.917L45.7146 47.4208V26.1026L45.2146 25.6057H39.7631L39.2696 26.1026V47.4208L39.7631 47.917V49.4045H35.2993V47.917L35.7962 47.4208V26.1026L35.2993 25.6057H26.3806L25.8811 26.1026V47.4208L26.3806 47.917V49.4045H21.913V47.917L22.4099 47.4208V26.1026L21.913 25.6057H16.462L15.962 26.1026V47.4208L16.462 47.917V49.4045H12.0244L11.9977 47.917L12.4979 47.4208V26.1026L11.9977 25.6057H7.53672L7.04336 26.1026V47.4208L7.53672 47.917V49.4045H3.57251V27.0959L2.57889 25.6057H3.57251V25.247V25.1453H58.1069V25.247V25.6057H59.0977V25.6056ZM58.1069 22.6316V22.7465V22.8481H3.57251V22.7465V22.6316L2.84889 22.0901H58.8295L58.1069 22.6316ZM60.2482 20.5717L60.0916 20.6506H1.58577L1.42937 20.5717L0.595433 20.1511L1.58577 19.6576H3.00032V19.6594H58.6793V19.6576H60.0916L61.0845 20.1511L60.2482 20.5717Z" fill="black"/>
<path d="M25.0185 9.5813L25.0166 9.58223C25.0372 9.64682 25.031 9.71285 24.9746 9.76557C25.0074 9.78545 25.0515 9.79505 25.0928 9.80953C25.1152 9.78654 25.1041 9.69887 25.1041 9.60547C25.0492 9.61414 25.0348 9.60437 25.0185 9.5813Z" fill="black"/>
<path d="M27.4481 11.2812C27.4235 11.3741 27.3915 11.465 27.3594 11.556L27.9952 11.5704V11.556C27.8235 11.4872 27.6483 11.4092 27.4509 11.2812H27.4481Z" fill="black"/>
<path d="M27.3216 11.6771C27.2824 11.7844 27.2426 11.8918 27.2068 11.9995C27.2455 12.0708 27.2752 12.1448 27.257 12.2271L27.2131 12.1974C27.2254 12.4143 27.2351 12.6209 27.2461 12.8153C27.3593 13.0076 27.2714 13.1484 27.1638 13.2855C27.2068 13.3889 27.1857 13.4582 27.0839 13.4835C27.0331 13.5108 27.0715 13.8191 27.0728 14.0065H27.5225L27.5426 11.6828L27.3212 11.6719L27.3216 11.6771Z" fill="black"/>
<path d="M24.986 9.44897C24.9899 9.47095 24.9929 9.50396 25.0124 9.51676C25.0277 9.4808 25.0956 9.47314 25.1065 9.50489C25.1119 9.52022 25.0914 9.31885 25.0799 9.31885C25.044 9.35894 25.0046 9.39717 24.986 9.44897Z" fill="black"/>
<path d="M25.0744 9.58383V9.51014L25.072 9.50879C25.0549 9.51233 25.0414 9.50348 25.0305 9.5418C25.0348 9.56395 25.0391 9.58383 25.0744 9.58383Z" fill="black"/>
<path d="M28.3056 13.4529C28.3235 13.1499 28.2794 12.8582 28.1548 12.5838C28.2496 12.2461 28.0723 11.9895 28.0272 11.6941L27.6025 11.6829L27.6044 11.6851L27.5631 14.0087H28.2957C28.3086 13.9551 28.2957 13.8937 28.2845 13.8345C28.3707 13.742 28.3469 13.6016 28.3056 13.4529Z" fill="black"/>
<path d="M28.2669 9.81829L28.2999 9.76212C28.3065 9.67436 28.3166 9.58677 28.3291 9.49927C27.7397 9.67411 27.1298 9.76978 26.4997 9.79185C27.0598 9.8599 27.67 9.85223 28.2669 9.81829Z" fill="black"/>
<path d="M26.9634 13.6104C26.9226 13.6732 26.857 13.6917 26.7834 13.7203V14.004H26.9871L26.9661 13.6107L26.9634 13.6104Z" fill="black"/>
<path d="M30.6732 1.17047C30.6876 1.15641 30.6876 1.11657 30.6732 1.10226C30.6695 1.09131 30.6661 1.09131 30.6555 1.09131C30.6488 1.09131 30.6378 1.10226 30.6378 1.10226C30.6239 1.11649 30.6239 1.15641 30.6378 1.17047C30.645 1.18142 30.6621 1.18142 30.6732 1.17047Z" fill="black"/>
<path d="M26.6235 12.05C26.6419 11.9923 26.6556 11.934 26.7183 11.8547V11.7251L26.594 11.9939L26.6235 12.05Z" fill="black"/>
<path d="M34.0645 11.4762L34.2133 11.3804L34.7827 11.015C34.8062 10.8659 34.845 10.7202 34.8994 10.5781C34.9063 10.5593 34.9106 10.5398 34.9186 10.5212L34.9603 10.4213C34.9603 10.4213 34.9287 10.406 34.9395 10.3949C34.9919 10.3152 35.0745 10.2431 35.1702 10.185C35.1191 10.1936 35.0739 10.1989 35.0357 10.1974H35.0353C35.0239 10.1968 35.0109 10.1985 35.0019 10.196C34.8348 10.1634 34.5469 10.0449 34.3183 9.96249C34.2202 9.94674 34.1212 9.93057 34.0217 9.91306C33.9939 9.90826 33.9663 9.90337 33.9385 9.89798C33.9193 9.8947 33.9008 9.8915 33.8816 9.88771C33.8811 9.88771 33.8811 9.88762 33.8811 9.88762C33.8288 9.87718 33.7771 9.86471 33.725 9.85242C33.704 9.84728 33.6831 9.84358 33.6621 9.8381C33.5902 9.81949 33.5189 9.79835 33.4491 9.77393C33.5123 9.88299 33.5755 9.98624 33.6468 10.141L33.6678 10.0258L33.8789 10.0338L33.9543 10.0367C33.9553 10.0488 33.9558 10.0615 33.9566 10.0737C33.9571 10.0814 33.9576 10.0895 33.9581 10.0975C33.9628 10.1613 33.9669 10.2253 33.9692 10.2899C33.9734 10.4051 33.974 10.5212 33.974 10.6376C33.9734 10.6801 33.974 10.7223 33.9734 10.7649C33.9729 10.8514 33.972 10.938 33.972 11.0242C34.0404 11.1586 33.993 11.3294 33.993 11.4882L34.0645 11.4762Z" fill="black"/>
<path d="M37.1148 9.65488L37.113 9.65454C37.0847 9.66212 37.0559 9.67652 37.0273 9.6964C37.0273 9.73034 37.0387 9.77068 37.0387 9.81136C37.0857 9.77203 37.1004 9.71408 37.1148 9.65488Z" fill="black"/>
<path d="M27.483 11.1708C27.4718 11.1775 27.4733 11.1775 27.4718 11.1882C27.5962 11.2768 27.8315 11.4084 27.9687 11.472L27.9095 11.2681C27.8841 11.0804 27.8798 10.891 27.9201 10.7033C27.9095 10.6084 27.8612 10.5195 27.9709 10.4107C28.043 10.2486 28.1427 10.1161 28.2574 9.99671L28.2873 9.86988L28.2435 9.85893C27.496 9.89843 26.8498 9.8719 26.1357 9.77319L26.1345 9.77353V9.78423L26.238 9.89969C26.3364 9.95797 26.4866 9.97961 26.6461 9.99402C27.5579 9.98231 27.4676 10.61 27.483 11.1708Z" fill="black"/>
<path d="M30.5025 8.49087V8.41406L30.3928 8.47344V8.60052C30.4322 8.58208 30.469 8.55345 30.5025 8.49087Z" fill="black"/>
<path d="M30.9159 6.00443C30.9024 5.91389 30.9019 5.85258 30.9015 5.78874H30.8626L30.8607 5.78613L30.8718 6.08486C30.8867 6.06044 30.9048 6.04174 30.9159 6.00443Z" fill="black"/>
<path d="M33.1892 13.6644C32.993 13.7876 32.9446 13.6897 32.8586 13.5906L32.9182 13.431C32.8939 13.3078 32.8194 13.2677 32.8586 13.0438L32.8173 12.8457C32.7437 12.7077 32.7293 12.5538 32.7107 12.4023L32.7078 12.4019L32.5781 12.4227C32.4954 12.5786 32.5845 12.7015 32.5515 12.8185C32.4548 13.0583 32.4199 13.3134 32.4362 13.5816C32.4759 13.6892 32.465 13.8122 32.4185 13.948V14.0073H33.155L33.1427 13.8566C33.212 13.8215 33.2074 13.7852 33.1781 13.7502L33.1892 13.6644Z" fill="black"/>
<path d="M29.0396 13.2796C28.998 13.1707 28.9688 13.0602 28.998 12.9517C28.886 12.7442 29.0047 12.5653 28.9265 12.3306H28.8464H28.8447C28.7807 12.3763 28.7759 12.4297 28.7971 12.4902C28.8702 12.671 28.8511 12.8188 28.7798 12.9428C28.7807 13.052 28.7855 13.1556 28.7595 13.3062L28.7329 13.7467L28.7971 14.0068H29.2344V13.5694C29.1036 13.5401 29.0748 13.4058 29.0396 13.2796Z" fill="black"/>
<path d="M29.9234 8.80929C29.923 8.80929 29.9234 8.79834 29.9234 8.79834L29.9225 8.80036C29.6452 8.94909 29.3824 9.07113 29.1154 9.19931L29.1484 9.61038C29.3701 9.30652 29.6204 9.03297 29.9234 8.80929Z" fill="black"/>
<path d="M30.7464 6.11416L30.736 5.75033L30.7407 5.74536C30.6919 5.75842 30.6513 5.7697 30.6105 5.7697C30.5843 5.75143 30.4183 6.03179 30.436 6.0504C30.444 6.05706 30.478 6.10304 30.478 6.10304C30.5638 6.11416 30.648 6.11416 30.7464 6.11416Z" fill="black"/>
<path d="M34.1029 11.5672L34.3305 11.5631L34.7267 11.5561C34.7366 11.4232 34.7491 11.2911 34.7654 11.1594L34.2597 11.4706L34.1029 11.5672Z" fill="black"/>
<path d="M30.5331 12.4683L29.9447 12.4033C29.9629 12.4546 29.9735 12.5056 29.9782 12.5558C29.981 12.5842 29.9777 12.6122 29.9773 12.6401C29.9764 12.662 29.9787 12.684 29.9764 12.7056C29.9731 12.7335 29.9662 12.7611 29.9605 12.7888C29.9561 12.81 29.9536 12.8316 29.9481 12.8527C29.9401 12.8846 29.9294 12.916 29.9193 12.9476C29.9136 12.9638 29.9093 12.9801 29.9039 12.9963C29.9035 12.9972 29.9035 12.9982 29.903 12.9992L29.8587 13.5283L29.8797 13.8121C29.8342 13.9223 29.876 13.9606 29.9127 14.0015H30.9781L31.069 13.8359L31.0585 12.5262L30.5331 12.4683Z" fill="black"/>
<path d="M29.6773 13.0317C29.6656 12.9948 29.6549 12.9581 29.6442 12.9214C29.6381 12.8995 29.6331 12.8775 29.628 12.8557C29.6218 12.8326 29.6174 12.8095 29.6132 12.7866C29.6099 12.7684 29.607 12.7503 29.6052 12.7322C29.602 12.7055 29.6016 12.6789 29.6021 12.6526C29.6021 12.638 29.6016 12.6232 29.6027 12.6087C29.6065 12.568 29.614 12.5276 29.6298 12.4878L29.6032 12.3989C29.5266 12.3527 29.4499 12.3747 29.3731 12.3635L29.3698 12.3659C29.3653 12.4561 29.3764 12.5462 29.3922 12.6361C29.3926 12.6383 29.3926 12.6406 29.3931 12.643V12.643C29.4179 12.784 29.4568 12.9251 29.4907 13.0666C29.5037 13.176 29.4996 13.2917 29.4702 13.4153C29.4381 13.4777 29.4001 13.5382 29.3251 13.5724V14.0098H29.6178L29.6032 13.9987C29.6309 13.9711 29.6624 13.9548 29.6773 13.901C29.6154 13.7571 29.6532 13.6411 29.6893 13.5254L29.6773 13.0317Z" fill="black"/>
<path d="M32.0088 12.532L32.098 12.5055L32.0864 12.4637L32.0854 12.4636L31.4616 12.5318V12.6384L31.4022 12.6823L31.4225 13.785L31.5119 14.0037H32.1975L32.2324 13.9125C32.1791 13.7834 32.1902 13.6738 32.2324 13.5728L32.2478 12.9163C31.9385 12.9609 31.9237 12.7837 32.0088 12.532Z" fill="black"/>
<path d="M30.5732 1.17047C30.5871 1.15641 30.5871 1.11657 30.5732 1.10226C30.5698 1.09131 30.5665 1.09131 30.5555 1.09131C30.5488 1.09131 30.5382 1.10226 30.5382 1.10226C30.5234 1.11649 30.5234 1.15641 30.5382 1.17047C30.545 1.18142 30.5621 1.18142 30.5732 1.17047Z" fill="black"/>
<path d="M30.609 3.3451C30.4612 3.35428 30.3494 3.41938 30.2365 3.4807L30.224 3.04326C30.261 3.06238 30.2963 3.08276 30.3322 3.10272C30.3327 3.10272 30.3331 3.10297 30.3331 3.10305L30.3337 3.10314C30.3918 3.13548 30.4542 3.16302 30.5266 3.1786C30.5269 3.1786 30.5269 3.1786 30.5269 3.1786C30.5495 3.1834 30.5714 3.18921 30.5969 3.19098C30.5988 3.1594 30.5962 3.12782 30.591 3.09606C30.5887 3.08251 30.5849 3.06895 30.5811 3.0553C30.577 3.03821 30.5728 3.02128 30.5667 3.00427C30.5603 2.98599 30.5532 2.96788 30.545 2.94969C30.5403 2.93908 30.5351 2.92847 30.5295 2.91786C30.5183 2.89554 30.5068 2.8733 30.4934 2.8509C30.4776 2.82454 30.4613 2.7981 30.4426 2.77157L30.6384 2.75607C30.6384 2.73308 30.6384 2.71354 30.6384 2.69358L30.6331 2.68945C30.5858 2.69619 30.5417 2.71051 30.4992 2.72836C30.491 2.7319 30.4825 2.73535 30.4742 2.73923C30.4327 2.75919 30.3929 2.78302 30.358 2.81225C30.3551 2.81435 30.3533 2.81671 30.3509 2.8189C30.3443 2.82463 30.3385 2.83119 30.3318 2.83717C30.3318 2.83726 30.3318 2.83743 30.3313 2.83751C30.2945 2.87271 30.2611 2.91154 30.235 2.95592C30.2126 2.99306 30.1968 3.03391 30.1839 3.07594C30.1805 3.08613 30.1778 3.09632 30.1754 3.10676C30.1644 3.15039 30.157 3.19528 30.157 3.24235C30.157 3.53636 30.3787 3.77403 30.6658 3.79812C30.6658 3.78279 30.6662 3.76089 30.6658 3.7422L30.5087 3.75331C30.5546 3.61797 30.6359 3.48794 30.609 3.3451Z" fill="black"/>
<path d="M26.6155 14.0039H26.6916L26.6767 13.8796C26.6261 13.8985 26.6261 13.9557 26.6155 14.0039Z" fill="black"/>
<path d="M34.5909 11.6566L34.5826 11.6562L34.4463 11.6599L34.0024 11.6716V11.8046H34.0708L34.0918 11.976H34.2159C34.2458 12.0445 34.2487 12.1148 34.2159 12.183H34.0918L34.0824 12.2667L34.0741 12.3398H34.0062V12.6836V13.3094L34.0173 14.0013H34.6086L34.5914 11.725L34.5909 11.6566Z" fill="black"/>
<path d="M33.6717 12.5166L33.6508 12.4341L33.5944 12.3813H33.4972C33.4899 12.4977 33.5269 12.6434 33.4414 12.7085C33.4474 12.7611 33.4485 12.8088 33.4452 12.852C33.4418 12.8953 33.4341 12.9327 33.4224 12.9668C33.4224 12.9673 33.4224 12.9677 33.4219 12.9681C33.4197 12.9748 33.4197 12.9834 33.4172 12.9896C33.4397 13.0779 33.5269 13.1393 33.4498 13.2792L33.4172 13.7583C33.413 13.7946 33.4569 13.8061 33.5083 13.8057V14.0035H33.7243L33.6865 12.9427L33.6717 12.5166Z" fill="black"/>
<path d="M35.0506 10.155C35.1357 10.1721 35.2286 10.1475 35.3209 10.1143C35.3352 10.108 35.3502 10.1042 35.365 10.0983C35.4074 10.0817 35.4506 10.0648 35.4926 10.0525C35.5921 10.0242 35.6874 10.0077 35.7641 10.0087C35.8284 9.99225 35.8922 9.97355 35.9386 9.95266V9.94702C35.8334 9.96631 35.7294 9.97843 35.6251 9.98652C35.5328 9.99444 35.4409 9.99797 35.3492 9.99983H35.3487C35.3482 9.99983 35.3482 9.99983 35.3482 9.99983C35.2588 10.0016 35.1697 10.0023 35.0807 9.99991C35.0802 9.99991 35.0793 9.99991 35.0789 9.99991C35.0774 9.99991 35.0766 9.99983 35.0751 9.99966C34.8794 9.99444 34.6841 9.98315 34.4886 9.97043L35.0195 10.1493C35.0296 10.1529 35.0404 10.1529 35.0506 10.155Z" fill="black"/>
<path d="M32.1701 8.33135L32.0993 8.31071C32.0915 8.25706 32.1055 8.20257 32.0581 8.14893C32.0515 8.21344 32.038 8.27012 31.9937 8.28974L32.0673 8.64447C32.1232 8.66511 32.1781 8.68717 32.2314 8.71202C32.2529 8.72196 32.2748 8.73088 32.2953 8.74234L32.2812 8.69694L32.1701 8.33135Z" fill="black"/>
<path d="M35.8934 10.0361L35.9174 9.98344L35.9179 9.98218C35.8929 9.99094 35.8632 10.0008 35.8292 10.0117C35.8552 10.0172 35.8762 10.0251 35.8934 10.0361Z" fill="black"/>
<path d="M26.3882 12.7637L26.3414 12.8482V13.2945L26.335 13.348L26.2796 13.8091L26.3007 13.9894C26.3485 13.9664 26.3978 13.9441 26.4275 13.9124V13.7705C26.4541 13.6889 26.4716 13.6149 26.4834 13.5451C26.4838 13.5415 26.4848 13.538 26.4858 13.5344C26.4964 13.4644 26.5011 13.3997 26.5002 13.3391C26.4973 13.1873 26.4619 13.0616 26.4132 12.9455L26.3882 12.7637Z" fill="black"/>
<path d="M26.7356 12.7327C26.728 12.7724 26.7414 12.8075 26.7686 12.8219C26.7676 12.7789 26.7709 12.7318 26.7356 12.7327Z" fill="black"/>
<path d="M30.8803 2.83626C30.8703 2.85731 30.8626 2.87862 30.8536 2.89993C30.8483 2.91332 30.8421 2.92671 30.8374 2.9406C30.8296 2.96275 30.8244 2.98591 30.8193 3.0089C30.8164 3.02129 30.812 3.03333 30.8101 3.04596C30.8045 3.08201 30.8025 3.1194 30.8063 3.15856C31.0192 3.15444 31.0991 3.07839 31.2 3.01362L31.2018 3.09616L31.2063 3.25727V3.26038L31.2119 3.47194C31.0853 3.41055 30.9622 3.34705 30.8101 3.33593C30.8151 3.51389 30.8966 3.60223 30.9422 3.73218L30.7858 3.74305V3.80234C31.065 3.77025 31.2766 3.53772 31.2766 3.24977C31.2766 3.23823 31.2719 3.22821 31.2714 3.21676C31.2678 3.15907 31.2565 3.10449 31.2369 3.0532C31.2143 2.99408 31.1813 2.94178 31.1412 2.89462C31.1273 2.87811 31.1129 2.86203 31.0971 2.84729C31.0809 2.83221 31.0645 2.81747 31.0468 2.80434C31.0124 2.77958 30.9765 2.75717 30.9369 2.74033C30.9337 2.73898 30.9316 2.73645 30.9282 2.73511C30.9253 2.74067 30.9225 2.74639 30.9197 2.75212V2.7522C30.9114 2.76989 30.9034 2.78758 30.8952 2.80526C30.8899 2.81562 30.8848 2.8259 30.8803 2.83626Z" fill="black"/>
<path d="M30.768 2.69385V2.74421L30.9168 2.73107C30.8695 2.71212 30.8206 2.69452 30.768 2.69385Z" fill="black"/>
<path d="M30.5815 2.26245C30.5537 2.27247 30.5522 2.30397 30.5383 2.32679V2.36865C30.5475 2.40605 30.5666 2.41691 30.5815 2.43342C30.5815 2.37615 30.5923 2.31947 30.5815 2.26245Z" fill="black"/>
<path d="M30.3527 2.55511C30.3629 2.55191 30.3728 2.54753 30.3806 2.53919C30.39 2.52985 30.3979 2.51654 30.4044 2.49801C30.4318 2.47182 30.4598 2.47098 30.4816 2.51359C30.5096 2.50382 30.5122 2.47637 30.4988 2.42457C30.4835 2.4127 30.4682 2.41227 30.4552 2.4127L30.4585 2.41354C30.4458 2.41354 30.4347 2.41708 30.424 2.4228C30.4231 2.42339 30.4226 2.42423 30.4217 2.42482C30.4118 2.43047 30.4026 2.43805 30.3943 2.44748C30.3774 2.4655 30.363 2.48875 30.3481 2.51359V2.55755C30.3486 2.55747 30.3491 2.55696 30.3495 2.55688C30.3508 2.55671 30.3518 2.55545 30.3527 2.55511Z" fill="black"/>
<path d="M33.6489 9.79411C33.6609 9.79731 33.6731 9.79975 33.6852 9.80287C33.7527 9.81963 33.8197 9.83555 33.8867 9.8497C33.8942 9.85138 33.902 9.85281 33.9095 9.85416C33.9499 9.86258 33.9899 9.87067 34.0305 9.87858C34.0313 9.87858 34.0322 9.87884 34.0327 9.87892C34.1234 9.89627 34.2133 9.91311 34.3034 9.92996C34.2154 9.89054 34.1282 9.85029 34.0401 9.81028C33.9987 9.79125 33.9569 9.77264 33.9155 9.75411C33.8431 9.72177 33.7699 9.69103 33.6964 9.66071C33.6777 9.65321 33.6593 9.64487 33.6407 9.63755C33.5541 9.60319 33.467 9.57101 33.3787 9.54297L33.3744 9.54735L33.3853 9.60639L33.429 9.59561C33.4304 9.6319 33.4481 9.66576 33.4062 9.71073C33.4173 9.71528 33.4173 9.72615 33.4173 9.72615C33.4944 9.75192 33.5717 9.77415 33.6489 9.79411Z" fill="black"/>
<path d="M13.3205 26.1299C13.1837 26.1299 13.0729 26.2405 13.0729 26.3771C13.0729 26.5138 13.0729 47.1823 13.0729 47.3188C13.0729 47.4556 13.1837 47.5664 13.3205 47.5664C13.4573 47.5664 13.5679 47.4556 13.5679 47.3188C13.5679 47.2283 13.5679 26.4679 13.5679 26.3771C13.5679 26.2405 13.4573 26.1299 13.3205 26.1299Z" fill="black"/>
<path d="M14.2335 26.1299C14.0967 26.1299 13.9859 26.2405 13.9859 26.3771C13.9859 26.5138 13.9859 47.1823 13.9859 47.3188C13.9859 47.4556 14.0967 47.5664 14.2335 47.5664C14.3701 47.5664 14.4809 47.4556 14.4809 47.3188C14.4809 47.2283 14.4809 26.4679 14.4809 26.3771C14.4809 26.2405 14.37 26.1299 14.2335 26.1299Z" fill="black"/>
<path d="M15.1463 26.1299C15.0094 26.1299 14.8989 26.2405 14.8989 26.3771C14.8989 26.5138 14.8989 47.1823 14.8989 47.3188C14.8989 47.4556 15.0094 47.5664 15.1463 47.5664C15.2831 47.5664 15.3939 47.4556 15.3939 47.3188C15.3939 47.2283 15.3939 26.4679 15.3939 26.3771C15.3939 26.2405 15.2831 26.1299 15.1463 26.1299Z" fill="black"/>
<path d="M46.5334 26.1299C46.3966 26.1299 46.2859 26.2405 46.2859 26.3771C46.2859 26.5138 46.2859 47.1823 46.2859 47.3188C46.2859 47.4556 46.3965 47.5664 46.5334 47.5664C46.6702 47.5664 46.7808 47.4556 46.7808 47.3188C46.7808 47.2283 46.7808 26.4679 46.7808 26.3771C46.7809 26.2405 46.6702 26.1299 46.5334 26.1299Z" fill="black"/>
<path d="M47.4464 26.1299C47.3096 26.1299 47.1988 26.2405 47.1988 26.3771C47.1988 26.5138 47.1988 47.1823 47.1988 47.3188C47.1988 47.4556 47.3096 47.5664 47.4464 47.5664C47.5829 47.5664 47.6938 47.4556 47.6938 47.3188C47.6938 47.2283 47.6938 26.4679 47.6938 26.3771C47.6938 26.2405 47.5829 26.1299 47.4464 26.1299Z" fill="black"/>
<path d="M48.3592 26.1299C48.2223 26.1299 48.1118 26.2405 48.1118 26.3771C48.1118 26.5138 48.1118 47.1823 48.1118 47.3188C48.1118 47.4556 48.2223 47.5664 48.3592 47.5664C48.496 47.5664 48.6068 47.4556 48.6068 47.3188C48.6068 47.2283 48.6068 26.4679 48.6068 26.3771C48.6068 26.2405 48.496 26.1299 48.3592 26.1299Z" fill="black"/>
<path d="M36.6554 26.1299C36.5187 26.1299 36.4078 26.2405 36.4078 26.3771C36.4078 26.5138 36.4078 47.1823 36.4078 47.3188C36.4078 47.4556 36.5187 47.5664 36.6554 47.5664C36.792 47.5664 36.9029 47.4556 36.9029 47.3188C36.9029 47.2283 36.9029 26.4679 36.9029 26.3771C36.9029 26.2405 36.792 26.1299 36.6554 26.1299Z" fill="black"/>
<path d="M37.568 26.1299C37.4315 26.1299 37.3206 26.2405 37.3206 26.3771C37.3206 26.5138 37.3206 47.1823 37.3206 47.3188C37.3206 47.4556 37.4314 47.5664 37.568 47.5664C37.7048 47.5664 37.8156 47.4556 37.8156 47.3188C37.8156 47.2283 37.8156 26.4679 37.8156 26.3771C37.8157 26.2405 37.7048 26.1299 37.568 26.1299Z" fill="black"/>
<path d="M38.4811 26.1299C38.3444 26.1299 38.2337 26.2405 38.2337 26.3771C38.2337 26.5138 38.2337 47.1823 38.2337 47.3188C38.2337 47.4556 38.3443 47.5664 38.4811 47.5664C38.618 47.5664 38.7286 47.4556 38.7286 47.3188C38.7286 47.2283 38.7286 26.4679 38.7286 26.3771C38.7285 26.2405 38.6179 26.1299 38.4811 26.1299Z" fill="black"/>
<path d="M23.1988 26.1299C23.062 26.1299 22.9514 26.2405 22.9514 26.3771C22.9514 26.5138 22.9514 47.1823 22.9514 47.3188C22.9514 47.4556 23.0619 47.5664 23.1988 47.5664C23.3357 47.5664 23.4462 47.4556 23.4462 47.3188C23.4462 47.2283 23.4462 26.4679 23.4462 26.3771C23.4461 26.2405 23.3356 26.1299 23.1988 26.1299Z" fill="black"/>
<path d="M24.1114 26.1299C23.9746 26.1299 23.8638 26.2405 23.8638 26.3771C23.8638 26.5138 23.8638 47.1823 23.8638 47.3188C23.8638 47.4556 23.9747 47.5664 24.1114 47.5664C24.2482 47.5664 24.3589 47.4556 24.3589 47.3188C24.3589 47.2283 24.3589 26.4679 24.3589 26.3771C24.3589 26.2405 24.2483 26.1299 24.1114 26.1299Z" fill="black"/>
<path d="M25.0245 26.1299C24.8879 26.1299 24.777 26.2405 24.777 26.3771C24.777 26.5138 24.777 47.1823 24.777 47.3188C24.777 47.4556 24.8879 47.5664 25.0245 47.5664C25.1612 47.5664 25.2721 47.4556 25.2721 47.3188C25.2721 47.2283 25.2721 26.4679 25.2721 26.3771C25.2721 26.2405 25.1612 26.1299 25.0245 26.1299Z" fill="black"/>
<path d="M4.35156 26.1299C4.21496 26.1299 4.10413 26.2405 4.10413 26.3771C4.10413 26.5138 4.10413 47.1823 4.10413 47.3188C4.10413 47.4556 4.21496 47.5664 4.35156 47.5664C4.48833 47.5664 4.59917 47.4556 4.59917 47.3188C4.59917 47.2283 4.59917 26.4679 4.59917 26.3771C4.59917 26.2405 4.48833 26.1299 4.35156 26.1299Z" fill="black"/>
<path d="M5.26447 26.1299C5.12761 26.1299 5.01703 26.2405 5.01703 26.3771C5.01703 26.5138 5.01703 47.1823 5.01703 47.3188C5.01703 47.4556 5.12761 47.5664 5.26447 47.5664C5.40124 47.5664 5.51207 47.4556 5.51207 47.3188C5.51207 47.2283 5.51207 26.4679 5.51207 26.3771C5.51216 26.2405 5.40124 26.1299 5.26447 26.1299Z" fill="black"/>
<path d="M6.17749 26.1299C6.04072 26.1299 5.93005 26.2405 5.93005 26.3771C5.93005 26.5138 5.93005 47.1823 5.93005 47.3188C5.93005 47.4556 6.04063 47.5664 6.17749 47.5664C6.31435 47.5664 6.42493 47.4556 6.42493 47.3188C6.42493 47.2283 6.42493 26.4679 6.42493 26.3771C6.42484 26.2405 6.31426 26.1299 6.17749 26.1299Z" fill="black"/>
<path d="M55.5021 26.1299C55.3654 26.1299 55.2547 26.2405 55.2547 26.3771C55.2547 26.5138 55.2547 47.1823 55.2547 47.3188C55.2547 47.4556 55.3653 47.5664 55.5021 47.5664C55.639 47.5664 55.7496 47.4556 55.7496 47.3188C55.7496 47.2283 55.7496 26.4679 55.7496 26.3771C55.7496 26.2405 55.639 26.1299 55.5021 26.1299Z" fill="black"/>
<path d="M56.4152 26.1299C56.2784 26.1299 56.1676 26.2405 56.1676 26.3771C56.1676 26.5138 56.1676 47.1823 56.1676 47.3188C56.1676 47.4556 56.2784 47.5664 56.4152 47.5664C56.552 47.5664 56.6626 47.4556 56.6626 47.3188C56.6626 47.2283 56.6626 26.4679 56.6626 26.3771C56.6626 26.2405 56.552 26.1299 56.4152 26.1299Z" fill="black"/>
<path d="M57.3279 26.1299C57.1914 26.1299 57.0804 26.2405 57.0804 26.3771C57.0804 26.5138 57.0804 47.1823 57.0804 47.3188C57.0804 47.4556 57.1913 47.5664 57.3279 47.5664C57.4647 47.5664 57.5755 47.4556 57.5755 47.3188C57.5755 47.2283 57.5755 26.4679 57.5755 26.3771C57.5756 26.2405 57.4647 26.1299 57.3279 26.1299Z" fill="black"/>
<path d="M38.4838 15.96H23.1962V18.2374H38.4838V15.96ZM38.2455 17.9993H23.4343V16.1981H38.2455V17.9993V17.9993Z" fill="black"/>
</svg>
