<svg width="37.85626587" height="52.79038506" xmlns="http://www.w3.org/2000/svg" xmlns:svg="http://www.w3.org/2000/svg">
 <g class="layer">
  <title>Layer 1</title>
  <path d="m25.34,1.82c-1.68,-0.53 -3.48,-0.82 -5.34,-0.82c-5.43,0 -10.29,2.45 -13.54,6.31l8.35,7.02l10.53,-12.51z" fill="#1a73e8" id="svg_1"/>
  <path d="m6.46,7.31a17.61,17.61 0 0 0 -4.14,11.36c0,3.32 0.66,6.02 1.75,8.43l10.74,-12.77l-8.35,-7.02z" fill="#ea4335" id="svg_2"/>
  <path d="m20,11.92a6.76,6.76 0 0 1 5.16,11.13l10.52,-12.51a17.68,17.68 0 0 0 -10.35,-8.71l-10.51,12.51a6.74,6.74 0 0 1 5.18,-2.42" fill="#4285f4" id="svg_3"/>
  <path d="m20,25.44c-3.73,0 -6.76,-3.03 -6.76,-6.76a6.7,6.7 0 0 1 1.58,-4.34l-10.75,12.77c1.84,4.07 4.89,7.34 8.03,11.46l13.06,-15.52a6.75,6.75 0 0 1 -5.16,2.39" fill="#fbbc04" id="svg_4"/>
  <path d="m24.9,42.8c5.9,-9.22 12.77,-13.41 12.77,-24.13c0,-2.94 -0.72,-5.71 -1.99,-8.15l-23.57,28.05c1,1.31 2.01,2.7 2.99,4.24c3.58,5.54 2.59,8.86 4.9,8.86s1.32,-3.33 4.9,-8.87" fill="#34a853" id="svg_5"/>
 </g>
</svg>