<svg width="1416" height="1148" viewBox="0 0 1416 1148" fill="none" xmlns="http://www.w3.org/2000/svg">
<path d="M572.17 180.39C405.77 296.85 184.47 158.32 42.66 340.96C-57.08 469.42 28.47 658.45 209.67 764.73C414.67 884.97 346.13 1055.44 497.91 1130.96C674.38 1218.76 751.4 935.87 944.49 928.87C1280.32 916.69 1447.9 831.3 1325.24 640.78C1224.78 484.74 1310.62 375.5 1253.52 226.8C1171.54 13.2599 930.37 -70.3101 572.17 180.39Z" fill="#D6CFFF"/>
<path d="M1253.53 226.79C1171.54 13.26 930.37 -70.31 572.17 180.39C405.77 296.85 184.47 158.32 42.66 340.96C-57.08 469.42 28.47 658.45 209.67 764.73C210.09 764.98 210.5 765.23 210.92 765.48H1364.6C1368.67 730.27 1356.21 688.87 1325.24 640.78C1224.78 484.73 1310.62 375.49 1253.53 226.79Z" fill="#D6CFFF"/>
<path d="M35.46 0.409912H0.459961V775.44H35.46V0.409912Z" fill="#BDB9EF"/>
<path d="M105.45 0.409912H70.45V775.44H105.45V0.409912Z" fill="#BDB9EF"/>
<path d="M175.44 0.409912H140.44V775.44H175.44V0.409912Z" fill="#BDB9EF"/>
<path d="M245.44 0.409912H210.44V775.44H245.44V0.409912Z" fill="#BDB9EF"/>
<path d="M315.43 0.409912H280.43V775.44H315.43V0.409912Z" fill="#BDB9EF"/>
<path d="M385.43 0.409912H350.43V775.44H385.43V0.409912Z" fill="#BDB9EF"/>
<path d="M455.42 0.409912H420.42V775.44H455.42V0.409912Z" fill="#BDB9EF"/>
<path d="M525.42 0.409912H490.42V775.44H525.42V0.409912Z" fill="#BDB9EF"/>
<path d="M595.41 0.409912H560.41V775.44H595.41V0.409912Z" fill="#BDB9EF"/>
<path d="M665.41 0.409912H630.41V775.44H665.41V0.409912Z" fill="#BDB9EF"/>
<path d="M735.4 0.409912H700.4V775.44H735.4V0.409912Z" fill="#BDB9EF"/>
<path d="M805.4 0.409912H770.4V775.44H805.4V0.409912Z" fill="#BDB9EF"/>
<path d="M875.39 0.409912H840.39V775.44H875.39V0.409912Z" fill="#BDB9EF"/>
<path d="M945.38 0.409912H910.38V775.44H945.38V0.409912Z" fill="#BDB9EF"/>
<path d="M1015.38 0.409912H980.38V775.44H1015.38V0.409912Z" fill="#BDB9EF"/>
<path d="M1085.37 0.409912H1050.37V775.44H1085.37V0.409912Z" fill="#BDB9EF"/>
<path d="M1155.37 0.409912H1120.37V775.44H1155.37V0.409912Z" fill="#BDB9EF"/>
<path d="M1225.36 0.409912H1190.36V775.44H1225.36V0.409912Z" fill="#BDB9EF"/>
<path d="M1295.36 0.409912H1260.36V775.44H1295.36V0.409912Z" fill="#BDB9EF"/>
<path d="M1365.35 0.409912H1330.35V775.44H1365.35V0.409912Z" fill="#BDB9EF"/>
<path d="M1348.34 611.5C1303.13 573.59 1295.08 438.24 1327.55 393.68C1360.02 349.12 1406.88 518.31 1414.56 558.54C1422.24 598.77 1383.65 641.11 1348.34 611.5Z" fill="#D6CFFF"/>
<path d="M1157 562.96H719.45V576.26H1157V562.96Z" fill="#5B4894"/>
<path d="M1034.31 681.92H842.75V695.22H1034.31V681.92Z" fill="#5B4894"/>
<path d="M867.21 573.02L784.75 898.22H796.1L888.31 573.02H867.21Z" fill="#5B4894"/>
<path d="M1009.23 573.02L1091.7 898.22H1080.35L988.13 573.02H1009.23Z" fill="#5B4894"/>
<path d="M608.8 781.36L563.81 806.17L604.37 855.87L636.29 804.25L608.8 781.36Z" fill="#E88562"/>
<path d="M697.68 658.21L587.83 780.98L633.38 826.63C633.38 826.63 788.9 687.63 794.43 618.46L697.68 658.21Z" fill="#5B4894"/>
<path d="M594.72 819.38C594.72 819.38 607.14 797.03 578.68 792.23C578.68 792.23 533.53 810.75 543.6 828.45C544.7 830.39 581.07 871.63 601.97 895.72C622.87 919.81 645.06 904.1 637.34 890.55C629.62 877 616.44 866.46 618.93 851.58C621.32 837.29 626.9 833.81 625.53 830.89C624.15 827.96 613.78 821.35 594.72 819.38Z" fill="#BD4676"/>
<path d="M591.95 871.52C563.02 841.27 549.95 821.74 545.48 814.4C542.17 818.89 540.89 823.7 543.59 828.45C544.69 830.39 581.06 871.63 601.96 895.72C618.59 914.89 636.02 908.85 638.57 898.76C631.33 900.19 617.04 897.76 591.95 871.52Z" fill="#9B3664"/>
<path d="M604.74 837.08C608.37 838.53 632.37 839.18 625.4 847.92C623.14 850.76 619.21 851.62 616.83 854.12C615.81 855.19 614.99 854.43 616.11 856.52C616.53 857.3 618 857.9 618.7 858.36C620.7 859.68 622.72 860.92 624.36 862.69C629.27 867.95 627.01 873.32 621.72 877.12C620.15 878.24 618.35 875.84 619.92 874.72C623.73 871.99 625.74 868.67 622.15 864.77C619.63 862.03 615.63 860.87 613.32 858C610.57 854.58 613.81 852.51 616.63 850.74C618.11 849.81 624.25 846.67 623.4 844.68C622.74 843.12 617.95 842.58 616.52 842.29C612.31 841.44 607.54 841.45 603.53 839.85C601.75 839.11 602.95 836.37 604.74 837.08Z" fill="#2D2D2D"/>
<path d="M835.21 471.5C835.21 471.5 793.24 482.46 778.31 476.4C763.37 470.35 749.64 460.4 749.64 460.4L757.63 527.42C757.63 527.42 771.78 527.66 782.15 526.77C792.51 525.87 816.1 526.2 816.1 526.2L835.21 471.5Z" fill="#E88562"/>
<path d="M799.7 496.91C796.73 495 786.76 487.74 792.35 475.51C797.94 463.27 811.98 458.01 822.22 458.01C832.46 458.01 838.6 454.5 845.91 446.02C853.22 437.54 886.58 425.71 902.36 446.02C902.36 446.02 924.59 439.77 935.71 465.86C935.71 465.86 962.62 477.33 952.09 500.43C941.56 523.53 933.08 511.98 933.66 535.89C934.25 559.8 907.04 564.56 895.05 556.77C883.06 548.98 885.69 561.34 864.63 556.77C843.57 552.2 834.79 553.95 828.65 539.91C822.51 525.87 804.08 529.67 803.2 520.9C802.33 512.12 812.86 505.4 799.7 496.91Z" fill="#2D2D2D"/>
<path d="M703.49 832.91L681.67 879.42L743.69 895.79L739.19 835.27L703.49 832.91Z" fill="#E88562"/>
<path d="M467.07 561.97C467.07 561.97 555.44 619.84 587.09 613.41C639.01 602.86 778.24 575.89 798.82 626.71C824.87 691.03 744.65 857.76 744.65 857.76L686.75 844.63L728.23 706.89C728.23 706.89 675.51 711.57 619.34 719.26C569.72 726.05 530.78 723.68 503.54 709.33C478.27 696.01 422.84 660.52 467.07 561.97Z" fill="#3F317C"/>
<path d="M784.32 528.18C784.32 528.18 740.21 541.83 629.37 676.29C629.37 676.29 455.41 658.69 448.06 576.98C448.06 576.98 631.85 391.7 787.46 476.34C787.46 476.34 768.03 498.47 784.32 528.18Z" fill="#BD4676"/>
<path d="M950.17 562.79H804.61V555.79H946.26L1012.64 448.23L1018.59 451.91L950.17 562.79Z" fill="#2D2D2D"/>
<path d="M488.772 704.976L398.756 902.902L405.128 905.8L495.144 707.874L488.772 704.976Z" fill="#2D2D2D"/>
<path d="M679.56 905.79L602.88 727.61C540.04 734.8 494.26 721.83 466.78 689.04C444.73 662.72 434.69 622.91 437.77 573.92C440.08 537.19 448.73 508.66 449.1 507.46L455.79 509.51C455.7 509.8 446.99 538.57 444.75 574.51C442.71 607.35 445.8 653.1 472.16 684.55C498.4 715.85 542.97 727.89 604.64 720.35L607.24 720.03L685.99 903.02L679.56 905.79Z" fill="#2D2D2D"/>
<path d="M674.19 737.58C674.19 737.58 675.03 774.79 669.01 790.44C664.98 800.91 659.63 821.36 650.7 835.58C649.07 838.17 644.54 837.82 645.15 832.96C648.7 804.73 655.63 756.85 657.95 735.45L674.19 737.58Z" fill="#E88562"/>
<path d="M676.5 486.3C657.4 505.45 642.09 563.19 641.3 588.6C639.62 642.6 652.23 739.51 652.23 739.51L677.55 742.05C677.55 742.05 683.79 654.32 700.43 598.13C709.48 567.55 733.8 546.38 746.35 529.48C774.08 492.13 739.68 422.96 676.5 486.3Z" fill="#9B3664"/>
<path d="M713.15 863.47C709.75 858.11 703.06 853.18 690.3 858.81C688.26 859.71 686.59 861.29 685.56 863.27C680.48 872.96 665.8 903.91 681.61 910.49C683.67 911.35 737.68 921.66 768.96 927.89C800.24 934.12 808.14 908.11 793.75 902.13C779.35 896.14 762.47 895.9 755.32 882.61C748.45 869.86 750.73 863.68 747.85 862.22C745.55 861.05 737.24 861.53 725.68 866.96C721.21 869.04 715.79 867.63 713.15 863.47Z" fill="#BD4676"/>
<path d="M746.21 914.89C704.81 908.71 682.52 901.29 674.49 898.23C674.63 903.81 676.56 908.39 681.61 910.49C683.67 911.34 737.68 921.66 768.96 927.89C793.85 932.85 803.92 917.39 799.75 907.86C794.9 913.42 782.12 920.25 746.21 914.89Z" fill="#9B3664"/>
<path d="M735.19 879.85C739.41 878.64 760.52 863.6 757.9 877.54C757.52 879.54 756.85 881.48 756.16 883.39C755.86 884.2 754.49 886.61 754.78 887.46C755.43 889.36 764.59 887.74 766.7 888.11C773.63 889.34 775.02 894.97 773.19 901.08C772.64 902.92 769.74 902.14 770.3 900.28C775.48 883.05 747.76 898.51 752.51 884.64C753.27 882.41 755.88 877.94 755.18 875.6C754.43 873.08 750.34 875.48 748.6 876.3C744.43 878.27 740.45 881.47 736 882.75C734.13 883.27 733.33 880.38 735.19 879.85Z" fill="#2D2D2D"/>
<path d="M313.03 869.97H210.15L202.15 891.61H321.03L313.03 869.97Z" fill="#2D2D2D"/>
<path d="M258.004 395.001L258.004 891.611H265.174L265.174 395.001H258.004Z" fill="#2D2D2D"/>
<path d="M285.25 459.21C284.15 459.21 283.25 458.31 283.25 457.21V397C283.25 395.9 284.15 395 285.25 395C286.35 395 287.25 395.9 287.25 397V457.22C287.25 458.32 286.35 459.21 285.25 459.21Z" fill="#2D2D2D"/>
<path d="M285.25 470.52C288.923 470.52 291.9 467.543 291.9 463.87C291.9 460.198 288.923 457.22 285.25 457.22C281.577 457.22 278.6 460.198 278.6 463.87C278.6 467.543 281.577 470.52 285.25 470.52Z" fill="#2D2D2D"/>
<path d="M320.56 291.99H312.11H211.07H202.62L171 411.82H189H334.18H352.18L320.56 291.99Z" fill="#9B3664"/>
<path d="M323.69 303.86H199.48L194.49 322.78H328.69L323.69 303.86Z" fill="#89BD46"/>
<path d="M184.69 359.92H338.49L333.49 341H189.68L184.69 359.92Z" fill="#89BD46"/>
<path d="M174.89 397.06H348.29L343.29 378.14H179.88L174.89 397.06Z" fill="#89BD46"/>
<path d="M1213.09 278.68H763.24V118.72H1213.09V278.68V278.68ZM775.24 266.68H1201.09V130.72H775.24V266.68Z" fill="#2D2D2D"/>
<path d="M803.88 177.04H775.3V266.74H803.88V177.04Z" fill="#876663"/>
<path d="M803.88 186.06H775.3V195.03H803.88V186.06Z" fill="#9E7A74"/>
<path d="M861.04 153.23H832.46V266.74H861.04V153.23Z" fill="#0F7F82"/>
<path d="M861.04 162.76H832.46V172.29H861.04V162.76Z" fill="#229999"/>
<path d="M818.17 153.23H803.88V266.74H818.17V153.23Z" fill="#0F7F82"/>
<path d="M818.17 162.76H803.88V172.29H818.17V162.76Z" fill="#229999"/>
<path d="M1067.37 223.867L1067.37 252.447L1180.88 252.447L1180.88 223.867L1067.37 223.867Z" fill="#0F7F82"/>
<path d="M1161.83 223.866L1161.83 252.446L1171.36 252.446L1171.36 223.866L1161.83 223.866Z" fill="#229999"/>
<path d="M1046.22 252.443V266.733H1159.73V252.443H1046.22Z" fill="#876663"/>
<path d="M1055.75 252.444V266.734H1065.28V252.444H1055.75Z" fill="#9E7A74"/>
<path d="M876.96 139.421L862.834 141.586L882.016 266.74L896.142 264.575L876.96 139.421Z" fill="#876663"/>
<path d="M832.46 197.29H818.17V266.75H832.46V197.29Z" fill="#876663"/>
<path d="M832.46 204.19H818.17V213.16H832.46V204.19Z" fill="#9E7A74"/>
<path d="M1055.75 209.58V223.87H1144.34V209.58H1055.75Z" fill="#876663"/>
<path d="M1062.66 209.575V223.865H1071.63V209.575H1062.66Z" fill="#9E7A74"/>
<path d="M942.52 207.27C937.29 206.26 931.69 208.54 928.86 209.96C928.28 210.25 927.68 210.46 927.05 210.58C923.95 211.2 918.13 212.84 914.62 216.84C911.18 220.77 910.51 227.5 914.52 235.54C924.32 255.15 934.45 249.22 936.86 247.29C937.1 247.09 937.34 246.9 937.57 246.7C939 245.46 940.84 244.83 942.73 244.93C943.03 244.95 943.34 244.96 943.65 244.96C946.74 245.01 958.37 243.47 954.07 221.97C952.31 213.16 947.65 208.25 942.52 207.27Z" fill="#369B40"/>
<path d="M927.58 211.79C927.58 211.79 925.95 207.77 926.22 203.74C926.22 203.74 927.39 203.81 928.42 203.88C927.8 207.07 928.57 211.97 928.57 211.97L927.58 211.79Z" fill="#369B40"/>
<path d="M997.06 213.2C993.16 209.57 987.2 208.54 984.06 208.24C983.42 208.18 982.8 208.04 982.2 207.81C979.24 206.69 973.44 204.99 968.34 206.53C963.34 208.03 959.2 213.39 958.34 222.33C956.25 244.16 967.98 244.5 971.05 244.14C971.36 244.1 971.67 244.06 971.97 244.01C973.84 243.71 975.74 244.16 977.28 245.25C977.53 245.42 977.78 245.6 978.05 245.77C980.64 247.45 991.32 252.32 999.07 231.81C1002.23 223.39 1000.88 216.75 997.06 213.2Z" fill="#369B40"/>
<path d="M981.99 209.11C981.99 209.11 982.75 204.84 985.1 201.57C985.1 201.57 986.05 202.25 986.89 202.86C984.67 205.24 982.73 209.8 982.73 209.8L981.99 209.11Z" fill="#9B3664"/>
<path d="M904.3 229.99C912.6 251.63 933.52 267.02 958.09 267.02C982.65 267.02 1003.57 251.63 1011.88 229.99H904.3V229.99Z" fill="#2D2D2D"/>
<path d="M956.94 111.54H825.31L836.77 69.77H945.48L956.94 111.54Z" fill="#229999"/>
<path d="M945.47 111.54H836.77V118.67H945.47V111.54Z" fill="#0F7F82"/>
<path d="M849.758 95.11V93.117L858.551 79.2054H859.997V82.2925H859.02L852.376 92.8044V92.9607H864.217V95.11H849.758ZM859.176 99.2131V94.5043V93.5762V79.2054H861.482V99.2131H859.176ZM869.597 96.6535C869.115 96.6535 868.702 96.481 868.357 96.1358C868.012 95.7906 867.839 95.377 867.839 94.895C867.839 94.4131 868.012 93.9995 868.357 93.6543C868.702 93.3091 869.115 93.1366 869.597 93.1366C870.079 93.1366 870.493 93.3091 870.838 93.6543C871.183 93.9995 871.356 94.4131 871.356 94.895C871.356 95.2142 871.275 95.5073 871.112 95.7743C870.955 96.0413 870.744 96.2563 870.477 96.4191C870.216 96.5754 869.923 96.6535 869.597 96.6535ZM869.597 86.5324C869.115 86.5324 868.702 86.3598 868.357 86.0146C868.012 85.6695 867.839 85.2559 867.839 84.7739C867.839 84.292 868.012 83.8784 868.357 83.5332C868.702 83.188 869.115 83.0154 869.597 83.0154C870.079 83.0154 870.493 83.188 870.838 83.5332C871.183 83.8784 871.356 84.292 871.356 84.7739C871.356 85.0931 871.275 85.3861 871.112 85.6532C870.955 85.9202 870.744 86.1351 870.477 86.298C870.216 86.4543 869.923 86.5324 869.597 86.5324ZM882.215 99.4867C880.925 99.4867 879.776 99.2652 878.766 98.8224C877.763 98.3795 876.965 97.764 876.373 96.9759C875.786 96.1814 875.467 95.2598 875.415 94.2112H877.877C877.929 94.856 878.151 95.4128 878.541 95.8818C878.932 96.3442 879.443 96.7024 880.075 96.9564C880.707 97.2104 881.407 97.3374 882.176 97.3374C883.035 97.3374 883.797 97.1876 884.462 96.888C885.126 96.5884 885.647 96.1716 886.025 95.6375C886.402 95.1035 886.591 94.4847 886.591 93.7813C886.591 93.0454 886.409 92.3973 886.044 91.8372C885.68 91.2706 885.145 90.8277 884.442 90.5086C883.739 90.1894 882.879 90.0299 881.863 90.0299H880.261V87.8806H881.863C882.658 87.8806 883.354 87.7373 883.954 87.4507C884.559 87.1642 885.032 86.7604 885.37 86.2393C885.715 85.7183 885.888 85.1061 885.888 84.4027C885.888 83.7253 885.738 83.1359 885.439 82.6344C885.139 82.1329 884.716 81.7421 884.169 81.4621C883.628 81.182 882.99 81.042 882.254 81.042C881.563 81.042 880.912 81.169 880.3 81.423C879.694 81.6705 879.199 82.032 878.815 82.5074C878.431 82.9764 878.222 83.543 878.19 84.2073H875.845C875.884 83.1587 876.2 82.2404 876.793 81.4523C877.385 80.6577 878.16 80.039 879.118 79.5961C880.082 79.1532 881.14 78.9318 882.293 78.9318C883.53 78.9318 884.592 79.1826 885.478 79.6841C886.363 80.179 887.044 80.8336 887.519 81.6477C887.995 82.4618 888.233 83.3411 888.233 84.2855C888.233 85.4122 887.936 86.3729 887.344 87.1674C886.757 87.962 885.96 88.5124 884.95 88.8185V88.9748C886.214 89.1832 887.2 89.7205 887.91 90.5867C888.62 91.4464 888.975 92.5113 888.975 93.7813C888.975 94.869 888.679 95.8459 888.086 96.7122C887.5 97.5719 886.699 98.2492 885.683 98.7442C884.667 99.2392 883.511 99.4867 882.215 99.4867ZM899.497 99.4867C898.025 99.4867 896.771 99.0861 895.736 98.285C894.7 97.4774 893.909 96.3084 893.362 94.7778C892.814 93.2408 892.541 91.3846 892.541 89.2092C892.541 87.0469 892.814 85.2005 893.362 83.67C893.915 82.1329 894.71 80.9606 895.745 80.153C896.787 79.3389 898.038 78.9318 899.497 78.9318C900.956 78.9318 902.203 79.3389 903.238 80.153C904.281 80.9606 905.075 82.1329 905.622 83.67C906.176 85.2005 906.453 87.0469 906.453 89.2092C906.453 91.3846 906.179 93.2408 905.632 94.7778C905.085 96.3084 904.294 97.4774 903.258 98.285C902.222 99.0861 900.969 99.4867 899.497 99.4867ZM899.497 97.3374C900.956 97.3374 902.089 96.634 902.897 95.2272C903.704 93.8204 904.108 91.8144 904.108 89.2092C904.108 87.4768 903.922 86.0016 903.551 84.7837C903.186 83.5658 902.659 82.6377 901.968 81.9994C901.285 81.3611 900.461 81.042 899.497 81.042C898.051 81.042 896.921 81.7552 896.107 83.1815C895.293 84.6013 894.886 86.6106 894.886 89.2092C894.886 90.9417 895.068 92.4136 895.433 93.625C895.797 94.8364 896.322 95.758 897.006 96.3898C897.696 97.0215 898.526 97.3374 899.497 97.3374ZM919.075 99.2131H916.535L923.881 79.2054H926.382L933.729 99.2131H931.189L925.21 82.3706H925.054L919.075 99.2131ZM920.013 91.3976H930.251V93.5469H920.013V91.3976ZM936.845 79.2054H939.737L946.537 95.8134H946.771L953.571 79.2054H956.462V99.2131H954.196V84.0119H954L947.748 99.2131H945.56L939.307 84.0119H939.112V99.2131H936.845V79.2054Z" fill="white"/>
<path d="M1287.05 424.28C1276.26 433.38 1267.05 438.62 1250.82 427.93C1242.17 422.23 1222.38 411.67 1212.84 395.38C1206.8 385.07 1208.23 374.55 1207.5 367.15C1206.08 352.68 1208.67 345.78 1216.57 345.51C1228.52 345.09 1240.21 368.72 1244.52 383.86C1250.04 403.22 1257.16 415 1275.99 410.53L1287.05 424.28Z" fill="#0F7F82"/>
<path d="M1270.46 427.19C1267.46 427.19 1264.33 426.33 1258.75 424.79C1257.38 424.41 1255.86 424 1254.15 423.54C1240.64 419.91 1221.71 392.54 1217.9 384.13C1213.91 375.33 1214.36 356.29 1214.38 355.48C1214.4 354.75 1214.99 354.18 1215.72 354.18C1215.73 354.18 1215.74 354.18 1215.76 354.18C1216.5 354.2 1217.08 354.81 1217.06 355.55C1217.06 355.74 1216.61 374.78 1220.34 383.02C1224.14 391.41 1242.88 417.74 1254.85 420.96C1256.57 421.42 1258.09 421.84 1259.46 422.22C1267.99 424.57 1270.28 425.2 1275.36 423.69C1276.07 423.48 1276.81 423.88 1277.02 424.59C1277.23 425.3 1276.83 426.04 1276.12 426.25C1273.96 426.89 1272.24 427.19 1270.46 427.19Z" fill="#016870"/>
<path d="M1243.22 396.27C1242.9 396.27 1242.57 396.15 1242.32 395.92C1234.04 388.34 1230.86 377.74 1228.54 369.99C1227.7 367.19 1226.98 364.78 1226.17 363.01C1225.86 362.34 1226.16 361.55 1226.83 361.24C1227.5 360.94 1228.29 361.23 1228.6 361.9C1229.48 363.83 1230.23 366.33 1231.1 369.22C1233.33 376.67 1236.39 386.86 1244.13 393.94C1244.67 394.44 1244.71 395.28 1244.21 395.83C1243.94 396.12 1243.58 396.27 1243.22 396.27Z" fill="#016870"/>
<path d="M1273.11 895.3C1294.23 795.33 1287.35 718.2 1281.71 661.88C1276.08 605.56 1262 618.23 1267.63 601.33C1273.26 584.43 1282.79 575.99 1285.3 502.3C1287.81 428.61 1292.97 398.73 1292.51 380.9C1292.05 363.07 1289.54 323.68 1276.87 310.07C1264.2 296.46 1258.1 312.22 1256.22 333.34C1254.34 354.46 1251.68 390.6 1250.27 422.05C1248.86 453.5 1232.9 520.14 1235.25 549.24C1237.6 578.34 1241.82 642.05 1235.01 649.09C1228.2 656.13 1219.76 649.56 1220.7 633.6C1221.64 617.64 1230.56 589.95 1225.39 560.85C1220.22 531.75 1227.74 504.06 1216.94 496.55C1206.15 489.04 1188.78 482.47 1188.31 534.1C1187.84 585.73 1190.5 610.56 1194.48 639.46C1199.23 673.91 1208.02 686.17 1222.1 692.74C1236.18 699.31 1232.62 724.48 1229.33 756.4C1226.04 788.32 1232.05 800.63 1233.93 839.59C1235.81 878.55 1243.4 898.9 1243.4 898.9L1273.11 895.3Z" fill="#0F7F82"/>
<path d="M1278.04 817.89C1291 823.49 1302.77 817.56 1316.91 805.82C1324.88 799.2 1335.06 783.92 1338.63 754.43C1340.22 741.29 1338.07 718.52 1335.05 711.32C1328.11 694.74 1324.12 693.14 1316.9 695.05C1305.34 698.1 1301.88 716.33 1307.06 740.46C1309.64 752.48 1306.05 774.09 1297.27 789.29C1292.1 798.25 1285.55 797.23 1278.02 797.68V817.89H1278.04Z" fill="#0F7F82"/>
<path d="M1267.74 881.62C1267.08 881.62 1266.51 881.13 1266.42 880.46C1264.15 863.57 1264.89 846.96 1268.97 823.11C1273.6 796.06 1273.35 771.39 1273.11 747.54C1273.04 740.62 1272.97 734.09 1273.03 727.58C1273.29 696.82 1269.71 639.7 1259.01 617.4C1252.51 603.86 1257.04 592.9 1262.28 580.21C1264.67 574.42 1267.14 568.44 1269.04 561.41C1272.47 548.72 1274.52 498.64 1276.34 454.46C1277.82 418.32 1279.22 384.19 1281.19 373.77C1285.47 351.12 1273.68 318.98 1271.03 316.86C1270.45 316.4 1270.36 315.56 1270.82 314.98C1271.28 314.4 1272.12 314.31 1272.7 314.77C1276.39 317.72 1288.3 350.59 1283.82 374.26C1281.89 384.48 1280.49 418.52 1279.01 454.56C1277.1 501.05 1275.13 549.12 1271.62 562.1C1269.67 569.3 1267.06 575.64 1264.75 581.23C1259.55 593.83 1255.44 603.78 1261.42 616.25C1272.31 638.96 1275.96 696.6 1275.7 727.6C1275.65 734.08 1275.71 740.6 1275.78 747.51C1276.02 771.49 1276.27 796.28 1271.6 823.56C1267.57 847.12 1266.83 863.51 1269.06 880.1C1269.16 880.83 1268.64 881.5 1267.91 881.6C1267.86 881.62 1267.8 881.62 1267.74 881.62Z" fill="#016870"/>
<path d="M1251.21 886C1250.49 886 1249.9 885.43 1249.87 884.7C1249.86 884.28 1248.58 842.6 1244.83 820.43C1241.08 798.22 1241.07 762.85 1244.82 732.43C1248.8 700.14 1249.02 663.59 1245.49 620.69C1243.33 594.44 1246.69 574.5 1249.66 556.91C1251.88 543.74 1253.8 532.37 1253 520.85C1251.4 497.65 1256.62 449.89 1260.08 418.29C1260.71 412.52 1261.29 407.24 1261.77 402.67C1264.97 371.9 1264.2 339.25 1261.78 322.9C1261.67 322.17 1262.18 321.49 1262.91 321.38C1263.64 321.27 1264.32 321.78 1264.43 322.51C1266.88 339.03 1267.67 371.96 1264.44 402.95C1263.96 407.53 1263.39 412.81 1262.75 418.59C1259.3 450.1 1254.1 497.71 1255.68 520.67C1256.5 532.51 1254.56 544.03 1252.31 557.36C1249.37 574.79 1246.04 594.56 1248.17 620.47C1251.71 663.56 1251.49 700.29 1247.49 732.76C1243.77 762.95 1243.77 798 1247.48 819.98C1251.26 842.34 1252.54 884.2 1252.56 884.62C1252.58 885.36 1252 885.97 1251.26 886C1251.23 886 1251.22 886 1251.21 886Z" fill="#016870"/>
<path d="M1278.04 814.03C1277.38 814.03 1276.81 813.54 1276.72 812.87C1276.62 812.14 1277.13 811.46 1277.86 811.36C1278.38 811.29 1278.94 811.22 1279.53 811.14C1285.83 810.33 1296.37 808.97 1303.53 802.9C1310.26 797.2 1324.27 785.35 1326.84 750.01C1329.19 717.7 1327.16 713.43 1322.71 704.07L1321.96 702.49C1321.65 701.82 1321.93 701.03 1322.6 700.71C1323.27 700.4 1324.06 700.68 1324.38 701.35L1325.12 702.92C1329.64 712.42 1331.91 717.19 1329.51 750.2C1326.86 786.67 1312.27 799.01 1305.26 804.94C1297.49 811.51 1286.46 812.94 1279.87 813.79C1279.29 813.87 1278.73 813.94 1278.22 814.01C1278.16 814.03 1278.1 814.03 1278.04 814.03Z" fill="#016870"/>
<path d="M1224.92 681.05C1224.86 681.05 1224.79 681.05 1224.73 681.04C1220.56 680.44 1215.49 674.69 1209.66 663.93C1203.34 652.26 1199.65 619.08 1200.58 603.61C1201.07 595.57 1200.15 586.39 1199.08 575.75C1198.13 566.25 1197.05 555.49 1196.82 543.64C1196.35 518.88 1200.57 500.78 1200.61 500.6C1200.78 499.88 1201.5 499.44 1202.22 499.61C1202.94 499.78 1203.38 500.5 1203.21 501.22C1203.17 501.4 1199.03 519.2 1199.49 543.6C1199.71 555.34 1200.79 566.05 1201.73 575.49C1202.81 586.24 1203.74 595.53 1203.24 603.78C1202.34 618.6 1205.99 651.57 1212 662.67C1219.35 676.24 1223.61 678.2 1225.09 678.41C1225.82 678.52 1226.33 679.19 1226.22 679.92C1226.15 680.57 1225.58 681.05 1224.92 681.05Z" fill="#016870"/>
<path d="M1291.73 969.54H1220.57L1209.46 877.77H1302.85L1291.73 969.54Z" fill="#3F317C"/>
<path d="M666.95 1018.42C702.6 1018.68 707.92 1032.13 698.59 1037.34C674.92 1050.57 691.19 1061.42 686.3 1068.87C679.8 1078.77 646.59 1085.16 617.64 1071.41C597.82 1062 593.64 1035.76 570.78 1027.88C547.92 1020 578.66 997.79 611.77 1007.31C644.88 1016.83 660.87 1018.37 666.95 1018.42Z" fill="#936E69"/>
<path d="M729.091 968.252L686.352 991.497L687.986 994.502L730.725 971.257L729.091 968.252Z" fill="#262626"/>
<path d="M699.76 1001.4L678.1 981.89L674.76 978.88L653.1 959.37L642.17 968.28L646.05 971.78L605.84 1025.16L620.88 1038.7L624.22 1041.71L639.26 1055.26L688.16 1009.71L692.04 1013.2L699.76 1001.4Z" fill="#262626"/>
<path d="M679.8 1017.49L639.17 980.9L619.34 1007.23L655.68 1039.96L679.8 1017.49Z" fill="white"/>
<path d="M997.76 876.82C997.76 876.82 990.2 855.34 985.37 855.87C980.54 856.4 978.3 870.13 977.23 875.13C977.23 875.13 970.74 874.94 966.37 875.9C964 876.42 957.58 879.98 957.58 879.98C957.58 879.98 945.93 868.83 941.1 869.36C936.27 869.89 941.94 888.75 942.11 890.36C942.29 891.97 941.17 921.04 960.52 927.73C980.06 934.48 998.92 923.12 1004.29 912.75C1009.66 902.38 1005.26 885.77 997.76 876.82Z" fill="#2D2D2D"/>
<path d="M954.62 902.58C958.68 905.44 964.14 906.14 966.43 900.81C966.76 900.05 968 900.42 967.67 901.19C965.06 907.27 958.81 907.12 953.93 903.68C953.25 903.2 953.93 902.09 954.62 902.58Z" fill="white"/>
<path d="M980.54 894.02C981.77 894.91 983.29 895.54 984.8 895.75C989.37 896.37 991.79 892.35 993.07 888.55C993.34 887.76 994.58 888.14 994.31 888.93C993 892.83 990.58 897 985.98 897.12C983.86 897.17 981.58 896.38 979.86 895.13C979.18 894.64 979.86 893.53 980.54 894.02Z" fill="white"/>
<path d="M977.49 904.58C978.13 906.16 978.76 907.73 979.4 909.31C979.54 909.65 979.66 909.99 979.81 910.33C980 910.76 979.64 910.3 979.92 910.53C981.26 911.62 982.85 911.29 984 910.11C984.59 909.51 985.48 910.46 984.89 911.06C983.38 912.61 980.1 913.3 978.72 911.1C978.15 910.19 977.84 908.92 977.44 907.92C977.07 907.01 976.71 906.11 976.34 905.2C976.04 904.44 977.18 903.81 977.49 904.58Z" fill="white"/>
<path d="M979.99 910.92C979.78 913.35 977.85 915.02 975.42 914.87C974.59 914.82 974.62 913.52 975.46 913.57C976.63 913.64 977.66 913.28 978.25 912.22C978.42 911.92 978.54 911.59 978.62 911.25C978.63 911.2 978.7 910.84 978.67 911.02C978.68 910.97 978.68 910.93 978.69 910.88C978.76 910.05 980.06 910.08 979.99 910.92Z" fill="white"/>
<path d="M1176.54 887.07C1172.91 864.72 1154.65 860.68 1161.17 877.6C1168.38 896.32 1163.02 907.4 1158.51 916.12C1155.02 922.85 1145.05 933.66 1127.46 929.63C1124.28 928.9 1116.51 918.53 1114.9 914.93C1107.55 898.55 1092.5 884.16 1063.13 880.21C1026.36 875.25 996.06 906.91 996.06 906.91C996.06 906.91 958.42 922.17 958.28 925.53C958.14 928.9 957.6 930.39 953.14 934.59C946.62 940.74 935.65 942.1 921.34 947.75C903.14 954.94 925.26 961.95 965.36 948.6C965.36 948.6 976.27 945.82 979.28 949.01C982.28 952.19 971.45 961.31 965.03 972.86C958.32 984.94 953.13 1009.35 963.06 1003.14C970.08 998.75 976.96 980.12 985.69 970.21C993.12 961.78 1003.38 955.65 1007.02 952.91C1014.93 946.95 1035.49 938.54 1050.55 946.69C1058.74 951.13 1062.14 953.93 1066.71 970.07C1076.54 1004.84 1071.61 1029.35 1081.92 1032.41C1089.9 1034.78 1088.87 1001.77 1088.5 990.33C1088.15 979.51 1086.59 968.5 1089.88 967.42C1093.4 966.26 1094.71 969.96 1095.78 981.74C1096.77 992.63 1101.32 1026.4 1103.62 1031.49C1109.15 1043.74 1116.63 1023.49 1113.95 1009.49C1111.26 995.48 1117.21 980.18 1118.93 974.04C1119.54 971.86 1121.48 960.54 1121.3 946.61C1121.28 945.24 1122.6 944.28 1123.9 944.68C1132.09 947.21 1140.89 947.2 1149.35 943.38C1174.83 931.86 1180.17 909.43 1176.54 887.07Z" fill="#2D2D2D"/>
</svg>
