<svg width="66" height="40" viewBox="0 0 66 40" fill="none" xmlns="http://www.w3.org/2000/svg">
<path d="M40.0017 0L39.9138 0.0838474L39.6144 0.363339L38.9715 1.00218L38.2449 1.70888L37.5381 2.39563L37.2387 2.69509L36.9831 2.95063L36.7476 3.18621L36.4282 3.48567L36.3403 3.59347H35.7414V4.29619H36.1087V6.56407L36.3403 7.07912V14.286H34.9309H32.8787H29.5847H28.2552H27.8719H25.005H24.4261V14.0504H24.0628H23.9789V13.2838H23.8511V11.9343H24.0627H24.0867V11.5909H24.0627H23.2722H22.5455H21.8388H21.0682H20.4054H19.7426H19.531V11.9343H19.7426H19.8065V13.2838H19.7426H19.6348V14.0504H19.1677V14.286H17.5627H15.0791H13.9252V13.711H13.1546H12.7274H12.3641V16.8334H12.1485H11.4018H10.9107V17.8156H10.8229H10.7151V16.8334H10.1161H9.34954H9.09002V17.8156H8.91832H8.31941V16.8334H8.23556H7.63665H7.10163H6.99382V17.8156H6.65445H6.28712V16.8334H6.03158H5.3049H4.66208V17.8156H4.45047V16.8334H3.95537H3.59203H3.18877H2.39421H1.83921H1.45591H1.13251V18.8856L0 19.3775C0.0213908 20.0192 0.837043 20.1475 0.858444 20.5753C0.858444 20.8534 1.15791 20.8768 1.15791 21.0265C1.15791 27.2511 1.15563 27.1236 1.07007 31.8508L0.878414 31.9786V32.5975L1.15791 32.8131V37.6882H0.858444V38.6305H1.45735H1.84066H2.39565H3.19021H3.59347H3.95682H5.3063H6.03297H6.65584H7.10303H7.63805H8.23696H8.91973H9.35094H10.1175H10.8243H11.4032H12.1498H12.3854V40H12.7288H13.156H15.0805H17.564H19.744H20.4068H21.0696H21.8401H22.5469H23.2735H24.0641H25.0064H27.8732H28.2565H29.5861H32.88H34.9322H36.4296H36.749H36.9845H37.2401H37.5395H38.2463H38.9729H39.6158H39.9152H40.3225H40.7297H40.9653H41.5003H41.692H42.3748H42.7381H43.0615H43.361H43.7642H44.3432H45.4132H47.1022H47.4016H47.7889H49.0506H49.8612H50.9951H53.6263H54.2492H54.8481H57.5632H58.6971H60.921H61.3922H63.0611H64.5144H64.5983H65.0694V38.5666H64.7699V32.8131V31.787V22.5238L65.1333 22.0527L65.4128 21.7333V20.747V20.2759L65.1333 20.1921L64.6861 20.0643V16.8102H64.5983H64.5144H63.5961V17.7325H63.0611H62.8015V15.8919H61.8832H61.7115V16.8102H61.3921H60.9409V14.9736H60.921H59.8509V15.8919H59.0803V14.0313H58.697H57.9903V14.9736H57.5631H57.1997V13.1131H56.1097V14.0314H55.3391V12.1908H54.848H54.333C54.5469 12.1694 54.7197 12.065 54.848 11.9153C54.955 11.7656 55.0157 11.6127 55.0157 11.4202C55.0157 11.2491 54.955 11.0817 54.848 10.8892C54.6983 10.5897 54.463 10.2863 54.2491 9.98681C54.0352 10.2863 53.776 10.6097 53.6263 10.9091C53.5407 11.0803 53.4785 11.2705 53.4785 11.4202C53.4785 11.6127 53.5407 11.763 53.6263 11.8913C53.7546 12.0625 53.9474 12.1694 54.1613 12.1908H53.6263H53.1551V14.0314H52.3645V13.1131H51.2745V14.287H50.995H50.5039V14.0314H49.8611H49.4139V14.287H49.0506H47.7889H47.4016H47.1021H45.4971V14.0514H45.4133H45.0499V13.2848H44.9222V11.9353H45.1577V11.5919H44.3432H43.7643H43.6605V7.0802L43.7643 6.84462L43.896 6.56513V4.29726H44.2594V3.59454H43.7643H43.6605L43.3589 3.29595L43.0587 2.99659L42.7354 2.6971L42.3726 2.33373L41.6898 1.66694L41.4982 1.47529L40.9631 0.964216L40.7275 0.728639L40.3203 0.34135L40.0009 0.00197401L40.0017 0ZM39.8699 0.235578L39.6144 0.662806L39.2311 1.28169H38.9715H38.9516L38.9715 1.26172L39.6144 0.535045L39.8699 0.235584V0.235578ZM40.0855 0.235578L40.3211 0.491113L40.7283 0.938299L40.9639 1.23776L41.0278 1.28168H40.9639H40.7483L40.7284 1.23776L40.3211 0.598923L40.0873 0.235629L40.0855 0.235578ZM39.9577 0.255541L39.9138 1.28167H39.6144H39.3588L39.6144 0.834481L39.9133 0.319451L39.9568 0.255567L39.9577 0.255541ZM40.0216 0.255541L40.3211 0.766611L40.6205 1.28167H40.3211H40.0656L40.0221 0.255567L40.0216 0.255541ZM38.5882 1.49729H38.6721L38.2448 1.96443L37.7098 2.52341H37.5621L38.2448 1.83666L38.5882 1.49729H38.5882ZM38.7799 1.49729H38.9715H39.1432L38.9715 1.77278L38.5243 2.52341H38.2448H37.8815L38.2448 2.11615L38.7799 1.49727V1.49729ZM39.6143 1.49729H39.9138H39.9338L39.9138 2.35173L39.8938 2.52343H39.6143H38.9715H38.7359L38.9715 2.0962L39.2949 1.51726L39.6143 1.49729L39.6143 1.49729ZM40.0416 1.49729H40.3211L40.6844 1.51725L40.7283 1.56117L40.9639 2.03231L41.2394 2.52343H40.9639H40.7283H40.3211H40.0855L40.0416 1.4973V1.49729ZM40.8321 1.49729H40.9639H41.1995L41.4989 1.83666L41.6906 2.07224L42.0978 2.52341H41.6906H41.4989H41.455L40.9639 1.7089L40.8321 1.49729H40.8321ZM41.3033 1.49729H41.3911L41.4989 1.58113L41.6906 1.79674L42.3733 2.49946L42.418 2.52348H42.3741H42.2663L41.6914 1.92457L41.4997 1.689L41.3041 1.49735L41.3033 1.49729ZM37.3464 2.75899H37.5181L37.2386 3.05845L36.9831 3.33394L36.7715 3.59347H36.7475H36.5359L36.7475 3.37786L36.9831 3.12232L37.2386 2.86679L37.3464 2.75898L37.3464 2.75899ZM37.6898 2.75899H38.2448H38.3726L38.2448 2.9706L37.8815 3.59347H37.5381H37.2386H37.007L37.2386 3.31397L37.5381 2.95063L37.6898 2.75898V2.75899ZM38.6081 2.75899H38.9715H39.6143H39.9138V3.09837L39.8938 3.59347H39.6143H38.9715H38.2448H38.2049L38.2448 3.4657L38.6082 2.75899H38.6081ZM40.0654 2.75899H40.321H40.7282H40.9638H41.3671L41.4988 2.99457L41.6905 3.39783L41.7743 3.59347H41.6905H41.4988H40.9638H40.7282H40.321H40.0854L40.0654 2.75899H40.0654ZM41.6026 2.75899H41.6905H42.2894L42.3732 2.86679L42.7366 3.29402L42.9961 3.59348H42.7366H42.3732H42.0977L41.6905 2.93069L41.6026 2.759L41.6026 2.75899ZM42.481 2.75899H42.6527L42.7366 2.86679L43.06 3.18621L43.3594 3.48567L43.4433 3.59348H43.3594H43.2317L43.06 3.39784L42.7366 3.05847L42.481 2.759L42.481 2.75899ZM35.913 3.72123H36.4281H36.7475H36.9831H37.2386H37.5381H38.2448H38.9714H39.6143H39.9137H40.321H40.7282H40.9638H41.4988H41.6905H42.3733H42.7366H43.06H43.3595H43.7627H44.0861V4.12849H43.7627H43.3595H43.06H42.7366H42.3733H41.6905H41.4988H40.9638H40.7282H40.321H39.9137H39.6143H38.9714H38.2448H37.5381H37.2386H36.9831H36.7475H36.4281H35.913V3.72123ZM36.2364 4.34011H36.4281H36.7475H36.9831H37.2386H37.5381H38.2448H38.9714H39.6143H39.9137H40.321H40.7282H40.9638H41.4988H41.6905H42.3733H42.7366H43.06H43.3595H43.7428V4.93902C43.7428 4.7465 43.5306 4.59708 43.3595 4.57568H43.3156C43.2086 4.57568 43.1242 4.61931 43.06 4.68348C42.9958 4.74765 42.9511 4.83206 42.9083 4.93902C42.8655 5.02458 42.8444 5.15405 42.8444 5.28239V6.28856H42.7366H42.5649V5.3902C42.5649 5.19768 42.5227 5.00348 42.4371 4.87515L42.3733 4.81126C42.2449 4.66153 42.0761 4.57568 41.8622 4.57568C41.798 4.57568 41.7547 4.59565 41.6905 4.59565C41.6263 4.61704 41.5416 4.64071 41.4988 4.68349C41.4347 4.72627 41.3699 4.76705 41.3272 4.83121C41.1988 4.95964 41.1115 5.17629 41.1115 5.3902V6.28855H40.9638H40.8321V5.36623C40.8321 5.2165 40.7924 5.06983 40.7283 4.96297C40.6213 4.81315 40.4707 4.70373 40.321 4.63956C40.214 4.59678 40.106 4.57568 39.9776 4.57568H39.9137C39.8068 4.59707 39.7212 4.62074 39.6143 4.66352C39.3362 4.77047 39.1232 5.02399 39.1232 5.36624V6.28857H38.9714H38.8437V5.39021C38.8437 5.1763 38.7804 4.95966 38.652 4.83123C38.5451 4.70288 38.3945 4.61705 38.2448 4.59565C38.202 4.57426 38.1612 4.57568 38.097 4.57568C37.8617 4.57568 37.6663 4.68263 37.5381 4.87515C37.4525 5.00349 37.4103 5.19769 37.4103 5.3902V6.28856H37.2386H37.1348V5.28239C37.1348 5.15405 37.1137 5.02458 37.0709 4.93902C37.0495 4.87485 37.0258 4.81011 36.9831 4.76732C36.9189 4.66037 36.8331 4.59706 36.7475 4.57567H36.6636C36.5995 4.57567 36.5136 4.59934 36.4281 4.66351C36.3211 4.72768 36.2364 4.81067 36.2364 4.939V4.34009L36.2364 4.34011ZM36.7475 4.85517C36.8758 4.85517 36.9631 5.11183 36.9631 5.45408V6.39238H36.7475H36.5119V5.45408C36.5119 5.11179 36.6192 4.85511 36.747 4.85511L36.7475 4.85517ZM38.2448 4.85517C38.5015 4.85517 38.696 5.15432 38.696 5.51796V6.50018H38.2448H37.7976V5.51796C37.7976 5.15432 38.0095 4.85517 38.2448 4.85517ZM39.9137 4.85517H39.9776C40.1059 4.85517 40.214 4.89872 40.3209 4.96297C40.4921 5.09123 40.6004 5.30263 40.6004 5.53793V6.5441H40.3209H39.9137H39.6142H39.3347V5.53793C39.3347 5.30263 39.4645 5.09123 39.6142 4.96297C39.6998 4.89871 39.8072 4.85514 39.9145 4.85514L39.9137 4.85517ZM41.6904 4.85517H41.7104C41.9672 4.85517 42.1614 5.15427 42.1614 5.51803V6.50024H41.6903H41.4986H41.263V5.51803C41.263 5.28273 41.3489 5.04603 41.4986 4.93909C41.5421 4.87482 41.6264 4.85514 41.6903 4.85514L41.6904 4.85517ZM43.2516 4.85517C43.2944 4.85517 43.338 4.87485 43.3594 4.93902C43.4236 5.04597 43.4632 5.24018 43.4632 5.45407V6.39237H43.3594H43.06H43.016V5.45407C43.016 5.34712 43.0386 5.21622 43.06 5.13067C43.1027 4.95963 43.166 4.85518 43.2516 4.85518L43.2516 4.85517ZM37.0908 6.60801H37.2385H37.4102V7.29077H37.2385H37.0908V6.60801ZM38.8236 6.60801H38.9713H39.123V7.29077H38.9713H38.8236V6.60801ZM40.832 6.60801H40.9637H41.1314V7.29077H40.9637H40.832V6.60801ZM42.5888 6.60801H42.7365H42.8882V7.29077H42.7365H42.5888V6.60801ZM36.5758 6.95139H36.7475H36.8992V8.51258H36.983H37.2386H37.538H37.9453V6.95139H38.2447H38.652V8.51258H38.9714H39.3587V6.95139H39.6142H39.9137H40.321H40.6404V8.51258H40.7282H40.9638H41.3032V6.95139H41.4988H41.6905H42.0298V8.51258H42.3732H42.7366H43.06H43.0799V6.95139H43.3594H43.4433V11.5909H43.3594H43.06H42.7366H42.3732H41.6904H41.4988H41.2193V10.2653C41.2193 10.0728 41.1135 9.77533 40.9638 9.51864C40.8996 9.3903 40.8323 9.28079 40.7681 9.19524C40.7467 9.21663 40.7282 9.23773 40.7282 9.25912C40.5357 9.55858 40.3209 10.0086 40.3209 10.2653V13.7949H40.7042V14.0504H40.3209H40.2331V14.3938H39.9137H39.6142H38.9714H38.2447H37.538H37.2386H36.983H36.7474H36.5758V6.95132L36.5758 6.95139ZM37.0908 7.59022H37.2385H37.4102V8.36081H37.2385H37.0908V7.59022V7.59022ZM38.8236 7.59022H38.9713H39.1231V8.36081H38.9713H38.8236V7.59022V7.59022ZM40.832 7.59022H40.9637H41.1554V8.36081H40.9637H40.832V7.59022V7.59022ZM42.5888 7.59022H42.7365H42.8882V8.36081H42.7365H42.5888V7.59022V7.59022ZM40.7681 9.41091C40.8323 9.51786 40.8996 9.6459 40.9637 9.77425C41.0493 9.94537 41.1115 10.1393 41.1115 10.3532H40.9637H40.7282H40.4048C40.4048 10.0751 40.5784 9.70866 40.7282 9.49475C40.7282 9.47336 40.7467 9.43229 40.7681 9.4109L40.7681 9.41091ZM54.2476 10.2654C54.5042 10.629 54.7823 10.992 54.8465 11.2915C54.8679 11.3557 54.8664 11.4004 54.8664 11.4432C54.8664 11.486 54.8679 11.5282 54.8465 11.571C54.7823 11.849 54.547 12.0621 54.2476 12.0621C53.9267 12.0407 53.6889 11.8265 53.6247 11.5271V11.4432V11.3354C53.6889 11.0146 53.9695 10.6529 54.2476 10.2893V10.2654ZM20.0212 11.9343H20.4045H21.0673H21.8379H22.5446H23.2713H23.6586V12.597H23.2713H22.5446H21.8379H21.0673H20.4045H20.0212V11.9343ZM41.0913 11.9343H41.4986H41.6903H42.373H42.7364H43.0598H43.3592H43.7625H44.3414H44.7287V12.597H44.3414H43.7625H43.3592H43.0598H42.7364H42.373H41.6903H41.4986H41.0913V11.9343ZM20.1298 11.9981V12.5332H20.4053H20.7048V11.9981H20.4053H20.1298ZM20.8325 11.9981V12.5332H21.0681H21.4315V11.9981H21.0681H20.8325ZM21.5392 11.9981V12.5332H21.8387H22.1382V11.9981H21.8387H21.5392ZM22.246 11.9981V12.5332H22.5454H22.8449V11.9981H22.5454H22.246ZM22.9966 11.9981V12.5332H23.2721H23.5715V11.9981H23.2721H22.9966ZM41.1996 11.9981V12.5132H41.4991H41.6907H41.7746V11.9981H41.6907H41.4991H41.1996ZM44.0424 11.9981V12.5332H44.3419H44.6414V11.9981H44.3419H44.0424ZM20.1934 12.062H20.405H20.6406V12.4493H20.405H20.1934V12.062ZM20.8961 12.062H21.0678H21.3473V12.4493H21.0678H20.8961V12.062ZM21.6268 12.062H21.8384H22.054V12.4493H21.8384H21.6268V12.062ZM22.3295 12.062H22.5451H22.7807V12.4493H22.5451H22.3295V12.062ZM23.0602 12.062H23.2718H23.5073V12.4493H23.2718H23.0602V12.062ZM41.2632 12.062H41.4988H41.6904H41.7104V12.4493H41.6904H41.4988H41.2632V12.062ZM44.13 12.062H44.3416H44.5772V12.4493H44.3416H44.13V12.062ZM53.3053 12.3415H53.6247H54.2476H54.8465H55.1858V14.1821H56.2559V13.2598H57.0704V15.1204H57.5615H58.1165V14.1821H58.6955H58.931V16.0426H60.0011V15.1203H60.8116V16.9609H60.9194H61.3906H61.8817V16.0426H62.6722V17.8792H63.0595H63.7223V16.9609H64.5129H64.5329V20.0194H64.5129L63.6345 19.7639H63.0595H61.3906H60.9195H60.2128V20.7461L60.8995 21.2172V31.786H58.6955H57.5616H54.8466H54.2476H53.6248H50.9935H49.8596H49.0491H47.7874H47.5917L47.6157 21.2172L47.7874 21.0894L48.2785 20.7461V19.7639H47.7874H47.4001H47.1006H45.4117H44.8327L44.3416 19.9116L43.9583 20.0194V16.9609H44.3416H44.7688V17.8792H45.4117H45.8189V16.0426H46.6095V16.9609H47.1006H47.4001H47.6796V15.1203H47.7874H48.4901V16.0426H49.0491H49.5601V14.182H49.8596H50.3746V15.1203H50.9935H51.4208V13.2598H52.2353V14.1821H53.3053V12.3415L53.3053 12.3415ZM20.0219 12.8127H20.4052H21.0679H21.8385H22.5452H23.2719H23.6592V13.2838H23.2719H22.5452H21.8385H21.0679H20.4052H20.0219V12.8127ZM41.092 12.8127H41.4992H41.6909H42.3737H42.737H43.0604H43.3599H43.7631H44.3421H44.7294V13.2838H44.3421H43.7631H43.3599H43.0604H42.737H42.3737H41.6909H41.4992H41.092V12.8127ZM19.8506 13.4754H20.4056H21.0684H21.839H22.5457H23.2724H23.8074V14.8649H23.2724H22.5457H21.839H21.0684H20.4056H19.8506V13.4754ZM40.9208 13.4754H40.9647H41.4997H41.6914H42.3741H42.7375H43.0609H43.3604H43.7636H44.3425H44.8776V14.8649H44.3425H43.7636H43.3604H43.0609H42.7375H42.3741H41.6914H41.4997H40.9647H40.9208V13.4754ZM12.5768 14.0105H12.7286H13.1558H13.6709L13.7108 21.8362H13.1558H12.7286H12.5768V14.0105H12.5768ZM19.3365 14.266H19.636V15.0805H19.7438H20.4066H21.0694H21.84H22.5467H23.2733H24.024V14.266H24.0639H24.2595V15.3999H24.0639H23.2733H22.5467H21.84H21.0694H20.4066H19.7438H19.3365V14.266H19.3365ZM40.4066 14.266H40.7061V15.0805H40.7301H40.9656H41.5007H41.6923H42.3751H42.7384H43.0618H43.3613H43.7645H44.3435H45.0941V14.266H45.3297V15.3999H44.3435H43.7645H43.3613H43.0618H42.7384H42.3751H41.6923H41.5007H40.9656H40.7301H40.4067V14.266H40.4066ZM13.9447 14.6289H15.0787H16.2126V15.8706H15.0787H13.9447V14.6289ZM16.4283 14.6289H17.5622H18.6722V15.2477H17.5622H16.4283V14.6289ZM18.9317 14.6289H19.1673V15.5911H19.7423H20.4051H21.0679H21.1757V15.8706H21.0679H20.4051H19.7423H18.9317V14.6289V14.6289ZM24.4257 14.6289H25.0047H26.1187V15.8706H25.0047H24.0624H23.8707V15.5911H24.0624H24.4257V14.6289V14.6289ZM26.3543 14.6289H27.8715H28.2548H28.5982V15.2477H28.2548H27.8715H26.3543V14.6289ZM28.8337 14.6289H29.5844H31.1016V15.8706H29.5844H28.8337V14.6289ZM31.3173 14.6289H32.8785H33.5612V15.2477H32.8785H31.3173V14.6289ZM33.8167 14.6289H34.9306H36.0646V15.8706H34.9306H33.8167V14.6289ZM36.2762 14.6289H36.4279H36.7473H36.9829H37.2384H37.5379H38.2446H38.5241V15.2477H38.2446H37.5379H37.2384H36.9829H36.7473H36.4279H36.2762V14.6289ZM38.7796 14.6289H38.9713H39.6141H39.9136H40.233V15.5911H40.3208H40.7281H40.9637H41.0276V15.8706H40.9637H40.7281H40.3208H39.9136H39.6141H38.9713H38.7796V14.6289V14.6289ZM45.4954 14.6289H45.9905V15.8706H45.4115H44.3415H43.7625H43.7226V15.5911H43.7625H44.3415H45.4115H45.4954V14.6289L45.4954 14.6289ZM46.2021 14.6289H47.1004H47.3999H47.7872H48.45V14.9722H47.7872H47.5516V15.2477H47.3999H47.1004H46.2021V14.6289L46.2021 14.6289ZM48.6616 14.6289H49.0489H49.4122V15.8706H49.0489H48.6616V14.6289ZM50.5022 14.6289H50.9933H51.2928V14.9722H50.9933H50.5022V14.6289ZM16.4279 15.4633H17.5618H18.6718V16.6811H17.5618H16.4279V15.4633V15.4633ZM26.3539 15.4633H27.8711H28.2544H28.5978V16.6811H28.2544H27.8711H26.3539V15.4633V15.4633ZM31.3169 15.4633H32.8781H33.5609V16.6811H32.8781H31.3169V15.4633V15.4633ZM36.2758 15.4633H36.4275H36.747H36.9825H37.2381H37.5375H38.2442H38.5237V16.6811H38.2442H37.5375H37.2381H36.9825H36.747H36.4275H36.2758V15.4633V15.4633ZM46.2018 15.4633H47.1002H47.3996H47.5514V16.6811H47.3996H47.1002H46.7568V15.8906H46.6091H46.2018V15.4633V15.4633ZM21.3907 15.5911H21.8378H22.5445H23.2712H23.6585V16.6811H23.2712H22.5445H21.8378H21.3907V15.5911V15.5911ZM41.2623 15.5911H41.4979H41.6896H42.3723H42.7357H43.0591H43.3585H43.5063V16.6811H43.3585H43.0591H42.7357H42.3723H41.6896H41.4979H41.2623V15.5911V15.5911ZM13.9444 16.1062H15.0783H16.2122V17.3679H15.0783H13.9444V16.1062V16.1062ZM18.9313 16.1062H19.7418H20.4046H21.0674H21.1752V17.3679H21.0674H20.4046H19.7418H18.9313V16.1062V16.1062ZM23.8702 16.1062H24.0619H25.0042H26.1182V17.3679H25.0042H24.0619H23.8702V16.1062V16.1062ZM28.8332 16.1062H29.5839H31.1011V17.3679H29.5839H28.8332V16.1062V16.1062ZM33.8162 16.1062H34.9301H36.0641V17.3679H34.9301H33.8162V16.1062V16.1062ZM38.7792 16.1062H38.9708H39.6136H39.9131H40.3204H40.7276H40.9632H41.0271V17.3679H40.9632H40.7276H40.3204H39.9131H39.6136H38.9708H38.7792V16.1062V16.1062ZM43.7222 16.1062H43.7622H44.3411H45.4111H45.6667V17.3679H45.4111H44.8961V16.8089H44.3411H43.8061V17.3679H43.7622H43.7222V16.1062H43.7222ZM16.4285 16.9167H17.5625H18.6725V18.1385H17.5625H16.4285V16.9167ZM21.3915 16.9167H21.8387H22.5454H23.2721H23.6594V18.1385H23.2721H22.5454H21.8387H21.3915V16.9167ZM26.3545 16.9167H27.8718H28.2551H28.5985V18.1385H28.2551H27.8718H26.3545V16.9167ZM31.3175 16.9167H32.8787H33.5615V18.1385H32.8787H31.3175V16.9167ZM36.2765 16.9167H36.4282H36.7476H36.9832H37.2387H37.5382H38.2449H38.5244V18.1385H38.2449H37.5382H37.2387H36.9832H36.7476H36.4282H36.2765V16.9167ZM41.2633 16.9167H41.4989H41.6906H42.3733H42.7367H43.0601H43.3596H43.5073V18.1385H43.3596H43.0601H42.7367H42.3733H41.6906H41.4989H41.2633V16.9167ZM1.32835 17.0245H1.45612H1.55993V17.859H1.45612H1.32835V17.0245ZM1.73161 17.0245H1.83942H1.94722V18.929H1.83942H1.73161V17.0245ZM2.1189 17.0245H2.39439H2.67389V17.859H2.39439H2.1189V17.0245V17.0245ZM2.88949 17.0245H3.18895H3.50837V18.929H3.18895H2.88949V17.0245ZM3.6561 17.0245H3.95556H4.27896V17.859H3.95556H3.6561V17.0245ZM4.87787 17.0245H5.3051H5.73233V18.929H5.3051H4.87787V17.0245ZM5.92397 17.0245H6.03177H6.13958V18.929H6.03177H5.92397V17.0245ZM7.18567 17.0245H7.63685H8.21579V18.929H7.63685H7.18567V17.0245V17.0245ZM9.24196 17.0245H9.34977H9.45358V17.859H9.34977H9.24196V17.0245ZM9.68915 17.0245H10.1164H10.5675V18.929H10.1164H9.68915V17.0245ZM11.1025 17.0245H11.402H11.7014V17.859H11.402H11.1025V17.0245ZM11.8731 17.0245H12.1486H12.4081V18.929H12.1486H11.8731V17.0245ZM54.2485 17.5595C54.0132 17.5595 53.8181 17.6243 53.6256 17.7312C53.3047 17.9237 53.0706 18.2856 53.0706 18.7134C53.0706 19.1412 53.3047 19.5071 53.6256 19.6996C53.8181 19.828 54.0132 19.8713 54.2485 19.8713C54.4624 19.8713 54.6762 19.828 54.8474 19.6996C55.1896 19.5071 55.4024 19.1412 55.4024 18.7134C55.4024 18.2856 55.1896 17.9237 54.8474 17.7312C54.6762 17.6243 54.4624 17.5595 54.2485 17.5595ZM13.9455 17.5795H15.0794H16.2134V18.8212H15.0794H13.9455V17.5795ZM18.9324 17.5795H19.7429H20.4057H21.0685H21.1763V18.8212H21.0685H20.4057H19.7429H18.9324V17.5795ZM23.8714 17.5795H24.063H25.0053H26.1193V18.8212H25.0053H24.063H23.8714V17.5795ZM28.8344 17.5795H29.585H31.1022V18.8212H29.585H28.8344V17.5795ZM33.8173 17.5795H34.9313H36.0652V18.8212H34.9313H33.8173V17.5795ZM38.7803 17.5795H38.9719H39.6148H39.9142H40.3215H40.7287H40.9643H41.0282V18.8212H40.9643H40.7287H40.3215H39.9142H39.6148H38.9719H38.7803V17.5795ZM43.7234 17.5795H43.7633H43.8072V18.8212H43.7633H43.7234V17.5795ZM44.8972 17.5795H45.4123H45.6678V17.7312H45.4123H44.8972V17.5795ZM54.0326 17.859V18.5018H53.6253H53.3898C53.4325 18.3521 53.5184 18.2015 53.6253 18.0945C53.7323 17.9876 53.8829 17.9018 54.0326 17.859V17.859ZM54.4598 17.859C54.6096 17.9018 54.7402 17.9876 54.8471 18.0946C54.9754 18.2015 55.0573 18.3521 55.0787 18.5018H54.8471H54.4598V17.859V17.859ZM8.36388 18.0307H8.91888H9.35009H9.4539V18.9091H9.35009H8.91888H8.36388V18.0307ZM1.32875 18.0946H1.45652H1.56033V18.929H1.45652H1.32875V18.0946ZM2.11931 18.0946H2.3948H2.67429V18.929H2.3948H2.11931V18.0946ZM3.65648 18.0946H3.95594H4.68662V18.929H3.95594H3.65648V18.0946ZM6.31162 18.0946H6.65499H6.99437V18.929H6.65499H6.31162V18.0946ZM10.7156 18.0946H10.8234H11.4024H11.7018V18.929H11.4024H10.8234H10.7156V18.0946ZM16.4293 18.3501H17.5632H18.6732V19.5719H17.5632H16.4293V18.3501ZM21.3923 18.3501H21.8394H22.5462H23.2728H23.6601V19.5719H23.2728H22.5462H21.8394H21.3923V18.3501ZM26.3553 18.3501H27.8725H28.2558H28.5992V19.5719H28.2558H27.8725H26.3553V18.3501ZM31.3183 18.3501H32.8795H33.5622V19.5719H32.8795H31.3183V18.3501ZM36.2772 18.3501H36.4289H36.7483H36.9839H37.2394H37.5389H38.2456H38.5251V19.5719H38.2456H37.5389H37.2394H36.9839H36.7483H36.4289H36.2772V18.3501ZM41.2641 18.3501H41.4996H41.6913H42.3741H42.7374H43.0608H43.3603H43.508V19.5719H43.3603H43.0608H42.7374H42.3741H41.6913H41.4996H41.2641V18.3501ZM53.39 18.929H53.6255H54.0328V19.5719C53.8831 19.5291 53.7325 19.4432 53.6255 19.3363C53.5186 19.2293 53.4327 19.0788 53.39 18.929V18.929ZM54.46 18.929H54.8473H55.0789C55.0575 19.0788 54.9756 19.2293 54.8473 19.3363C54.7404 19.4432 54.6097 19.5291 54.46 19.5719V18.929V18.929ZM13.9462 19.0568H15.0802H16.2141V20.2985H15.0802H13.9462V19.0568ZM18.9331 19.0568H19.7437H20.4064H21.0692H21.177V20.2985H21.0692H20.4064H19.7437H18.9331V19.0568ZM23.8721 19.0568H24.0638H25.006H26.12V20.2985H25.006H24.0638H23.8721V19.0568ZM28.8351 19.0568H29.5857H31.103V20.2985H29.5857H28.8351V19.0568ZM33.818 19.0568H34.932H36.0659V20.2985H34.932H33.818V19.0568ZM38.781 19.0568H38.9727H39.6155H39.915H40.3222H40.7295H40.9651H41.0289V20.2985H40.9651H40.7295H40.3222H39.915H39.6155H38.9727H38.781V19.0568ZM43.7241 19.0568H43.764H43.8079V20.063L43.764 20.0829H43.7241V19.0568V19.0568ZM1.33341 19.1015H1.46118H1.84448H2.39948H3.19404H3.5973H3.96064H5.31012H6.0368H6.65967H7.10685H7.64188H8.24079H8.92355H9.35477H10.1214H10.8281H11.407H12.1537H12.4132V19.377H12.1537H11.407H10.8281H10.1214H9.35477H8.92355H8.24079H7.64188H7.10685H6.65967H6.0368H5.31012H3.96064H3.5973H3.19404H2.39948H1.84448H1.46118H0.498938L1.33341 19.1015V19.1015ZM0.283318 19.5487H1.46118H1.84448H2.39948H3.19404H3.5973H3.96064H5.31012H6.0368H6.65967H7.10685H7.64188H8.24079H8.92355H9.35477H10.1214H10.8281H11.407H12.1537H12.4132V20.0398H12.1537H11.407H10.8281H10.1214H9.35477H8.92355H8.24079H7.64188H7.10685H6.65967H6.0368H5.31012H3.96064H3.5973H3.19404H2.39948H1.84448H1.46118H0.77443C0.5393 19.9542 0.326261 19.7204 0.283484 19.5492L0.283318 19.5487ZM16.4344 19.8082H17.5683H18.6783V20.9382H17.5683H16.4344V19.8082ZM21.3974 19.8082H21.8446H22.5513H23.278H23.6653V20.9382H23.278H22.5513H21.8446H21.3974V19.8082ZM26.3604 19.8082H27.8776H28.2609H28.6043V20.9382H28.2609H27.8776H26.3604V19.8082ZM31.3234 19.8082H32.8846H33.5674V20.9382H32.8846H31.3234V19.8082V19.8082ZM36.2823 19.8082H36.434H36.7535H36.989H37.2446H37.544H38.2507H38.5302V20.9382H38.2507H37.544H37.2446H36.989H36.7535H36.434H36.2823V19.8082ZM41.2692 19.8082H41.5048H41.6964H42.3792H42.7425H43.0659H43.3654H43.5131V20.1476L43.3654 20.1915L43.1059 20.2754V20.7465C43.1914 20.7465 43.2799 20.7491 43.3654 20.7705H43.5131V20.9382H43.3654H43.0659H42.7425H42.3792H41.6964H41.5048H41.2692V19.8082V19.8082ZM44.8388 19.8921H45.4177H47.1067H47.4061H47.7934H48.1328V20.1915H47.7934H47.4061H47.1067H45.4177H44.3477H43.7687L44.3477 20.0198L44.8388 19.8921ZM60.3702 19.8921H60.9252H61.3963H63.0652H63.6402L64.5186 20.1277L64.6024 20.1476L64.7342 20.1915H64.6024H64.5186H63.0652H61.3963H60.9252H60.3702V19.8921ZM0.862488 20.1915H1.4614H1.8447H2.3997H3.19426H3.59752H3.96086H5.31034H6.03702H6.65988H7.10707H7.6421H8.24101H8.92377H9.35499H10.1216H10.8283H11.4072H12.1539H12.4134V20.3832H12.1539H11.4072H10.8283H10.1216H9.35499H8.92377H8.24101H7.6421H7.10707H6.65988H6.03702H5.31034H3.96086H3.59752H3.19426H2.3997H1.8447H1.4614H1.03417C1.03417 20.2976 0.948043 20.2343 0.862475 20.1915H0.862488ZM43.2136 20.3632H43.3653H43.7685H44.3475H45.4175H47.1065H47.3421V20.5748H47.1065H45.4175H44.3475H43.7685H43.3653H43.2136V20.3632ZM47.4498 20.3632H47.7932H48.1326V20.5748H47.7932H47.4498V20.3632ZM60.3697 20.3632H60.9247H61.0524V20.5748H60.9247H60.3697V20.3632ZM61.1602 20.3632H61.3958H63.0647H64.5181H64.6019H65.1369H65.2687V20.5748H65.1369H64.6019H64.5181H63.0647H61.3958H61.1602V20.3632ZM1.05331 20.511H1.46057H1.84387H2.39887H3.19343H3.59669H3.96003H5.30951H6.03619H6.65905H7.10624H7.64127H8.24018H8.92294H9.35415H10.1208H10.8275H11.4064H12.1531H12.4126V20.8104H12.1531H11.4064H10.8275H10.1208H9.35415H8.92294H8.24018H7.64127H7.10624H6.65905H6.03619H5.30951H3.96003H3.59669H3.19343H2.39887H1.84387H1.46057H1.26493C1.13659 20.7676 1.05332 20.7035 1.05332 20.511H1.05331ZM13.9502 20.5549H15.0841H16.218V21.8166H15.0841H13.9502V20.5549ZM18.937 20.5549H19.7476H20.4104H21.0732H21.181V21.8166H21.0732H20.4104H19.7476H18.937V20.5549ZM23.876 20.5549H24.0677H25.01H26.1239V21.8166H25.01H24.0677H23.876V20.5549ZM28.839 20.5549H29.5897H31.1069V21.8166H29.5897H28.839V20.5549ZM33.822 20.5549H34.9359H36.0699V21.8166H34.9359H33.822V20.5549ZM38.785 20.5549H38.9766H39.6194H39.9189H40.3261H40.7334H40.969H41.0329V21.8166H40.969H40.7334H40.3261H39.9189H39.6194H38.9766H38.785V20.5549ZM43.728 20.7905C43.7494 20.7905 43.7466 20.8104 43.7679 20.8104C44.0246 20.8532 44.1113 20.961 44.1113 21.2177V21.8166H43.7679H43.728V20.7905V20.7905ZM64.9016 20.8344V21.2816L64.6022 21.6449L64.5183 21.7527L64.3906 21.9244V21.2177C64.3906 21.068 64.4328 20.9824 64.5183 20.9182C64.5397 20.9182 64.5808 20.8957 64.6022 20.8743C64.6877 20.8529 64.7947 20.8344 64.9016 20.8344V20.8344ZM65.0094 20.8344H65.1372H65.2889V21.4333L65.1372 21.3255L65.0094 21.1977V20.8344V20.8344ZM1.39659 21.026H1.46047H1.84377H2.39877H3.19333H3.59659H3.95993H5.30941H6.03609H6.65896H7.10614H7.64117H8.24008H8.92284H9.35406H10.1207H10.8274H11.4063H12.153H12.4125V21.6249C12.4125 21.7533 12.3027 21.7938 12.153 21.8365C11.8963 21.8793 11.578 21.9038 11.578 22.0322V22.3077C11.578 22.5216 11.8535 22.6279 12.153 22.7349C12.2385 22.7777 12.3269 22.8213 12.4125 22.8427V31.7864H12.153H11.4063H10.8274H10.1207H9.35406H8.92284H8.24008H7.64117H7.10614H6.65896H6.03609H5.30941H3.95993H3.59659H3.19333H2.39877H1.84377H1.46047H1.3327L1.39659 21.026V21.026ZM16.4335 21.1737H17.5675H18.6775V21.7966H17.5675H16.4335V21.1737ZM21.3965 21.1737H21.8437H22.5504H23.2771H23.6644V21.7966H23.2771H22.5504H21.8437H21.3965V21.1737ZM26.3595 21.1737H27.8768H28.2601H28.6035V21.7966H28.2601H27.8768H26.3595V21.1737ZM31.3225 21.1737H32.8837H33.5665V21.7966H32.8837H31.3225V21.1737ZM36.2814 21.1737H36.4332H36.7526H36.9882H37.2437H37.5432H38.2499H38.5294V21.7966H38.2499H37.5432H37.2437H36.9882H36.7526H36.4332H36.2814V21.1737ZM41.2683 21.1737H41.5039H41.6956H42.3783H42.7417H43.0651H43.3645H43.5123V21.7966H43.3645H43.0651H42.7417H42.3783H41.6956H41.5039H41.2683V21.1737ZM44.2829 21.1737H44.3468H45.4168H46.5508V31.7864H45.4168H44.3468H44.2829V21.1737ZM46.7623 21.1737H47.1057H47.4052H47.4491V31.7864H47.4052H47.1057H46.7623V21.1737ZM61.0518 21.1737H61.3952H61.7386V31.7864H61.3952H61.0518V21.1737ZM61.9502 21.1737H63.0642H64.1981V31.7864H63.0642H61.9502V21.1737ZM65.0087 21.3694L65.1365 21.4972L65.2882 21.6249L65.1365 21.7726L64.6454 22.3955L64.6014 22.3716L64.5176 22.2877L64.3898 22.1799L64.5176 22.0082L64.6014 21.9044L65.0087 21.3694L65.0087 21.3694ZM15.0836 22.0521C15.9178 22.0735 16.7328 22.1146 17.5671 22.136C18.2516 22.1574 18.9149 22.1799 19.5994 22.1799H19.7471H20.4099H21.0727H21.8433H22.55H23.2767H24.0672C24.3881 22.1799 24.6887 22.16 25.0095 22.16H27.8764H28.2597C28.6875 22.16 29.14 22.1574 29.5892 22.136H32.8832C33.5677 22.1146 34.2509 22.116 34.9354 22.116H36.4327H36.7521H36.9877H37.2432H37.5427H38.2494H38.9761H39.6189H39.9184H40.3256H40.7329H40.9685H41.5035H41.6951H42.3779H42.7412H43.0646H43.3641H43.5558L43.6196 22.3316H43.3641H43.0646H42.7412H42.3779H41.6951H41.5035H40.9685H40.7329H40.3256H39.9184H39.6189H38.9761H38.2494H37.5427H37.2432H36.9877H36.7521H36.4327C35.9193 22.3316 35.4274 22.3302 34.9354 22.3516H32.8832H29.5892H28.2597H27.8764H25.0095H24.0672H23.2767H22.55H21.8433H21.0727H20.4099C20.1746 22.373 19.961 22.3716 19.7471 22.3716H17.5671H15.0836C14.1638 22.3716 13.5655 22.3741 13.1592 22.3955H12.7319C12.4111 22.3955 12.2813 22.4155 12.153 22.4155H12.0492C11.985 22.3941 11.9417 22.353 11.8775 22.3316V22.1599C11.9631 22.1386 12.046 22.1374 12.153 22.116C12.3455 22.116 12.5394 22.0961 12.7319 22.0961C12.8603 22.0747 13.0094 22.0721 13.1592 22.0721C13.8009 22.0507 14.4419 22.0521 15.0836 22.0521L15.0836 22.0521ZM64.3903 22.3077L64.5181 22.4355L64.6019 22.5033L64.6458 22.5433V31.7865H64.6019H64.5181H64.3903V22.3077V22.3077ZM42.8934 22.5033H43.0651H43.2129V22.8667L43.0651 23.0583L42.8934 23.25V22.5033ZM12.5806 22.5672H12.7323H12.8601V31.7864H12.7323H12.5806V22.5672ZM7.64163 22.695C7.4919 22.7164 7.29911 22.8658 7.1066 23.0583C6.93549 23.2294 6.78776 23.4408 6.65942 23.6333C6.50969 23.89 6.3999 24.1289 6.3999 24.3001C6.3999 26.0113 6.37851 27.5503 6.3999 29.283H6.65942H7.1066H7.64163H8.24054H8.90333V24.3001C8.90333 24.0006 8.58279 23.4419 8.24054 23.0783C8.04802 22.843 7.83529 22.695 7.68554 22.695H7.64162L7.64163 22.695ZM50.4233 22.7788C50.2735 22.7788 50.0568 22.8872 49.8643 23.0583C49.5007 23.3578 49.1362 23.7835 49.1576 24.1044C49.1576 25.8156 49.1362 27.3148 49.1576 29.0475H49.8643H50.9982H51.6411V24.1044C51.6411 23.8049 51.3405 23.3564 50.9982 23.0783C50.7843 22.8858 50.573 22.7788 50.4233 22.7788ZM54.2523 22.7788C54.0812 22.8216 53.8434 22.9496 53.6295 23.1422C53.3086 23.4202 53.0306 23.8263 53.0306 24.1044C53.0306 25.8156 53.0092 27.3148 53.0306 29.0475H53.6295H54.2523H54.8513H55.534V24.1044C55.534 23.7836 55.1935 23.3364 54.8513 23.0583C54.6587 22.8872 54.466 22.7788 54.3162 22.7788H54.2523ZM58.1213 22.7788C57.9715 22.7788 57.7802 22.8872 57.5663 23.0583C57.2026 23.3578 56.8596 23.7835 56.8596 24.1044C56.8596 25.8156 56.8382 27.3148 56.8596 29.0475H57.5663H58.7002H59.343V24.1044C59.343 23.8049 59.0424 23.3564 58.7002 23.0783C58.4863 22.8858 58.2924 22.7788 58.1213 22.7788ZM42.7406 22.9066H42.7845V23.5295L43.064 23.6133L43.3635 23.7011L43.4673 23.7211V31.7864H43.3635H43.064H42.7845H42.7406H42.3773H41.6945H41.5029H40.9678H40.7323H40.325H39.9177H39.6183H38.9755H38.2488H37.5421H37.2426H36.9871H36.7515H36.4321H34.9348H32.8826H29.5886H28.2591H27.8758H25.0089H24.0666H23.2761H22.5494H21.8427H21.0721H20.4093H19.7465H17.5665H15.083H13.1586H13.0108V23.0144H13.1586L15.083 22.9945H17.5665H19.7465H20.4093L21.0721 22.9705H21.8427H22.5494H23.2761H24.0666H25.0089H27.8758H28.2591L29.5886 22.9505H32.8826H34.9348L36.4321 22.9306H36.7515H36.9871H37.2426H37.5421H38.2488H38.9755H39.6183H39.9177H40.325H40.7323H40.9678H41.5029H41.6945H42.3773L42.7406 22.9066V22.9066ZM43.2118 23.0144L43.3635 23.0583L43.7668 23.1661L43.9185 23.206L43.7668 23.4017L43.5991 23.5694L43.3635 23.5055L43.064 23.4216L42.8923 23.3777L43.064 23.206L43.2117 23.0144L43.2118 23.0144ZM7.55698 23.0583V24.4038H7.10581H6.65863H6.63467C6.63467 24.361 6.65863 24.3214 6.65863 24.3C6.70141 24.0219 6.8919 23.6783 7.10581 23.4216C7.27693 23.2077 7.45004 23.0797 7.55698 23.0583V23.0583ZM7.78856 23.0583C7.89551 23.0583 8.06862 23.2077 8.23974 23.4217C8.47503 23.7211 8.71088 24.1258 8.71088 24.4039H8.23974H7.78856V23.0584V23.0583ZM50.3147 23.0583V24.1683H49.8635H49.3924C49.3924 23.8902 49.6068 23.5691 49.8635 23.3338C50.0132 23.1841 50.2077 23.0797 50.3147 23.0583V23.0583ZM50.5503 23.0583C50.6572 23.0583 50.8263 23.1841 50.9974 23.3338C51.2327 23.5691 51.4486 23.8902 51.4486 24.1683H50.9974H50.5503V23.0583V23.0583ZM54.2076 23.0583V24.1683H53.6287H53.2853C53.2853 23.933 53.4362 23.6555 53.6287 23.4416C53.8212 23.2277 54.0579 23.0797 54.2076 23.0583ZM54.4192 23.0583C54.5262 23.0583 54.7007 23.1641 54.8504 23.3138C55.1071 23.5491 55.3415 23.8902 55.3415 24.1683H54.8504H54.4192V23.0583ZM58.0127 23.0583V24.1683H57.5655H57.0943C57.0943 23.8902 57.3302 23.5691 57.5655 23.3338C57.7152 23.1841 57.9057 23.0797 58.0127 23.0583V23.0583ZM58.2482 23.0583C58.3552 23.0583 58.5283 23.1841 58.6994 23.3338C58.9347 23.5691 59.1706 23.8902 59.1706 24.1683H58.6994H58.2482V23.0583V23.0583ZM43.9178 23.3777V31.7864H43.7661H43.5984V23.765L43.7661 23.5694L43.9178 23.3777V23.3777ZM18.9994 24.4278V29.0034H18.4005V29.6023H18.9115V29.9457H19.746H20.4088H21.0716H21.8422H21.9061V29.6023H22.4211V29.0034H21.8422H21.8222V24.4278H21.0716H20.4088H19.746H18.9993H18.9994ZM27.5119 24.4278V29.0034H26.913V29.6023H27.424V29.9457H27.8752H28.2585H29.5881H30.4225V29.6023H30.9336V29.0034H30.3347V24.4278H29.588H28.2585H27.8752H27.5118H27.5119ZM35.8327 24.4278V29.0034H35.2338V29.6023H35.7688V29.9457H36.4316H36.7511H36.9866H37.2422H37.5416H38.2483H38.7195V29.6023H38.975H39.2545V29.0034H38.975H38.6356V24.4278H38.2483H37.5416H37.2422H36.9866H36.7511H36.4316H35.8327H35.8327ZM49.3914 24.4278H49.8626H50.3137V25.3462H49.8626H49.3914V24.4278ZM50.5493 24.4278H50.9965H51.4477V25.3462H50.9965H50.5493V24.4278ZM53.2843 24.4278H53.6277H54.2066V25.3462H53.6277H53.2843V24.4278ZM54.4182 24.4278H54.8494H55.3406V25.3462H54.8494H54.4182V24.4278ZM57.0934 24.4278H57.5646H58.0117V25.3462H57.5646H57.0934V24.4278ZM58.2473 24.4278H58.6985H59.1696V25.3462H58.6985H58.2473V24.4278ZM6.6331 24.6634H6.65705H7.10424H7.55541V25.5618H7.10424H6.65705H6.6331V24.6634ZM7.78699 24.6634H8.23816H8.70931V25.5618H8.23816H7.78699V24.6634ZM19.2102 24.6634H19.7452H20.2802V25.5817H19.7452H19.2102V24.6634ZM20.5358 24.6634H21.0708H21.6058V25.5817H21.0708H20.5358V24.6634ZM27.7227 24.6634H27.8744H28.2577H28.7927V25.5817H28.2577H27.8744H27.7227V24.6634ZM29.0522 24.6634H29.5872H30.1183V25.5817H29.5872H29.0522V24.6634ZM36.0435 24.6634H36.4308H36.7502H36.9858H37.1136V25.5817H36.9858H36.7502H36.4308H36.0435V24.6634ZM37.3731 24.6634H37.5408H38.2475H38.4192V25.5817H38.2475H37.5408H37.3731V24.6634ZM49.3911 25.5378H49.8623H50.3135V26.4601H49.8623H49.3911V25.5378ZM50.549 25.5378H50.9962H51.4474V26.4601H50.9962H50.549V25.5378ZM53.284 25.5378H53.6274H54.2063V26.4601H53.6274H53.284V25.5378ZM54.418 25.5378H54.8492H55.3403V26.4601H54.8492H54.418V25.5378ZM57.0932 25.5378H57.5643H58.0115V26.4601H57.5643H57.0932V25.5378ZM58.247 25.5378H58.6982H59.1694V26.4601H58.6982H58.247V25.5378ZM6.63283 25.7734H6.65679H7.10397H7.55514V26.6957H7.10397H6.65679H6.63283V25.7734ZM7.78672 25.7734H8.2379H8.70904V26.6957H8.2379H7.78672V25.7734ZM19.2099 25.7734H19.7449H20.28V26.7157H19.7449H19.2099V25.7734ZM20.5355 25.7734H21.0705H21.6055V26.7157H21.0705H20.5355V25.7734ZM27.7224 25.7734H27.8741H28.2574H28.7925V26.7157H28.2574H27.8741H27.7224V25.7734ZM29.052 25.7734H29.587H30.118V26.7157H29.587H29.052V25.7734ZM36.0433 25.7734H36.4306H36.75H36.9855H37.1133V26.7157H36.9855H36.75H36.4306H36.0433V25.7734ZM37.3728 25.7734H37.5405H38.2472H38.4189V26.7157H38.2472H37.5405H37.3728V25.7734ZM49.3909 26.6518H49.862H50.3132V27.5941H49.862H49.3909V26.6518ZM50.5488 26.6518H50.9959H51.4471V27.5941H50.9959H50.5488V26.6518ZM53.2838 26.6518H53.6271H54.2061V27.5941H53.6271H53.2838V26.6518ZM54.4177 26.6518H54.8489H55.34V27.5941H54.8489H54.4177V26.6518ZM57.0929 26.6518H57.564H58.0112V27.5941H57.564H57.0929V26.6518ZM58.2468 26.6518H58.6979H59.1691V27.5941H58.6979H58.2468V26.6518ZM6.63256 26.8874H6.65652H7.1037H7.55488V27.8057H7.1037H6.65652H6.63256V26.8874ZM7.78645 26.8874H8.23763H8.70877V27.8057H8.23763H7.78645V26.8874ZM19.2096 26.9313H19.7447H20.2797V27.8696H19.7447H19.2096V26.9313ZM20.5352 26.9313H21.0702H21.6053V27.8696H21.0702H20.5352V26.9313ZM27.7221 26.9313H27.8739H28.2572H28.7922V27.8696H28.2572H27.8739H27.7221V26.9313ZM29.0517 26.9313H29.5867H30.1177V27.8696H29.5867H29.0517V26.9313ZM36.043 26.9313H36.4303H36.7497H36.9853H37.113V27.8696H36.9853H36.7497H36.4303H36.043V26.9313ZM37.3725 26.9313H37.5402H38.2469H38.4186V27.8696H38.2469H37.5402H37.3725V26.9313ZM49.3906 27.7857H49.8617H50.3129V28.7041H49.8617H49.3906V27.7857ZM50.5485 27.7857H50.9957H51.4469V28.7041H50.9957H50.5485V27.7857ZM53.2835 27.7857H53.6269H54.2058V28.7041H53.6269H53.2835V27.7857ZM54.4174 27.7857H54.8486H55.3397V28.7041H54.8486H54.4174V27.7857ZM57.0926 27.7857H57.5638H58.0109V28.7041H57.5638H57.0926V27.7857ZM58.2465 27.7857H58.6977H59.1688V28.7041H58.6977H58.2465V27.7857ZM6.63229 28.0213H6.65625H7.10344H7.55461V28.9396H7.10344H6.65625H6.63229V28.0213ZM7.78619 28.0213H8.23736H8.7085V28.9396H8.23736H7.78619V28.0213ZM19.2094 28.0612H19.7444H20.2794V29.0035H19.7444H19.2094V28.0612ZM20.5349 28.0612H21.07H21.605V29.0035H21.07H20.5349V28.0612ZM27.7219 28.0612H27.8736H28.2569H28.7919V29.0035H28.2569H27.8736H27.7219V28.0612ZM29.0514 28.0612H29.5864H30.1175V29.0035H29.5864H29.0514V28.0612ZM36.0427 28.0612H36.43H36.7494H36.985H37.1128V29.0035H36.985H36.7494H36.43H36.0427V28.0612ZM37.3723 28.0612H37.54H38.2467H38.4184V29.0035H38.2467H37.54H37.3723V28.0612ZM18.547 29.1752H19.7448H20.4076H21.0704H21.841H22.2682V29.4547H21.841H21.0704H20.4076H19.7448H18.547V29.1752ZM27.0595 29.1752H27.874H28.2573H29.5869H30.7847V29.4547H29.5869H28.2573H27.874H27.0595V29.1752ZM35.3804 29.1752H36.4305H36.7499H36.9855H37.241H37.5405H38.2472H38.9739H39.1056V29.4547H38.9739H38.2472H37.5405H37.241H36.9855H36.7499H36.4305H35.3804V29.1752ZM19.0619 29.6264H19.7447H20.4075H21.0703H21.757V29.838H21.0703H20.4075H19.7447H19.0619V29.6264ZM27.5744 29.6264H27.8739H28.2572H29.5867H30.2695V29.838H29.5867H28.2572H27.8739H27.5744V29.6264ZM35.8953 29.6264H36.4303H36.7497H36.9853H37.2408H37.5403H38.247H38.5704V29.838H38.247H37.5403H37.2408H36.9853H36.7497H36.4303H35.8953V29.6264ZM1.30608 32.022H1.4578H1.8411H2.3961H3.19066H3.59392H3.95726H5.30674H6.03342H6.65629H7.10347H7.6385H8.23741H8.92017H9.35139H10.118H10.8247H11.4036H12.1503H12.7292H12.7492L12.9209 32.1498V32.5131L12.7492 32.621H12.7292H12.1503H11.4036H10.8247H10.118H9.35139H8.92017H8.23741H7.6385H7.10347H6.65629H6.03342H5.30674H3.95726H3.59392H3.19066H2.3961H1.8411H1.4578H1.30608L1.09447 32.5131V32.1498L1.30608 32.022V32.022ZM13.0088 32.022H13.1565H15.081H17.5645H19.7445H20.4073H21.0701H21.8407H22.5474H23.274H24.0646H25.0069H27.8737H28.257H29.5866H32.8806H34.9328H36.4301H36.7495H36.9851H37.2406H37.5401H38.2468H38.9734H39.6163H39.9157H40.323H40.7302H40.9658H41.5008H41.6925H42.3753H42.7386H43.062H43.3615H43.7008V32.6209H43.3615H43.062H42.7386H42.3753H41.6925H41.5008H40.9658H40.7302H40.323H39.9157H39.6163H38.9734H38.2468H37.5401H37.2406H36.9851H36.7495H36.4301H34.9328H32.8806H25.0069H24.0646H23.274H22.5474H21.8407H21.0701H20.4073H19.7445H17.5645H15.081H13.1565H12.9649L13.0926 32.5531V32.1059L13.0088 32.022H13.0088ZM43.8723 32.022H44.3435H45.4135H46.9108V32.6209H45.4135H44.3435H43.8723V32.022ZM47.1264 32.022H47.4019H47.7014V32.6209H47.4019H47.1264V32.022ZM47.8531 32.022H49.0509H49.8615H50.9954H53.6266H54.2495H54.8484H57.5635H58.6974H60.4302V32.6209H58.6974H57.5635H54.8484H54.2495H53.6266H50.9954H49.8615H49.0509H47.8531V32.022ZM60.578 32.022H60.9213H61.2647V32.6209H60.9213H60.578V32.022ZM61.4763 32.022H63.0614H64.3671V32.6209H63.0614H61.4763V32.022ZM64.5587 32.022H64.5986H64.6426V32.6209H64.5986H64.5587V32.022ZM35.6871 32.8126C35.9358 32.8099 36.1838 32.8126 36.4298 32.8126H36.7492H36.9848H37.2403H37.5398H38.2465H38.9731H39.616H39.9154H40.3227H40.7299H40.9655H41.5005H41.6922H42.375H42.7383H43.0617H43.3612H43.465V38.5661H43.3612H43.0617H42.7822V39.0772H42.7383H42.3749H41.6922H41.5005H40.9655H40.7299H40.3227H39.9154H39.616H38.9731H38.2465H37.5397H37.2403H36.9847H36.7492H36.4298H34.9324H32.8802H30.4846V34.0503C30.2279 33.9647 29.9071 33.9014 29.5862 33.8586C29.1584 33.7945 28.6845 33.7734 28.2567 33.7947C28.1284 33.7947 28.0017 33.8173 27.8734 33.8387C27.5739 33.8814 27.3181 33.9672 27.0828 34.0742C27.0614 35.7854 27.1042 37.3659 27.0828 39.0771H25.0066H24.0643H23.2738H22.5471H21.8404H21.0698H20.407H19.7442H17.5642H15.0807H13.1563H13.0085V32.8325H13.1563H15.0807H17.5642H19.7442H20.407H21.0698H21.8404H22.5471H23.2738H24.0643H25.0066H32.8803H34.9325C35.1892 32.8218 35.4384 32.8152 35.6871 32.8125L35.6871 32.8126ZM43.5967 32.8126H43.7644H43.9161V38.5661H43.7644H43.5967V32.8126ZM44.2794 32.8126H44.3433H45.4134H46.5473V38.61H45.4134H44.3433H44.2794V32.8126ZM46.7589 32.8126H47.1023H47.4017H47.4457V38.5862H47.4017H47.1023H46.7589V32.8126ZM47.5934 32.8126H47.789H49.0507H49.8612H50.9952H53.6264H54.2493H54.8482H57.5633H58.6972H60.9012V38.5661H58.6972H57.5633H54.8482H54.2493H53.6264H50.9952H49.8612H49.0507H47.789H47.5934V32.8126ZM61.0486 32.8126H61.3919H61.7353V38.5862H61.3919H61.0486V32.8126ZM61.9469 32.8126H63.0609H64.1948V38.61H63.0609H61.9469V32.8126ZM64.3865 32.8126H64.5143H64.5981H64.642V38.5661H64.5981H64.5143H64.3865V32.8126ZM1.36905 32.8326H1.45689H1.8402H2.39519H3.18975H3.59301H3.95636H5.30584H6.03251H6.65538H7.10257H7.63759H8.2365H8.91927H9.35048H10.1171H10.8238H11.4027H12.1494H12.4089V37.6877H12.1494H11.4027H10.8238H10.1171H9.35048H9.21873L9.19982 34.3351C9.19982 34.0142 9.09145 33.736 8.92033 33.5006C8.74921 33.2868 8.51565 33.1164 8.23756 33.0095C8.04504 32.9453 7.85256 32.9017 7.63865 32.9017C7.44613 32.9017 7.27475 32.9254 7.10363 32.9896C6.93251 33.0536 6.78478 33.1181 6.65644 33.2251C6.31419 33.4818 6.0775 33.8859 6.0775 34.3351L6.05354 37.693H6.03358H5.3069H3.95742H3.59408H3.19082H2.39626H1.84126H1.45796H1.41404L1.37012 32.8378L1.36905 32.8326ZM12.5767 32.8326H12.7284H12.8562C12.8562 34.8859 12.8776 37.0462 12.8562 39.1211H12.7284H12.5767V32.8326ZM7.63771 33.0881C7.85162 33.0881 8.0655 33.1542 8.23662 33.2398C8.53608 33.3682 8.79103 33.6016 8.91938 33.9226C8.96216 34.0723 8.98327 34.224 8.98327 34.3738C9.00466 35.4861 9.00722 37.3261 9.00722 38.4383H8.91938H8.81557V34.4576C8.81557 33.9656 8.57887 33.6224 8.23663 33.4514C8.06551 33.3445 7.87159 33.3037 7.65769 33.3037H7.63773C7.44521 33.3037 7.27382 33.3459 7.1027 33.4314C6.91018 33.5169 6.76247 33.6462 6.65551 33.8387C6.54856 34.0097 6.48382 34.201 6.48382 34.4576V38.4383H6.26821V34.3738C6.26821 34.0101 6.42022 33.7094 6.6555 33.4954C6.78384 33.3671 6.93157 33.2601 7.10269 33.1959C7.27381 33.1317 7.44521 33.0881 7.63771 33.0881L7.63771 33.0881ZM52.921 33.7359V37.8004H53.6278H54.2506H54.8495H55.5522V33.7359H54.8495H54.2506H53.6278H52.921ZM53.1367 33.9515H53.6278H54.1428V34.7221H53.6278H53.1367V33.9515ZM54.3544 33.9515H54.8495H55.3406V34.7221H54.8495H54.3544V33.9515ZM7.12392 34.1866H7.63897H8.15403V35.1249H7.63897H7.12392V34.1866ZM20.2162 34.2265C20.0451 34.2265 19.8948 34.2277 19.7451 34.2704C19.3815 34.3346 19.1268 34.4837 18.9985 34.6976V37.6284H18.8467V37.8001H19.7451H20.4079H21.0707H21.6057V37.6284H21.458V34.6976C21.3724 34.5693 21.2418 34.4637 21.0707 34.3782C20.8996 34.2927 20.6646 34.2479 20.4079 34.2265H20.2162V34.2265ZM36.7506 34.2265C36.6437 34.2265 36.5382 34.249 36.4312 34.2704C36.1104 34.356 35.8754 34.4837 35.7684 34.6976V37.6284H35.6167V37.8001H36.4312H36.7506H36.9862H37.2417H37.5412H38.2479H38.3557V37.6284H38.2479H38.208V34.6976C38.0796 34.4837 37.8406 34.356 37.5412 34.2704C37.4556 34.249 37.3487 34.2479 37.2417 34.2265H36.9862H36.7506H36.7506ZM20.2162 34.3982H20.4079C20.6218 34.4196 20.8782 34.4628 21.0707 34.5699C21.1349 34.6127 21.1996 34.6574 21.2424 34.7216H21.0707H20.4079H19.7451H19.2101C19.317 34.5719 19.5312 34.4849 19.7451 34.4421C19.9162 34.4207 20.0879 34.3982 20.2162 34.3982V34.3982ZM27.511 34.3982H27.8743H28.2177V36.3226H27.8743H27.511V34.3982ZM28.5811 34.3982H29.5872H30.0983V36.3226H29.5872H28.5811V34.3982ZM36.9857 34.3982C37.0713 34.3982 37.1557 34.4008 37.2413 34.4222C37.3482 34.4222 37.4552 34.4407 37.5407 34.4621C37.7118 34.5049 37.885 34.5933 37.9919 34.7216H37.5407H37.2413H36.9857H36.7501H36.4307H35.9796C36.0651 34.5933 36.2382 34.5049 36.4307 34.4621C36.5377 34.4407 36.6432 34.4222 36.7501 34.4222C36.8357 34.4008 36.9215 34.3982 36.9857 34.3982ZM19.2107 34.8693H19.7457H20.133V35.4483H19.7457H19.2107V34.8693ZM20.3247 34.8693H20.4085H21.0713H21.243V35.4483H21.0713H20.4085H20.3247V34.8693ZM35.98 34.8693H36.4312H36.7506H36.9024V35.4483H36.7506H36.4312H35.98V34.8693ZM37.094 34.8693H37.2417H37.5412H37.9924V35.4483H37.5412H37.2417H37.094V34.8693ZM53.1365 34.8893H53.6276H54.1427V35.6839H53.6276H53.1365V34.8893ZM54.3543 34.8893H54.8494H55.3405V35.6839H54.8494H54.3543V34.8893ZM19.2106 35.5761H19.7456H20.1329V36.151H19.7456H19.2106V35.5761ZM20.3245 35.5761H20.4084H21.0712H21.2429V36.151H21.0712H20.4084H20.3245V35.5761ZM35.9799 35.5761H36.4311H36.7505H36.9022V36.151H36.7505H36.4311H35.9799V35.5761ZM37.0939 35.5761H37.2416H37.5411H37.9922V36.151H37.5411H37.2416H37.0939V35.5761ZM53.1363 35.8515H53.6275H54.1425V36.6221H53.6275H53.1363V35.8515ZM54.3541 35.8515H54.8492H55.3403V36.6221H54.8492H54.3541V35.8515ZM19.2104 36.2828H19.7454H20.1327V36.8577H19.7454H19.2104V36.2828ZM20.3244 36.2828H20.4082H21.071H21.2427V36.8577H21.071H20.4082H20.3244V36.2828ZM35.9797 36.2828H36.4309H36.7503H36.9021V36.8577H36.7503H36.4309H35.9797V36.2828ZM37.0937 36.2828H37.2414H37.5409H37.9921V36.8577H37.5409H37.2414H37.0937V36.2828ZM27.5112 36.7299H27.8745H28.2179V38.5506H27.8745H27.5112V36.7299ZM28.5812 36.7299H29.5874H30.0984V38.5506H29.5874H28.5812V36.7299ZM53.1368 36.7938H53.6279H54.143V37.5644H53.6279H53.1368V36.7938ZM54.3546 36.7938H54.8497H55.3408V37.5644H54.8497H54.3546V36.7938ZM19.2109 36.9855H19.7459H20.1332V37.5644H19.7459H19.2109V36.9855ZM20.3249 36.9855H20.4087H21.0715H21.2432V37.5644H21.0715H20.4087H20.3249V36.9855ZM35.9802 36.9855H36.4314H36.7508H36.9025V37.5644H36.7508H36.4314H35.9802V36.9855ZM37.0942 36.9855H37.2419H37.5414H37.9926V37.5644H37.5414H37.2419H37.0942V36.9855ZM1.1596 38.0156H1.45907H1.84237H2.39736H3.19192H3.59518H3.95853H5.30801H6.03469H6.05465V38.4428H6.03469H5.30801H3.95853H3.59518H3.19192H2.39736H1.84237H1.45907H1.1596V38.0156V38.0156ZM9.22096 38.0156H9.35272H10.1193H10.826H11.405H12.1516H12.4111V38.4428H12.1516H11.405H10.826H10.1193H9.35272H9.22096V38.0156ZM43.0001 38.7623H43.064H43.3635H43.7667H44.3457H45.4157H46.9968V39.7884H45.4157H44.3457H43.7667H43.3635H43.064H43.0001V38.7623ZM47.2324 38.7623H47.4041H47.7914H49.0531H49.8636H50.9976H53.6288H54.2517H54.8506H57.5656H58.6996H60.9235H61.2429V39.7884H60.9235H58.6996H57.5656H54.8506H54.2517H53.6288H50.9976H49.8636H49.0531H47.7914H47.4041H47.2324V38.7623ZM61.4389 38.7623H63.064H64.5173H64.6012H64.9006V39.7884H64.6012H64.5173H63.064H61.4389V38.7623ZM12.5793 39.3172H12.7311H13.1583H15.0827H17.5663H19.7462H20.409H21.0718H21.8424H22.5491H23.2758H24.0664H25.0086H27.1048V39.6806H25.0086H24.0664H23.2758H22.5491H21.8424H21.0718H20.409H19.7462H17.5663H15.0827H13.1583H12.7311H12.5793V39.3172V39.3172ZM30.4872 39.3172H32.8829H34.9351H36.4324H36.7518H36.9874H37.2429H37.5424H38.2491H38.9757H39.6186H39.918H40.3253H40.7325H40.9681H41.5031H41.6948H42.3776H42.7409H42.7848V39.7884H42.7409H42.3776H41.6948H41.5031H40.9681H40.7325H40.3253H39.918H39.6186H38.9757H38.2491H37.5424H37.2429H36.9874H36.7518H36.4324H34.9351H32.8829H30.4872V39.3172V39.3172Z" fill="black"/>
</svg>
