<svg width="50" height="50" viewBox="0 0 50 50" fill="none" xmlns="http://www.w3.org/2000/svg">
<g clip-path="url(#clip0_27_12)">
<g filter="url(#filter0_d_27_12)">
<path d="M20.8333 12.4999H12.5C11.3949 12.4999 10.3351 12.9389 9.5537 13.7203C8.7723 14.5017 8.33331 15.5615 8.33331 16.6666V37.4999C8.33331 38.605 8.7723 39.6648 9.5537 40.4462C10.3351 41.2276 11.3949 41.6666 12.5 41.6666H33.3333C34.4384 41.6666 35.4982 41.2276 36.2796 40.4462C37.061 39.6648 37.5 38.605 37.5 37.4999V29.1666M29.1666 8.33325H41.6666M41.6666 8.33325V20.8333M41.6666 8.33325L20.8333 29.1666" stroke="#00FF67" stroke-width="6" stroke-linecap="round" stroke-linejoin="round"/>
</g>
</g>
<defs>
<filter id="filter0_d_27_12" x="5.33331" y="5.33325" width="45.3333" height="45.3333" filterUnits="userSpaceOnUse" color-interpolation-filters="sRGB">
<feFlood flood-opacity="0" result="BackgroundImageFix"/>
<feColorMatrix in="SourceAlpha" type="matrix" values="0 0 0 0 0 0 0 0 0 0 0 0 0 0 0 0 0 0 127 0" result="hardAlpha"/>
<feOffset dx="4" dy="4"/>
<feGaussianBlur stdDeviation="1"/>
<feComposite in2="hardAlpha" operator="out"/>
<feColorMatrix type="matrix" values="0 0 0 0 0 0 0 0 0 0 0 0 0 0 0 0 0 0 0.5 0"/>
<feBlend mode="normal" in2="BackgroundImageFix" result="effect1_dropShadow_27_12"/>
<feBlend mode="normal" in="SourceGraphic" in2="effect1_dropShadow_27_12" result="shape"/>
</filter>
<clipPath id="clip0_27_12">
<rect width="50" height="50" fill="white"/>
</clipPath>
</defs>
</svg>
