<svg width="62" height="62" viewBox="0 0 62 62" fill="none" xmlns="http://www.w3.org/2000/svg">
<path fill-rule="evenodd" clip-rule="evenodd" d="M36.4468 6.30529C37.3055 6.53159 38.0247 7.11744 38.4246 7.91414C39.9219 10.9118 41.041 12.7316 42.1663 14.2072C43.3071 15.7014 44.5098 16.9228 46.345 18.7549C50.5796 22.9926 52.7001 28.5509 52.7001 34.0999C52.7001 39.6489 50.5796 45.2072 46.345 49.4449C37.8696 57.9172 24.1305 57.9172 15.6551 49.4449C11.4205 45.2072 9.30005 39.6489 9.30005 34.0999C9.30005 28.5509 11.4205 22.9926 15.6551 18.7549C16.5417 17.8683 17.8746 17.6048 19.034 18.0853C20.1934 18.5627 20.9468 19.6943 20.9468 20.9467C20.9468 24.4187 21.1637 27.0629 22.1805 29.174C22.7385 30.3334 23.6097 31.4681 25.1101 32.4818C25.4697 29.1927 26.1269 25.1843 27.0135 21.3837C27.711 18.3891 28.5789 15.4007 29.6143 12.9083C30.132 11.659 30.718 10.4747 31.3814 9.44862C32.0262 8.45042 32.857 7.4369 33.9296 6.7208C34.6705 6.2279 35.5881 6.07589 36.4468 6.30529ZM37.5752 46.8749C33.9451 50.5081 28.055 50.5081 24.4249 46.8749C22.6083 45.0614 21.7 42.6807 21.7 40.2999C21.7 40.2999 24.4249 41.8499 29.45 41.8499C29.45 38.7499 31 29.4499 33.325 27.8999C34.8751 30.9999 35.7617 31.9083 37.5752 33.7249C39.3918 35.5384 40.3001 37.9191 40.3001 40.2999C40.3001 42.6807 39.3918 45.0614 37.5752 46.8749Z" fill="#3F3F46"/>
</svg>
