<svg width="50" height="65" viewBox="0 0 50 65" fill="none" xmlns="http://www.w3.org/2000/svg">
<path d="M-1.16527e-05 52.7554C0.198423 51.8629 0.584602 51.0293 0.91901 50.1825C1.15876 49.5102 1.38687 48.8368 1.67611 48.1844C1.99298 47.6622 2.2749 47.1299 2.53327 46.5766C2.89579 45.6155 3.36461 44.7085 3.8852 43.8249C4.40987 43.0155 4.83941 42.16 5.18956 41.2647C5.36229 40.6632 5.63375 40.1023 5.9087 39.5433C6.27578 38.8071 6.71926 38.1149 7.15793 37.4205C7.63888 36.5965 8.27911 35.8835 8.89447 35.1598C9.39332 34.5555 9.91583 33.9715 10.4319 33.3818C11.0771 32.5987 11.4207 31.6358 11.7915 30.7048C12.0597 29.2404 14.0825 26.7528 15.2049 28.6336C16.185 30.4494 17.016 32.3411 17.8978 34.2057C19.3704 37.1556 21.331 39.8161 23.3591 42.4012C25.3358 44.8926 27.4166 47.3014 29.5851 49.6273C31.1238 51.3265 32.8622 52.8202 34.5728 54.3393C35.4553 55.0831 36.3791 55.7695 37.2157 56.5634C38.071 57.4365 39.0623 58.1489 40.0486 58.8627C41.0663 59.616 42.1323 60.3017 43.2269 60.9374C44.3315 61.5001 45.4288 62.0787 46.5574 62.5921C47.2668 62.9117 48.0235 63.0551 48.7821 63.1941L46.7646 64.6034C46.0106 64.4264 45.2496 64.2585 44.5466 63.9201C43.4473 63.3684 42.357 62.8017 41.283 62.2016C40.1629 61.5792 39.0404 60.9385 38.0384 60.1348C37.0578 59.3845 36.0539 58.6586 35.1269 57.8423C34.3217 57.0497 33.4744 56.3025 32.6487 55.5305C30.9835 53.9753 29.3471 52.3865 27.8127 50.7007C25.7269 48.3011 23.6475 45.8967 21.6563 43.4172C19.6069 40.832 17.6936 38.1259 16.1472 35.2056C15.1426 33.423 14.2215 31.5918 13.1219 29.8649C11.9488 28.9327 15.6314 27.2239 13.9418 29.7073C13.5928 30.6336 13.2957 31.6066 12.7094 32.4148C12.1888 33.0199 11.6407 33.5997 11.1318 34.2152C10.5159 34.9282 9.87163 35.6291 9.38131 36.4374C8.96198 37.121 8.51682 37.7931 8.18205 38.5238C7.90026 39.0743 7.61726 39.6248 7.42927 40.218C7.06304 41.1402 6.60142 42.0096 6.07411 42.8529C5.56421 43.7168 5.0883 44.5979 4.76038 45.5498C4.54621 46.1146 4.31366 46.6523 3.9628 47.1488C3.62995 47.8069 3.34251 48.4833 3.09086 49.1771C2.77363 49.9756 2.42913 50.7776 2.28187 51.6282L-0.000732422 52.7549L-1.16527e-05 52.7554Z" fill="black"/>
<path d="M49.5002 10.3502C49.5002 15.717 44.3518 20.2003 37.8239 20.2003C31.2959 20.2003 26.1475 15.7171 26.1475 10.3502C26.1475 4.98328 31.2959 0.500244 37.8239 0.500244C44.3518 0.500244 49.5002 4.98248 49.5002 10.3496V10.3502Z" fill="#2C0F0F" stroke="black"/>
</svg>
