<svg width="48" height="48" viewBox="0 0 48 48" fill="none" xmlns="http://www.w3.org/2000/svg">
<path d="M0.635191 38.6989C0.819378 38.0582 1.17783 37.4598 1.48823 36.852C1.71077 36.3694 1.9225 35.886 2.19098 35.4178C2.4851 35.0429 2.74677 34.6608 2.9866 34.2637C3.32308 33.5737 3.75824 32.9227 4.24146 32.2884C4.72846 31.7075 5.12717 31.0934 5.45217 30.4507C5.6125 30.019 5.86448 29.6163 6.11968 29.2151C6.46041 28.6866 6.87205 28.1898 7.27922 27.6913C7.72564 27.0999 8.31991 26.588 8.89109 26.0686C9.35412 25.6348 9.83912 25.2156 10.3181 24.7923C10.917 24.2301 11.2359 23.539 11.5801 22.8707C11.8291 21.8195 13.7066 20.0339 14.7484 21.384C15.6582 22.6874 16.4295 24.0453 17.248 25.3837C18.6149 27.5011 20.4347 29.4109 22.3172 31.2665C24.152 33.0549 26.0834 34.784 28.0962 36.4535C29.5245 37.6732 31.138 38.7454 32.7258 39.8358C33.5449 40.3698 34.4024 40.8624 35.179 41.4323C35.9728 42.059 36.893 42.5704 37.8085 43.0827C38.7532 43.6235 39.7426 44.1157 40.7586 44.572C41.7839 44.9759 42.8024 45.3912 43.85 45.7597C44.5085 45.9892 45.2108 46.0921 45.915 46.1919L44.0423 47.2035C43.3425 47.0764 42.636 46.9559 41.9836 46.713C40.9632 46.317 39.9512 45.9102 38.9543 45.4794C37.9146 45.0327 36.8727 44.5728 35.9426 43.9959C35.0324 43.4573 34.1006 42.9362 33.2401 42.3503C32.4928 41.7814 31.7063 41.245 30.9399 40.6908C29.3943 39.5745 27.8753 38.4341 26.451 37.2239C24.5151 35.5015 22.5849 33.7756 20.7366 31.9958C18.8344 30.1401 17.0585 28.1976 15.6231 26.1014C14.6907 24.8219 13.8356 23.5074 12.815 22.2678C11.7262 21.5986 15.1443 20.3721 13.5761 22.1547C13.2521 22.8196 12.9763 23.518 12.4321 24.0981C11.9489 24.5325 11.4402 24.9487 10.9678 25.3905C10.3961 25.9023 9.79809 26.4054 9.34297 26.9856C8.95375 27.4763 8.54055 27.9588 8.22982 28.4833C7.96825 28.8784 7.70557 29.2736 7.53109 29.6994C7.19114 30.3614 6.76267 30.9855 6.27321 31.5907C5.79992 32.2108 5.35818 32.8434 5.0538 33.5266C4.85501 33.932 4.63916 34.318 4.31348 34.6744C4.00454 35.1468 3.73773 35.6323 3.50415 36.1303C3.2097 36.7035 2.88993 37.2792 2.75324 37.8898L0.634521 38.6985L0.635191 38.6989Z" fill="black"/>
</svg>
