<svg width="66" height="50" viewBox="0 0 66 50" fill="none" xmlns="http://www.w3.org/2000/svg">
<g clip-path="url(#clip0_51_1578)">
<path d="M51.9231 27.9627C51.2951 27.9747 50.7967 28.2673 50.3779 28.7946C50.0023 29.2847 49.8578 29.8146 50.0073 29.8836C50.288 29.6035 50.6201 29.441 50.9763 29.441C51.9823 29.441 52.7977 30.733 52.7977 32.3272C52.7977 33.9212 51.9408 34.7114 50.9763 35.1639C50.2019 35.5271 49.1662 35.5458 48.3978 35.161H48.397C43.677 32.1183 38.4945 23.8599 32.0731 32.1692C28.2645 37.0972 25.321 30.3627 20.364 29.5067C18.3564 29.16 15.6106 30.9701 14.4563 32.3843C12.5179 34.679 5.62901 22.0188 1.62452 36.1319C0.345452 38.7667 1.06175 45.0994 1.6125 49.1593H65.5128V30.8653C62.6235 30.207 59.2968 30.7754 56.4641 32.6615C55.7271 31.063 54.701 29.1355 53.2045 28.2533C52.7237 28.0492 52.3005 27.9549 51.9237 27.9621L51.9231 27.9627ZM49.7796 30.5338C49.6395 30.5448 49.5285 31.0828 49.5285 31.3029C49.5285 31.5302 49.6469 31.7142 49.7934 31.7142C49.9399 31.7142 50.059 31.5302 50.059 31.3029C50.059 31.0757 49.9399 30.5338 49.7934 30.5338C49.7888 30.5338 49.7841 30.5326 49.7796 30.5338Z" fill="black"/>
<path d="M32.239 28.1356C31.611 28.1476 31.1126 28.4402 30.6939 28.9675C30.3182 29.4576 30.1738 29.9875 30.3232 30.0565C30.6039 29.7764 30.936 29.6139 31.2922 29.6139C32.2982 29.6139 33.1136 30.906 33.1136 32.5C33.1136 33.3468 33.0042 33.7867 32.77 34.1316C29.6606 34.6791 29.1864 37.2344 27.8847 38.0487C26.5105 38.9082 22.9914 38.5302 19.9461 37.3738C19.3796 35.5719 18.5645 32.2191 16.7056 30.5049C15.5007 29.6231 14.6136 29.6255 13.8629 30.2765C13.4401 30.6581 13.2406 31.142 13.3805 31.2502C13.6872 31.0499 14.0321 30.9791 14.3831 31.0751C15.3745 31.3462 16.0392 32.8389 15.8682 34.4097C15.8226 34.8277 15.7228 35.2056 15.5822 35.5301C13.0793 34.9203 10.7004 35.4458 9.12172 36.4648C7.04556 37.8052 6.16125 39.45 2.39331 37.5005L2.58556 49.1604H65.511V38.975C63.5692 36.0928 60.8227 33.2793 56.5193 33.3026C50.6955 33.1643 49.9361 38.8093 47.9545 39.2673C44.2938 39.9673 42.266 35.9877 37.5523 34.5391C36.8048 32.9906 35.6297 29.6706 33.5201 28.4269C33.0393 28.2228 32.6154 28.1284 32.2386 28.1356L32.239 28.1356Z" fill="black"/>
<path d="M38.1972 34.7879C37.7306 34.8002 37.3279 34.9979 36.9643 35.3555C36.5554 35.7734 36.3737 36.2736 36.5171 36.3695C36.8164 36.1428 37.1589 36.0418 37.5128 36.1072C38.512 36.2917 39.428 37.8525 39.1854 39.3996C38.7564 42.1357 36.7748 42.1486 35.1755 41.4392C33.0048 40.4762 30.9488 38.0206 27.7758 37.8727C20.8816 37.5514 20.4556 41.5604 17.8511 43.4631C15.9817 44.5856 14.3923 38.426 11.6077 36.7843C10.3256 36.24 9.45117 36.4808 8.7812 37.3246C8.40555 37.8146 8.26115 38.3439 8.41058 38.4129C8.6913 38.1328 9.02535 37.9705 9.38154 37.9705C10.3875 37.9705 11.2024 39.2617 11.2024 40.8557C11.2024 41.7465 10.9479 42.5284 10.5477 43.0442C6.95448 40.8143 3.49528 36.4641 0.0648561 37.0818L0.000610352 49.5467H65.5161V48.6659C59.8406 42.6389 56.0303 36.9754 49.0167 36.9213C45.9962 36.937 44.4556 38.7355 42.7337 40.3351C42.118 38.6083 41.2386 36.4952 39.8109 35.3397C39.194 34.9518 38.6641 34.7754 38.1975 34.7877L38.1972 34.7879Z" fill="#B3B3B3"/>
<path d="M12.9052 33.2005C12.765 33.2115 12.6534 33.7495 12.6534 33.9696C12.6534 34.1969 12.7725 34.3818 12.919 34.3818C13.0655 34.3818 13.1839 34.1969 13.1839 33.9696C13.1839 33.7424 13.0655 33.2005 12.919 33.2005C12.9144 33.2005 12.9097 33.1993 12.9052 33.2005Z" fill="#79ACD4"/>
</g>
<defs>
<clipPath id="clip0_51_1578">
<rect width="65.9274" height="50" fill="white"/>
</clipPath>
</defs>
</svg>
