<svg width="50" height="50" viewBox="0 0 50 50" fill="none" xmlns="http://www.w3.org/2000/svg">
<path d="M26.9813 6.098C26.3583 4.17925 23.6438 4.17925 23.0188 6.098L19.8542 15.8355C19.7179 16.2535 19.4528 16.6177 19.0969 16.8759C18.7411 17.1341 18.3126 17.2731 17.8729 17.273H7.63543C5.61877 17.273 4.7771 19.8563 6.41043 21.0438L14.6938 27.0605C15.0496 27.3192 15.3144 27.6838 15.4502 28.1022C15.5861 28.5206 15.586 28.9713 15.45 29.3897L12.2875 39.1272C11.6625 41.0459 13.8604 42.6438 15.4917 41.4563L23.775 35.4397C24.131 35.1809 24.5599 35.0415 25 35.0415C25.4402 35.0415 25.869 35.1809 26.225 35.4397L34.5083 41.4563C36.1396 42.6438 38.3375 41.048 37.7125 39.1272L34.55 29.3897C34.414 28.9713 34.4139 28.5206 34.5498 28.1022C34.6856 27.6838 34.9504 27.3192 35.3063 27.0605L43.5896 21.0438C45.2208 19.8563 44.3833 17.273 42.3646 17.273H32.125C31.6857 17.2727 31.2577 17.1335 30.9022 16.8753C30.5468 16.6171 30.282 16.2532 30.1458 15.8355L26.9813 6.098Z" stroke="#3F3F46" stroke-width="2" stroke-linecap="round" stroke-linejoin="round"/>
</svg>
