<svg width="280" height="241" viewBox="0 0 280 241" fill="none" xmlns="http://www.w3.org/2000/svg">
<g clip-path="url(#clip0_119_98)">
<path d="M257.989 239.939C262.086 239.939 265.406 239.096 265.406 238.055C265.406 237.015 262.086 236.171 257.989 236.171C253.893 236.171 250.572 237.015 250.572 238.055C250.572 239.096 253.893 239.939 257.989 239.939Z" fill="#F2F2F2"/>
<path d="M266.643 58.1599H266.025V77.9389H266.643V58.1599Z" fill="#F2F2F2"/>
<path d="M259.844 45.4448H256.135V240.41H259.844V45.4448Z" fill="#F2F2F2"/>
<path d="M274.968 60.75H241.011C240.638 60.75 240.27 60.6293 239.93 60.3959C239.591 60.1625 239.288 59.8218 239.041 59.3963C238.795 58.9708 238.611 58.4702 238.501 57.9279C238.391 57.3856 238.358 56.8138 238.404 56.2506L242.731 3.50645C242.811 2.53889 243.12 1.64908 243.6 1.00364C244.08 0.358196 244.697 0.00137964 245.337 0H270.641C271.281 0.0013795 271.899 0.358196 272.379 1.00364C272.859 1.64908 273.167 2.53888 273.248 3.50645L277.574 56.2506C277.621 56.8138 277.588 57.3856 277.478 57.9279C277.368 58.4702 277.184 58.9708 276.937 59.3963C276.691 59.8218 276.388 60.1625 276.048 60.3959C275.709 60.6293 275.34 60.75 274.968 60.75V60.75Z" fill="#F2F2F2"/>
<path d="M266.334 81.2355C267.528 81.2355 268.497 79.7596 268.497 77.939C268.497 76.1184 267.528 74.6425 266.334 74.6425C265.139 74.6425 264.17 76.1184 264.17 77.939C264.17 79.7596 265.139 81.2355 266.334 81.2355Z" fill="#F2F2F2"/>
<path d="M38.8045 188.073C37.2431 196.326 32.6842 202.104 27.9286 207.012C27.2646 207.698 26.6004 208.367 25.9359 209.021C25.9314 209.024 25.9268 209.031 25.9222 209.034C25.8903 209.065 25.8582 209.096 25.8284 209.128C25.6913 209.262 25.5541 209.397 25.4181 209.53L25.4928 209.582C25.4928 209.582 25.5662 209.641 25.4859 209.591C25.4621 209.576 25.437 209.562 25.4132 209.547C22.6505 207.849 19.8387 206.026 17.7215 202.845C15.5253 199.542 14.2418 194.362 15.431 190.023C15.5874 189.454 15.7848 188.914 16.0197 188.413C16.1162 188.202 16.2201 188.001 16.3283 187.804C16.9843 186.583 17.8417 185.652 18.8123 185.104C19.783 184.556 20.8319 184.413 21.8511 184.687C22.8704 184.962 23.8232 185.646 24.6116 186.668C25.4 187.689 25.9956 189.013 26.3371 190.502C26.6864 185.545 24.0041 181.393 21.4227 178.329C18.8402 175.267 15.9058 171.932 15.4065 167.003C15.1277 164.26 15.7536 161.602 16.8937 159.469C16.929 159.404 16.9643 159.339 17.0006 159.276C18.3885 156.791 20.3406 155.195 22.4669 154.808C26.4268 154.18 30.2733 157.374 33.1501 161.57C37.7803 168.32 40.5794 178.688 38.8045 188.073Z" fill="#F2F2F2"/>
<path d="M31.3612 177.277C32.1212 179.079 32.7047 181.04 33.0933 183.098C33.4219 184.938 33.5682 186.842 33.5272 188.748C33.4212 192.669 32.6988 196.494 31.4206 199.901C30.4579 202.486 29.2845 204.876 27.9286 207.012C27.2646 207.698 26.6003 208.367 25.9359 209.021C25.9314 209.024 25.9268 209.031 25.9222 209.034C25.8902 209.065 25.8582 209.096 25.8284 209.128C25.6913 209.262 25.5541 209.397 25.4181 209.53C25.4181 209.53 25.5662 209.641 25.4859 209.591C25.462 209.576 25.437 209.562 25.4132 209.547C25.6608 206.453 25.4182 203.315 24.7058 200.394C23.9934 197.472 22.8319 194.854 21.3186 192.758C19.8016 190.694 17.986 189.205 16.0197 188.413C16.1162 188.202 16.2201 188.001 16.3282 187.804C17.0877 188.128 17.8268 188.554 18.5369 189.077C21.0755 190.935 23.1541 193.988 24.4651 197.786C25.6415 201.235 26.1478 205.123 25.9246 208.995C26.0381 208.838 26.1517 208.678 26.262 208.519C28.3613 205.537 30.226 202.114 31.4879 198.163C32.5827 194.817 33.1208 191.112 33.0547 187.375C32.9517 183.3 31.8862 179.525 30.3434 176.239C28.6526 172.734 26.6551 169.597 24.4064 166.916C22.1403 164.15 19.6606 161.817 17.0225 159.969C16.963 159.927 16.9165 159.851 16.8925 159.758C16.8685 159.665 16.869 159.561 16.8937 159.469C16.9113 159.386 16.9498 159.316 17.0007 159.276C17.0268 159.259 17.0552 159.251 17.0837 159.253C17.1122 159.255 17.1401 159.266 17.1652 159.287C17.4909 159.515 17.8144 159.747 18.1352 159.989C20.8076 162.001 23.3056 164.512 25.5717 167.463C27.7607 170.307 29.8214 173.556 31.3612 177.277Z" fill="white"/>
<path d="M16.2639 208.858H33.374C33.5617 208.858 33.7473 208.918 33.9183 209.036C34.0894 209.154 34.2421 209.325 34.3664 209.54C34.4906 209.754 34.5834 210.006 34.6388 210.28C34.6942 210.553 34.7107 210.841 34.6875 211.125L32.5073 237.701C32.4669 238.189 32.3112 238.637 32.0694 238.962C31.8277 239.288 31.5164 239.467 31.1939 239.468H18.444C18.1215 239.467 17.8102 239.288 17.5685 238.962C17.3267 238.637 17.171 238.189 17.1306 237.701L14.9504 211.125C14.9272 210.841 14.9437 210.553 14.9991 210.28C15.0545 210.006 15.1473 209.754 15.2715 209.54C15.3958 209.325 15.5485 209.154 15.7196 209.036C15.8906 208.918 16.0762 208.858 16.2639 208.858V208.858Z" fill="#F2F2F2"/>
<path d="M72.0515 239.672C73.2341 239.672 74.1928 238.211 74.1928 236.409C74.1928 234.607 73.2341 233.146 72.0515 233.146C70.8689 233.146 69.9102 234.607 69.9102 236.409C69.9102 238.211 70.8689 239.672 72.0515 239.672Z" fill="#CCCCCC"/>
<path d="M207.312 239.672C208.494 239.672 209.453 238.211 209.453 236.409C209.453 234.607 208.494 233.146 207.312 233.146C206.129 233.146 205.171 234.607 205.171 236.409C205.171 238.211 206.129 239.672 207.312 239.672Z" fill="#CCCCCC"/>
<path d="M111.309 191H77.7617C76.2005 190.997 74.7037 190.051 73.5997 188.369C72.4958 186.687 71.8748 184.406 71.873 182.027V147.222C71.8748 144.843 72.4958 142.562 73.5997 140.88C74.7037 139.198 76.2005 138.252 77.7617 138.249H111.309C112.87 138.252 114.367 139.198 115.471 140.88C116.575 142.562 117.196 144.843 117.198 147.222V182.027C117.196 184.406 116.575 186.687 115.471 188.369C114.367 190.051 112.87 190.997 111.309 191V191Z" fill="#E6E6E6"/>
<path d="M156.455 191.272H122.908C121.347 191.269 119.85 190.323 118.746 188.641C117.642 186.959 117.021 184.678 117.019 182.299V147.494C117.021 145.115 117.642 142.834 118.746 141.152C119.85 139.47 121.347 138.524 122.908 138.521H156.455C158.017 138.524 159.513 139.47 160.617 141.152C161.721 142.834 162.342 145.115 162.344 147.494V182.299C162.342 184.678 161.721 186.959 160.617 188.641C159.513 190.323 158.017 191.269 156.455 191.272V191.272Z" fill="#E6E6E6"/>
<path d="M201.602 191.544H168.054C166.493 191.541 164.996 190.595 163.892 188.913C162.788 187.231 162.167 184.95 162.166 182.571V147.766C162.167 145.387 162.788 143.106 163.892 141.424C164.996 139.742 166.493 138.796 168.054 138.793H201.602C203.163 138.796 204.66 139.742 205.764 141.424C206.868 143.106 207.489 145.387 207.49 147.766V182.571C207.488 184.95 206.868 187.231 205.764 188.913C204.66 190.595 203.163 191.541 201.602 191.544V191.544Z" fill="#E6E6E6"/>
<path d="M214.45 189.097H66.6982V236.137H214.45V189.097Z" fill="#E6E6E6"/>
<path d="M72.0515 236.409H65.6275C62.3805 236.409 59.7388 231.839 59.7388 226.221V177.133H72.0515V236.409Z" fill="#E6E6E6"/>
<path d="M213.736 236.409H207.312V169.519H219.624V224.913C219.624 231.252 216.983 236.409 213.736 236.409Z" fill="#E6E6E6"/>
<path d="M117.376 198.886H72.0515V184.202C87.1597 170.996 102.268 170.996 117.376 184.202V198.886Z" fill="#CCCCCC"/>
<path d="M162.522 199.157H117.198V184.474C132.306 171.268 147.414 171.268 162.522 184.474V199.157Z" fill="#CCCCCC"/>
<path d="M207.669 199.429H162.344V184.746C177.452 171.54 192.561 171.54 207.669 184.746V199.429Z" fill="#CCCCCC"/>
<path d="M63.3077 189.641C69.1223 189.641 73.8359 182.458 73.8359 173.598C73.8359 164.738 69.1223 157.555 63.3077 157.555C57.4932 157.555 52.7795 164.738 52.7795 173.598C52.7795 182.458 57.4932 189.641 63.3077 189.641Z" fill="#CCCCCC"/>
<path d="M217.483 189.097C223.298 189.097 228.011 181.914 228.011 173.054C228.011 164.194 223.298 157.011 217.483 157.011C211.669 157.011 206.955 164.194 206.955 173.054C206.955 181.914 211.669 189.097 217.483 189.097Z" fill="#CCCCCC"/>
<path d="M186.47 141.625C186.495 141.883 186.506 142.143 186.503 142.404L199.123 155.658L202.488 153.23L205.557 160.49L199.873 165.67C199.414 166.089 198.878 166.269 198.346 166.184C197.814 166.099 197.314 165.753 196.922 165.198L184.141 147.123C183.507 147.395 182.834 147.366 182.21 147.041C181.587 146.715 181.044 146.108 180.653 145.301C180.261 144.493 180.041 143.523 180.02 142.52C179.999 141.516 180.179 140.527 180.537 139.684C180.894 138.84 181.411 138.183 182.02 137.798C182.628 137.414 183.299 137.32 183.943 137.531C184.588 137.742 185.174 138.246 185.626 138.978C186.077 139.709 186.371 140.632 186.47 141.625V141.625Z" fill="#FFB8B8"/>
<path d="M199.366 154.517C199.422 154.224 199.518 153.954 199.648 153.723C199.779 153.492 199.941 153.307 200.122 153.18L206.468 148.75C207.325 147.9 208.368 147.602 209.369 147.922C210.369 148.242 211.246 149.154 211.806 150.457C212.366 151.761 212.564 153.349 212.357 154.875C212.15 156.401 211.554 157.739 210.7 158.596L205.455 165.665C205.305 165.867 205.128 166.017 204.937 166.105C204.746 166.193 204.544 166.218 204.346 166.177C204.148 166.136 203.958 166.031 203.789 165.868C203.621 165.705 203.477 165.488 203.368 165.233L199.536 156.263C199.427 156.007 199.355 155.719 199.326 155.418C199.297 155.117 199.31 154.809 199.366 154.517Z" fill="#00FF67"/>
<path d="M186.311 142.489L186.248 142.496L186.074 138.848C186.019 137.682 185.524 136.787 184.969 136.848L181.289 137.254C180.734 137.315 179.712 138.378 179.768 139.544L179.812 140.483L180.718 159.554C180.773 160.72 181.885 161.547 182.44 161.486L186.12 161.08C186.675 161.019 187.08 160.024 187.025 158.858L186.371 145.092L186.434 145.085L186.311 142.489Z" fill="#3F3D56"/>
<path d="M185.861 138.887L186.81 158.867C186.851 159.738 186.549 160.481 186.134 160.527L182.437 160.934C182.022 160.98 181.652 160.311 181.611 159.44L180.662 139.46C180.621 138.589 180.924 137.846 181.338 137.8L181.787 137.751C181.756 137.929 181.762 138.117 181.806 138.289C181.85 138.46 181.928 138.606 182.029 138.706C182.072 138.737 182.119 138.751 182.166 138.746L184.274 138.514C184.471 138.492 184.615 138.139 184.595 137.725C184.591 137.629 184.577 137.535 184.555 137.446L185.036 137.393C185.45 137.347 185.82 138.016 185.861 138.887Z" fill="white"/>
<path d="M133.992 185.024L132.773 179.558L146.029 169.789L147.829 177.857L133.992 185.024Z" fill="#FFB8B8"/>
<path d="M130.826 188.219L126.894 170.594L127.04 170.518C127.632 170.212 128.257 170.086 128.88 170.148C129.503 170.209 130.112 170.458 130.672 170.878C131.232 171.299 131.733 171.883 132.145 172.598C132.557 173.313 132.872 174.145 133.073 175.046L133.073 175.046L135.475 185.811L130.826 188.219Z" fill="#2F2E41"/>
<path d="M186.606 188.925C183.763 189.168 180.928 188.264 178.387 186.303L162.799 170.144L144.598 180.414C144.114 180.665 143.587 180.627 143.122 180.307C142.656 179.988 142.288 179.412 142.09 178.695L141.198 175.425C140.995 174.689 140.989 173.862 141.182 173.12C141.375 172.378 141.751 171.781 142.23 171.457L159.62 159.558C161.707 158.134 164.049 157.826 166.266 158.682L190.407 168.056L196.788 179.603L196.717 179.752C193.585 186.338 189.869 188.565 186.606 188.925Z" fill="#2F2E41"/>
<path d="M206.321 140.673C210.514 140.673 213.912 135.495 213.912 129.107C213.912 122.719 210.514 117.54 206.321 117.54C202.129 117.54 198.731 122.719 198.731 129.107C198.731 135.495 202.129 140.673 206.321 140.673Z" fill="#FFB8B8"/>
<path d="M198.53 184.752L186.313 170.898L194.644 161.875C194.406 160.707 193.349 154.025 199.131 149.471C200.961 148.029 202.279 146.788 203.05 145.783C204.143 144.346 205.543 143.567 206.986 143.594C207.896 143.616 208.79 143.961 209.598 144.6C210.405 145.24 211.104 146.157 211.639 147.279C212.173 148.401 212.529 149.698 212.678 151.065C212.827 152.433 212.765 153.835 212.497 155.161C211.291 161.132 209.371 169.045 207.069 172.829C204.464 177.104 201.639 181.056 198.622 184.646L198.53 184.752Z" fill="#00FF67"/>
<path d="M135.929 189.868L134.71 184.401L147.966 174.633L149.766 182.7L135.929 189.868Z" fill="#FFB8B8"/>
<path d="M132.763 193.063L128.831 175.438L128.977 175.362C129.569 175.056 130.194 174.93 130.817 174.991C131.44 175.053 132.049 175.301 132.609 175.722C133.169 176.142 133.67 176.727 134.082 177.442C134.494 178.157 134.809 178.989 135.01 179.89L135.01 179.89L137.412 190.655L132.763 193.063Z" fill="#2F2E41"/>
<path d="M188.543 193.769C185.7 194.012 182.865 193.108 180.324 191.147L164.736 174.988L146.535 185.258C146.051 185.509 145.524 185.47 145.059 185.151C144.593 184.832 144.225 184.255 144.027 183.538L143.135 180.269C142.932 179.533 142.926 178.705 143.119 177.963C143.312 177.221 143.688 176.625 144.167 176.301L161.557 164.402C163.644 162.978 165.986 162.67 168.204 163.526L192.344 172.9L198.725 184.447L198.654 184.596C195.522 191.181 191.806 193.409 188.543 193.769Z" fill="#2F2E41"/>
<path d="M185.039 155.5C185.134 155.717 185.217 155.945 185.288 156.182L200.416 159.926L202.776 155.537L207.588 160.096L203.907 168.486C203.61 169.163 203.176 169.676 202.672 169.946C202.167 170.216 201.618 170.23 201.108 169.985L184.479 161.988C183.983 162.647 183.366 163.061 182.711 163.173C182.057 163.286 181.395 163.092 180.815 162.617C180.234 162.143 179.762 161.41 179.461 160.517C179.161 159.623 179.046 158.612 179.132 157.617C179.217 156.621 179.5 155.689 179.942 154.945C180.384 154.2 180.964 153.679 181.605 153.449C182.247 153.219 182.919 153.292 183.532 153.659C184.145 154.025 184.671 154.667 185.039 155.5V155.5Z" fill="#FFB8B8"/>
<path d="M200.316 158.737C200.284 158.436 200.295 158.129 200.348 157.835C200.401 157.542 200.495 157.269 200.623 157.036L205.113 148.892C205.649 147.565 206.508 146.615 207.502 146.252C208.496 145.888 209.545 146.14 210.417 146.952C211.29 147.765 211.915 149.071 212.157 150.585C212.398 152.099 212.235 153.697 211.705 155.029L208.95 164.839C208.871 165.119 208.754 165.37 208.606 165.575C208.458 165.779 208.283 165.933 208.092 166.025C207.902 166.117 207.701 166.146 207.502 166.109C207.304 166.072 207.113 165.97 206.943 165.811L200.96 160.204C200.79 160.044 200.644 159.831 200.533 159.577C200.422 159.324 200.348 159.038 200.316 158.737V158.737Z" fill="#00FF67"/>
<path d="M204.292 141.845C206.498 137.521 207.721 132.221 207.777 126.745C206.739 127.921 205.563 128.786 204.314 129.294C202.987 129.832 201.529 129.941 200.28 129.074C198.522 127.853 197.482 124.741 197.682 121.813C197.881 118.885 199.209 116.269 200.938 114.956C202.708 113.695 204.727 113.509 206.584 114.436C207.566 113.161 208.769 112.344 210.048 112.084C211.327 111.824 212.628 112.131 213.795 112.969C216.482 114.978 217.968 119.632 218.226 124.176C218.483 128.719 217.717 133.237 216.958 137.648L216.872 138.147C216.635 139.52 215.948 142.155 215.948 142.155C215.948 142.155 211.956 140.955 210.371 140.185C208.072 141.451 204.292 141.845 204.292 141.845Z" fill="#2F2E41"/>
<path d="M185.264 142.954L182.012 143.312C181.93 143.321 181.85 143.28 181.788 143.199C181.726 143.117 181.687 143.001 181.681 142.876C181.676 142.752 181.702 142.629 181.756 142.534C181.81 142.44 181.886 142.382 181.967 142.373L185.22 142.014C185.26 142.01 185.301 142.017 185.34 142.037C185.378 142.056 185.414 142.087 185.445 142.127C185.475 142.168 185.501 142.217 185.519 142.272C185.537 142.328 185.548 142.388 185.551 142.45C185.554 142.512 185.549 142.574 185.536 142.632C185.523 142.691 185.503 142.745 185.476 142.792C185.45 142.839 185.417 142.877 185.381 142.905C185.345 142.933 185.305 142.949 185.264 142.954Z" fill="#3F3D56"/>
<path d="M185.376 145.302L182.124 145.661C182.083 145.665 182.042 145.658 182.004 145.638C181.965 145.619 181.929 145.588 181.899 145.547C181.868 145.507 181.843 145.458 181.824 145.402C181.806 145.347 181.795 145.287 181.792 145.225C181.789 145.163 181.795 145.101 181.807 145.042C181.82 144.984 181.84 144.929 181.867 144.883C181.894 144.836 181.926 144.797 181.962 144.77C181.999 144.742 182.038 144.726 182.079 144.721L185.331 144.363C185.413 144.354 185.494 144.394 185.556 144.476C185.618 144.558 185.656 144.674 185.662 144.798C185.668 144.923 185.641 145.046 185.587 145.14C185.534 145.235 185.458 145.293 185.376 145.302V145.302Z" fill="#3F3D56"/>
<path d="M185.487 147.651L182.235 148.009C182.153 148.018 182.073 147.977 182.011 147.895C181.949 147.813 181.911 147.698 181.905 147.573C181.899 147.449 181.926 147.326 181.98 147.232C182.033 147.137 182.109 147.079 182.19 147.07L185.443 146.711C185.525 146.702 185.605 146.743 185.667 146.825C185.729 146.906 185.768 147.022 185.773 147.147C185.779 147.271 185.753 147.394 185.699 147.489C185.645 147.583 185.569 147.642 185.487 147.651V147.651Z" fill="#3F3D56"/>
<path d="M279.691 240.41H0.309051C0.227085 240.41 0.148477 240.36 0.0905186 240.272C0.0325604 240.184 0 240.064 0 239.939C0 239.814 0.0325604 239.694 0.0905186 239.606C0.148477 239.518 0.227085 239.468 0.309051 239.468H279.691C279.773 239.468 279.852 239.518 279.909 239.606C279.967 239.694 280 239.814 280 239.939C280 240.064 279.967 240.184 279.909 240.272C279.852 240.36 279.773 240.41 279.691 240.41Z" fill="#3F3D56"/>
<path d="M148.585 83.5901H117.371C116.634 83.5888 115.927 83.1419 115.405 82.3473C114.884 81.5528 114.591 80.4754 114.59 79.3518V38.3808C114.591 37.2571 114.884 36.1798 115.405 35.3853C115.927 34.5907 116.634 34.1437 117.371 34.1425H148.585C149.323 34.1437 150.03 34.5907 150.551 35.3853C151.073 36.1798 151.366 37.2571 151.367 38.3808V79.3518C151.366 80.4754 151.073 81.5527 150.551 82.3473C150.03 83.1419 149.323 83.5888 148.585 83.5901V83.5901ZM117.371 35.0843C116.798 35.0853 116.248 35.4329 115.842 36.0509C115.437 36.6689 115.208 37.5068 115.208 38.3808V79.3518C115.208 80.2257 115.437 81.0637 115.842 81.6817C116.248 82.2997 116.798 82.6473 117.371 82.6483H148.585C149.159 82.6473 149.709 82.2997 150.114 81.6817C150.52 81.0637 150.748 80.2257 150.749 79.3518V38.3808C150.748 37.5068 150.52 36.6689 150.114 36.0509C149.709 35.4329 149.159 35.0853 148.585 35.0843H117.371Z" fill="#F2F2F2"/>
<path d="M144.022 77.2326H121.935C121.238 77.2314 120.571 76.8092 120.078 76.0588C119.586 75.3084 119.309 74.2909 119.308 73.2296V44.5029C119.309 43.4416 119.586 42.4242 120.078 41.6737C120.571 40.9233 121.238 40.5012 121.935 40.5H144.022C144.718 40.5012 145.386 40.9233 145.878 41.6737C146.371 42.4242 146.648 43.4416 146.648 44.5029V73.2296C146.648 74.2909 146.371 75.3084 145.878 76.0588C145.386 76.8092 144.718 77.2314 144.022 77.2326V77.2326Z" fill="#E6E6E6"/>
<path d="M133.133 28.0203C133.986 28.0203 134.678 26.9661 134.678 25.6657C134.678 24.3652 133.986 23.311 133.133 23.311C132.279 23.311 131.588 24.3652 131.588 25.6657C131.588 26.9661 132.279 28.0203 133.133 28.0203Z" fill="#F2F2F2"/>
<path d="M136.382 34.8554L133.134 26.5845L129.904 34.854L129.373 34.3727L133.132 24.7469L136.912 34.3713L136.382 34.8554Z" fill="#F2F2F2"/>
<path d="M136.687 55.5697C136.686 54.857 136.635 54.1465 136.534 53.4506H131.897C131.569 53.4506 131.254 53.649 131.022 54.0023C130.791 54.3556 130.66 54.8347 130.66 55.3343V65.4236C132.296 65.2467 133.828 64.1318 134.946 62.3034C136.064 60.475 136.686 58.069 136.687 55.5697V55.5697Z" fill="#00FF67"/>
<path d="M130.197 65.9302C128.914 65.9309 127.658 65.379 126.573 64.3381C125.487 63.2972 124.617 61.8098 124.063 60.0477C123.509 58.2855 123.293 56.3205 123.44 54.3793C123.588 52.4382 124.092 50.6001 124.896 49.0773C125.699 47.5545 126.769 46.409 127.982 45.7731C129.194 45.1373 130.5 45.0369 131.749 45.4837C132.997 45.9305 134.137 46.9061 135.037 48.298C135.937 49.69 136.561 51.4414 136.836 53.3501L136.918 53.9215H131.897C131.651 53.9219 131.415 54.0709 131.241 54.3358C131.067 54.6006 130.97 54.9597 130.969 55.3343V65.8624L130.628 65.8992C130.485 65.915 130.342 65.9302 130.197 65.9302ZM130.197 46.1512C128.557 46.1512 126.985 47.1435 125.826 48.9098C124.667 50.6761 124.016 53.0718 124.016 55.5698C124.016 58.0677 124.667 60.4634 125.826 62.2297C126.985 63.996 128.557 64.9884 130.197 64.9884C130.249 64.9884 130.3 64.9861 130.351 64.9824V55.3343C130.352 54.71 130.515 54.1115 130.804 53.6701C131.094 53.2287 131.487 52.9804 131.897 52.9796H136.137C135.763 51.0174 134.982 49.2921 133.911 48.0615C132.841 46.8308 131.538 46.1607 130.197 46.1512Z" fill="white"/>
<path d="M139.314 68.9912H131.897C131.487 68.9905 131.094 68.7422 130.804 68.3008C130.515 67.8594 130.352 67.2609 130.351 66.6366V64.9849L130.639 64.9538C131.523 64.8608 132.384 64.4778 133.163 63.8312C133.942 63.1845 134.62 62.2894 135.151 61.2069C135.682 60.1245 136.053 58.8801 136.24 57.5589C136.426 56.2377 136.424 54.8707 136.232 53.5513L136.15 52.9796H139.314C139.723 52.9803 140.116 53.2286 140.406 53.6701C140.696 54.1115 140.859 54.71 140.859 55.3343V66.6366C140.859 67.2609 140.696 67.8594 140.406 68.3008C140.116 68.7422 139.723 68.9905 139.314 68.9912V68.9912ZM130.969 65.8529V66.6366C130.97 67.0112 131.067 67.3703 131.241 67.6351C131.415 67.9 131.651 68.049 131.897 68.0494H139.314C139.56 68.049 139.795 67.9 139.969 67.6351C140.143 67.3703 140.241 67.0112 140.241 66.6366V55.3343C140.241 54.9597 140.143 54.6006 139.969 54.3357C139.795 54.0709 139.56 53.9219 139.314 53.9215H136.907C136.966 54.4664 136.995 55.0176 136.996 55.5697C136.99 58.1101 136.374 60.5593 135.263 62.4541C134.153 64.349 132.625 65.5581 130.969 65.8529Z" fill="white"/>
</g>
<defs>
<clipPath id="clip0_119_98">
<rect width="280" height="240.41" rx="63" fill="white"/>
</clipPath>
</defs>
</svg>
