<svg width="280" height="241" viewBox="0 0 280 241" fill="none" xmlns="http://www.w3.org/2000/svg">
<g clip-path="url(#clip0_119_308)">
<path d="M258.833 183.921L271.394 185.723C275.646 180.997 278.577 175.389 279.932 169.388C270.748 176.29 256.78 172.622 245.643 176.39C242.179 177.59 239.054 179.489 236.498 181.949C233.943 184.408 232.023 187.364 230.882 190.596L224.743 196.659C230.3 198.679 236.267 199.569 242.235 199.267C248.202 198.965 254.027 197.48 259.309 194.912C262.256 193.445 264.991 191.643 267.448 189.549C263.053 187.008 258.833 183.921 258.833 183.921Z" fill="#F2F2F2"/>
<path d="M254.374 165.478L266.492 161.949C268.002 155.978 267.901 149.759 266.198 143.832C261.331 153.77 247.047 156.206 238.91 164.139C236.392 166.63 234.518 169.61 233.425 172.858C232.333 176.105 232.051 179.536 232.599 182.897L230.051 190.837C236.005 190.37 241.779 188.723 246.973 186.01C252.168 183.297 256.66 179.582 260.14 175.122C262.065 172.602 263.637 169.869 264.819 166.989C259.651 166.514 254.374 165.478 254.374 165.478Z" fill="#F2F2F2"/>
<path d="M280 200.332C280 200.392 279.988 200.451 279.963 200.506C279.938 200.561 279.902 200.611 279.856 200.653C279.81 200.695 279.756 200.728 279.696 200.751C279.636 200.774 279.572 200.785 279.507 200.785H0.493156C0.362367 200.785 0.236934 200.737 0.144452 200.652C0.0519703 200.568 1.52588e-05 200.452 1.52588e-05 200.332C1.52588e-05 200.212 0.0519703 200.097 0.144452 200.012C0.236934 199.927 0.362367 199.88 0.493156 199.88H279.507C279.572 199.879 279.636 199.891 279.696 199.914C279.756 199.936 279.81 199.97 279.856 200.012C279.902 200.054 279.938 200.104 279.963 200.159C279.988 200.214 280 200.273 280 200.332V200.332Z" fill="#CCCCCC"/>
<path d="M115.618 181.032C164.824 181.032 204.714 144.413 204.714 99.2405C204.714 54.0681 164.824 17.4486 115.618 17.4486C66.4109 17.4486 26.5209 54.0681 26.5209 99.2405C26.5209 144.413 66.4109 181.032 115.618 181.032Z" fill="#6C63FF"/>
<path d="M192.282 99.2405C192.291 110.222 189.497 121.053 184.123 130.864C178.749 140.676 170.946 149.195 161.339 155.738C160.696 156.179 160.042 156.609 159.383 157.027C146.536 165.226 131.264 169.62 115.618 169.62C99.9715 169.62 84.6997 165.226 71.8525 157.027C71.1936 156.609 70.5388 156.179 69.8965 155.738C60.2958 149.189 52.4973 140.669 47.1243 130.859C41.7513 121.049 38.953 110.221 38.953 99.2405C38.953 88.2602 41.7513 77.4322 47.1243 67.6222C52.4973 57.8121 60.2958 49.2921 69.8965 42.7432C70.5388 42.3019 71.1936 41.8721 71.8525 41.4536C84.6997 33.2554 99.9715 28.8615 115.618 28.8615C131.264 28.8615 146.536 33.2554 159.383 41.4536C160.042 41.8721 160.696 42.3019 161.339 42.7432C170.946 49.2863 178.749 57.8052 184.123 67.6165C189.497 77.4279 192.291 88.2588 192.282 99.2405V99.2405Z" fill="white"/>
<path d="M115.618 163.533C154.296 163.533 185.652 134.748 185.652 99.2405C185.652 63.7329 154.296 34.9483 115.618 34.9483C76.9388 34.9483 45.5834 63.7329 45.5834 99.2405C45.5834 134.748 76.9388 163.533 115.618 163.533Z" fill="#00FF67" fill-opacity="0.46"/>
<path opacity="0.2" d="M115.8 35.128C114.739 35.128 113.684 35.1535 112.633 35.1964C130.334 36.6243 146.782 44.1756 158.644 56.3205C170.506 68.4654 176.896 84.2956 176.519 100.604C176.142 116.912 169.026 132.48 156.613 144.151C144.2 155.823 127.419 162.727 109.668 163.464C111.689 163.625 113.733 163.712 115.8 163.712C134.375 163.712 152.188 156.939 165.322 144.882C178.456 132.825 185.835 116.472 185.835 99.4202C185.835 82.3689 178.456 66.0159 165.322 53.9588C152.188 41.9016 134.375 35.128 115.8 35.128V35.128Z" fill="black"/>
<path d="M115.825 30.3832C115.221 30.3842 114.642 30.6049 114.214 30.9971C113.787 31.3893 113.547 31.9209 113.546 32.4755V41.6058C113.546 42.1607 113.786 42.6929 114.213 43.0853C114.641 43.4777 115.22 43.6981 115.825 43.6981C116.429 43.6981 117.009 43.4777 117.436 43.0853C117.864 42.6929 118.104 42.1607 118.104 41.6058V32.4755C118.103 31.9209 117.862 31.3893 117.435 30.9971C117.008 30.6049 116.429 30.3842 115.825 30.3832V30.3832Z" fill="white"/>
<path d="M161.339 42.7432C160.696 42.3019 160.042 41.8721 159.383 41.4536C158.987 41.4299 158.592 41.5014 158.236 41.6608C157.88 41.8203 157.575 42.0622 157.352 42.3628L151.754 49.9067C151.413 50.3653 151.286 50.9291 151.398 51.4742C151.511 52.0192 151.855 52.5009 152.355 52.8131C152.854 53.1254 153.468 53.2427 154.062 53.1393C154.656 53.0358 155.18 52.7201 155.521 52.2615L161.119 44.7177C161.332 44.4315 161.464 44.1009 161.502 43.7561C161.541 43.4112 161.484 43.0631 161.339 42.7432V42.7432Z" fill="white"/>
<path d="M186.775 77.1415C186.662 76.8871 186.496 76.6556 186.286 76.4602C186.076 76.2648 185.826 76.1093 185.551 76.0026C185.275 75.8959 184.979 75.8401 184.68 75.8384C184.381 75.8367 184.085 75.8891 183.808 75.9926L174.591 79.4279C174.032 79.6371 173.586 80.0416 173.351 80.5526C173.116 81.0635 173.112 81.6391 173.34 82.1529C173.567 82.6667 174.007 83.0765 174.564 83.2925C175.12 83.5084 175.747 83.5127 176.307 83.3044L185.523 79.8692C186.082 79.6589 186.528 79.2538 186.763 78.7426C186.997 78.2314 187.002 77.6557 186.775 77.1415Z" fill="white"/>
<path d="M79.4816 49.9067L73.8831 42.3628C73.66 42.0622 73.3553 41.8203 72.9992 41.6608C72.6431 41.5014 72.2478 41.4299 71.8525 41.4536C71.1936 41.8721 70.5388 42.3019 69.8965 42.7432C69.7509 43.0631 69.6947 43.4112 69.7331 43.7561C69.7714 44.1009 69.9031 44.4315 70.1161 44.7177L75.7147 52.2615C76.0549 52.7201 76.5795 53.0358 77.1733 53.1393C77.767 53.2427 78.3812 53.1254 78.8808 52.8131C79.3803 52.5009 79.7242 52.0192 79.8369 51.4742C79.9496 50.9291 79.8218 50.3653 79.4816 49.9067V49.9067Z" fill="white"/>
<path d="M56.6439 79.4278L47.4275 75.9926C46.8676 75.7839 46.2403 75.7878 45.6835 76.0037C45.1268 76.2195 44.6862 76.6295 44.4587 77.1435C44.2312 77.6575 44.2355 78.2334 44.4705 78.7445C44.7055 79.2557 45.152 79.6602 45.7119 79.8691L54.9282 83.3044C55.4881 83.5126 56.1151 83.5083 56.6715 83.2924C57.2279 83.0765 57.6681 82.6666 57.8955 82.1529C58.1229 81.6391 58.1188 81.0635 57.8841 80.5525C57.6494 80.0416 57.2033 79.637 56.6439 79.4278V79.4278Z" fill="white"/>
<path d="M115.825 154.783C115.221 154.784 114.642 155.005 114.214 155.397C113.787 155.789 113.547 156.321 113.546 156.875V166.006C113.546 166.56 113.786 167.093 114.213 167.485C114.641 167.877 115.22 168.098 115.825 168.098C116.429 168.098 117.009 167.877 117.436 167.485C117.864 167.093 118.104 166.56 118.104 166.006V156.875C118.103 156.321 117.862 155.789 117.435 155.397C117.008 155.005 116.429 154.784 115.825 154.783V154.783Z" fill="white"/>
<path d="M161.119 153.763L155.521 146.219C155.352 145.992 155.137 145.798 154.886 145.647C154.636 145.497 154.356 145.393 154.062 145.342C153.768 145.29 153.466 145.293 153.173 145.349C152.88 145.405 152.602 145.513 152.354 145.668C152.107 145.822 151.895 146.02 151.731 146.25C151.567 146.48 151.454 146.737 151.398 147.007C151.343 147.277 151.345 147.554 151.406 147.823C151.467 148.092 151.585 148.347 151.754 148.574L157.352 156.118C157.575 156.419 157.88 156.661 158.236 156.82C158.592 156.98 158.987 157.051 159.383 157.027C160.042 156.609 160.696 156.179 161.339 155.738C161.484 155.418 161.541 155.07 161.502 154.725C161.464 154.38 161.332 154.05 161.119 153.763Z" fill="white"/>
<path d="M185.523 118.612L176.307 115.177C175.747 114.968 175.12 114.972 174.563 115.188C174.006 115.404 173.566 115.814 173.338 116.328C173.111 116.842 173.115 117.417 173.35 117.929C173.585 118.44 174.032 118.844 174.591 119.053L183.808 122.488C184.368 122.697 184.995 122.692 185.551 122.476C186.107 122.261 186.548 121.851 186.775 121.337C187.002 120.823 186.998 120.248 186.764 119.737C186.529 119.226 186.083 118.821 185.523 118.612V118.612Z" fill="white"/>
<path d="M78.8807 145.668C78.3812 145.356 77.767 145.238 77.1733 145.342C76.5796 145.445 76.055 145.761 75.7147 146.219L70.1161 153.763C69.9031 154.049 69.7714 154.38 69.7331 154.725C69.6947 155.07 69.7509 155.418 69.8965 155.738C70.5388 156.179 71.1936 156.609 71.8525 157.027C72.2479 157.051 72.6431 156.98 72.9992 156.82C73.3553 156.661 73.66 156.419 73.8831 156.118L79.4817 148.574C79.6501 148.347 79.7682 148.092 79.8291 147.823C79.8901 147.554 79.8928 147.277 79.837 147.007C79.7812 146.737 79.668 146.48 79.5039 146.25C79.3399 146.02 79.1281 145.822 78.8807 145.668V145.668Z" fill="white"/>
<path d="M57.8954 116.325C57.7828 116.071 57.6167 115.84 57.4067 115.644C57.1966 115.449 56.9467 115.293 56.6711 115.187C56.3956 115.08 56.0998 115.024 55.8008 115.022C55.5017 115.021 55.2052 115.073 54.9282 115.177L45.7119 118.612C45.1525 118.821 44.7064 119.226 44.4717 119.737C44.237 120.248 44.2329 120.823 44.4603 121.337C44.6876 121.851 45.1279 122.26 45.6843 122.476C46.2407 122.692 46.8677 122.697 47.4275 122.488L56.6439 119.053C57.203 118.843 57.6487 118.438 57.8832 117.927C58.1178 117.415 58.1222 116.84 57.8954 116.325V116.325Z" fill="white"/>
<path d="M118.782 98.2023C118.993 99.346 118.7 100.52 117.969 101.466C117.238 102.412 116.128 103.053 114.883 103.249L74.4381 109.564C73.8211 109.661 73.1895 109.645 72.5793 109.517C71.9692 109.389 71.3924 109.152 70.8819 108.82C70.3714 108.488 69.9373 108.066 69.6042 107.58C69.2712 107.093 69.0457 106.552 68.9408 105.985C68.8358 105.419 68.8534 104.839 68.9926 104.279C69.1317 103.719 69.3897 103.189 69.7517 102.721C70.1138 102.252 70.5729 101.853 71.1027 101.548C71.6326 101.242 72.2228 101.035 72.8398 100.939L113.285 94.623C114.531 94.4298 115.809 94.6981 116.84 95.3691C117.87 96.0402 118.569 97.0591 118.782 98.2023V98.2023Z" fill="#3F3D56"/>
<path d="M161.349 139.338C160.768 139.875 159.979 140.178 159.155 140.181C158.331 140.184 157.54 139.886 156.954 139.354L113.416 99.6988C112.831 99.1657 112.501 98.4414 112.499 97.6852C112.496 96.9289 112.82 96.2025 113.4 95.6657C113.98 95.1288 114.769 94.8254 115.593 94.822C116.417 94.8187 117.208 95.1158 117.794 95.6479L161.332 135.303C161.916 135.837 162.246 136.561 162.25 137.317C162.253 138.074 161.929 138.801 161.349 139.338V139.338Z" fill="#3F3D56"/>
<path d="M115.618 104.186C118.593 104.186 121.005 101.972 121.005 99.2405C121.005 96.5091 118.593 94.2949 115.618 94.2949C112.642 94.2949 110.23 96.5091 110.23 99.2405C110.23 101.972 112.642 104.186 115.618 104.186Z" fill="#CCCCCC"/>
<path d="M78.5103 13.4841C70.241 25.4191 57.6238 33.3397 42.0636 38.543C41.7562 38.7544 41.4064 38.9082 41.0342 38.9955C40.662 39.0828 40.2747 39.1019 39.8944 39.0518C39.5142 39.0017 39.1484 38.8833 38.818 38.7035C38.4876 38.5236 38.199 38.2857 37.9687 38.0034V38.0034C29.5166 27.6435 31.4251 12.837 42.5801 4.92078C45.277 3.01023 48.3604 1.61051 51.6514 0.802868C54.9424 -0.00477088 58.3754 -0.204239 61.751 0.216049C65.1267 0.636336 68.3777 1.668 71.3155 3.25116C74.2533 4.83432 76.8192 6.93743 78.8644 9.43839L79.0981 9.72493C79.3284 10.0072 79.4959 10.3283 79.591 10.67C79.6861 11.0117 79.7069 11.3672 79.6523 11.7163C79.5977 12.0654 79.4688 12.4012 79.2729 12.7045C79.0769 13.0078 78.8178 13.2727 78.5103 13.4841V13.4841Z" fill="#E6E6E6"/>
<path d="M152.371 9.43838C154.416 6.93742 156.982 4.83431 159.92 3.25116C162.857 1.668 166.109 0.636338 169.484 0.21605C172.86 -0.204238 176.293 -0.00477506 179.584 0.802863C182.875 1.6105 185.958 3.01023 188.655 4.92077C199.81 12.837 201.719 27.6435 193.267 38.0034C193.036 38.2857 192.748 38.5236 192.417 38.7035C192.087 38.8833 191.721 39.0017 191.341 39.0518C190.961 39.1019 190.573 39.0828 190.201 38.9955C189.829 38.9082 189.479 38.7544 189.172 38.543C174.727 33.4661 162.881 24.6805 152.725 13.4841C152.104 13.0572 151.693 12.4213 151.583 11.7163C151.473 11.0113 151.672 10.295 152.137 9.72492L152.371 9.43838Z" fill="#E6E6E6"/>
<path d="M148.746 170.102C148.22 170.374 147.832 170.826 147.668 171.36C147.503 171.894 147.576 172.465 147.87 172.95L161.024 194.529C161.32 195.013 161.812 195.369 162.394 195.52C162.976 195.671 163.599 195.603 164.126 195.332C164.654 195.061 165.042 194.609 165.206 194.075C165.371 193.541 165.297 192.969 165.002 192.485L151.848 170.906C151.552 170.423 151.06 170.067 150.478 169.916C149.897 169.765 149.274 169.832 148.746 170.102V170.102Z" fill="#E6E6E6"/>
<path d="M79.3869 170.906L66.2329 192.485C65.9379 192.969 65.8645 193.541 66.0288 194.075C66.1931 194.609 66.5817 195.061 67.1091 195.332C67.6366 195.603 68.2596 195.671 68.8413 195.52C69.423 195.369 69.9156 195.013 70.2109 194.529L83.3648 172.95C83.5111 172.71 83.6044 172.446 83.6396 172.173C83.6747 171.9 83.6509 171.624 83.5696 171.359C83.4883 171.095 83.351 170.847 83.1656 170.632C82.9802 170.416 82.7504 170.236 82.4891 170.102C82.2279 169.967 81.9404 169.882 81.6431 169.85C81.3458 169.817 81.0445 169.839 80.7565 169.914C80.4684 169.989 80.1992 170.115 79.9642 170.285C79.7292 170.455 79.533 170.666 79.3869 170.906H79.3869Z" fill="#E6E6E6"/>
<path d="M163.688 200.054C167.579 200.054 170.733 197.158 170.733 193.586C170.733 190.015 167.579 187.119 163.688 187.119C159.798 187.119 156.644 190.015 156.644 193.586C156.644 197.158 159.798 200.054 163.688 200.054Z" fill="#E6E6E6"/>
<path d="M168.661 34.5679C172.552 34.5679 175.706 31.6724 175.706 28.1006C175.706 24.5289 172.552 21.6334 168.661 21.6334C164.77 21.6334 161.616 24.5289 161.616 28.1006C161.616 31.6724 164.77 34.5679 168.661 34.5679Z" fill="#E6E6E6"/>
<path d="M115.203 19.3508C119.094 19.3508 122.248 16.4553 122.248 12.8835C122.248 9.31175 119.094 6.41626 115.203 6.41626C111.312 6.41626 108.158 9.31175 108.158 12.8835C108.158 16.4553 111.312 19.3508 115.203 19.3508Z" fill="#E6E6E6"/>
<path d="M64.2316 33.807C68.1224 33.807 71.2765 30.9115 71.2765 27.3398C71.2765 23.768 68.1224 20.8725 64.2316 20.8725C60.3408 20.8725 57.1867 23.768 57.1867 27.3398C57.1867 30.9115 60.3408 33.807 64.2316 33.807Z" fill="#E6E6E6"/>
<path d="M68.79 200.054C72.6808 200.054 75.8349 197.158 75.8349 193.586C75.8349 190.015 72.6808 187.119 68.79 187.119C64.8993 187.119 61.7452 190.015 61.7452 193.586C61.7452 197.158 64.8993 200.054 68.79 200.054Z" fill="#E6E6E6"/>
<path d="M158.162 135.701C158.44 136.1 158.81 136.439 159.245 136.692C159.681 136.946 160.172 137.109 160.684 137.17C161.195 137.231 161.715 137.188 162.207 137.044C162.698 136.901 163.15 136.66 163.529 136.339L174.584 141.776L173.991 135.818L163.584 131.568C162.954 131.019 162.127 130.701 161.259 130.674C160.391 130.648 159.542 130.914 158.874 131.424C158.205 131.933 157.764 132.65 157.633 133.438C157.502 134.227 157.69 135.032 158.162 135.701H158.162Z" fill="#FFB7B7"/>
<path d="M166.217 137.78L170.549 132.291L191.418 141.347L217.388 136.874C218.671 136.653 219.992 136.694 221.257 136.995C222.521 137.295 223.698 137.847 224.704 138.612C225.71 139.377 226.52 140.335 227.077 141.42C227.634 142.504 227.924 143.688 227.926 144.887V144.887C227.928 147.053 226.994 149.13 225.329 150.665C223.664 152.199 221.404 153.064 219.045 153.07L189.284 153.121L166.217 137.78Z" fill="#3F3D56"/>
<path d="M159.545 232.593L155.162 230.669L161.183 213.851L167.651 216.691L159.545 232.593Z" fill="#FFB7B7"/>
<path d="M188.929 229.882C188.61 230.065 188.291 230.245 187.969 230.425C187.329 230.786 186.681 231.141 186.034 231.489C185.709 231.664 185.381 231.838 185.056 232.01V232.018L185.036 232.021L185.03 232.024L184.534 232.137L183.823 230.411L183.494 229.616L183.031 228.49L182.181 226.43L177.706 215.583L184.663 214.008L184.924 214.986H184.927L185.056 215.471L187.486 224.52L187.982 226.371L187.998 226.427L188.298 227.532L188.555 228.49L188.842 229.56L188.929 229.882Z" fill="#FFB7B7"/>
<path d="M230.43 191.791C229.989 192.442 229.539 193.089 229.085 193.73C228.241 194.924 227.375 196.1 226.487 197.259C226.487 197.262 226.483 197.262 226.48 197.265C225.962 197.706 225.389 198.089 224.774 198.409C224.748 198.426 224.719 198.438 224.693 198.453C224.24 198.683 223.758 198.86 223.258 198.982C223.077 199.023 222.894 199.065 222.714 199.106C222.063 199.248 221.419 199.369 220.779 199.475C219.639 199.662 218.512 199.795 217.392 199.877C217.302 199.886 217.212 199.892 217.122 199.898C212.515 200.208 208.03 199.709 203.349 198.89C201.037 198.488 198.678 198.007 196.234 197.507C195.436 197.342 194.634 197.179 193.823 197.017C193.762 197.005 193.697 196.99 193.633 196.978C192.474 196.745 191.296 196.514 190.088 196.287C188.569 196 187.001 195.722 185.372 195.459L185.488 197.566C185.584 199.187 185.951 200.785 186.576 202.304C187.271 204.172 187.822 205.649 186.66 208.726L186.099 210.216C186.39 210.955 186.49 211.747 186.391 212.528C186.292 213.309 185.997 214.058 185.53 214.717L185.417 214.873L190.088 225.723L190.391 226.426H187.999L185.056 226.429H180.07L172.874 213.177L172.53 212.544V212.512L173.273 187.045C173.283 186.82 173.302 186.593 173.335 186.368C173.466 185.347 173.817 184.36 174.368 183.465C174.919 182.57 175.659 181.785 176.544 181.155C177.393 180.546 178.364 180.098 179.403 179.838C180.441 179.577 181.526 179.508 182.594 179.636L185.056 179.928L190.088 180.525L193.633 180.948L193.704 180.957L204.157 182.198L204.907 179.39L205.046 179.343L209.446 177.862L224.668 172.741L224.706 172.729L225.708 172.392L225.827 172.569C225.862 172.622 225.898 172.676 225.93 172.729C226.919 174.357 227.725 176.075 228.335 177.853C229.36 180.76 230.203 183.717 230.862 186.711C230.891 186.841 230.917 186.959 230.939 187.066L230.949 187.098C230.958 187.148 230.965 187.181 230.968 187.19C231.319 188.531 231.074 190.169 230.43 191.791Z" fill="#2F2E41"/>
<path d="M231.073 182.406C231.025 182.217 230.963 182.025 230.899 181.839C230.388 180.428 229.793 179.045 229.116 177.695C228.356 176.158 227.445 174.512 226.36 172.73C225.835 171.867 225.271 170.969 224.666 170.037C224.364 169.571 224.049 169.095 223.723 168.61C223.71 168.588 223.696 168.566 223.681 168.545L223.588 168.403L208.528 170.253L202.919 170.942L202.585 173.507L202.504 174.143C202.501 174.143 202.501 174.143 202.504 174.146L202.279 175.877V175.88L201.979 178.168L201.954 178.165L193.631 177.175L185.055 176.155L180.448 175.609C179.38 175.481 178.296 175.549 177.257 175.81C176.219 176.071 175.247 176.519 174.399 177.128C173.514 177.758 172.774 178.543 172.223 179.438C171.672 180.333 171.32 181.32 171.189 182.341C171.16 182.548 171.141 182.761 171.131 182.971L166.785 192.425C164.184 198.079 162.528 204.061 161.872 210.169L158.685 219.523L159.139 219.562L165.893 220.138L167.677 220.292L171.604 215.028C172.052 214.428 172.477 213.811 172.873 213.178C173.525 212.145 174.104 211.075 174.608 209.974L183.104 191.414C183.761 191.518 184.411 191.616 185.055 191.71C188.033 192.153 190.892 192.515 193.631 192.794C202.539 193.708 210.253 193.779 217.12 193.004C219.048 192.788 220.913 192.505 222.712 192.153C223.372 192.026 224.024 191.889 224.666 191.742C224.818 191.71 224.966 191.677 225.114 191.642C226.444 191.327 227.668 190.71 228.671 189.849C229.675 188.988 230.428 187.909 230.86 186.712C231.377 185.325 231.45 183.831 231.073 182.406V182.406Z" fill="#2F2E41"/>
<path d="M160.945 229.847L156.203 227.76L155.459 227.432L154.271 230.11L145.978 231.785C145.568 231.868 145.197 232.069 144.92 232.358C144.644 232.648 144.475 233.011 144.439 233.395C144.403 233.779 144.502 234.164 144.721 234.492C144.94 234.821 145.267 235.077 145.656 235.223L153.759 238.258L156.332 236.133L155.701 238.985L158.753 240.129L162.097 230.355L160.945 229.847Z" fill="#2F2E41"/>
<path d="M190.088 225.723L190.391 226.426H190.088V225.723Z" fill="#2F2E41"/>
<path d="M188.437 226.576L183.468 228.157L182.688 228.404L183.896 231.074L179.288 237.622C179.059 237.945 178.95 238.327 178.975 238.712C179 239.097 179.159 239.464 179.428 239.76C179.696 240.056 180.061 240.265 180.469 240.357C180.876 240.45 181.305 240.42 181.693 240.272L189.778 237.195L189.977 234.023L191.714 236.457L194.76 235.299L189.645 226.193L188.437 226.576Z" fill="#2F2E41"/>
<path d="M229.834 186.688C229.539 186.687 229.248 186.621 228.987 186.495L202.766 173.917L202.463 172.779L201.892 169.175L201.9 169.141L204.394 158.587C204.348 158.497 204.252 158.348 204.145 158.18C203.031 156.448 199.643 151.178 206.109 143.921L217.462 131.771L227.206 131.386L227.317 131.514C229.922 134.516 231.679 138.063 232.432 141.838C233.184 145.614 232.909 149.502 231.631 153.156L230.616 169.978L231.704 173.375C232.341 175.371 232.235 177.505 231.405 179.44L231.655 184.941C231.665 185.166 231.625 185.391 231.538 185.602C231.451 185.814 231.318 186.006 231.148 186.169C230.978 186.332 230.774 186.462 230.548 186.551C230.323 186.64 230.08 186.687 229.834 186.688L229.834 186.688Z" fill="#3F3D56"/>
<path d="M207.089 200.56C207.533 200.32 207.914 199.992 208.206 199.601C208.497 199.211 208.692 198.766 208.776 198.299C208.86 197.831 208.831 197.353 208.692 196.897C208.553 196.441 208.306 196.018 207.97 195.659L214.274 185.706L207.767 186.043L202.778 195.443C202.158 196.001 201.783 196.749 201.724 197.545C201.665 198.34 201.926 199.128 202.457 199.759C202.989 200.39 203.754 200.82 204.607 200.968C205.461 201.115 206.344 200.97 207.089 200.56L207.089 200.56Z" fill="#FFB7B7"/>
<path d="M209.633 193.243L203.807 189.078L214.393 170.246L210.426 146.265C210.23 145.079 210.321 143.869 210.692 142.719C211.063 141.57 211.705 140.509 212.572 139.613C213.44 138.717 214.512 138.007 215.712 137.534C216.912 137.06 218.211 136.836 219.516 136.875V136.875C221.874 136.949 224.103 137.878 225.715 139.459C227.328 141.04 228.191 143.143 228.116 145.308L227.136 172.614L209.633 193.243Z" fill="#3F3D56"/>
<path d="M211.212 126.722V117.871C211.21 114.725 212.569 111.707 214.99 109.482C217.412 107.256 220.697 106.004 224.124 106.002C227.55 106 230.837 107.248 233.262 109.471C235.686 111.694 237.05 114.71 237.052 117.855V117.871C239.329 122.227 237.904 124.298 237.052 126.722C237.051 127.144 236.868 127.549 236.543 127.847C236.218 128.146 235.777 128.314 235.317 128.314H212.948C212.488 128.314 212.047 128.146 211.721 127.847C211.396 127.549 211.213 127.144 211.212 126.722V126.722Z" fill="#2F2E41"/>
<path d="M219.896 127.739C225.237 127.739 229.567 123.764 229.567 118.861C229.567 113.958 225.237 109.983 219.896 109.983C214.555 109.983 210.225 113.958 210.225 118.861C210.225 123.764 214.555 127.739 219.896 127.739Z" fill="#FFB7B7"/>
<path d="M230.017 121.189C229.929 121.176 229.842 121.159 229.754 121.146C228.245 120.901 226.737 120.659 225.233 120.409L225.095 117.28L223.272 120.083C219.116 121.35 215.227 120.634 211.569 119.054C210.362 118.528 209.191 117.936 208.062 117.28C208.37 115.549 209.095 113.903 210.184 112.462C211.274 111.022 212.7 109.823 214.36 108.954C214.498 108.882 214.632 108.818 214.77 108.755C214.771 108.755 214.771 108.755 214.772 108.754C214.773 108.754 214.773 108.754 214.773 108.753C214.774 108.753 214.774 108.753 214.774 108.752C214.775 108.751 214.775 108.751 214.775 108.75C215.01 108.649 215.25 108.551 215.49 108.462C217.368 107.789 219.416 107.618 221.395 107.97C223.375 108.323 225.205 109.184 226.672 110.453C229.625 113.04 230.953 117.314 230.017 121.189Z" fill="#2F2E41"/>
</g>
<defs>
<clipPath id="clip0_119_308">
<rect width="280" height="240.41" rx="63" fill="white"/>
</clipPath>
</defs>
</svg>
