<svg width="280" height="241" viewBox="0 0 280 241" fill="none" xmlns="http://www.w3.org/2000/svg">
<g clip-path="url(#clip0_119_149)">
<path d="M280 223.143V228.041C280 229.729 276.022 231.102 271.133 231.102H18.0363C15.7423 231.102 13.6476 230.8 12.0726 230.302C11.9045 230.251 11.7404 230.196 11.5841 230.137C10.0873 229.59 9.16887 228.852 9.16887 228.041V223.143C86.2175 218.751 180.973 220.238 280 223.143V223.143Z" fill="#F2F2F2"/>
<path d="M280 228.539V233.437C280 235.125 276.022 236.498 271.133 236.498H18.0363C15.7423 236.498 13.6476 236.196 12.0726 235.698C11.9045 235.647 11.7404 235.591 11.5841 235.533C10.0873 234.986 9.16887 234.248 9.16887 233.437V228.539C80.089 225.263 176.598 226.318 280 228.539V228.539Z" fill="#A0616A"/>
<path d="M280 232.451V237.349C280 239.037 276.022 240.41 271.133 240.41H18.0363C15.7423 240.41 13.6476 240.108 12.0726 239.61C11.9045 239.559 11.7404 239.503 11.5841 239.445C10.0873 238.898 9.16887 238.16 9.16887 237.349V232.451C85.9046 229.7 179.395 230.353 280 232.451V232.451Z" fill="#F2F2F2"/>
<path d="M259.803 220.19C260.185 220.215 260.396 219.733 260.107 219.452L260.078 219.336L260.09 219.308C260.476 218.372 261.786 218.379 262.169 219.316C262.509 220.147 262.942 220.98 263.049 221.859C263.096 222.247 263.075 222.643 262.99 223.023C263.787 221.256 264.206 219.327 264.206 217.387C264.206 216.899 264.18 216.411 264.126 215.925C264.082 215.527 264.021 215.132 263.942 214.74C263.516 212.623 262.592 210.606 261.26 208.922C260.62 208.566 260.086 208.011 259.763 207.345C259.647 207.105 259.556 206.847 259.513 206.583C259.586 206.593 259.788 205.466 259.733 205.397C259.835 205.241 260.017 205.163 260.128 205.01C260.679 204.251 261.439 204.384 261.836 205.415C262.684 205.85 262.692 206.57 262.172 207.262C261.841 207.703 261.795 208.299 261.505 208.771C261.535 208.81 261.566 208.848 261.596 208.886C262.144 209.599 262.617 210.366 263.017 211.171C262.904 210.276 263.07 209.198 263.354 208.503C263.678 207.711 264.284 207.044 264.818 206.36C265.459 205.538 266.773 205.896 266.886 206.939L266.89 206.969C266.81 207.014 266.733 207.063 266.657 207.114C266.224 207.404 266.374 208.085 266.886 208.165L266.898 208.167C266.869 208.457 266.82 208.744 266.749 209.027C267.433 211.715 265.955 212.694 263.844 212.738C263.798 212.762 263.752 212.787 263.706 212.81C263.92 213.421 264.09 214.048 264.217 214.683C264.331 215.245 264.409 215.812 264.454 216.382C264.509 217.102 264.504 217.824 264.444 218.542L264.448 218.517C264.599 217.726 265.022 216.988 265.636 216.476C266.551 215.713 267.844 215.432 268.83 214.819C269.305 214.524 269.914 214.905 269.831 215.464L269.827 215.491C269.68 215.552 269.537 215.622 269.398 215.701C269.319 215.746 269.241 215.794 269.166 215.845C268.733 216.136 268.882 216.817 269.395 216.897L269.407 216.899L269.431 216.903C269.179 217.51 268.827 218.074 268.388 218.56C267.96 220.907 266.121 221.13 264.154 220.446H264.152C263.937 221.397 263.623 222.326 263.219 223.211H259.886C259.874 223.174 259.864 223.135 259.853 223.097C260.161 223.117 260.472 223.099 260.775 223.042C260.528 222.734 260.28 222.423 260.033 222.115C260.027 222.109 260.022 222.103 260.018 222.097C259.892 221.939 259.766 221.783 259.64 221.625L259.64 221.625C259.632 221.141 259.689 220.659 259.803 220.19L259.803 220.19V220.19Z" fill="#F2F2F2"/>
<path d="M111.686 216.62C112.068 216.644 112.279 216.162 111.99 215.881L111.961 215.765L111.973 215.737C112.359 214.802 113.669 214.809 114.052 215.745C114.392 216.577 114.825 217.41 114.932 218.289C114.979 218.677 114.958 219.072 114.873 219.453C115.67 217.686 116.089 215.757 116.089 213.816C116.089 213.329 116.063 212.841 116.009 212.355C115.965 211.957 115.904 211.562 115.825 211.17C115.399 209.052 114.475 207.036 113.143 205.351C112.503 204.996 111.969 204.44 111.646 203.775C111.53 203.534 111.44 203.276 111.397 203.013C111.469 203.023 111.671 201.896 111.616 201.827C111.718 201.67 111.9 201.593 112.011 201.44C112.562 200.681 113.322 200.813 113.719 201.845C114.567 202.279 114.575 202.999 114.055 203.692C113.724 204.133 113.678 204.729 113.388 205.201C113.418 205.24 113.449 205.277 113.479 205.316C114.027 206.029 114.5 206.796 114.9 207.601C114.787 206.706 114.953 205.628 115.238 204.933C115.561 204.141 116.167 203.474 116.701 202.789C117.342 201.967 118.656 202.326 118.769 203.368L118.773 203.399C118.693 203.444 118.616 203.492 118.54 203.543C118.107 203.834 118.257 204.515 118.769 204.595L118.781 204.597C118.752 204.887 118.703 205.174 118.632 205.457C119.316 208.145 117.838 209.124 115.727 209.168C115.681 209.192 115.635 209.216 115.589 209.239C115.803 209.85 115.973 210.477 116.1 211.113C116.214 211.674 116.292 212.242 116.337 212.812C116.392 213.531 116.387 214.254 116.327 214.972L116.331 214.946C116.482 214.156 116.905 213.417 117.519 212.905C118.434 212.143 119.727 211.862 120.714 211.248C121.189 210.953 121.797 211.335 121.714 211.894L121.71 211.921C121.563 211.981 121.42 212.052 121.282 212.13C121.202 212.176 121.125 212.224 121.049 212.275C120.616 212.566 120.766 213.246 121.278 213.327L121.29 213.329L121.314 213.332C121.062 213.94 120.71 214.504 120.271 214.99C119.843 217.337 118.004 217.559 116.037 216.876H116.036C115.821 217.827 115.506 218.756 115.103 219.641H111.769C111.757 219.603 111.747 219.565 111.736 219.527C112.044 219.546 112.355 219.528 112.658 219.471C112.411 219.163 112.164 218.853 111.916 218.545C111.91 218.539 111.906 218.533 111.901 218.526C111.775 218.369 111.649 218.212 111.523 218.055L111.523 218.055C111.515 217.571 111.572 217.088 111.686 216.62L111.686 216.62V216.62Z" fill="#F2F2F2"/>
<path d="M224.723 220.556L222.664 220.555L221.684 212.493L224.724 212.493L224.723 220.556Z" fill="#FFB6B6"/>
<path d="M224.796 222.736L218.464 222.736V222.655C218.464 221.273 219.567 220.153 220.928 220.153H220.928L222.085 219.262L224.243 220.153H224.796L224.796 222.736V222.736Z" fill="#2F2E41"/>
<path d="M251.419 209.094L250.089 210.69L243.393 206.242L245.356 203.887L251.419 209.094Z" fill="#FFB6B6"/>
<path d="M253.106 210.446L249.017 215.354L248.956 215.301C247.916 214.409 247.787 212.83 248.666 211.775L248.666 211.775L248.743 210.304L250.806 209.206L251.163 208.778L253.106 210.446V210.446Z" fill="#2F2E41"/>
<path d="M234.776 161.255L223.737 162.555L219.386 170.122L218.762 172.655L219.045 174.397L218.346 175.611L218.762 177.933L217.099 196.299L221.674 216.988H225.937L224.585 197.777L228.121 181.31L231.24 197.355L245.667 210.108L249.027 205.218L237.895 195.666L236.855 192.288L238.257 189.432L239.351 170.544L234.776 161.255Z" fill="#2F2E41"/>
<path d="M229.521 168.178C229.521 168.178 236.481 170.378 237.214 167.889C237.948 165.4 237.032 162.323 236.339 161.996C235.645 161.669 236.468 159.523 237.238 158.089C238.007 156.655 237.889 155.866 237.447 155.694C237.005 155.522 230.114 138.152 230.114 138.152L227.771 137.652L225.893 135.312L221.905 135.801L220.274 138.864L217.542 140.333L216.545 149.654C216.545 149.654 217.035 153.648 218.034 157.85C218.345 159.157 218.705 160.485 219.115 161.718C220.081 164.624 221.322 167.008 222.846 167.381C227.098 168.421 229.521 168.178 229.521 168.178V168.178Z" fill="#6C63FF"/>
<path d="M205.772 151.829L204.352 152.094L204.023 152.155L203.496 152.255L192.536 154.303C191.961 154.683 191.207 154.621 190.698 154.151C190.112 153.601 190.077 152.671 190.619 152.076C190.628 152.066 190.638 152.058 190.647 152.048C191.214 151.446 192.153 151.413 192.761 151.972C192.819 152.029 192.873 152.089 192.921 152.154L193.217 152.056L194.144 151.749L194.845 151.518L196.24 151.055L196.781 150.876L198.534 150.296L200.225 149.737L202.273 149.059L203.848 148.537L204.162 149.075L205.772 151.829V151.829Z" fill="#FFB6B6"/>
<path d="M208.362 152.279C208.055 152.313 207.853 152.322 207.782 152.306C207.194 152.162 207.845 151.772 206.545 152.336C205.49 152.792 205.401 151.972 205.249 152.322C204.997 152.899 204.642 152.312 204.352 152.094C204.223 151.996 204.11 151.974 204.023 152.155C203.992 152.216 203.966 152.303 203.944 152.421C203.876 152.773 203.706 152.633 203.496 152.255C203.151 151.628 202.701 150.35 202.444 149.573C202.368 149.353 202.311 149.172 202.273 149.059C202.247 148.976 202.233 148.928 202.233 148.928C202.233 148.928 202.315 148.688 202.715 148.48C202.994 148.332 203.432 148.201 204.108 148.178C204.523 148.163 204.848 148.251 205.099 148.285C205.247 148.306 205.369 148.307 205.467 148.26L205.47 148.259C205.579 148.209 205.663 148.102 205.726 147.898C205.839 147.53 206.312 147.575 206.781 147.695C207.222 147.811 207.662 147.991 207.792 147.952C207.979 147.896 212.943 143.443 216.113 140.587C217.562 139.282 219.771 139.385 221.096 140.82L222.444 142.279C222.444 142.279 223.309 142.86 223.466 143.949C223.531 144.407 223.47 144.957 223.163 145.596C222.893 146.154 222.431 146.782 221.699 147.47C218.59 150.398 210.625 152.029 208.362 152.279V152.279Z" fill="#6C63FF"/>
<path d="M239.339 153.286L239.864 154.652L239.985 154.968L240.182 155.474L244.232 166.013C244.708 166.515 244.79 167.278 244.432 167.874C244.01 168.562 243.117 168.773 242.44 168.345C242.428 168.338 242.419 168.329 242.407 168.322C241.717 167.871 241.509 166.941 241.934 166.229C241.978 166.161 242.027 166.096 242.08 166.035L241.93 165.759L241.458 164.892L241.102 164.237L240.39 162.934L240.115 162.429L239.223 160.791L238.363 159.211L237.321 157.297L236.518 155.825L236.979 155.411L239.339 153.286V153.286Z" fill="#FFB6B6"/>
<path d="M239.285 150.62C239.377 150.919 239.423 151.119 239.421 151.192C239.393 151.805 238.893 151.231 239.684 152.42C240.324 153.386 239.548 153.629 239.915 153.715C240.521 153.857 240.02 154.322 239.864 154.652C239.794 154.798 239.793 154.916 239.985 154.968C240.05 154.987 240.139 154.997 240.258 154.996C240.611 154.998 240.508 155.194 240.182 155.474C239.64 155.936 238.488 156.627 237.785 157.03C237.586 157.147 237.422 157.238 237.32 157.297C237.245 157.339 237.201 157.362 237.201 157.362C237.201 157.362 236.954 157.325 236.676 156.966C236.481 156.715 236.272 156.304 236.122 155.635C236.029 155.224 236.053 154.883 236.038 154.626C236.03 154.475 236.008 154.353 235.944 154.264L235.943 154.262C235.874 154.162 235.755 154.098 235.545 154.074C235.168 154.031 235.122 153.551 235.149 153.061C235.178 152.6 235.27 152.127 235.208 152.005C235.076 151.745 230.545 147.133 230.545 147.133L226.953 138.47C226.953 138.47 227.351 137.498 228.375 137.136C228.807 136.985 229.35 136.941 230.026 137.127C230.617 137.291 231.311 137.632 232.116 138.232C235.534 140.779 238.617 148.411 239.286 150.62H239.285Z" fill="#6C63FF"/>
<path d="M222.612 134.782C225.26 134.782 227.407 132.603 227.407 129.914C227.407 127.226 225.26 125.047 222.612 125.047C219.964 125.047 217.817 127.226 217.817 129.914C217.817 132.603 219.964 134.782 222.612 134.782Z" fill="#FFB6B6"/>
<path d="M226.677 133.756C226.677 133.756 225.088 134.419 224.298 134.512C224.695 133.89 225.247 132.782 225.643 132.162C225.85 131.836 226.062 131.502 226.156 131.127C226.25 130.75 226.208 130.318 225.955 130.029C225.711 129.749 225.286 129.652 224.95 129.8C224.611 129.947 224.388 130.326 224.418 130.695C224.12 130.58 224.054 130.175 224.109 129.855C224.164 129.535 224.293 129.208 224.203 128.895C224.117 128.592 223.832 128.378 223.529 128.299C223.228 128.22 222.91 128.257 222.602 128.316C221.722 128.48 220.866 128.819 219.969 128.83C219.792 128.833 219.613 128.817 219.433 128.786C219.584 128.288 219.576 127.739 219.383 127.257C219.2 127.71 218.931 128.126 218.598 128.481C218.229 128.268 217.937 127.955 217.808 127.543C217.665 127.088 217.747 126.583 217.943 126.149C218.033 125.95 218.146 125.762 218.274 125.585C218.402 125.593 218.534 125.587 218.661 125.569C218.942 125.534 219.213 125.448 219.46 125.305C219.204 125.237 218.956 125.142 218.721 125.018C218.732 125.005 218.741 124.993 218.752 124.98C218.989 124.708 219.245 124.43 219.581 124.31C219.918 124.19 220.357 124.28 220.521 124.604C221.445 123.799 222.695 123.394 223.908 123.507C225.1 123.619 226.241 124.228 227.007 125.166C226.768 125.319 226.557 125.514 226.393 125.748C226.706 125.69 227.026 125.674 227.344 125.699C227.482 126.001 227.529 126.327 227.381 126.614C227.677 126.893 228.269 127.388 227.892 127.477C228.491 128.477 228.706 129.707 228.484 130.855C228.261 132.005 227.604 133.061 226.677 133.756V133.756Z" fill="#2F2E41"/>
<path d="M161.97 220.315L164.523 220.314L165.738 210.317L161.97 210.317L161.97 220.315Z" fill="#A0616A"/>
<path d="M161.88 223.018L169.732 223.018V222.917C169.732 221.204 168.364 219.815 166.676 219.815H166.676L165.241 218.711L162.565 219.815L161.88 219.815L161.88 223.018V223.018Z" fill="#2F2E41"/>
<path d="M140.498 218.069L142.915 218.905L147.244 209.841L143.677 208.607L140.498 218.069Z" fill="#A0616A"/>
<path d="M139.553 220.599L146.985 223.171L147.017 223.076C147.562 221.454 146.708 219.691 145.111 219.138L145.111 219.138L144.105 217.623L141.221 217.791L140.572 217.567L139.553 220.599H139.553Z" fill="#2F2E41"/>
<path d="M168.327 165.842C168.327 165.842 170.784 173.501 170.331 174.509C169.877 175.517 169.104 174.732 169.877 175.517C170.651 176.303 171.326 175.468 170.602 176.802C169.877 178.135 168.78 189.114 168.297 189.645C167.814 190.177 167.15 190.191 167.74 190.708C168.33 191.224 169.104 190.177 168.33 191.224C167.556 192.271 165.503 216.427 165.503 216.427H161.493C161.493 216.427 160.494 215.258 161.06 214.497C161.625 213.737 161.01 213.444 161.06 212.936C161.109 212.428 160.921 211.333 160.886 210.833C160.851 210.334 160.174 198.431 161.802 191.555L158.833 178.463L155.236 194.287C155.236 194.287 149.465 205.972 147.811 210.239C147.811 210.239 149.145 211.367 148.553 212.02C147.962 212.673 147.446 212.15 147.962 212.673C148.477 213.197 147.188 215.029 147.188 215.029L141.241 214.768L147.748 191.555C147.748 191.555 147.33 188.969 147.748 188.526C148.166 188.083 148.166 189.653 148.166 188.083V185.988C148.166 185.988 148.409 173.108 148.441 172.349C148.473 171.591 151.568 166.093 151.568 166.093L168.327 165.842V165.842Z" fill="#2F2E41"/>
<path d="M168.228 139.389V154.491C168.228 154.491 167.479 156.578 167.494 159.026C167.51 161.593 168.066 164.552 168.065 165.845C168.065 166.069 168.049 166.24 168.01 166.354C165.548 173.599 152.518 167.016 151.334 166.399C151.277 166.371 151.247 166.354 151.247 166.354L151.504 158.24L151.46 155.906L151.156 139.9L151.429 139.678L153.819 137.743L154.053 137.554L154.771 138.617L161.172 138.17L163.615 137.484L164.377 137.799L167.813 139.217L168.228 139.389V139.389Z" fill="#3F3D56"/>
<path d="M187.479 159.651L183.853 156.576L181.833 158.434L185.781 161.546C185.809 161.699 185.859 161.849 185.934 161.994C186.339 162.779 187.295 163.082 188.069 162.671C188.842 162.259 189.141 161.289 188.736 160.504C188.477 160.003 187.995 159.699 187.479 159.651V159.651Z" fill="#A0616A"/>
<path d="M164.994 139.081C164.152 140.274 164.701 142.207 165.195 143.586C165.829 145.359 173.518 153.08 175.483 153.492C177.007 153.811 176.68 153.778 177.081 154.772C177.483 155.766 176.285 155.48 177.757 156.217C179.229 156.953 179.49 156.374 179.56 157.161C179.631 157.947 179.187 158.226 180.236 158.605C181.286 158.985 181.469 159.285 181.8 159.492C182.131 159.7 183.948 161.674 183.948 161.674C183.948 161.674 185.857 159.436 187.372 158.9C187.372 158.9 184.907 157.541 184.928 156.905C184.949 156.268 185.301 155.839 184.583 155.667C183.864 155.496 183.216 156.11 183.681 155.195C184.146 154.28 179.977 150.461 179.977 150.461C178.437 146.927 174.367 143.137 169.827 139.3C168.447 138.134 166.47 138.045 164.994 139.081L164.994 139.081Z" fill="#3F3D56"/>
<path d="M149.713 169.462L149.51 164.67L146.797 164.406L147.189 169.464C147.098 169.588 147.022 169.727 146.967 169.88C146.668 170.714 147.091 171.635 147.912 171.938C148.732 172.242 149.64 171.812 149.939 170.979C150.129 170.448 150.025 169.881 149.713 169.462V169.462Z" fill="#A0616A"/>
<path d="M152.549 139.433L152.473 139.442C151.037 139.614 149.778 140.494 149.106 141.794C148.243 143.463 145.51 154.769 146.179 156.321C146.803 157.768 146.777 157.412 146.324 158.383C145.87 159.354 145.272 158.262 145.727 159.863C146.182 161.464 146.78 161.269 146.254 161.852C145.729 162.434 145.227 162.289 145.658 163.332C146.089 164.375 145.993 164.714 146.065 165.103C146.137 165.491 145.924 168.183 145.924 168.183C145.924 168.183 148.839 168.109 150.25 168.884C150.25 168.884 149.579 166.119 150.056 165.706C150.534 165.294 151.084 165.269 150.725 164.614C150.366 163.96 149.482 163.887 150.461 163.62C151.441 163.352 151.413 157.652 151.413 157.652L152.549 139.433V139.433Z" fill="#3F3D56"/>
<path d="M159.538 133.327C159.424 133.353 159.309 133.377 159.195 133.395C158.839 133.453 158.484 133.471 158.137 133.45C157.085 133.395 156.092 133 155.289 132.349C154.441 131.663 153.807 130.693 153.542 129.539C152.917 126.814 154.587 124.088 157.271 123.454C159.917 122.827 162.562 124.463 163.238 127.118C163.248 127.159 163.259 127.198 163.268 127.24C163.893 129.966 162.224 132.691 159.538 133.327V133.327Z" fill="#A0616A"/>
<path d="M154.93 132.729C154.236 132.177 154.168 131.125 153.576 130.462C152.585 129.354 152.119 128.162 152.638 126.848C153.097 125.687 153 124.259 153.988 123.512C153.503 123.333 153.389 122.963 153.817 122.956C154.106 122.951 155.183 123.512 154.665 122.813C154.147 122.115 155.128 122.391 155.063 122.105C154.998 121.819 154.582 121.661 154.398 121.887C154.984 121.19 156.264 121.339 156.679 122.152C157.263 121.264 157.883 120.652 158.777 121.216C159.655 121.77 159.643 122.454 160.587 122.29C161.031 122.213 161.073 123.064 161.376 123.401C161.679 123.739 162.122 124.001 162.564 123.916C163.007 123.831 163.345 123.271 163.097 122.89L164.14 125.304L164.56 124.781C165.227 125.223 165.008 126.376 164.336 126.81C163.664 127.245 162.381 126.24 162.017 126.96C161.442 128.093 160.093 127.521 159.167 126.72C158.043 125.748 156.688 128.702 157.229 130.096C156.667 129.536 155.629 130.001 155.338 130.743C155.047 131.485 155.26 132.321 155.476 133.089L154.93 132.729H154.93Z" fill="#2F2E41"/>
<path d="M164.44 137.799L164.266 138.024L163.798 138.628L162.065 143.823L153.881 137.743L154.115 137.554L155.362 134.865L161.763 134.418L163.678 137.484L164.44 137.799Z" fill="#E6E6E6"/>
<path d="M246.555 55.6089C249.486 50.1343 251.389 44.7667 252.069 39.8157C249.351 39.4932 246.948 39.7179 244.849 40.4332C248.462 34.3203 250.875 26.7922 247.735 22.9276C245.757 20.7973 243.201 19.2025 240.18 18.1432C241.157 13.5532 241.169 9.25285 240.055 5.47217C234.889 -12.13 200.693 19.5833 178.87 5.85697C169.721 0.104613 159.873 7.35259 151.897 19.0081C152.991 22.884 155.011 26.4861 157.849 29.3147C154.234 29.0529 150.677 27.9738 147.512 26.1807C138.976 41.7279 133.818 61.1907 136.401 69.9898C138.077 75.6986 142.091 79.5348 147.723 81.5104C146.746 86.1004 167.856 119.049 171.746 119.015C182.087 118.924 185.302 95.0807 192.206 125.636L184.516 173.303L176.826 220.971H199.102V122.653C205.301 112.938 211.703 119.436 226.459 111.874C271.719 88.6826 252.424 63.121 246.555 55.6089Z" fill="#00FF67"/>
<path d="M60.6796 185.233L61.0397 192.294L64.3462 193.212C64.3462 193.212 62.9321 184.944 62.8437 184.695C63.0466 184.394 63.1572 184.026 63.1334 183.634C63.0766 182.699 62.284 181.988 61.3632 182.046C60.4424 182.104 59.742 182.908 59.7988 183.843C59.8358 184.452 60.1861 184.964 60.6796 185.233H60.6796Z" fill="#FFB6B6"/>
<path d="M48.7813 201.016L48.7032 201.183C48.4413 201.246 48.4843 201.171 48.7813 201.016Z" fill="#6C63FF"/>
<path d="M62.9638 199.513C61.17 199.017 59.3254 198.882 57.5745 198.957C55.7182 199.033 53.9713 199.346 52.5175 199.711C52.2478 198.771 51.9938 197.775 51.8101 196.835L53.7876 195.53L55.9644 194.756L60.5213 193.137L60.4626 190.626L60.9433 190.4L63.6438 189.135L63.7064 189.107L65.6487 194.454C66.3951 196.617 65.1523 198.957 62.9638 199.513H62.9638Z" fill="#6C63FF"/>
<path d="M99.1766 72.146C98.3878 64.5779 87.6986 64.7954 90.0832 57.5103C85.5459 59.5534 81.372 62.3978 77.8595 65.9762C87.4876 33.9983 50.2039 58.3179 50.2039 58.3179C50.2039 58.3179 39.9026 53.8125 36.9975 51.7697C25.3967 43.7534 7.4872 63.6735 22.3628 74.4535C5.81845 66.5255 4.42975 78.8147 1.56086 93.1035C2.65512 96.9794 4.6756 100.582 7.51353 103.411C2.84292 103.15 -1.70046 99.727 0.630732 106.673C4.82218 115.218 11.8455 116.769 10.4367 127.383C10.5417 136.612 28.4511 138.979 47.9381 137.023C36.8166 169.177 30.7722 199.021 36.0988 223.692H55.1693C48.5803 193.947 47.1372 164.791 52.8075 136.449C74.4389 133.525 96.3527 125.61 96.8598 116.097C99.4626 109.194 98.5637 101.561 94.937 94.3611C99.2985 86.2166 101.002 78.3695 99.1766 72.146H99.1766Z" fill="#00FF67" fill-opacity="0.19"/>
<path d="M53.2031 203.413L53.867 206.309C53.867 206.309 53.8735 208.979 54.3393 209.471C54.8018 209.961 64.9731 208.977 64.9731 208.977C64.9731 208.977 63.8947 204.675 63.9091 201.419L53.2031 203.413Z" fill="#FFB6B6"/>
<path d="M92.4338 229.837L94.1845 228.556L90.107 220.908L87.5231 222.799L92.4338 229.837Z" fill="#FFB6B6"/>
<path d="M99.1841 226.14C99.1528 226.096 99.1215 226.057 99.0864 226.017C98.9848 225.91 98.8597 225.827 98.7268 225.779L98.719 225.775C98.5666 225.715 98.4025 225.7 98.2383 225.723L97.5153 225.838L94.7171 226.279L94.127 226.374L93.064 225.239L92.6536 225.684L91.2389 227.223L90.8794 227.612L90.6019 227.913L94.0215 232.245L95.1939 231.115L94.3537 229.79L95.9404 230.397L96.8353 229.532L97.4332 228.961L99.0512 227.402C99.2114 227.247 99.3052 227.052 99.3404 226.846C99.3795 226.604 99.3287 226.35 99.1841 226.14H99.1841Z" fill="#2F2E41"/>
<path d="M91.3873 222.63L88.2202 224.069C84.9391 220.547 81.6375 216.022 79.5688 208.622C74.8433 214.833 70.6803 218.349 65.029 221.432C63.1206 222.482 56.2169 222.858 55.1428 220.894C55.0926 220.802 55.0459 220.708 55.0027 220.613C54.0153 218.405 54.8883 212.656 54.3298 209.736C56.3703 205.934 61.349 209.005 64.7546 207.508L68.5649 209.189L75.632 200.659C77.0532 198.944 79.5981 198.756 81.3163 200.24C81.407 200.318 81.4944 200.4 81.5783 200.486C83.0029 202.939 84.3641 205.351 85.6062 207.684C86.0071 208.437 87.2691 209.449 86.7698 209.917C86.2706 210.386 87.5442 211.46 87.9052 212.214C90.1279 216.857 91.0571 219.232 91.3873 222.63H91.3873Z" fill="#2F2E41"/>
<path d="M51.7251 185.081L55.9197 184.83C56.2823 184.808 56.6186 185.022 56.7571 185.363L57.9425 188.28L62.869 192.414C62.869 192.414 64.8196 194.933 64.8241 198.187C64.8286 201.442 64.7546 207.508 64.7546 207.508C64.7546 207.508 62.6694 204.906 60.9123 205.988C60.6134 206.172 60.5083 206.548 60.1951 206.738C60.0389 206.833 59.6781 206.741 59.5204 206.836C57.0992 208.295 54.672 209.402 54.3381 209.471C53.0844 209.729 52.6917 208.746 53.5382 207.378C53.8145 206.931 53.313 206.472 53.313 206.472C52.676 206.118 52.4379 205.616 52.881 204.861L49.4733 192.152C49.0641 190.625 49.314 188.978 50.2163 187.689C50.4846 187.305 50.7656 187.02 51.0268 186.973C51.6132 186.846 51.3013 185.512 51.7251 185.081V185.081Z" fill="#6C63FF"/>
<path d="M102.082 230.837L102.879 228.803L95.3563 224.646L94.1806 227.649L102.082 230.837Z" fill="#FFB6B6"/>
<path d="M99.5019 226.39L98.5578 230.044C92.1644 228.356 85.576 224.39 78.8956 219.347C71.5228 221.663 64.5294 223.05 58.1705 222.268C56.0185 222.01 54.3968 219.966 54.6316 217.732C54.6426 217.627 54.6575 217.524 54.6762 217.42C55.1197 215.038 58.8218 212.946 60.0186 210.232L67.8883 212.134L68.4729 213.67L70.2452 213.194L71.7415 212.793L73.4544 212.333L79.0696 210.827C81.2006 210.256 83.3848 211.59 83.9481 213.807C83.9778 213.924 84.0026 214.042 84.0224 214.161L91.7994 220.305C91.7994 220.305 92.4934 221.952 93.0267 221.274C93.56 220.597 94.559 222.485 94.559 222.485L99.5019 226.39V226.39Z" fill="#2F2E41"/>
<path d="M107.864 225.656C107.571 225.537 107.235 225.573 106.973 225.751L103.51 228.096L102.076 227.517L101.845 228.231L101.122 230.448L100.947 230.992L105.843 233.467L106.441 231.94L105.128 231.095L106.82 230.972L108.403 226.926C108.599 226.426 108.356 225.854 107.864 225.656V225.656Z" fill="#2F2E41"/>
<path d="M47.1779 176.759C47.069 177.257 46.9501 177.775 46.6274 178.165C46.3047 178.555 45.7109 178.765 45.2876 178.491C44.77 178.157 44.8113 177.39 44.9144 176.776L45.2414 174.829C45.3037 174.458 45.3682 174.08 45.5372 173.745C45.7062 173.409 45.9992 173.117 46.3639 173.048C46.7497 172.974 47.1528 173.167 47.4101 173.468C47.6674 173.769 47.7967 174.163 47.8599 174.556C48.0277 175.599 47.7522 176.708 47.1171 177.546L47.1779 176.759V176.759Z" fill="#2F2E41"/>
<path d="M45.6358 173.968C44.9377 173.103 43.4822 173.233 42.7067 174.027C41.9311 174.82 41.7387 176.044 41.8763 177.153C42.0135 178.261 42.5887 182.813 42.7701 183.686C42.9972 184.779 41.3051 185.577 40.2231 185.371C40.3084 186.137 40.818 186.819 41.4835 187.191C42.1494 187.561 42.9501 187.637 43.695 187.49C43.9964 187.431 44.2922 187.335 44.5716 187.203C44.4453 186.873 44.3669 186.523 44.3444 186.168C44.4888 186.482 44.6903 186.767 44.9341 187.008C45.3302 186.765 45.6794 186.448 45.9468 186.065C46.4711 185.315 46.6563 184.312 46.364 183.44C46.0237 182.422 45.1277 181.72 44.4923 180.86C43.8562 180 43.531 178.657 44.3111 177.929C44.9052 177.375 44.8696 177.497 45.6662 177.626L45.6358 173.968L45.6358 173.968Z" fill="#2F2E41"/>
<path d="M56.127 177.601C56.127 180.275 53.9912 182.444 51.3565 182.444C48.7218 182.444 46.2189 179.344 46.2189 176.67C46.2189 173.995 48.7218 172.758 51.3565 172.758C53.9912 172.758 56.127 174.926 56.127 177.601V177.601Z" fill="#2F2E41"/>
<path d="M52.7949 183.498C55.3086 183.498 57.3463 181.43 57.3463 178.878C57.3463 176.326 55.3086 174.258 52.7949 174.258C50.2813 174.258 48.2436 176.326 48.2436 178.878C48.2436 181.43 50.2813 183.498 52.7949 183.498Z" fill="#FFB6B6"/>
<path d="M58.5123 178.16C57.165 178.533 55.8047 178.925 55.2793 178.16C55.1766 177.653 54.9839 177.167 54.7087 176.733C54.6573 177.221 54.5436 177.701 54.3729 178.16C53.7812 178.268 52.9581 178.268 52.9581 178.268C52.7655 178.605 51.8842 179.163 51.8531 179.567C51.7852 179.522 51.7136 179.487 51.6402 179.453C51.5485 179.414 51.4402 179.381 51.3503 179.427C51.2824 179.463 51.2439 179.539 51.231 179.615C51.2182 179.692 51.2292 179.77 51.2421 179.848C51.2806 180.111 51.3228 180.385 51.4714 180.604C51.576 180.761 51.7521 180.884 51.932 180.904C52.1228 181.994 52.5447 183.467 52.5447 183.467C47.9576 183.653 46.5859 180.216 46.5859 177.228L47.1364 176.111H48.9712V173.69H54.1087C56.5399 173.69 58.5123 175.692 58.5123 178.16L58.5123 178.16Z" fill="#2F2E41"/>
<path d="M67.1636 213.95C66.2294 213.888 65.5219 213.069 65.5833 212.12C65.5895 212.025 65.6051 211.932 65.6258 211.842L54.7534 203.558L57.598 202.277L67.7803 210.592C68.5107 210.823 69.0189 211.537 68.9664 212.346C68.905 213.294 68.0978 214.013 67.1636 213.95V213.95Z" fill="#FFB6B6"/>
<path d="M64.8944 207.677L64.4137 207.844L61.6781 208.792C61.6781 208.792 61.6195 208.764 61.5139 208.712C60.4236 208.169 54.2761 205.07 53.9088 203.987C53.729 203.456 53.092 201.698 52.5175 199.711C52.2478 198.771 51.9938 197.775 51.8101 196.835C51.5131 195.327 51.4037 193.955 51.7124 193.161C52.6191 190.832 54.6904 191.431 54.6904 191.431L55.9644 194.756L57.5746 198.957L58.876 202.353C60.5877 202.817 62.6824 204.999 64.8944 207.677H64.8944Z" fill="#6C63FF"/>
<path d="M61.8695 181.355C61.8187 181.355 61.768 181.363 61.721 181.371C61.6546 181.295 61.5686 181.24 61.4631 181.212C61.4162 181.196 61.3615 181.192 61.3068 181.192L57.8481 181.283C57.8208 181.283 57.7895 181.287 57.766 181.291C57.6449 181.315 57.5394 181.379 57.4651 181.466C57.4378 181.494 57.4143 181.526 57.3948 181.561C57.3205 181.688 57.301 181.847 57.3518 182.006C57.1532 183.599 57.2273 185.123 57.9536 186.484C58.0279 186.711 58.2428 186.865 58.4773 186.861L60.7245 186.802C60.7362 186.802 60.7479 186.802 60.7597 186.798C60.9824 186.778 61.1739 186.623 61.2325 186.401C61.783 185.23 61.8991 184.077 61.5491 182.946C61.6585 182.997 61.7836 183.025 61.9086 183.021C62.2369 183.013 62.5144 182.811 62.6356 182.529C62.6864 182.418 62.7137 182.295 62.7098 182.168C62.6981 181.708 62.319 181.343 61.8696 181.355H61.8695ZM61.9047 182.783C61.7992 182.787 61.7015 182.759 61.6155 182.712L61.7914 182.073L61.8422 181.887C61.8695 181.787 61.8657 181.688 61.8422 181.597C61.8539 181.597 61.8657 181.593 61.8774 181.593C62.1978 181.585 62.4675 181.847 62.4753 182.172C62.4753 182.24 62.4675 182.307 62.448 182.367C62.3737 182.605 62.1627 182.775 61.9047 182.783V182.783Z" fill="#3F3D56"/>
<path d="M57.7643 181.292C57.838 181.72 58.6664 182.021 59.6625 181.968C60.5785 181.926 61.3275 181.599 61.4647 181.212C61.4168 181.197 61.3631 181.191 61.3082 181.191L57.8496 181.282C57.8199 181.284 57.7901 181.286 57.7643 181.292V181.292Z" fill="#6C63FF"/>
</g>
<defs>
<clipPath id="clip0_119_149">
<rect width="280" height="240.41" rx="63" fill="white"/>
</clipPath>
</defs>
</svg>
