<svg width="280" height="241" viewBox="0 0 280 241" fill="none" xmlns="http://www.w3.org/2000/svg">
<g clip-path="url(#clip0_119_225)">
<path d="M64.3473 89.9595L37.7742 104.223L38.081 104.798L64.6541 90.5343L64.3473 89.9595Z" fill="#3F3D56"/>
<path d="M276.003 62.2998L241.529 80.8047L241.82 81.3497L276.294 62.8448L276.003 62.2998Z" fill="#3F3D56"/>
<path d="M205.427 71.5744L205.136 72.1194L239.615 90.6151L239.906 90.07L205.427 71.5744Z" fill="#3F3D56"/>
<path d="M195.933 177.176C203.801 177.176 210.179 164.125 210.179 148.025C210.179 131.925 203.801 118.874 195.933 118.874C188.066 118.874 181.688 131.925 181.688 148.025C181.688 164.125 188.066 177.176 195.933 177.176Z" fill="#00FF67"/>
<path d="M195.921 149.281L196.005 149.439L208.885 142.525L208.595 141.98L195.948 148.769C196.648 135.85 198.079 127.178 198.108 127.007L197.5 126.904C197.469 127.09 195.768 137.389 195.164 152.291L182.409 145.443L182.118 145.989L194.998 152.903L195.152 152.614C194.669 164.914 194.94 180.293 197.5 195.699L198.108 195.598C195.316 178.8 195.255 162.034 195.921 149.281Z" fill="#3F3D56"/>
<path d="M268.116 211.936C192.237 187.846 123.432 189.13 79.0743 194.448C31.0178 200.21 0.523479 211.813 0.221188 211.93L0 211.353C0.303194 211.236 30.8693 199.606 79.0011 193.834C107.313 190.444 135.879 189.711 164.327 191.645C199.643 194.043 234.548 200.657 268.302 211.347L268.116 211.936Z" fill="#3F3D56"/>
<path d="M97.5358 205.128C97.5358 205.128 97.7486 200.656 102.111 201.176L97.5358 205.128Z" fill="#3F3D56"/>
<path d="M96.3032 200.872C97.509 200.872 98.4866 199.892 98.4866 198.682C98.4866 197.473 97.509 196.493 96.3032 196.493C95.0973 196.493 94.1198 197.473 94.1198 198.682C94.1198 199.892 95.0973 200.872 96.3032 200.872Z" fill="#6C63FF"/>
<path d="M96.5642 202.37H95.9479V206.697H96.5642V202.37Z" fill="#3F3D56"/>
<path d="M177.041 206.055C177.041 206.055 177.254 201.583 181.616 202.103L177.041 206.055Z" fill="#3F3D56"/>
<path d="M175.808 201.799C177.014 201.799 177.991 200.819 177.991 199.61C177.991 198.4 177.014 197.42 175.808 197.42C174.602 197.42 173.625 198.4 173.625 199.61C173.625 200.819 174.602 201.799 175.808 201.799Z" fill="#6C63FF"/>
<path d="M176.069 203.297H175.453V207.624H176.069V203.297Z" fill="#3F3D56"/>
<path d="M46.0733 198.329C46.0733 198.329 46.2861 193.857 50.6486 194.377L46.0733 198.329Z" fill="#3F3D56"/>
<path d="M44.8407 194.073C46.0465 194.073 47.0241 193.093 47.0241 191.883C47.0241 190.674 46.0465 189.694 44.8407 189.694C43.6348 189.694 42.6573 190.674 42.6573 191.883C42.6573 193.093 43.6348 194.073 44.8407 194.073Z" fill="#6C63FF"/>
<path d="M45.1017 195.571H44.4854V199.897H45.1017V195.571Z" fill="#3F3D56"/>
<path d="M79.6626 192.457C79.6626 192.457 79.8754 187.985 84.2379 188.505L79.6626 192.457Z" fill="#3F3D56"/>
<path d="M78.43 188.201C79.6358 188.201 80.6133 187.221 80.6133 186.011C80.6133 184.802 79.6358 183.822 78.43 183.822C77.2241 183.822 76.2466 184.802 76.2466 186.011C76.2466 187.221 77.2241 188.201 78.43 188.201Z" fill="#6C63FF"/>
<path d="M78.691 189.699H78.0747V194.025H78.691V189.699Z" fill="#3F3D56"/>
<path d="M163.79 200.801C163.79 200.801 164.003 196.329 168.365 196.849L163.79 200.801Z" fill="#3F3D56"/>
<path d="M162.557 196.546C163.763 196.546 164.741 195.565 164.741 194.356C164.741 193.146 163.763 192.166 162.557 192.166C161.351 192.166 160.374 193.146 160.374 194.356C160.374 195.565 161.351 196.546 162.557 196.546Z" fill="#6C63FF"/>
<path d="M162.818 198.043H162.202V202.37H162.818V198.043Z" fill="#3F3D56"/>
<path d="M258.549 191.836L271.233 210.697L259.424 222.54L257.893 219.469L260.517 213.329C260.517 213.329 260.08 207.627 258.549 206.092C257.019 204.556 250.24 195.345 250.24 195.345L258.549 191.836Z" fill="#FFB8B8"/>
<path d="M242.367 130.868C242.367 130.868 244.772 134.686 239.743 151.134C239.743 151.134 263.203 190.843 259.485 193.475C255.768 196.107 245.708 201.931 243.084 200.176C240.46 198.422 221.374 138.983 221.374 138.983L242.367 130.868Z" fill="#2F2E41"/>
<path d="M268.936 207.298L272.763 211.136C274.731 213.11 276.043 215.961 272.326 218.373C268.608 220.785 255.706 229.777 251.333 226.926C246.959 224.075 256.581 221.443 256.581 221.443C256.581 221.443 258.172 215.527 259.017 216.84C259.861 218.154 259.861 220.785 259.861 220.785L268.936 207.298Z" fill="#2F2E41"/>
<path d="M222.686 202.144C222.686 202.144 215.689 215.083 215.689 216.618C215.689 218.154 216.126 222.54 216.126 222.54L202.787 225.829L198.194 223.636L199.725 219.689C199.725 219.689 208.035 216.838 209.784 211.355C211.534 205.872 213.502 200.17 213.502 200.17L222.686 202.144Z" fill="#FFB8B8"/>
<path d="M230.777 73.4091C235.85 73.4091 239.962 69.2852 239.962 64.1981C239.962 59.111 235.85 54.9871 230.777 54.9871C225.705 54.9871 221.593 59.111 221.593 64.1981C221.593 69.2852 225.705 73.4091 230.777 73.4091Z" fill="#FFB8B8"/>
<path d="M228.372 72.0933L232.757 84.7288L242.367 80.4271C242.367 80.4271 235.807 70.3388 235.807 69.0229L228.372 72.0933Z" fill="#FFB8B8"/>
<path d="M227.06 117.052H238.65C238.65 117.052 246.959 129.772 242.148 143.15C241.412 145.198 240.68 148.068 239.95 151.461C238.272 159.263 236.6 169.833 234.888 179.545C232.482 193.187 229.994 205.138 227.29 205.355C221.823 205.793 211.192 205.72 211.192 203.527C211.192 201.334 218.313 137.886 218.313 137.886L219.843 135.255L220.133 123.791C220.178 121.982 220.929 120.263 222.224 119.003C223.519 117.743 225.255 117.043 227.06 117.052Z" fill="#2F2E41"/>
<path d="M215.579 216.509C215.579 216.509 218.094 220.785 217.438 223.856C216.782 226.926 215.688 226.487 210.878 226.926C206.067 227.365 189.666 227.365 189.666 224.294C189.666 221.224 202.46 217.237 202.514 218.463C202.568 219.689 203.005 222.101 201.693 222.54C200.381 222.978 201.584 222.649 201.584 222.649L215.579 216.509Z" fill="#2F2E41"/>
<path d="M228.374 144.425C228.374 144.425 227.422 160.004 221.078 155.366C214.733 150.728 223.55 142.351 223.55 142.351L228.374 144.425Z" fill="#FFB8B8"/>
<path d="M241.037 123.907C241.342 124.045 241.678 124.097 242.01 124.058C242.343 124.019 242.658 123.889 242.922 123.684C243.306 123.382 243.561 122.945 243.637 122.462C244.555 117.158 245.672 102.456 246.315 95.0209C247.122 85.692 243.09 78.4664 243.056 78.4225L240.68 75.146C240.433 74.8036 240.078 74.5551 239.673 74.441C239.267 74.3268 238.835 74.3537 238.447 74.5173C238.447 74.5173 231.029 82.2357 231.002 82.5337C230.885 83.8133 230.002 86.6491 225.401 91.2641C220.366 96.3135 220.338 100.721 220.449 101.951C220.457 102.032 220.461 102.113 220.461 102.194C220.451 102.746 220.526 103.296 220.682 103.825C222.791 110.493 221.14 118.476 218.488 126.809C218.387 127.186 218.406 127.584 218.541 127.95C218.677 128.315 218.922 128.629 219.243 128.848C220.018 129.377 219.089 128.593 219.365 128.932C221.193 131.179 223.823 128.048 226.832 124.632C227.88 123.442 229.068 122.093 230.468 120.689C232.393 118.759 236.071 123.164 237.781 123.164C238.907 123.178 240.016 123.431 241.037 123.907Z" fill="#575A89"/>
<path d="M242.057 81.8243C242.057 81.8243 246.86 85.8872 244.131 91.1564C241.402 96.4255 241.765 100.312 241.765 100.312C241.765 100.312 241.038 136.509 232.511 134.75L228.632 145.491L221.626 142.955L225.677 133.482C225.677 133.482 222.433 133.279 223.381 131.062C224.047 129.505 227.634 112.606 229.711 102.685C230.591 98.4804 231.199 95.529 231.199 95.529C231.199 95.529 233.96 80.7281 242.057 81.8243Z" fill="#575A89"/>
<path opacity="0.2" d="M243.064 100.219L240.363 117.992L241.82 98.9878L243.064 100.219Z" fill="black"/>
<path d="M220.757 60.117C220.757 60.117 219.213 48.0655 231.811 52.0174C231.811 52.0174 240.809 50.3617 243.76 61.6494L246.748 73.4817L245.292 72.6868L244.613 74.1751L242.253 74.7744L241.244 72.7644L240.755 75.2053L221.428 77.1375C221.428 77.1375 230.085 72.0036 230.222 62.8023L228.573 64.5497L220.757 60.117Z" fill="#2F2E41"/>
<path opacity="0.2" d="M235.129 180.238L239.439 151.439L235.934 182.528L235.129 180.238Z" fill="black"/>
<path d="M242.172 57.0093C244.856 57.0093 247.032 54.8272 247.032 52.1355C247.032 49.4438 244.856 47.2617 242.172 47.2617C239.488 47.2617 237.313 49.4438 237.313 52.1355C237.313 54.8272 239.488 57.0093 242.172 57.0093Z" fill="#2F2E41"/>
<path d="M237.165 50.9423C237.245 49.7058 237.792 48.5462 238.694 47.6999C239.596 46.8536 240.787 46.3841 242.022 46.3871C241.922 46.3743 241.822 46.3588 241.72 46.3522C241.083 46.3108 240.444 46.3956 239.84 46.602C239.235 46.8083 238.678 47.132 238.198 47.5546C237.718 47.9772 237.327 48.4905 237.045 49.065C236.763 49.6395 236.597 50.2641 236.556 50.903C236.515 51.542 236.6 52.1827 236.806 52.7887C237.012 53.3947 237.335 53.954 237.757 54.4348C238.179 54.9155 238.691 55.3082 239.264 55.5904C239.837 55.8727 240.459 56.0389 241.097 56.0796C241.199 56.0862 241.299 56.0836 241.401 56.0839C240.175 55.9281 239.054 55.3097 238.267 54.3544C237.48 53.3991 237.086 52.1789 237.165 50.9423Z" fill="#2F2E41"/>
<path opacity="0.2" d="M228.304 105.758L224.028 128.74L229.57 103.356L228.304 105.758Z" fill="black"/>
<path d="M228.571 70.836L226.078 72.7203C223.512 71.425 221.587 68.4281 220.887 65.5677L223.603 64.1935C223.816 67.111 225.881 69.0506 228.571 70.836Z" fill="white"/>
<path d="M229.605 64.6087H223.396C223.341 64.6087 223.289 64.5868 223.25 64.5479C223.211 64.509 223.189 64.4562 223.189 64.4011C223.189 64.3461 223.211 64.2933 223.25 64.2543C223.289 64.2154 223.341 64.1935 223.396 64.1935H229.605C229.66 64.1935 229.713 64.2154 229.752 64.2543C229.791 64.2933 229.812 64.3461 229.812 64.4011C229.812 64.4562 229.791 64.509 229.752 64.5479C229.713 64.5868 229.66 64.6087 229.605 64.6087Z" fill="white"/>
<path d="M228.364 70.836C228.33 70.836 228.296 70.8277 228.267 70.8118C228.237 70.7959 228.211 70.7729 228.192 70.7448C228.173 70.7167 228.161 70.6844 228.158 70.6507C228.154 70.6169 228.159 70.5828 228.172 70.5514L229.827 66.3998C229.837 66.3745 229.852 66.3513 229.871 66.3317C229.89 66.3121 229.913 66.2965 229.938 66.2857C229.963 66.2749 229.99 66.2692 230.017 66.2688C230.044 66.2685 230.071 66.2735 230.096 66.2836C230.122 66.2938 230.145 66.3088 230.164 66.3279C230.184 66.347 230.199 66.3697 230.21 66.3948C230.221 66.4199 230.226 66.4469 230.226 66.4742C230.227 66.5015 230.222 66.5286 230.211 66.5539L228.556 70.7054C228.54 70.744 228.514 70.777 228.48 70.8003C228.445 70.8235 228.405 70.836 228.364 70.836Z" fill="white"/>
<path d="M230.023 67.0614C230.862 67.0614 231.542 66.1068 231.542 64.9291C231.542 63.7515 230.862 62.7969 230.023 62.7969C229.184 62.7969 228.504 63.7515 228.504 64.9291C228.504 66.1068 229.184 67.0614 230.023 67.0614Z" fill="#FFB8B8"/>
<path d="M123.014 71.3522L139.188 75.0642L146.022 62.1382L132.192 56.723L123.014 71.3522Z" fill="#2F2E41"/>
<path d="M131.607 140.935C131.607 140.935 126.408 152.884 126.408 156.36C126.408 156.36 128.466 165.811 127.816 168.418L125.542 173.306L120.776 171.351L119.476 158.316L119.693 137.459L131.607 140.935Z" fill="#FFB9B9"/>
<path d="M134.532 69.4577C134.532 69.4577 134.965 76.6272 134.099 78.7998C133.232 80.9723 137.348 85.1002 137.348 85.1002L143.847 76.6272C143.847 76.6272 139.514 72.2821 140.598 67.5024L134.532 69.4577Z" fill="#FFB9B9"/>
<path d="M120.993 119.101C120.993 119.101 114.71 130.833 120.776 129.964C126.842 129.095 124.784 118.775 124.784 118.775" fill="#FFB8B8"/>
<path d="M124.784 118.775L126.841 98.2442L126.733 85.7521L121.967 86.6208V98.1354L120.993 119.101" fill="#FFB9B9"/>
<path d="M119.584 169.83L128.9 166.137L129.983 184.604C129.983 184.604 131.932 190.252 131.282 192.425C131.282 192.425 131.716 196.118 130.633 196.335C129.549 196.553 126.517 196.987 126.3 196.77C126.083 196.553 126.083 195.901 126.083 195.901C126.083 195.901 123.917 197.422 123.7 199.16C123.7 199.16 114.602 201.984 114.385 199.377C114.169 196.77 118.935 194.597 118.935 194.597L122.617 188.949L119.584 169.83Z" fill="#7F7FF2"/>
<path d="M150.996 140.935C150.996 140.935 145.797 152.884 145.797 156.36C145.797 156.36 147.855 165.811 147.205 168.418L144.93 173.306L140.164 171.351L138.865 158.316L139.081 137.459L150.996 140.935Z" fill="#FFB9B9"/>
<path d="M139.298 169.83L148.613 166.137L149.696 184.604C149.696 184.604 151.646 190.252 150.996 192.425C150.996 192.425 151.429 196.118 150.346 196.335C149.263 196.553 146.23 196.987 146.013 196.77C145.797 196.553 145.797 195.901 145.797 195.901C145.797 195.901 143.63 197.422 143.414 199.16C143.414 199.16 134.315 201.984 134.099 199.377C133.882 196.77 138.648 194.597 138.648 194.597L142.331 188.949L139.298 169.83Z" fill="#7F7FF2"/>
<path d="M143.632 64.4619C143.631 66.1728 143.001 67.8234 141.863 69.0978C140.725 70.3722 139.158 71.1809 137.462 71.3692C135.767 71.5575 134.061 71.1122 132.673 70.1184C131.284 69.1247 130.309 67.6523 129.935 65.983C129.821 65.4841 129.764 64.9737 129.766 64.4619C129.767 62.6186 130.498 60.8512 131.798 59.5483C133.098 58.2453 134.861 57.5134 136.699 57.5134C138.537 57.5134 140.3 58.2453 141.6 59.5483C142.9 60.8512 143.631 62.6186 143.632 64.4619Z" fill="#FFB9B9"/>
<path d="M137.565 78.3653L142.944 75.5636L145.363 77.4962C145.363 77.4962 151.212 77.279 153.379 79.886C155.545 82.4931 156.736 89.1194 156.736 89.1194C156.736 89.1194 149.588 87.5986 150.454 93.6818L149.154 90.2057L147.963 93.1387L133.449 98.1356L126.95 87.0555C126.95 87.0555 122.617 85.752 121.101 88.7936C121.101 88.7936 121.426 77.8221 125.65 77.4962C128.491 77.2771 130.633 77.279 130.633 77.279L133.016 76.8444L134.542 76.3013L137.565 78.3653Z" fill="#575A89"/>
<path d="M146.772 102.155C146.772 102.155 158.145 136.373 154.895 141.152C154.895 141.152 142.764 147.236 118.501 138.98L128.358 100.634C134.413 99.3923 140.55 99.8992 146.772 102.155Z" fill="#6C63FF"/>
<path d="M146.771 102.155L149.972 91.1235C146.133 86.9358 149.447 77.6496 149.447 77.6496L144.814 76.654C144.814 76.654 140.164 89.2281 135.398 87.7073C130.633 86.1865 133.232 76.41 133.232 76.41L128.9 76.8445L126.95 84.4485L128.358 100.634C134.23 100.129 140.389 100.717 146.771 102.155Z" fill="#575A89"/>
<path d="M152.404 118.775L153.92 98.1354L154.354 85.7521L149.588 86.6208V98.1354L148.613 119.101" fill="#FFB9B9"/>
<path d="M148.613 119.101C148.613 119.101 142.331 130.833 148.396 129.964C154.462 129.095 152.404 118.775 152.404 118.775" fill="#FFB8B8"/>
<path d="M156.737 89.1194C156.737 89.1194 155.966 77.9621 149.528 78.0007V90.9037C149.528 90.9037 154.354 88.0332 156.737 89.1194Z" fill="#575A89"/>
<path d="M138.916 66.256C138.879 66.256 138.843 66.2446 138.813 66.2234C138.783 66.2021 138.761 66.1721 138.749 66.1374C138.736 66.1027 138.735 66.0651 138.746 66.0298C138.756 65.9944 138.776 65.9631 138.805 65.9402L142.341 63.1036C142.359 63.0889 142.38 63.0779 142.402 63.0713C142.424 63.0647 142.448 63.0625 142.471 63.065C142.494 63.0676 142.517 63.0746 142.537 63.0859C142.557 63.0971 142.575 63.1123 142.59 63.1306C142.605 63.1489 142.615 63.1698 142.622 63.1923C142.628 63.2148 142.63 63.2383 142.628 63.2616C142.625 63.2848 142.618 63.3073 142.606 63.3277C142.595 63.3482 142.58 63.3661 142.561 63.3806L139.026 66.2172C138.995 66.2423 138.956 66.256 138.916 66.256Z" fill="white"/>
<path d="M139.183 70.5108C139.105 70.6066 139.028 70.7023 138.946 70.7909C138.008 71.2175 136.987 71.4291 135.957 71.4103C134.928 71.3915 133.915 71.1429 132.993 70.6824C132.071 70.222 131.263 69.5613 130.627 68.7484C129.992 67.9355 129.545 66.9908 129.319 65.983L132.669 65.3649L139.183 65.983C137.691 67.8055 137.871 68.4366 139.183 70.5108Z" fill="#FFB8B8"/>
<path d="M132.784 54.73C132.784 54.73 129.201 55.4059 128.373 59.8874C128.243 60.6432 128.22 61.4134 128.303 62.1757C128.385 63.0383 128.265 64.8603 126.398 67.0057C125.179 68.3972 124.043 69.8597 122.997 71.3857L126.741 72.3852L128.414 66.1644C129.225 63.1484 130.474 60.2686 132.121 57.6176L132.156 57.5623C132.156 57.5623 133.399 60.8944 136.732 61.3512L135.704 59.9943C135.704 59.9943 139.601 62.253 141.808 62.943C142.06 63.0218 142.285 63.1681 142.461 63.366C142.636 63.5639 142.754 63.806 142.802 64.0662C142.85 64.3264 142.827 64.5948 142.734 64.8426C142.641 65.0904 142.483 65.3081 142.276 65.4723C142.26 65.4846 142.244 65.497 142.228 65.5093C140.604 66.746 137.292 69.6969 138.601 72.5515C139.909 75.4061 138.383 75.9266 138.383 75.9266L141.197 74.853L142.485 74.2999L142.355 75.2549L148.642 75.387C148.642 75.387 150.341 75.3767 147.323 70.8286C147.323 70.8286 146.595 69.1232 147.193 67.8204C147.673 66.8337 147.911 65.7468 147.89 64.6493C147.7 60.064 145.774 50.7355 132.784 54.73Z" fill="#2F2E41"/>
<path d="M44.5893 185.341C44.5893 185.341 44.5893 214.844 37.8378 222.582C37.8378 222.582 36.391 226.451 35.9088 227.902C35.6391 228.728 35.317 229.536 34.9443 230.32V232.255C34.9443 232.255 21.9234 230.804 20.4767 227.419L22.8879 224.517C22.8879 224.517 23.3702 224.033 22.8879 222.582C22.4057 221.131 23.8525 221.131 23.8525 221.131L27.2282 213.393L26.746 181.472L29.1572 137.46L49.8941 136.493L44.5893 185.341Z" fill="#2F2E41"/>
<path d="M33.9798 229.353C33.9798 229.353 37.3555 239.51 33.9798 239.993C30.604 240.477 1.18657 240.961 1.66883 237.092C2.15108 233.222 11.7961 233.706 11.7961 233.706L21.9234 227.419L33.9798 229.353Z" fill="#2F2E41"/>
<path d="M63.8794 137.46C63.8794 137.46 64.8439 143.748 60.9859 150.519C57.1279 157.29 59.5391 180.021 59.5391 180.021L93.7791 210.007C93.7791 210.007 87.0275 221.615 84.6163 221.131C82.205 220.648 44.107 189.694 44.107 189.694L29.1572 139.395L63.8794 137.46Z" fill="#2F2E41"/>
<path d="M93.3085 208.726C93.3085 208.726 103.67 211.304 102.27 214.422C100.87 217.54 85.5286 242.718 82.5282 240.238C79.5277 237.758 85.0985 229.847 85.0985 229.847L85.2249 217.903L93.3085 208.726Z" fill="#2F2E41"/>
<path d="M56.1633 47.5025C56.1671 50.0505 55.2938 52.5217 53.6908 54.4984C52.4233 56.0739 50.7501 57.2716 48.8526 57.9618C46.9551 58.652 44.9054 58.8085 42.9255 58.4143C41.9342 58.2221 40.9747 57.891 40.0754 57.4307C38.6471 56.7087 37.3915 55.6853 36.3948 54.4306C35.3981 53.176 34.684 51.7199 34.3014 50.1624C34.0859 49.2923 33.9777 48.399 33.9791 47.5025C33.9791 44.5522 35.1478 41.7227 37.2279 39.6366C39.3081 37.5504 42.1294 36.3784 45.0712 36.3784C48.013 36.3784 50.8343 37.5504 52.9145 39.6366C54.9947 41.7227 56.1633 44.5522 56.1633 47.5025Z" fill="#A0616A"/>
<path d="M53.7988 51.4266L53.3082 65.741L43.9753 69.4392C43.9753 69.4392 43.06 54.7823 41.768 53.9697C40.4761 53.1571 53.7988 51.4266 53.7988 51.4266Z" fill="#A0616A"/>
<path d="M41.6958 71.2004C41.6958 71.2004 54.7166 58.142 58.0924 58.6256C61.4681 59.1092 61.4681 60.5602 61.4681 61.5275C61.4681 62.4948 60.5036 62.9784 61.4681 63.4621C62.4326 63.9457 63.3971 63.4621 63.3971 64.913C63.3971 66.364 72.0777 80.8734 69.1842 96.8338C66.2907 112.794 62.9149 120.532 64.3617 129.238C65.8084 137.944 64.8439 139.878 64.8439 139.878C64.8439 139.878 28.675 142.78 28.1927 139.395C27.7105 136.009 29.6395 137.944 27.2282 135.526C24.817 133.107 25.7815 133.107 25.7815 131.656C25.7815 130.205 36.391 71.2004 41.6958 71.2004Z" fill="#00FF67" fill-opacity="0.87"/>
<path d="M48.4473 136.976C48.4473 136.976 42.6603 151.002 38.32 147.617C33.9797 144.231 40.249 132.624 40.249 132.624L48.4473 136.976Z" fill="#A0616A"/>
<path d="M62.4326 72.1677C62.4326 72.1677 73.7632 73.4687 69.5447 94.3405C65.3262 115.212 48.9296 139.395 48.9296 139.395L37.8378 134.075L52.3053 105.539L48.9296 87.6445C48.9296 87.6445 47.0006 70.7168 62.4326 72.1677Z" fill="#00FF67" fill-opacity="0.72"/>
<path opacity="0.2" d="M52.5466 105.781L36.632 132.382L38.0788 133.833L52.5466 105.781Z" fill="black"/>
<path opacity="0.2" d="M60.9701 118.177L48.2062 139.153H52.5466L60.9701 118.177Z" fill="black"/>
<path opacity="0.2" d="M32.1378 156.296L31.4966 156.541L44.1871 189.911L44.8283 189.665L32.1378 156.296Z" fill="black"/>
<path d="M41.7642 73.8559C42.143 73.8559 42.4502 73.5479 42.4502 73.1679C42.4502 72.7879 42.143 72.4799 41.7642 72.4799C41.3853 72.4799 41.0781 72.7879 41.0781 73.1679C41.0781 73.5479 41.3853 73.8559 41.7642 73.8559Z" fill="#D0CDE1"/>
<path d="M35.9328 92.4325C36.0061 92.4325 36.0774 92.409 36.1364 92.3653C36.1954 92.3217 36.2388 92.2602 36.2604 92.19L42.0917 73.2695C42.1051 73.2264 42.1099 73.181 42.1058 73.1359C42.1017 73.0909 42.0888 73.0471 42.0678 73.0071C42.0468 72.9671 42.0181 72.9316 41.9834 72.9027C41.9488 72.8738 41.9087 72.8521 41.8656 72.8387C41.8226 72.8254 41.7773 72.8206 41.7324 72.8249C41.6875 72.8291 41.6439 72.8421 41.604 72.8633C41.5642 72.8844 41.5289 72.9132 41.5001 72.948C41.4714 72.9829 41.4498 73.0231 41.4365 73.0663L35.6052 91.9871C35.5894 92.0385 35.5859 92.093 35.5949 92.146C35.6039 92.1991 35.6252 92.2493 35.657 92.2926C35.6889 92.336 35.7304 92.3712 35.7783 92.3955C35.8262 92.4198 35.8791 92.4325 35.9328 92.4326V92.4325Z" fill="#D0CDE1"/>
<path d="M42.8473 56.0223L40.0754 58.6669C37.2207 57.2262 34.4633 53.344 33.6851 50.1624L37.322 48.6339C37.5594 51.879 39.8562 54.0364 42.8473 56.0223Z" fill="#A0616A"/>
<path d="M43.5384 50.0192C43.5275 50.0193 43.5165 50.0185 43.5056 50.017L37.0594 49.0934C37.0295 49.0891 37.0006 49.079 36.9746 49.0636C36.9486 49.0481 36.9258 49.0277 36.9077 49.0035C36.8895 48.9792 36.8763 48.9516 36.8688 48.9223C36.8612 48.8929 36.8595 48.8623 36.8638 48.8323C36.868 48.8023 36.8782 48.7734 36.8935 48.7473C36.9089 48.7212 36.9293 48.6984 36.9535 48.6801C36.9776 48.6619 37.0052 48.6487 37.0344 48.6411C37.0637 48.6336 37.0942 48.6319 37.1241 48.6361L43.5704 49.5597C43.628 49.5679 43.6804 49.5977 43.7171 49.6431C43.7537 49.6885 43.7718 49.7461 43.7677 49.8044C43.7637 49.8626 43.7378 49.9172 43.6952 49.957C43.6527 49.9969 43.5967 50.0191 43.5384 50.0192Z" fill="white"/>
<path d="M42.6171 56.0223C42.5769 56.0224 42.5374 56.0118 42.5025 55.9918C42.4676 55.9717 42.4386 55.9429 42.4183 55.908C42.398 55.8732 42.3871 55.8337 42.3868 55.7934C42.3865 55.7531 42.3968 55.7134 42.4166 55.6782L44.5524 51.865C44.5672 51.8385 44.587 51.8151 44.6108 51.7963C44.6346 51.7775 44.6618 51.7636 44.691 51.7554C44.7201 51.7472 44.7506 51.7448 44.7806 51.7484C44.8107 51.752 44.8398 51.7615 44.8662 51.7764C44.8925 51.7913 44.9157 51.8113 44.9344 51.8352C44.9531 51.8591 44.9669 51.8865 44.975 51.9157C44.9831 51.945 44.9854 51.9755 44.9817 52.0057C44.978 52.0358 44.9684 52.0649 44.9535 52.0914L42.8176 55.9046C42.7977 55.9403 42.7686 55.9701 42.7333 55.9908C42.698 56.0115 42.6579 56.0224 42.6171 56.0223Z" fill="white"/>
<path d="M50.0918 54.186C49.1939 53.7099 48.1508 53.6117 47.1789 53.3158C43.7016 52.2569 41.3722 48.3147 42.1159 44.7473C42.2533 44.2897 42.315 43.8127 42.2985 43.3351C42.1685 42.2785 41.0905 41.5968 40.0568 41.3547C39.0232 41.1127 37.9233 41.1478 36.9353 40.7585C35.4099 40.1575 34.3965 38.5853 34.1769 36.9564C33.9572 35.3275 34.4392 33.6662 35.223 32.2226L35.5964 33.3002C36.1658 32.8168 36.5885 32.1827 36.8164 31.4702C37.2407 31.5418 37.6397 31.7213 37.975 31.9918C38.3103 32.2622 38.5708 32.6144 38.7315 33.0147C39.3308 33.3692 39.4171 31.9136 40.0791 31.6989C40.3564 31.609 40.6414 31.7798 40.9054 31.9033C42.2394 32.5272 43.7893 31.9938 45.2202 31.6479C47.6981 31.0518 50.2811 31.0487 52.7604 31.639C54.4075 32.033 56.0379 32.7191 57.2165 33.9384C58.1845 34.9398 58.7876 36.2347 59.3011 37.5308C60.5652 40.7215 61.4004 44.1739 60.983 47.5816C60.6355 50.3702 59.4722 52.9931 57.64 55.1194C56.6855 56.2223 53.5714 60.07 51.8639 59.414C49.7184 58.5897 52.6198 55.5265 50.0918 54.186Z" fill="#2F2E41"/>
</g>
<defs>
<clipPath id="clip0_119_225">
<rect width="280" height="240.41" rx="63" fill="white"/>
</clipPath>
</defs>
</svg>
